<svg width="597" height="398" viewBox="0 0 597 398" fill="none" xmlns="http://www.w3.org/2000/svg">
<path d="M536.292 265.861H392.418C389.845 265.861 387.752 263.768 387.752 261.195V51.629C387.752 49.0564 389.845 46.9629 392.418 46.9629H536.292C538.865 46.9629 540.958 49.0556 540.958 51.629V261.194C540.958 263.768 538.865 265.861 536.292 265.861ZM392.418 47.1627C389.954 47.1627 387.951 49.167 387.951 51.6298V261.195C387.951 263.659 389.955 265.662 392.418 265.662H536.292C538.756 265.662 540.759 263.659 540.759 261.195V51.629C540.759 49.1662 538.755 47.1619 536.292 47.1619L392.418 47.1627Z" fill="#E0E0E0"/>
<path d="M370.384 265.861H226.51C223.937 265.861 221.844 263.768 221.844 261.195V51.629C221.844 49.0564 223.936 46.9629 226.51 46.9629H370.385C372.957 46.9629 375.051 49.0556 375.051 51.629V261.194C375.05 263.768 372.956 265.861 370.384 265.861ZM226.51 47.1627C224.047 47.1627 222.043 49.167 222.043 51.6298V261.195C222.043 263.659 224.047 265.662 226.51 265.662H370.385C372.848 265.662 374.852 263.659 374.852 261.195V51.629C374.852 49.1662 372.847 47.1619 370.385 47.1619L226.51 47.1627Z" fill="#E0E0E0"/>
<path d="M204.581 265.861H60.7072C58.1345 265.861 56.041 263.768 56.041 261.195V51.629C56.041 49.0564 58.1337 46.9629 60.7072 46.9629H204.581C207.154 46.9629 209.247 49.0556 209.247 51.629V261.194C209.248 263.768 207.154 265.861 204.581 265.861ZM60.7072 47.1627C58.2443 47.1627 56.24 49.167 56.24 51.6298V261.195C56.24 263.659 58.2443 265.662 60.7072 265.662H204.581C207.045 265.662 209.048 263.659 209.048 261.195V51.629C209.048 49.1662 207.044 47.1619 204.581 47.1619L60.7072 47.1627Z" fill="#E0E0E0"/>
<path d="M597 290.787H0V290.883H597V290.787Z" fill="#E0E0E0"/>
<path d="M562.897 305.455H518.537V305.79H562.897V305.455Z" fill="#E0E0E0"/>
<path d="M403.948 309.09H392.305V309.425H403.948V309.09Z" fill="#E0E0E0"/>
<path d="M88.452 295.27H30.6035V295.605H88.452V295.27Z" fill="#E0E0E0"/>
<path d="M108.858 295.27H100.377V295.605H108.858V295.27Z" fill="#E0E0E0"/>
<path d="M261.884 300.924H136.424V301.259H261.884V300.924Z" fill="#E0E0E0"/>
<path d="M526.39 344.151C526.378 343.777 525.12 306.656 519.082 300.784C513.209 295.075 506.468 300.572 506.186 300.808L505.58 300.083C505.656 300.018 513.263 293.809 519.741 300.107C526.05 306.242 527.285 342.577 527.334 344.122L526.39 344.151Z" fill="#E0E0E0"/>
<path d="M526.907 351.447C526.863 351.004 522.78 306.883 538.893 288.391L539.606 289.011C523.76 307.196 527.805 350.916 527.848 351.355L526.907 351.447Z" fill="#E0E0E0"/>
<path d="M526.312 346.781L525.368 346.718C525.402 346.218 528.522 296.559 516.703 285.688L517.342 284.992C529.492 296.169 526.447 344.719 526.312 346.781Z" fill="#E0E0E0"/>
<path d="M527.851 346.752L526.906 346.745C526.918 345.378 527.296 313.202 536.435 307.966C538.467 306.8 540.457 306.606 542.349 307.388C547.875 309.675 550.614 319.51 550.727 319.927L549.816 320.176C549.789 320.078 547.085 310.37 541.986 308.262C540.379 307.598 538.67 307.774 536.905 308.785C528.233 313.754 527.854 346.423 527.851 346.752Z" fill="#E0E0E0"/>
<path d="M524.291 346.775L523.348 346.722C523.362 346.468 524.727 321.296 517.933 312.427C516.287 310.279 514.5 309.254 512.613 309.386C508.161 309.698 504.429 316.211 504.391 316.277L503.568 315.812C503.731 315.525 507.587 308.791 512.545 308.444C514.763 308.286 516.831 309.435 518.683 311.853C525.691 321 524.352 345.728 524.291 346.775Z" fill="#E0E0E0"/>
<path d="M525.781 350.2C525.596 347.758 521.34 290.282 528.828 280.154L529.587 280.715C522.306 290.564 526.678 349.534 526.723 350.128L525.781 350.2Z" fill="#E0E0E0"/>
<path d="M544.384 313.213C544.384 313.213 539.891 314.869 541.227 318.778C542.562 322.688 556.768 329.123 556.768 329.123C556.768 329.123 562.717 323.671 557.253 314.802C551.79 305.933 544.505 310.415 544.384 313.213Z" fill="#EBEBEB"/>
<path d="M524.854 305.771C524.854 305.771 529.638 305.57 529.91 309.694C530.181 313.816 519.547 325.222 519.547 325.222C519.547 325.222 511.957 322.478 513.587 312.19C515.217 301.902 523.665 303.235 524.854 305.771Z" fill="#EBEBEB"/>
<path d="M520.805 286.036C520.805 286.036 523.995 285.693 523.737 283.75C523.48 281.807 511.339 276.808 504.176 284.893C504.176 284.893 508.762 292.771 515.393 292.875C522.024 292.978 520.805 286.036 520.805 286.036Z" fill="#EBEBEB"/>
<path d="M526.748 281.317C526.748 281.317 523.86 282.713 523.051 280.929C522.241 279.144 529.901 268.479 540.256 271.553C540.256 271.553 540.531 280.665 534.958 284.259C529.386 287.854 526.748 281.317 526.748 281.317Z" fill="#EBEBEB"/>
<path d="M511.647 311.641C511.647 311.641 513.848 309.864 511.473 308.997C509.098 308.129 497.442 308.376 497.32 319.922C497.32 319.922 510.895 322.178 512.576 317.78C514.256 313.382 511.647 311.641 511.647 311.641Z" fill="#EBEBEB"/>
<path d="M539.329 285.745C539.329 285.745 537.128 283.968 539.503 283.1C541.878 282.233 553.534 282.479 553.655 294.025C553.655 294.025 540.08 296.281 538.4 291.883C536.72 287.486 539.329 285.745 539.329 285.745Z" fill="#EBEBEB"/>
<path d="M532.154 295.047C532.154 295.047 531.961 292.887 533.705 293.734C535.449 294.581 541.526 301.136 535.227 307.357C535.227 307.357 526.748 301.077 528.276 297.807C529.804 294.536 532.154 295.047 532.154 295.047Z" fill="#EBEBEB"/>
<path d="M509.679 298.125C509.679 298.125 510.995 296.401 509.068 296.187C507.141 295.973 498.505 298.278 500.516 306.9C500.516 306.9 511.037 306.109 511.489 302.527C511.939 298.947 509.679 298.125 509.679 298.125Z" fill="#EBEBEB"/>
<path d="M536.694 363.405H515.473L509.828 337.369H541.803L536.694 363.405Z" fill="#F0F0F0"/>
<path d="M543.644 336.992H507.902V344.479H543.644V336.992Z" fill="#E6E6E6"/>
<path d="M483.106 84.4378C482.146 79.8043 480.31 75.4963 477.798 71.6708L482.37 66.1489L472.596 56.3748L467.074 60.9455C463.249 58.4357 458.941 56.5993 454.308 55.6385L453.638 48.5215H439.816L439.145 55.6385C434.512 56.5993 430.205 58.4357 426.379 60.9455L420.857 56.3748L411.084 66.1489L415.655 71.6708C413.145 75.4963 411.308 79.8035 410.347 84.437L403.23 85.108V98.929L410.347 99.6C411.308 104.233 413.145 108.54 415.655 112.366L411.084 117.888L420.857 127.661L426.379 123.089C430.205 125.601 434.512 127.436 439.145 128.397L439.816 135.514H453.638L454.308 128.398C458.941 127.438 463.249 125.601 467.074 123.089L472.596 127.661L482.37 117.888L477.798 112.367C480.31 108.541 482.145 104.234 483.106 99.6008L490.222 98.9298V85.1088L483.106 84.4378ZM465.438 92.0189C465.438 102.353 457.061 110.73 446.727 110.73C436.393 110.73 428.016 102.353 428.016 92.0189C428.016 81.6852 436.393 73.3081 446.727 73.3081C457.061 73.3073 465.438 81.6844 465.438 92.0189Z" fill="#F0F0F0"/>
<path d="M215.948 70.5248C215.171 66.7757 213.685 63.29 211.653 60.1944L215.352 55.7264L207.444 47.8182L202.976 51.5164C199.88 49.4858 196.395 47.9996 192.646 47.222L192.103 41.4629H180.92L180.377 47.222C176.628 47.9996 173.142 49.485 170.047 51.5164L165.579 47.8182L157.671 55.7264L161.37 60.1944C159.338 63.29 157.853 66.7749 157.075 70.5241L151.316 71.0669V82.2499L157.075 82.7928C157.853 86.5412 159.338 90.0261 161.37 93.1225L157.671 97.5904L165.579 105.499L170.047 101.8C173.142 103.832 176.628 105.317 180.377 106.095L180.92 111.854H192.103L192.646 106.096C196.395 105.319 199.88 103.833 202.976 101.8L207.444 105.499L215.352 97.5912L211.653 93.1233C213.685 90.0268 215.171 86.542 215.948 82.7936L221.706 82.2507V71.0677L215.948 70.5248ZM201.651 76.6588C201.651 85.02 194.873 91.7987 186.512 91.7987C178.15 91.7987 171.372 85.02 171.372 76.6588C171.372 68.2968 178.15 61.5189 186.512 61.5189C194.873 61.5189 201.651 68.2968 201.651 76.6588Z" fill="#F0F0F0"/>
<path d="M269.675 250.091C268.898 246.342 267.412 242.856 265.381 239.761L269.08 235.293L261.172 227.385L256.704 231.083C253.608 229.052 250.122 227.566 246.374 226.788L245.832 221.029H234.648L234.105 226.788C230.357 227.566 226.87 229.051 223.776 231.083L219.308 227.385L211.399 235.293L215.098 239.761C213.067 242.856 211.582 246.341 210.804 250.09L205.045 250.633V261.816L210.804 262.359C211.582 266.108 213.067 269.592 215.098 272.689L211.399 277.157L219.308 285.065L223.776 281.366C226.871 283.398 230.357 284.884 234.105 285.661L234.648 291.42H245.832L246.374 285.662C250.122 284.885 253.608 283.399 256.704 281.367L261.172 285.066L269.08 277.158L265.381 272.69C267.413 269.593 268.898 266.108 269.675 262.36L275.434 261.817V250.634L269.675 250.091ZM255.379 256.226C255.379 264.587 248.6 271.366 240.239 271.366C231.877 271.366 225.099 264.587 225.099 256.226C225.099 247.864 231.878 241.086 240.239 241.086C248.6 241.086 255.379 247.864 255.379 256.226Z" fill="#F0F0F0"/>
<path d="M275.057 67.1174C274.693 65.3614 273.997 63.7296 273.046 62.2801L274.778 60.1882L271.075 56.4852L268.983 58.2173C267.533 57.2661 265.901 56.5704 264.145 56.2066L263.891 53.5098H258.655L258.401 56.2066C256.645 56.5704 255.013 57.2661 253.563 58.2173L251.471 56.4852L247.768 60.1882L249.501 62.2801C248.549 63.7296 247.854 65.3614 247.49 67.1174L244.793 67.3713V72.6082L247.49 72.8621C247.854 74.6173 248.549 76.2491 249.501 77.6986L247.768 79.7905L251.471 83.4935L253.563 81.7614C255.013 82.7126 256.645 83.4083 258.401 83.7721L258.655 86.4689H263.891L264.145 83.7721C265.901 83.4083 267.533 82.7126 268.983 81.7606L271.075 83.4927L274.778 79.7897L273.046 77.6978C273.997 76.2483 274.693 74.6165 275.057 72.8605L277.753 72.6066V67.3697L275.057 67.1174ZM268.363 69.9894C268.363 73.9049 265.188 77.0785 261.273 77.0785C257.358 77.0785 254.184 73.9041 254.184 69.9894C254.184 66.0738 257.358 62.8994 261.273 62.8994C265.189 62.9002 268.363 66.0738 268.363 69.9894Z" fill="#F0F0F0"/>
<path d="M248.386 46.6252C248.146 45.4654 247.686 44.3876 247.058 43.43L248.201 42.0482L245.755 39.602L244.373 40.7459C243.416 40.1178 242.338 39.6578 241.178 39.4182L241.01 37.6367H237.552L237.384 39.4182C236.224 39.6586 235.146 40.1178 234.189 40.7459L232.807 39.602L230.361 42.0482L231.505 43.43C230.876 44.3876 230.416 45.4654 230.176 46.6252L228.395 46.7931V50.2517L230.176 50.4197C230.416 51.5795 230.876 52.6572 231.505 53.6148L230.361 54.9967L232.807 57.4428L234.189 56.2989C235.146 56.9278 236.224 57.3871 237.384 57.6275L237.552 59.4089H241.01L241.178 57.6283C242.338 57.3879 243.416 56.9286 244.373 56.2997L245.755 57.4436L248.201 54.9975L247.058 53.6156C247.686 52.658 248.146 51.5802 248.386 50.4205L250.167 50.2525V46.7939L248.386 46.6252ZM243.964 48.5228C243.964 51.109 241.868 53.2057 239.281 53.2057C236.695 53.2057 234.599 51.109 234.599 48.5228C234.599 45.9366 236.695 43.8399 239.281 43.8399C241.868 43.8399 243.964 45.9366 243.964 48.5228Z" fill="#F0F0F0"/>
<path d="M129.513 227.425C129.022 225.057 128.083 222.855 126.8 220.899L129.137 218.076L124.141 213.081L121.319 215.417C119.363 214.134 117.161 213.195 114.793 212.704L114.451 209.066H107.386L107.043 212.704C104.674 213.195 102.472 214.134 100.517 215.417L97.6943 213.081L92.6986 218.076L95.0349 220.899C93.7517 222.855 92.8132 225.056 92.3221 227.425L88.6836 227.768V234.832L92.3221 235.175C92.8132 237.543 93.7517 239.745 95.0349 241.701L92.6986 244.523L97.6943 249.519L100.517 247.182C102.473 248.466 104.674 249.405 107.043 249.896L107.386 253.533H114.451L114.793 249.896C117.161 249.405 119.363 248.466 121.319 247.182L124.141 249.519L129.137 244.523L126.8 241.701C128.084 239.745 129.022 237.543 129.513 235.175L133.151 234.832V227.768L129.513 227.425ZM120.481 231.3C120.481 236.583 116.199 240.865 110.917 240.865C105.634 240.865 101.352 236.583 101.352 231.3C101.352 226.018 105.634 221.736 110.917 221.736C116.199 221.736 120.481 226.018 120.481 231.3Z" fill="#F0F0F0"/>
<path d="M544.938 116.632C544.378 113.933 543.309 111.425 541.847 109.197L544.509 105.981L538.817 100.29L535.601 102.952C533.373 101.49 530.864 100.42 528.167 99.8616L527.777 95.7168H519.728L519.337 99.8616C516.639 100.421 514.13 101.49 511.903 102.952L508.687 100.29L502.996 105.981L505.657 109.197C504.195 111.425 503.126 113.933 502.567 116.632L498.422 117.023V125.071L502.567 125.462C503.126 128.159 504.195 130.668 505.657 132.896L502.996 136.111L508.687 141.803L511.903 139.14C514.13 140.602 516.639 141.671 519.337 142.231L519.728 146.376H527.777L528.167 142.232C530.864 141.673 533.373 140.603 535.601 139.14L538.817 141.803L544.509 136.111L541.847 132.896C543.309 130.668 544.378 128.16 544.938 125.462L549.082 125.071V117.023L544.938 116.632ZM534.649 121.046C534.649 127.064 529.771 131.943 523.753 131.943C517.735 131.943 512.857 127.064 512.857 121.046C512.857 115.029 517.735 110.15 523.753 110.15C529.771 110.15 534.649 115.029 534.649 121.046Z" fill="#F0F0F0"/>
<path d="M534.916 369.337C534.916 372.289 442.841 374.682 329.261 374.682C215.68 374.682 123.605 372.29 123.605 369.337C123.605 366.386 215.68 363.992 329.261 363.992C442.841 363.992 534.916 366.386 534.916 369.337Z" fill="#F5F5F5"/>
<path d="M432.986 318.014H327.336C324.694 318.014 322.553 315.873 322.553 313.231V279.391C322.553 276.749 324.694 274.607 327.336 274.607H432.986C435.628 274.607 437.769 276.749 437.769 279.391V313.231C437.77 315.873 435.628 318.014 432.986 318.014Z" fill="#407BFF"/>
<path opacity="0.7" d="M432.986 318.014H327.336C324.694 318.014 322.553 315.873 322.553 313.231V279.391C322.553 276.749 324.694 274.607 327.336 274.607H432.986C435.628 274.607 437.769 276.749 437.769 279.391V313.231C437.77 315.873 435.628 318.014 432.986 318.014Z" fill="white"/>
<path d="M355.722 308.5H335.275C334.189 308.5 333.309 307.62 333.309 306.534V286.087C333.309 285.001 334.189 284.121 335.275 284.121H355.722C356.807 284.121 357.688 285.001 357.688 286.087V306.534C357.687 307.621 356.806 308.5 355.722 308.5Z" fill="#407BFF"/>
<path opacity="0.3" d="M355.722 308.5H335.275C334.189 308.5 333.309 307.62 333.309 306.534V286.087C333.309 285.001 334.189 284.121 335.275 284.121H355.722C356.807 284.121 357.688 285.001 357.688 286.087V306.534C357.687 307.621 356.806 308.5 355.722 308.5Z" fill="white"/>
<path d="M389.151 308.5H368.704C367.619 308.5 366.738 307.62 366.738 306.534V286.087C366.738 285.001 367.619 284.121 368.704 284.121H389.151C390.237 284.121 391.117 285.001 391.117 286.087V306.534C391.117 307.621 390.237 308.5 389.151 308.5Z" fill="#407BFF"/>
<path d="M422.583 308.5H402.136C401.05 308.5 400.17 307.62 400.17 306.534V286.087C400.17 285.001 401.05 284.121 402.136 284.121H422.583C423.669 284.121 424.549 285.001 424.549 286.087V306.534C424.548 307.621 423.669 308.5 422.583 308.5Z" fill="#407BFF"/>
<path opacity="0.3" d="M422.583 308.5H402.136C401.05 308.5 400.17 307.62 400.17 306.534V286.087C400.17 285.001 401.05 284.121 402.136 284.121H422.583C423.669 284.121 424.549 285.001 424.549 286.087V306.534C424.548 307.621 423.669 308.5 422.583 308.5Z" fill="black"/>
<path d="M428.153 259.351H175.439C170.308 259.351 166.148 255.191 166.148 250.06V81.8163C166.148 76.6845 170.308 72.5254 175.439 72.5254H428.153C433.285 72.5254 437.444 76.6853 437.444 81.8163V250.06C437.444 255.191 433.284 259.351 428.153 259.351Z" fill="#407BFF"/>
<path opacity="0.7" d="M428.153 259.351H175.439C170.308 259.351 166.148 255.191 166.148 250.06V81.8163C166.148 76.6845 170.308 72.5254 175.439 72.5254H428.153C433.285 72.5254 437.444 76.6853 437.444 81.8163V250.06C437.444 255.191 433.284 259.351 428.153 259.351Z" fill="white"/>
<path d="M437.444 86.5593H166.148V78.3247C166.148 75.1208 168.746 72.5234 171.95 72.5234H429.256C433.779 72.5234 437.445 76.1898 437.445 80.7127L437.444 86.5593Z" fill="#7970FF"/>
<path opacity="0.3" d="M426.998 79.5412C426.998 81.1881 425.663 82.5238 424.015 82.5238C422.368 82.5238 421.033 81.1889 421.033 79.5412C421.033 77.8943 422.368 76.5586 424.015 76.5586C425.663 76.5594 426.998 77.8943 426.998 79.5412Z" fill="white"/>
<path opacity="0.3" d="M418.521 79.5412C418.521 81.1881 417.186 82.5238 415.539 82.5238C413.892 82.5238 412.557 81.1889 412.557 79.5412C412.557 77.8943 413.892 76.5586 415.539 76.5586C417.186 76.5594 418.521 77.8943 418.521 79.5412Z" fill="white"/>
<path opacity="0.3" d="M407.063 82.5238C408.71 82.5238 410.045 81.1885 410.045 79.5412C410.045 77.894 408.71 76.5586 407.063 76.5586C405.415 76.5586 404.08 77.894 404.08 79.5412C404.08 81.1885 405.415 82.5238 407.063 82.5238Z" fill="white"/>
<path d="M213.566 66.2734C221.367 66.2734 229.169 66.2734 236.97 66.2734" stroke="#407BFF" stroke-width="0.796" stroke-miterlimit="10" stroke-linecap="round" stroke-linejoin="round"/>
<path d="M243.416 66.2734C245.041 66.2734 246.665 66.2734 248.29 66.2734" stroke="#407BFF" stroke-width="0.796" stroke-miterlimit="10" stroke-linecap="round" stroke-linejoin="round"/>
<path opacity="0.1" d="M398.52 102.84H198.958C194.259 102.84 190.449 106.65 190.449 111.349C190.449 116.049 194.259 119.858 198.958 119.858H398.52C403.22 119.858 407.03 116.049 407.03 111.349C407.03 106.65 403.219 102.84 398.52 102.84Z" fill="black"/>
<path d="M398.52 115.235H198.958C194.259 115.235 190.449 111.426 190.449 106.726C190.449 102.026 194.259 98.2168 198.958 98.2168H398.52C403.22 98.2168 407.03 102.026 407.03 106.726C407.03 111.426 403.219 115.235 398.52 115.235Z" fill="white"/>
<path d="M397.761 106.272C397.761 107.058 397.519 107.789 397.106 108.392C396.43 109.379 395.294 110.027 394.007 110.027C391.933 110.027 390.252 108.346 390.252 106.272C390.252 104.199 391.933 102.518 394.007 102.518C396.08 102.518 397.761 104.198 397.761 106.272Z" stroke="#407BFF" stroke-width="0.796" stroke-miterlimit="10"/>
<path d="M399.456 110.937L396.9 108.934" stroke="#407BFF" stroke-width="0.796" stroke-miterlimit="10" stroke-linecap="round" stroke-linejoin="round"/>
<path d="M346.106 193.081H299.987C298.2 193.081 296.752 191.632 296.752 189.845V143.726C296.752 141.939 298.201 140.49 299.987 140.49H346.106C347.893 140.49 349.341 141.939 349.341 143.726V189.845C349.341 191.632 347.893 193.081 346.106 193.081Z" stroke="#407BFF" stroke-width="0.597" stroke-miterlimit="10"/>
<path d="M297.637 192.195L348.381 141.451" stroke="#407BFF" stroke-width="0.597" stroke-miterlimit="10"/>
<path d="M297.637 141.377L348.381 192.12" stroke="#407BFF" stroke-width="0.597" stroke-miterlimit="10"/>
<path d="M411.74 193.081H365.621C363.833 193.081 362.385 191.632 362.385 189.845V143.726C362.385 141.939 363.833 140.49 365.621 140.49H411.74C413.527 140.49 414.976 141.939 414.976 143.726V189.845C414.975 191.632 413.527 193.081 411.74 193.081Z" stroke="#407BFF" stroke-width="0.597" stroke-miterlimit="10"/>
<path d="M363.271 192.195L414.016 141.451" stroke="#407BFF" stroke-width="0.597" stroke-miterlimit="10"/>
<path d="M363.271 141.377L414.016 192.12" stroke="#407BFF" stroke-width="0.597" stroke-miterlimit="10"/>
<path d="M348.215 202.939H296.713V205.405H348.215V202.939Z" fill="#407BFF"/>
<path d="M348.215 210.311H296.713V212.776H348.215V210.311Z" fill="#407BFF"/>
<path d="M328.405 217.596H296.713V220.061H328.405V217.596Z" fill="#407BFF"/>
<path d="M416.75 202.939H365.248V205.405H416.75V202.939Z" fill="#407BFF"/>
<path d="M416.75 210.311H365.248V212.776H416.75V210.311Z" fill="#407BFF"/>
<path d="M396.94 217.596H365.248V220.061H396.94V217.596Z" fill="#407BFF"/>
<path opacity="0.2" d="M271.691 200.069H195.941C193.771 200.069 192.012 198.31 192.012 196.14V120.529C192.012 118.359 193.771 116.6 195.941 116.6H271.691C273.861 116.6 275.62 118.359 275.62 120.529V196.14C275.621 198.31 273.862 200.069 271.691 200.069Z" fill="black"/>
<path d="M265.592 194.151H189.841C187.671 194.151 185.912 192.392 185.912 190.222V114.611C185.912 112.441 187.671 110.682 189.841 110.682H265.592C267.762 110.682 269.521 112.441 269.521 114.611V190.222C269.521 192.392 267.762 194.151 265.592 194.151Z" fill="#407BFF"/>
<path opacity="0.5" d="M265.592 194.151H189.841C187.671 194.151 185.912 192.392 185.912 190.222V114.611C185.912 112.441 187.671 110.682 189.841 110.682H265.592C267.762 110.682 269.521 112.441 269.521 114.611V190.222C269.521 192.392 267.762 194.151 265.592 194.151Z" fill="white"/>
<path d="M269.521 121.047H185.912V114.363C185.912 112.329 187.561 110.68 189.595 110.68H265.902C267.9 110.68 269.521 112.3 269.521 114.298V121.047Z" fill="#7970FF"/>
<path opacity="0.5" d="M258.144 116.444C258.144 117.657 257.161 118.64 255.948 118.64C254.735 118.64 253.752 117.657 253.752 116.444C253.752 115.232 254.735 114.248 255.948 114.248C257.161 114.248 258.144 115.231 258.144 116.444Z" fill="white"/>
<path opacity="0.5" d="M251.904 116.444C251.904 117.657 250.921 118.64 249.708 118.64C248.496 118.64 247.512 117.657 247.512 116.444C247.512 115.232 248.495 114.248 249.708 114.248C250.921 114.248 251.904 115.231 251.904 116.444Z" fill="white"/>
<path opacity="0.5" d="M245.663 116.444C245.663 117.657 244.68 118.64 243.467 118.64C242.255 118.64 241.271 117.657 241.271 116.444C241.271 115.232 242.255 114.248 243.467 114.248C244.68 114.248 245.663 115.231 245.663 116.444Z" fill="white"/>
<path opacity="0.5" d="M255.589 180.233H199.845C197.164 180.233 194.992 178.061 194.992 175.381V138.609C194.992 134.358 198.438 130.912 202.69 130.912H255.59C258.27 130.912 260.443 133.084 260.443 135.765V175.381C260.442 178.06 258.269 180.233 255.589 180.233Z" fill="white"/>
<path d="M224.684 161.945H210.799L207.925 168.477H204.08L215.912 142.35H219.607L231.476 168.477H227.557L224.684 161.945ZM223.377 158.958L217.741 146.155L212.105 158.958H223.377Z" fill="#407BFF"/>
<path d="M250.509 156.532V168.476H247.113V165.864C245.919 167.656 243.716 168.7 240.618 168.7C236.139 168.7 233.303 166.311 233.303 162.877C233.303 159.705 235.356 157.092 241.252 157.092H246.925V156.383C246.925 153.359 245.171 151.605 241.626 151.605C239.274 151.605 236.886 152.427 235.355 153.733L233.862 151.045C235.914 149.403 238.863 148.508 242.036 148.508C247.448 148.508 250.509 151.12 250.509 156.532ZM246.926 162.43V159.668H241.402C237.856 159.668 236.849 161.049 236.849 162.728C236.849 164.706 238.491 165.939 241.216 165.939C243.903 165.939 246.03 164.706 246.926 162.43Z" fill="#407BFF"/>
<path d="M418.617 235.484H297.055V245.41H418.617V235.484Z" stroke="#407BFF" stroke-width="0.597" stroke-miterlimit="10"/>
<path d="M275.62 209.709H191.26V214.49H275.62V209.709Z" stroke="#407BFF" stroke-width="0.597" stroke-miterlimit="10"/>
<path d="M275.62 220.729H191.26V225.509H275.62V220.729Z" stroke="#407BFF" stroke-width="0.597" stroke-miterlimit="10"/>
<path d="M275.62 231.75H191.26V236.531H275.62V231.75Z" stroke="#407BFF" stroke-width="0.597" stroke-miterlimit="10"/>
<path d="M130.406 150.662H65.6693C63.4994 150.662 61.7402 148.902 61.7402 146.733V93.5462C61.7402 91.3763 63.4994 89.6172 65.6693 89.6172H130.406C132.576 89.6172 134.335 91.3763 134.335 93.5462V146.733C134.335 148.902 132.575 150.662 130.406 150.662Z" fill="#407BFF"/>
<path opacity="0.5" d="M130.406 150.662H65.6693C63.4994 150.662 61.7402 148.902 61.7402 146.733V93.5462C61.7402 91.3763 63.4994 89.6172 65.6693 89.6172H130.406C132.576 89.6172 134.335 91.3763 134.335 93.5462V146.733C134.335 148.902 132.575 150.662 130.406 150.662Z" fill="white"/>
<path d="M134.335 100.26H61.7402V93.2983C61.7402 91.2645 63.3895 89.6152 65.4233 89.6152H130.718C132.716 89.6152 134.336 91.2351 134.336 93.2338L134.335 100.26Z" fill="#7970FF"/>
<path opacity="0.5" d="M130.237 95.7142C130.237 96.9973 129.197 98.0377 127.913 98.0377C126.63 98.0377 125.59 96.9973 125.59 95.7142C125.59 94.431 126.63 93.3906 127.913 93.3906C129.197 93.3906 130.237 94.4302 130.237 95.7142Z" fill="white"/>
<path opacity="0.5" d="M123.631 95.7142C123.631 96.9973 122.591 98.0377 121.308 98.0377C120.025 98.0377 118.984 96.9973 118.984 95.7142C118.984 94.431 120.025 93.3906 121.308 93.3906C122.591 93.3906 123.631 94.4302 123.631 95.7142Z" fill="white"/>
<path opacity="0.5" d="M117.028 95.7142C117.028 96.9973 115.988 98.0377 114.704 98.0377C113.421 98.0377 112.381 96.9973 112.381 95.7142C112.381 94.431 113.421 93.3906 114.704 93.3906C115.988 93.3906 117.028 94.4302 117.028 95.7142Z" fill="white"/>
<path d="M96.8965 125.291L103.192 107.994C105.538 108.847 107.685 110.17 109.504 111.879C111.322 113.589 112.774 115.651 113.771 117.939L96.8965 125.291Z" fill="#F5F5F5"/>
<path d="M96.8969 125.291L102.262 142.899C100.523 143.429 98.715 143.698 96.8969 143.698C86.7989 143.698 78.4902 135.389 78.4902 125.291C78.4902 115.193 86.7997 106.885 96.8969 106.885C99.0151 106.885 101.117 107.25 103.111 107.965L96.8969 125.291Z" fill="#407BFF"/>
<path d="M96.8965 125.291L113.806 118.02C114.794 120.317 115.303 122.791 115.303 125.291C115.303 133.341 110.022 140.501 102.331 142.877L96.8965 125.291Z" fill="#407BFF"/>
<path opacity="0.3" d="M96.8965 125.291L113.806 118.02C114.794 120.317 115.303 122.791 115.303 125.291C115.303 133.341 110.022 140.501 102.331 142.877L96.8965 125.291Z" fill="black"/>
<path d="M521.269 118.639H452.622C450.452 118.639 448.693 116.879 448.693 114.71V58.2357C448.693 56.0658 450.452 54.3066 452.622 54.3066H521.269C523.439 54.3066 525.198 56.0658 525.198 58.2357V114.71C525.198 116.879 523.439 118.639 521.269 118.639Z" fill="#407BFF"/>
<path opacity="0.5" d="M521.269 118.639H452.622C450.452 118.639 448.693 116.879 448.693 114.71V58.2357C448.693 56.0658 450.452 54.3066 452.622 54.3066H521.269C523.439 54.3066 525.198 56.0658 525.198 58.2357V114.71C525.198 116.879 523.439 118.639 521.269 118.639Z" fill="white"/>
<path d="M525.198 65.5227H448.693V57.9878C448.693 55.954 450.342 54.3047 452.376 54.3047H521.58C523.578 54.3047 525.199 55.9245 525.199 57.9233V65.5227H525.198Z" fill="#7970FF"/>
<path opacity="0.5" d="M520.877 60.7317C520.877 62.0841 519.781 63.1802 518.429 63.1802C517.077 63.1802 515.98 62.0841 515.98 60.7317C515.98 59.3793 517.077 58.2832 518.429 58.2832C519.781 58.2824 520.877 59.3785 520.877 60.7317Z" fill="white"/>
<path opacity="0.5" d="M513.917 60.7317C513.917 62.0841 512.82 63.1802 511.468 63.1802C510.116 63.1802 509.02 62.0841 509.02 60.7317C509.02 59.3793 510.116 58.2832 511.468 58.2832C512.82 58.2824 513.917 59.3785 513.917 60.7317Z" fill="white"/>
<path opacity="0.5" d="M506.958 60.7317C506.958 62.0841 505.861 63.1802 504.509 63.1802C503.157 63.1802 502.061 62.0841 502.061 60.7317C502.061 59.3793 503.157 58.2832 504.509 58.2832C505.861 58.2824 506.958 59.3785 506.958 60.7317Z" fill="white"/>
<path d="M512.442 111.392H462.894C461.389 111.392 460.17 110.173 460.17 108.668V76.4915C460.17 74.9871 461.389 73.7676 462.894 73.7676H512.442C513.947 73.7676 515.166 74.9871 515.166 76.4915V108.668C515.166 110.173 513.947 111.392 512.442 111.392Z" fill="#407BFF"/>
<path opacity="0.8" d="M512.442 111.392H462.894C461.389 111.392 460.17 110.173 460.17 108.668V76.4915C460.17 74.9871 461.389 73.7676 462.894 73.7676H512.442C513.947 73.7676 515.166 74.9871 515.166 76.4915V108.668C515.166 110.173 513.947 111.392 512.442 111.392Z" fill="white"/>
<path d="M461.677 110.021L478.853 94.3948L491.218 100.184L506.128 88.8984L515.166 94.6766V109.973C515.166 110.757 514.237 111.393 513.09 111.393H462.679C461.645 111.393 461.057 110.585 461.677 110.021Z" fill="#407BFF"/>
<path d="M495.142 82.8173C495.142 85.3923 493.026 87.4802 490.415 87.4802C487.804 87.4802 485.688 85.3923 485.688 82.8173C485.688 80.2422 487.804 78.1543 490.415 78.1543C493.026 78.1543 495.142 80.2414 495.142 82.8173Z" fill="#407BFF"/>
<path d="M83.6743 342.343C83.6639 342.011 82.5447 308.992 77.1741 303.771C71.9508 298.693 65.9553 303.582 65.703 303.792L65.1641 303.147C65.2317 303.089 71.9977 297.567 77.76 303.168C83.3718 308.625 84.4703 340.944 84.514 342.317L83.6743 342.343Z" fill="#263238"/>
<path d="M84.1357 348.832C84.0967 348.437 80.4653 309.194 94.7965 292.746L95.4301 293.298C81.3362 309.473 84.9341 348.359 84.9715 348.75L84.1357 348.832Z" fill="#263238"/>
<path d="M83.6072 344.682L82.7682 344.626C82.7977 344.181 85.5733 300.012 75.0605 290.343L75.6297 289.725C86.4362 299.664 83.7274 342.848 83.6072 344.682Z" fill="#263238"/>
<path d="M84.9753 344.656L84.1348 344.65C84.1451 343.433 84.4818 314.815 92.6106 310.157C94.4175 309.119 96.187 308.947 97.8705 309.643C102.786 311.677 105.222 320.424 105.323 320.796L104.512 321.018C104.488 320.93 102.084 312.295 97.5482 310.42C96.1185 309.83 94.5982 309.985 93.0285 310.886C85.3144 315.306 84.9777 344.363 84.9753 344.656Z" fill="#263238"/>
<path d="M81.8083 344.678L80.9693 344.63C80.9821 344.404 82.196 322.015 76.1535 314.127C74.6897 312.216 73.1001 311.305 71.4213 311.422C67.462 311.698 64.1419 317.492 64.1093 317.55L63.377 317.136C63.521 316.882 66.951 310.892 71.3608 310.583C73.3341 310.443 75.1729 311.464 76.8206 313.615C83.0533 321.752 81.8625 343.746 81.8083 344.678Z" fill="#263238"/>
<path d="M83.1333 347.723C82.9685 345.551 79.1836 294.428 85.8437 285.42L86.5195 285.919C80.0432 294.678 83.9317 347.13 83.9715 347.658L83.1333 347.723Z" fill="#263238"/>
<path d="M100.888 312.467C100.888 312.467 96.6371 314.038 98.0802 317.417C102.146 326.941 111.837 327.956 111.837 327.956C111.837 327.956 116.385 320.757 112.657 315.165C107.518 307.457 100.996 309.979 100.888 312.467Z" fill="#7970FF"/>
<path d="M82.3118 308.205C82.3118 308.205 86.5664 308.026 86.8084 311.694C87.0504 315.361 77.5907 325.506 77.5907 325.506C77.5907 325.506 70.8398 323.065 72.2901 313.914C73.7396 304.764 81.2547 305.949 82.3118 308.205Z" fill="#7970FF"/>
<path d="M84.3741 286.835C84.3741 286.835 82.5871 286.616 81.9153 285.007C79.9109 280.21 86.7995 275.037 96.0108 277.77C96.0108 277.77 96.2544 285.876 91.2977 289.073C86.341 292.27 84.3741 286.835 84.3741 286.835Z" fill="#7970FF"/>
<path d="M68.59 311.971C68.59 311.971 70.073 309.938 67.8322 309.739C65.5915 309.54 55.893 313.886 58.4434 323.835C58.4434 323.835 70.9183 319.765 71.3506 315.601C71.7828 311.435 68.59 311.971 68.59 311.971Z" fill="#7970FF"/>
<path d="M95.1868 290.394C95.1868 290.394 95.7472 288.548 97.8598 287.776C99.9723 287.005 107.822 287.489 107.93 297.758C107.93 297.758 95.8554 299.765 94.3613 295.854C92.8664 291.942 95.1868 290.394 95.1868 290.394Z" fill="#7970FF"/>
<path d="M88.6694 298.929C88.6694 298.929 89.4814 297.521 91.0328 298.274C92.5842 299.027 97.158 303.733 92.7967 309.414C92.7967 309.414 84.6926 304.542 85.3549 301.122C85.9646 297.97 88.6694 298.929 88.6694 298.929Z" fill="#7970FF"/>
<path d="M68.8129 301.405C68.8129 301.405 69.9831 299.871 68.2693 299.682C66.5547 299.492 58.8741 301.542 60.6627 309.21C60.6627 309.21 70.0205 308.506 70.4217 305.321C70.8228 302.136 68.8129 301.405 68.8129 301.405Z" fill="#7970FF"/>
<path d="M95.5703 365.167H72.6981L70.2305 341.5H98.0371L95.5703 365.167Z" fill="#263238"/>
<path d="M101.885 338.258H66.3848V344.743H101.885V338.258Z" fill="#263238"/>
<path opacity="0.3" d="M76.7538 322.126C76.0525 317.138 78.5766 311.586 82.3107 308.205" stroke="black" stroke-width="0.398" stroke-miterlimit="10" stroke-linecap="round" stroke-linejoin="round"/>
<path opacity="0.3" d="M88.6699 299.209C90.6042 301.131 91.9502 303.638 92.4836 306.312" stroke="black" stroke-width="0.398" stroke-miterlimit="10" stroke-linecap="round" stroke-linejoin="round"/>
<path opacity="0.3" d="M100.887 312.467C104.746 314.181 108.377 317.806 110.225 321.602" stroke="black" stroke-width="0.398" stroke-miterlimit="10" stroke-linecap="round" stroke-linejoin="round"/>
<path opacity="0.3" d="M95.1855 290.394C97.1843 289.821 98.9888 290.433 100.932 291.174C102.874 291.915 104.566 293.3 105.674 295.058" stroke="black" stroke-width="0.398" stroke-miterlimit="10" stroke-linecap="round" stroke-linejoin="round"/>
<path d="M78.2504 292.125C78.2504 292.125 81.0834 292.463 81.2473 290.728C81.4113 288.993 71.8824 282.241 64.0625 287.824C64.0625 287.824 66.4696 295.567 72.1968 296.977C77.9248 298.386 78.2504 292.125 78.2504 292.125Z" fill="#7970FF"/>
<path opacity="0.3" d="M78.1619 292.266C75.1824 288.261 67.8696 286.961 65.3789 287.863" stroke="black" stroke-width="0.398" stroke-miterlimit="10" stroke-linecap="round" stroke-linejoin="round"/>
<path opacity="0.3" d="M68.899 301.545C66.4681 302.448 63.8715 304.007 62.5215 306.222" stroke="black" stroke-width="0.398" stroke-miterlimit="10" stroke-linecap="round" stroke-linejoin="round"/>
<path opacity="0.3" d="M59.7754 320.059C61.6754 316.415 64.8706 313.462 68.6532 311.854" stroke="black" stroke-width="0.398" stroke-miterlimit="10" stroke-linecap="round" stroke-linejoin="round"/>
<path opacity="0.3" d="M84.75 286.643C86.2672 283.404 89.1797 280.849 92.589 279.768" stroke="black" stroke-width="0.398" stroke-miterlimit="10" stroke-linecap="round" stroke-linejoin="round"/>
<path opacity="0.3" d="M70.5684 344.743L71.0117 348.992H97.2566L97.7 344.738L70.5684 344.743Z" fill="black"/>
<path d="M468.24 342.711L470.86 363.054H477.022L478.605 343.088L468.24 342.711Z" fill="#CD877B"/>
<path d="M512.312 342.924L520.469 362.579L526.496 361.572L522.841 339.682L512.312 342.924Z" fill="#CD877B"/>
<path d="M517.522 358.41H520.276C520.899 358.41 521.475 358.725 521.844 359.228C523.432 361.398 524.626 360.578 526.353 358.538C527.452 358.41 527.747 359.67 527.837 360.009L529.896 367.499C530.075 368.125 529.713 368.776 529.088 368.955C528.976 368.987 528.861 369.002 528.745 369C525.4 369 523.818 369 519.655 369H506.924C503.453 369 502.734 365.503 504.163 365.179C510.592 363.758 515.144 361.867 517.131 359.997C517.499 359.669 517.121 359.425 517.522 358.41Z" fill="#263238"/>
<path d="M513.767 360.918C514.636 360.897 515.501 360.786 516.348 360.585C516.427 360.557 516.469 360.469 516.44 360.39C516.425 360.347 516.391 360.313 516.348 360.297C515.961 360.109 512.517 358.499 511.654 359.11C511.493 359.216 511.405 359.404 511.43 359.596C511.434 359.953 511.607 360.287 511.897 360.495C512.459 360.832 513.114 360.98 513.767 360.918ZM515.808 360.378C514.792 360.567 512.904 360.819 512.122 360.234C511.919 360.074 511.794 359.836 511.78 359.579C511.764 359.497 511.8 359.415 511.87 359.372C512.346 359.039 514.378 359.749 515.808 360.378Z" fill="#407BFF"/>
<path d="M516.31 360.595C516.345 360.605 516.383 360.605 516.418 360.595C516.464 360.555 516.482 360.491 516.463 360.433C516.463 360.289 515.653 356.9 513.765 357.115C513.298 357.178 513.163 357.403 513.145 357.592C513.028 358.492 515.195 360.19 516.229 360.622L516.31 360.595ZM513.954 357.385C515.15 357.385 515.842 359.363 516.076 360.154C514.952 359.561 513.378 358.149 513.478 357.601C513.478 357.556 513.478 357.43 513.828 357.394L513.954 357.385Z" fill="#407BFF"/>
<path d="M468.279 358.748H471.033C471.656 358.748 472.232 359.063 472.601 359.566C474.189 361.735 475.383 360.916 477.11 358.876C478.209 358.748 478.504 360.009 478.594 360.347L480.653 367.837C480.832 368.462 480.47 369.114 479.845 369.293C479.733 369.325 479.618 369.34 479.502 369.338C476.157 369.338 474.575 369.338 470.413 369.338H457.682C454.211 369.338 453.491 365.84 454.921 365.516C461.35 364.096 465.902 362.204 467.889 360.334C468.257 360.007 467.878 359.762 468.279 358.748Z" fill="#263238"/>
<path d="M464.523 361.254C465.392 361.233 466.257 361.122 467.103 360.921C467.183 360.893 467.224 360.805 467.196 360.726C467.181 360.683 467.146 360.649 467.103 360.633C466.717 360.445 463.273 358.835 462.41 359.446C462.249 359.551 462.161 359.74 462.186 359.932C462.19 360.289 462.363 360.623 462.653 360.831C463.215 361.168 463.871 361.316 464.523 361.254ZM466.564 360.714C465.548 360.903 463.66 361.155 462.877 360.57C462.674 360.41 462.55 360.172 462.536 359.914C462.52 359.833 462.556 359.751 462.626 359.707C463.103 359.375 465.134 360.086 466.564 360.714Z" fill="#407BFF"/>
<path d="M467.067 360.931C467.102 360.941 467.14 360.941 467.175 360.931C467.222 360.891 467.239 360.827 467.22 360.769C467.22 360.625 466.41 357.236 464.523 357.451C464.056 357.514 463.921 357.739 463.903 357.928C463.786 358.828 465.953 360.526 466.987 360.958L467.067 360.931ZM464.711 357.721C465.907 357.721 466.599 359.699 466.833 360.49C465.709 359.897 464.136 358.485 464.235 357.937C464.235 357.892 464.235 357.766 464.585 357.73L464.711 357.721Z" fill="#407BFF"/>
<path opacity="0.2" d="M486.998 223.261H413.745C412.241 223.261 411.021 222.042 411.021 220.537V147.284C411.021 145.78 412.241 144.561 413.745 144.561H486.998C488.503 144.561 489.722 145.78 489.722 147.284V220.537C489.722 222.042 488.503 223.261 486.998 223.261Z" fill="black"/>
<path d="M493.297 217.833H420.044C418.54 217.833 417.32 216.614 417.32 215.109V141.857C417.32 140.352 418.54 139.133 420.044 139.133H493.297C494.801 139.133 496.021 140.352 496.021 141.857V215.109C496.021 216.614 494.801 217.833 493.297 217.833Z" fill="#407BFF"/>
<path opacity="0.3" d="M493.297 217.833H420.044C418.54 217.833 417.32 216.614 417.32 215.109V141.857C417.32 140.352 418.54 139.133 420.044 139.133H493.297C494.801 139.133 496.021 140.352 496.021 141.857V215.109C496.021 216.614 494.801 217.833 493.297 217.833Z" fill="white"/>
<path d="M419.478 214.966L444.056 182.279L461.75 194.389L483.088 170.781L496.021 182.868V214.864C496.021 216.504 494.691 217.834 493.051 217.834H420.911C419.433 217.834 418.59 216.147 419.478 214.966Z" fill="#407BFF"/>
<path d="M466.425 158.062C466.425 163.449 462.058 167.815 456.671 167.815C451.285 167.815 446.918 163.449 446.918 158.062C446.918 152.675 451.285 148.309 456.671 148.309C462.058 148.309 466.425 152.675 466.425 158.062Z" fill="#407BFF"/>
<path d="M464.458 140.586C464.345 141.123 463.987 141.501 463.629 141.434C463.271 141.368 463.092 140.878 463.195 140.341C463.299 139.803 463.676 139.436 464.025 139.502C464.374 139.558 464.571 140.049 464.458 140.586Z" fill="#263238"/>
<path d="M464.345 141.51C463.382 143.016 462.214 144.38 460.875 145.565C461.504 146.244 462.402 146.61 463.327 146.564L464.345 141.51Z" fill="#7F2E2E"/>
<path d="M467.013 137.955C467.191 137.951 467.334 137.804 467.334 137.625C467.326 137.549 467.296 137.477 467.249 137.417C466.57 136.648 465.562 136.254 464.542 136.361C464.506 136.355 464.467 136.355 464.431 136.361C464.251 136.391 464.131 136.562 464.161 136.742C464.192 136.922 464.362 137.042 464.542 137.012H464.646C465.47 136.956 466.271 137.308 466.786 137.955C466.859 137.982 466.94 137.982 467.013 137.955Z" fill="#263238"/>
<path d="M479.318 150.326C478.375 155.268 477.744 162.113 481.204 165.414C481.204 165.414 479.846 170.43 470.662 170.43C460.553 170.43 465.805 166.036 465.805 166.036C470.002 164.725 469.945 159.944 469.002 156.097L479.318 150.326Z" fill="#9F5B53"/>
<path d="M482.506 143.094C480.808 149.554 480.083 153.448 476.093 156.154C470.077 160.199 462.543 155.551 462.344 148.686C462.137 142.5 465.004 132.939 471.963 131.628C476.93 130.678 481.728 133.931 482.684 138.897C482.951 140.291 482.89 141.728 482.506 143.094Z" fill="#9F5B53"/>
<path d="M467.644 137.691C466.708 136.306 466.458 134.569 466.965 132.976C466.965 132.976 462.277 132.889 463.165 131.463C466.895 130.653 475.366 123.636 478.598 130.985C479.972 131.535 481.538 131.898 483.053 132.339C488.566 133.942 488.096 142.101 482.42 142.956C482.382 142.961 482.345 142.967 482.308 142.972C477.056 143.679 470.851 141.915 467.644 137.691Z" fill="#263238"/>
<path d="M485.457 138.528C483.439 141.244 467.361 137.568 467.361 137.568L468.248 145.546L471.567 153.797L478.885 153.712L485.485 143.123C485.485 143.123 487.475 135.812 485.457 138.528Z" fill="#263238"/>
<path d="M470.587 143.264C470.187 144.882 469.266 146.323 467.966 147.366C466.25 148.715 464.901 147.47 464.967 145.48C465.033 143.67 466.051 140.813 467.938 140.228C469.824 139.643 471.04 141.303 470.587 143.264Z" fill="#9F5B53"/>
<path d="M464.902 164.358C464.902 164.358 466.26 160.832 467.731 160.162C469.202 159.492 478.736 157.559 480.99 158.86C483.243 160.162 484.912 164.565 484.912 164.565L464.902 164.358Z" fill="#407BFF"/>
<path d="M464.902 164.358C464.902 164.358 466.26 160.832 467.731 160.162C469.202 159.492 478.736 157.559 480.99 158.86C483.243 160.162 484.912 164.565 484.912 164.565L464.902 164.358Z" fill="#263238"/>
<path d="M455.232 172.293C453.78 179.572 451.709 194.26 455.481 223.991L491.616 224.19C491.059 219.456 488.4 195.891 492.408 171.865C492.424 171.77 492.437 171.674 492.448 171.58C492.879 168.002 490.328 164.752 486.75 164.321C485.008 164.095 483.255 163.921 481.488 163.802C474.752 163.611 468.01 163.765 461.29 164.264C459.652 164.547 457.4 165.31 456.51 166.398C455.275 167.907 455.681 170.033 455.232 172.293Z" fill="#263238"/>
<path d="M468.258 224.17C474.346 236.108 479.455 248.52 483.534 261.285C489.993 282.389 514.576 352.404 514.576 352.404L526.496 349.791C526.496 349.791 509.654 289.649 502.666 260.21C497.301 237.626 491.587 224.188 491.587 224.188L468.258 224.17Z" fill="#407BFF"/>
<path opacity="0.3" d="M479.092 242.963C480.947 248.713 487.751 260.681 489.043 278.276C488.873 277.71 486.628 269.036 475.992 240.124C476.425 239.983 478.639 242.888 479.092 242.963Z" fill="black"/>
<path d="M455.434 224.189C454.934 236.56 455.363 248.951 456.717 261.258C459.046 282.672 467.844 352.904 467.844 352.904H479.339C479.339 352.904 479.792 284.058 479.339 263.002C478.83 240.04 479.254 224.189 479.254 224.189H455.434Z" fill="#407BFF"/>
<path d="M427.103 220.548H425.245C424.161 220.548 423.088 220.342 422.08 219.943C420.524 219.327 418.611 218.421 419.17 217.631C419.17 217.631 420.701 216.809 422.832 215.215C424.039 214.301 427.282 212.113 427.745 212.113L431.592 215.225C431.592 215.225 429.645 217.43 427.103 220.548Z" fill="#9F5B53"/>
<path d="M461.526 166.188C458.961 164.906 456.585 165.538 454.765 168.272C451.87 176.127 441.751 195.036 441.751 195.036L425.904 211.44L432.119 217.835L443.226 208.452C447.255 204.786 449.635 203.652 450.371 202.105C450.371 202.105 460.295 187.168 465.787 175.703C467.46 172.212 464.924 168.04 461.526 166.188Z" fill="#263238"/>
<path d="M497.595 164.357L496.199 159.755L501.395 154.861C501.395 154.861 501.8 163.782 501.536 163.933C497.972 165.923 497.595 164.357 497.595 164.357Z" fill="#9F5B53"/>
<path d="M496.226 159.757L494.642 157.268C494.26 156.656 494.26 155.88 494.642 155.269L496.132 152.808C496.228 152.645 496.346 152.498 496.485 152.371C497.253 151.667 498.445 151.719 499.149 152.487L501.393 154.863C500.79 158.55 496.226 159.757 496.226 159.757Z" fill="#9F5B53"/>
<path d="M495.614 170.082L495.746 165.885C495.746 164.843 496.591 163.999 497.632 163.999L500.998 163.867C501.021 163.867 501.043 163.867 501.065 163.867C502.018 163.888 502.773 164.678 502.753 165.63C503.253 179.766 503.913 187.252 504.28 190.704C504.527 192.72 503.513 194.681 501.725 195.645C501.174 195.96 500.536 196.089 499.905 196.013C499.516 195.937 499.134 195.827 498.765 195.683C498.048 195.372 497.389 194.945 496.813 194.419C496.075 193.638 495.467 192.744 495.012 191.769L495.614 170.082Z" fill="#263238"/>
<path d="M503.874 191.148C504.195 192.965 503.322 194.785 501.705 195.674C501.157 195.976 500.525 196.095 499.904 196.013C499.514 195.937 499.132 195.827 498.763 195.683C498.047 195.372 497.387 194.945 496.811 194.419C496.073 193.638 495.465 192.744 495.01 191.769C490.926 184.188 484.656 164.074 484.656 164.074C487.25 164.079 494.134 166.314 495.142 168.705L495.708 170.072L503.657 189.44L503.874 191.148Z" fill="#263238"/>
<path d="M271.186 344.204L266.192 361.183L261.119 360.887L262.191 342.461L271.186 344.204Z" fill="#CD877B"/>
<path d="M297.456 218.52C297.456 218.52 303.617 230.905 297.691 253.68C291.764 276.455 268.058 355.804 268.058 355.804L261.382 355.002C261.382 355.002 260.963 326.528 270.35 303.579C270.35 303.579 274.856 264.515 272.66 255.328C271.126 248.913 270.193 243.544 272.843 233.826C273.879 229.667 275.309 225.616 277.114 221.728C278.857 218.242 278.343 216.926 278.343 216.926L297.456 218.52Z" fill="#407BFF"/>
<path opacity="0.5" d="M297.456 218.52C297.456 218.52 303.617 230.905 297.691 253.68C291.764 276.455 268.058 355.804 268.058 355.804L261.382 355.002C261.382 355.002 260.963 326.528 270.35 303.579C270.35 303.579 274.856 264.515 272.66 255.328C271.126 248.913 270.193 243.544 272.843 233.826C273.879 229.667 275.309 225.616 277.114 221.728C278.857 218.242 278.343 216.926 278.343 216.926L297.456 218.52Z" fill="black"/>
<path opacity="0.4" d="M289.566 282.687C281.008 258.893 283.361 241.627 283.361 241.627L288.721 240.93L292.905 248.373L295.833 260.575C294.169 266.633 291.989 274.312 289.566 282.687Z" fill="black"/>
<path d="M296.759 345.354L294.579 362.272H289.454L288.139 345.668L296.759 345.354Z" fill="#CD877B"/>
<path d="M305.57 216.621C305.766 218.152 306.183 219.646 306.808 221.057C308.891 226.347 311.166 242.986 310.661 251.406C309.362 274.938 295.443 356.641 295.443 356.641H288.749C288.749 356.641 284.139 328.828 289.621 304.346C289.621 304.346 291.547 269.849 288.68 260.854C286.676 254.596 281.027 248.538 282.475 235.308C283.922 222.078 287.434 217.554 287.434 217.554L305.57 216.621Z" fill="#407BFF"/>
<path opacity="0.5" d="M305.57 216.621C305.766 218.152 306.183 219.646 306.808 221.057C308.891 226.347 311.166 242.986 310.661 251.406C309.362 274.938 295.443 356.641 295.443 356.641H288.749C288.749 356.641 284.139 328.828 289.621 304.346C289.621 304.346 291.547 269.849 288.68 260.854C286.676 254.596 281.027 248.538 282.475 235.308C283.922 222.078 287.434 217.554 287.434 217.554L305.57 216.621Z" fill="black"/>
<path d="M277.312 223.55L278.594 220.936L279.936 221.119L279.16 223.838L277.312 223.55Z" fill="#407BFF"/>
<path d="M296.68 221.545C300.314 221.327 303.269 220.952 305.16 220.674L306.101 223.367C302.98 223.868 299.835 224.208 296.68 224.386V221.545Z" fill="#407BFF"/>
<path d="M281.975 221.318C286.163 221.717 290.374 221.831 294.578 221.658V224.474C293.357 224.474 292.085 224.553 290.76 224.553C287.593 224.554 284.428 224.392 281.277 224.065L281.975 221.318Z" fill="#407BFF"/>
<path d="M296.725 358.691H294.434C293.916 358.691 293.437 358.953 293.13 359.372C291.81 361.176 290.817 360.494 289.381 358.798C288.468 358.691 288.222 359.74 288.147 360.022L286.435 366.25C286.286 366.77 286.587 367.313 287.107 367.461C287.2 367.487 287.296 367.5 287.392 367.498C290.173 367.498 291.49 367.498 294.952 367.498H305.539C308.426 367.498 309.023 364.59 307.835 364.321C302.489 363.139 298.703 361.566 297.051 360.011C296.744 359.739 297.058 359.535 296.725 358.691Z" fill="#263238"/>
<path d="M301.403 360.425C301.644 360.251 301.788 359.973 301.791 359.676C301.812 359.517 301.739 359.36 301.604 359.273C300.886 358.764 298.023 360.103 297.701 360.26C297.665 360.273 297.638 360.301 297.625 360.336C297.601 360.402 297.635 360.475 297.701 360.499C298.405 360.665 299.124 360.758 299.847 360.776C300.39 360.827 300.935 360.705 301.403 360.425ZM301.425 359.49C301.483 359.527 301.513 359.595 301.5 359.662C301.488 359.876 301.384 360.075 301.216 360.208C300.565 360.695 298.995 360.485 298.15 360.328C299.339 359.804 301.029 359.213 301.425 359.49Z" fill="#407BFF"/>
<path d="M297.8 360.53C298.66 360.171 300.462 358.758 300.365 358.01C300.35 357.853 300.237 357.666 299.849 357.614C298.278 357.435 297.606 360.253 297.606 360.373C297.59 360.421 297.605 360.474 297.643 360.507C297.673 360.516 297.704 360.516 297.733 360.507L297.8 360.53ZM299.796 357.845C300.088 357.876 300.088 357.98 300.088 358.017C300.17 358.473 298.862 359.647 297.927 360.141C298.121 359.483 298.696 357.838 299.691 357.838L299.796 357.845Z" fill="#407BFF"/>
<path d="M268.731 358.691H266.44C265.922 358.691 265.443 358.953 265.136 359.372C263.816 361.176 262.823 360.494 261.386 358.798C260.473 358.691 260.227 359.74 260.153 360.022L258.44 366.25C258.292 366.77 258.592 367.313 259.113 367.461C259.205 367.487 259.302 367.5 259.397 367.498C262.178 367.498 263.495 367.498 266.957 367.498H277.544C280.431 367.498 281.029 364.59 279.84 364.321C274.494 363.139 270.708 361.566 269.056 360.011C268.749 359.739 269.064 359.535 268.731 358.691Z" fill="#263238"/>
<path d="M273.408 360.425C273.65 360.251 273.794 359.973 273.797 359.676C273.817 359.517 273.744 359.36 273.61 359.273C272.892 358.764 270.028 360.103 269.707 360.26C269.671 360.273 269.643 360.301 269.631 360.336C269.607 360.402 269.641 360.475 269.707 360.499C270.411 360.665 271.13 360.758 271.853 360.776C272.396 360.827 272.941 360.705 273.408 360.425ZM273.432 359.49C273.49 359.527 273.52 359.595 273.506 359.662C273.494 359.876 273.391 360.075 273.222 360.208C272.572 360.695 271.001 360.485 270.157 360.328C271.345 359.804 273.035 359.213 273.432 359.49Z" fill="#407BFF"/>
<path d="M269.806 360.53C270.666 360.171 272.468 358.758 272.371 358.01C272.356 357.853 272.243 357.666 271.855 357.614C270.284 357.435 269.612 360.253 269.612 360.373C269.596 360.421 269.611 360.474 269.649 360.507C269.679 360.516 269.71 360.516 269.739 360.507L269.806 360.53ZM271.802 357.845C272.094 357.876 272.094 357.98 272.094 358.017C272.176 358.473 270.868 359.647 269.933 360.141C270.127 359.483 270.703 357.838 271.697 357.838L271.802 357.845Z" fill="#407BFF"/>
<path d="M266.218 188.076C266.218 188.076 256.011 209.064 260.273 210.789C264.535 212.515 278.899 213.482 278.899 213.482L285.165 219.478L288.791 217.117L287.876 211.015L279.64 209.272L268.641 205.856C267.728 205.55 267.236 204.561 267.542 203.648C267.558 203.602 267.576 203.556 267.595 203.511L272.911 191.849L266.218 188.076Z" fill="#CD877B"/>
<path d="M288.356 150.885C288.199 150.353 288.356 149.83 288.713 149.735C289.07 149.639 289.472 149.987 289.628 150.527C289.785 151.068 289.628 151.582 289.271 151.678C288.914 151.774 288.504 151.425 288.356 150.885Z" fill="#263238"/>
<path d="M288.295 151.705L292.409 154.32C291.777 155.292 290.724 155.909 289.567 155.984L288.295 151.705Z" fill="#C15854"/>
<path d="M287.049 149.892C287.152 149.859 287.233 149.778 287.267 149.674C287.492 148.87 288.088 148.222 288.871 147.931C289.042 147.881 289.139 147.701 289.089 147.531C289.042 147.356 288.864 147.251 288.688 147.295C287.694 147.649 286.932 148.46 286.64 149.474C286.581 149.64 286.667 149.822 286.831 149.884C286.899 149.918 286.978 149.921 287.049 149.892Z" fill="#263238"/>
<path d="M269.941 156.743C272.695 163.253 273.723 166.069 278.291 168.3C284.662 169.964 292.576 166.844 291.809 159.627C291.129 153.143 286.745 143.608 279.275 143.224C273.954 142.947 269.415 147.036 269.138 152.358C269.059 153.862 269.334 155.364 269.941 156.743Z" fill="#CD877B"/>
<path opacity="0.2" d="M285.114 165.241C285.114 165.241 289.847 166.2 291.721 162.068C291.085 165.389 288.322 167.499 285.001 168.335L283.859 167.534L284.478 165.852L285.114 165.241Z" fill="black"/>
<path d="M276.504 176.047C276.504 176.047 280.6 174.043 277.645 166.233C277.645 166.233 280.914 162.991 284.313 164.368C287.712 165.745 284.853 172.935 288.854 174.043C288.854 174.043 286.771 176.927 276.504 176.047Z" fill="#CD877B"/>
<path d="M284.504 155.069C283.454 154.051 282.506 152.932 281.671 151.731C280.285 149.735 283.519 147.416 282.97 143.72C282.421 140.025 278.612 142.273 278.612 142.273C278.612 142.273 269.373 141.227 268.154 150.824C264.763 156.084 266.28 163.096 271.541 166.486C273.946 168.037 276.85 168.618 279.668 168.116L280.278 167.977C282.748 167.174 284.421 164.874 284.426 162.277L284.504 155.069Z" fill="#263238"/>
<path d="M270.568 153.012C270.42 150.825 269.853 149.081 267.666 149.229C265.479 149.378 265.347 151.182 265.496 153.369C265.644 155.557 266.037 157.309 268.224 157.152C270.411 156.995 270.707 155.199 270.568 153.012Z" fill="#407BFF"/>
<path d="M282.552 154.65C283.894 155.185 284.965 156.238 285.524 157.569C286.257 159.313 284.731 160.472 282.909 160.184C281.288 159.931 278.97 158.694 278.996 156.812C279.017 155.454 280.134 154.371 281.491 154.391C281.86 154.396 282.222 154.485 282.552 154.65Z" fill="#CD877B"/>
<path d="M259.638 153.78C259.871 157.015 262.678 159.452 265.914 159.227C269.156 159.001 269.348 156.352 269.121 153.126C268.894 149.901 268.328 147.295 265.094 147.521C261.862 147.75 259.423 150.547 259.638 153.78Z" fill="#263238"/>
<path d="M281.907 140.915C281.298 141.787 280.687 143.051 281.349 143.93C281.724 144.436 282.404 144.61 282.857 145.055C283.31 145.593 283.578 146.262 283.624 146.964C284.044 149.473 284.26 152.011 284.269 154.555C286.012 151.54 287.877 148.35 287.947 144.854C287.999 143.81 287.787 142.77 287.329 141.83C286.848 140.888 285.956 140.224 284.915 140.035C283.885 139.895 281.907 140.915 281.907 140.915Z" fill="#263238"/>
<path d="M304.698 180.18L315.07 186.796C315.819 187.277 316.816 187.061 317.298 186.312C317.318 186.282 317.336 186.252 317.353 186.22L325.773 171.124L328.823 163.279L329.695 162.33L334.924 157.902H336.929L333.041 161.389L334.122 163.236L335.865 167.202L328.936 173.303C328.936 173.303 324.909 191.406 320.595 195.267C317.169 198.335 299.93 186.151 299.93 186.151L304.698 180.18Z" fill="#CD877B"/>
<path d="M269.268 180.466C269.065 179.854 268.404 179.523 267.792 179.726C267.594 179.791 267.419 179.908 267.282 180.065C266.218 181.25 264.667 183.638 262.837 188.449L260.98 193.408L270.446 199.927L274.01 194.497L269.268 180.466Z" fill="white"/>
<path opacity="0.2" d="M268.24 186.288L269.277 184.955L271.308 186.489L274.01 194.499L270.445 199.929L268.633 198.683C269.19 193.566 268.24 186.288 268.24 186.288Z" fill="black"/>
<path d="M271.814 199.041L260.98 191.414L260.195 193.759L270.428 200.863L271.814 199.041Z" fill="#407BFF"/>
<path opacity="0.5" d="M271.814 199.041L260.98 191.414L260.195 193.759L270.428 200.863L271.814 199.041Z" fill="white"/>
<path d="M291.459 174.453C291.459 174.453 291.861 169.468 282.204 171.481C272.546 173.494 279.031 176.266 279.031 176.266L291.459 174.453Z" fill="#407BFF"/>
<path opacity="0.5" d="M291.459 174.453C291.459 174.453 291.861 169.468 282.204 171.481C272.546 173.494 279.031 176.266 279.031 176.266L291.459 174.453Z" fill="white"/>
<path d="M305.405 218.407C294.597 220.508 282.204 219.645 277.662 219.218C276.634 219.113 278.534 207.016 267.622 185.095C266.51 183.026 266.976 180.461 268.746 178.916C276.171 172.772 289.664 173.007 295.852 173.503C298.041 173.657 300.033 174.824 301.238 176.659C303.392 180.308 304.844 184.328 305.518 188.512C306.246 192.491 306.663 196.521 306.764 200.566C307.052 210.136 305.893 218.312 305.405 218.407Z" fill="white"/>
<path opacity="0.2" d="M306.764 200.565C303.277 199.903 298.379 187.047 298.379 187.047L305.517 188.512C306.247 192.492 306.663 196.522 306.764 200.565Z" fill="black"/>
<path d="M297.544 173.87C300.237 174.689 306.164 177.356 315.454 186.124L308.622 195.276C304.115 194.273 300.33 191.233 298.38 187.048C296.613 183.34 295.719 179.276 295.765 175.169C295.776 174.408 296.401 173.8 297.161 173.811C297.291 173.811 297.419 173.832 297.544 173.87Z" fill="white"/>
<path d="M314.383 184.258L306.652 195.423L309.24 195.963L316.535 186.001L314.383 184.258Z" fill="#407BFF"/>
<path opacity="0.5" d="M314.383 184.258L306.652 195.423L309.24 195.963L316.535 186.001L314.383 184.258Z" fill="white"/>
<path d="M129.574 166.97C132.55 163.468 131.066 155.33 129.729 150.99L140.945 157.928C140.789 158.469 140.67 159.019 140.589 159.576C140.409 160.576 140.489 161.606 140.822 162.566C141.131 163.354 142.407 165.479 142.407 165.479C142.407 165.479 143.312 167.94 136.6 168.901C133.701 169.64 129.574 166.97 129.574 166.97Z" fill="#895555"/>
<path opacity="0.2" d="M132.223 155.223C132.471 160.499 138.07 162.171 140.829 162.574C140.496 161.614 140.416 160.584 140.597 159.583L132.223 155.223Z" fill="black"/>
<path d="M139.513 134.402C144.652 133.337 141.971 137.486 147.631 138.23C147.78 141.671 143.87 145.552 142.38 143.444C140.742 141.128 135.237 135.244 139.513 134.402Z" fill="#263238"/>
<path d="M119.263 139.625C119.368 143.714 123.271 142.909 123.271 142.909C119.77 144.414 117.253 143.766 119.263 139.625Z" fill="#263238"/>
<path d="M127.419 147.392C129.623 153.318 130.743 156.705 134.817 158.844C140.946 162.062 147.645 157.139 147.309 150.652C147.006 144.814 143.453 136.103 136.644 135.564C129.935 135.033 125.215 141.466 127.419 147.392Z" fill="#895555"/>
<path d="M136.014 146.319C136.2 146.937 136.688 147.335 137.104 147.207C137.52 147.08 137.705 146.476 137.519 145.857C137.333 145.24 136.845 144.842 136.429 144.969C136.013 145.096 135.828 145.701 136.014 146.319Z" fill="#263238"/>
<path d="M142.348 144.919C142.534 145.537 143.022 145.934 143.437 145.807C143.853 145.68 144.038 145.075 143.852 144.457C143.666 143.839 143.178 143.441 142.762 143.569C142.348 143.697 142.161 144.301 142.348 144.919Z" fill="#263238"/>
<path d="M140.994 145.027C140.994 145.027 143.936 147.501 144.959 148.56C144.307 149.6 142.673 149.693 142.673 149.693L140.994 145.027Z" fill="#6D3939"/>
<path d="M134.414 144.045C134.521 144.055 134.632 144.01 134.701 143.916C135.513 142.808 136.656 142.825 136.668 142.825C136.839 142.829 136.984 142.698 136.993 142.531C137.001 142.365 136.868 142.226 136.698 142.221C136.637 142.219 135.204 142.196 134.198 143.573C134.097 143.709 134.128 143.898 134.267 143.993C134.312 144.024 134.363 144.041 134.414 144.045Z" fill="#263238"/>
<path d="M145.096 141.345C145.148 141.317 145.193 141.274 145.222 141.219C145.303 141.07 145.247 140.886 145.096 140.81C143.588 140.037 142.338 140.723 142.278 140.746C142.128 140.828 142.073 141.014 142.155 141.16C142.237 141.305 142.423 141.356 142.572 141.275C142.623 141.244 143.593 140.729 144.804 141.349C144.899 141.398 145.008 141.393 145.096 141.345Z" fill="#263238"/>
<path d="M142.776 151.831C142.359 152.596 141.997 153.391 141.694 154.208C141.545 154.179 141.39 154.153 141.242 154.117C139.199 153.695 138.387 152.828 138.118 151.987C137.993 151.574 137.967 151.137 138.042 150.712C138.079 150.472 138.149 150.237 138.25 150.016C139.2 150.887 141.069 151.428 142.084 151.673C142.525 151.758 142.776 151.831 142.776 151.831Z" fill="#263238"/>
<path d="M142.086 151.671L141.747 152.364C139.828 151.963 138.531 151.428 138.045 150.71C138.082 150.47 138.151 150.235 138.252 150.014C139.209 150.894 141.072 151.426 142.086 151.671Z" fill="white"/>
<path d="M141.251 154.159C139.208 153.737 138.396 152.87 138.127 152.029C138.901 152.204 139.637 152.514 140.302 152.945C140.737 153.241 141.069 153.666 141.251 154.159Z" fill="#C15854"/>
<path d="M122.005 141.974C122.005 141.974 119.413 137.282 121.878 134.779C125.736 130.861 129.192 134.071 137.139 127.227C137.489 129.29 135.158 131.144 137.794 131.695C140.431 132.246 141.697 129.714 145.868 130.116C144.126 131.382 147.164 134.697 143.76 137.564C140.357 140.431 133.981 138.555 133.981 138.555C133.899 141.095 130.331 143.203 130.331 143.203C130.844 144.275 131.212 145.409 131.426 146.577C131.554 148.071 131.471 149.575 131.18 151.046C118.073 148.648 122.005 141.974 122.005 141.974Z" fill="#263238"/>
<path d="M126.479 153.154C127.446 154.562 128.995 155.389 130.409 155.618C132.535 155.964 132.633 153.788 131.883 151.937C131.208 150.272 130.064 148.338 128.006 148.835C125.979 149.326 125.374 151.545 126.479 153.154Z" fill="#895555"/>
<path opacity="0.2" d="M127.396 151.064C127.538 150.629 128.009 150.345 128.476 150.32C128.942 150.296 129.394 150.491 129.766 150.762C130.211 151.089 130.566 151.531 130.783 152.032" stroke="black" stroke-width="0.398" stroke-miterlimit="10" stroke-linecap="round" stroke-linejoin="round"/>
<path d="M128.817 358.182C128.714 357.769 127.074 348.952 127.074 348.952L135.685 347.824L136.579 357.136L131.482 360.063L128.817 358.182Z" fill="#895555"/>
<path d="M137.466 355.961H134.755C134.141 355.961 133.574 356.271 133.212 356.767C131.648 358.901 130.473 358.095 128.772 356.087C127.691 355.962 127.4 357.202 127.312 357.535L125.285 364.908C125.109 365.523 125.466 366.166 126.081 366.342C126.191 366.373 126.304 366.388 126.418 366.386C129.71 366.386 131.268 366.386 135.366 366.386H147.899C151.316 366.386 152.024 362.943 150.617 362.624C144.289 361.226 139.807 359.364 137.852 357.523C137.488 357.2 137.86 356.959 137.466 355.961Z" fill="#263238"/>
<path d="M143.35 358.057C143.635 357.852 143.806 357.523 143.81 357.172C143.834 356.983 143.748 356.798 143.589 356.694C142.739 356.092 139.349 357.677 138.969 357.863C138.926 357.878 138.893 357.911 138.878 357.954C138.85 358.032 138.891 358.118 138.969 358.146C139.802 358.344 140.653 358.453 141.509 358.473C142.151 358.534 142.797 358.388 143.35 358.057ZM143.377 356.951C143.446 356.994 143.481 357.075 143.465 357.154C143.451 357.407 143.328 357.643 143.129 357.801C142.359 358.376 140.5 358.128 139.5 357.942C140.907 357.322 142.907 356.623 143.377 356.951Z" fill="#407BFF"/>
<path d="M139.083 358.182C140.101 357.757 142.233 356.084 142.119 355.199C142.101 355.013 141.968 354.792 141.508 354.73C139.65 354.518 138.853 357.855 138.853 357.996C138.835 358.054 138.852 358.116 138.897 358.156C138.932 358.166 138.969 358.166 139.003 358.156L139.083 358.182ZM141.446 355.004C141.792 355.04 141.792 355.163 141.792 355.208C141.889 355.748 140.34 357.138 139.233 357.722C139.463 356.943 140.145 354.996 141.322 354.996L141.446 355.004Z" fill="#407BFF"/>
<path d="M139.349 358.055C138.415 358.182 137.549 358.74 137.047 359.538" stroke="#407BFF" stroke-width="0.398" stroke-miterlimit="10" stroke-linecap="round" stroke-linejoin="round"/>
<path d="M141.033 359.322C140.1 359.45 139.233 360.008 138.73 360.805" stroke="#407BFF" stroke-width="0.398" stroke-miterlimit="10" stroke-linecap="round" stroke-linejoin="round"/>
<path d="M143.129 360.389C142.195 360.516 141.328 361.074 140.826 361.872" stroke="#407BFF" stroke-width="0.398" stroke-miterlimit="10" stroke-linecap="round" stroke-linejoin="round"/>
<path d="M172.465 358.182C172.362 357.769 170.723 348.952 170.723 348.952L179.334 347.824L180.228 357.136L175.131 360.063L172.465 358.182Z" fill="#895555"/>
<path d="M174.804 289.937C172.449 270.818 162.411 221.295 162.411 221.295L137.889 222.837C137.889 222.837 140.169 229.883 143.176 239.848C146.019 249.307 149.489 261.381 152.264 272.553C154.454 281.408 155.892 289.721 156.825 295.642C160.336 317.949 170.593 355.551 170.593 355.551L180.817 354.274C180.817 354.274 177.233 309.809 174.804 289.937Z" fill="#407BFF"/>
<path opacity="0.3" d="M174.804 289.937C172.449 270.818 162.411 221.295 162.411 221.295L137.889 222.837C137.889 222.837 140.169 229.883 143.176 239.848C146.019 249.307 149.489 261.381 152.264 272.553C154.454 281.408 155.892 289.721 156.825 295.642C160.336 317.949 170.593 355.551 170.593 355.551L180.817 354.274C180.817 354.274 177.233 309.809 174.804 289.937Z" fill="black"/>
<path opacity="0.2" d="M145.946 235.965L143.652 240.91C146.215 250.369 149.185 260.758 152.099 271.884C153.187 260.921 151.458 242.475 145.946 235.965Z" fill="black"/>
<path d="M125.108 223.65C125.108 223.65 127.578 270.104 125.447 292.448C123.571 312.097 127.074 354.997 127.074 354.997L138.198 354.431C138.198 354.431 140.352 314.383 143.583 294.37C146.533 276.077 149.184 222.123 149.184 222.123L125.108 223.65Z" fill="#407BFF"/>
<path opacity="0.3" d="M125.108 223.65C125.108 223.65 127.578 270.104 125.447 292.448C123.571 312.097 127.074 354.997 127.074 354.997L138.198 354.431C138.198 354.431 140.352 314.383 143.583 294.37C146.533 276.077 149.184 222.123 149.184 222.123L125.108 223.65Z" fill="black"/>
<path opacity="0.2" d="M120.965 178.535C121.732 182.393 122.313 186.17 122.76 189.842C122.879 190.817 122.991 191.793 123.088 192.746C125.86 188.397 127.307 183.335 127.251 178.178L120.965 178.535Z" fill="black"/>
<path d="M109.204 184.293C109.204 184.293 98.6758 203.893 99.8101 208.104C100.944 212.315 117.057 223.941 117.057 223.941L120.938 219.89C120.938 219.89 109.66 206.13 109.66 205.118C109.66 204.105 120.563 188.666 120.563 188.666L109.204 184.293Z" fill="#895555"/>
<path d="M162.598 181.337L167.855 190.702L173.586 175.729L177.057 178.619C177.057 178.619 170.798 206.263 167.202 206.686C163.607 207.108 154.49 187.438 154.49 187.438L162.598 181.337Z" fill="#895555"/>
<path d="M157.458 168.858C163.118 174.228 169.392 179.912 169.392 179.912L157.431 190.28C157.431 190.28 143.905 178.02 144.367 172.017C144.873 165.514 153.57 165.171 157.458 168.858Z" fill="#263238"/>
<path d="M127.221 167.303C128.107 167.161 129.016 167.035 129.917 166.923C134.658 166.313 139.43 165.975 144.21 165.91C144.8 165.915 145.381 165.937 145.953 165.977C148.652 166.143 151.339 166.474 153.996 166.967C153.996 166.967 158.72 192.745 163.332 225.941L124.539 223.625C124.241 221.071 124.457 213.518 123.936 203.612C123.712 199.381 123.354 194.719 122.759 189.84C121.941 182.839 120.602 175.907 118.752 169.105C118.752 169.105 122.714 168.011 127.221 167.303Z" fill="#151515"/>
<path d="M127.265 180.36C124.032 187.443 119.996 194.788 119.996 194.788L105.357 188.377C105.357 188.377 116.329 169.032 118.753 169.107C125.902 167.668 130.788 172.644 127.265 180.36Z" fill="#151515"/>
<path d="M181.115 355.961H178.404C177.79 355.961 177.222 356.271 176.86 356.767C175.297 358.901 174.122 358.095 172.421 356.087C171.34 355.962 171.049 357.202 170.96 357.535L168.934 364.908C168.758 365.523 169.114 366.166 169.73 366.342C169.839 366.373 169.952 366.388 170.066 366.386C173.359 366.386 174.916 366.386 179.015 366.386H191.548C194.964 366.386 195.673 362.943 194.265 362.624C187.937 361.226 183.456 359.364 181.5 357.523C181.137 357.2 181.51 356.959 181.115 355.961Z" fill="#263238"/>
<path d="M186.998 358.057C187.283 357.852 187.454 357.523 187.458 357.172C187.482 356.983 187.396 356.798 187.237 356.694C186.387 356.092 182.998 357.677 182.617 357.863C182.575 357.878 182.541 357.911 182.526 357.954C182.499 358.032 182.539 358.118 182.617 358.146C183.451 358.344 184.301 358.453 185.157 358.473C185.8 358.534 186.444 358.388 186.998 358.057ZM187.025 356.951C187.094 356.994 187.129 357.075 187.113 357.154C187.099 357.407 186.976 357.643 186.776 357.801C186.006 358.376 184.148 358.128 183.147 357.942C184.555 357.322 186.556 356.623 187.025 356.951Z" fill="#407BFF"/>
<path d="M182.731 358.182C183.749 357.757 185.882 356.084 185.767 355.199C185.75 355.013 185.617 354.792 185.157 354.73C183.298 354.518 182.501 357.855 182.501 357.996C182.483 358.054 182.501 358.116 182.546 358.156C182.581 358.166 182.618 358.166 182.652 358.156L182.731 358.182ZM185.095 355.004C185.44 355.04 185.44 355.163 185.44 355.208C185.537 355.748 183.988 357.138 182.882 357.722C183.112 356.943 183.793 354.996 184.97 354.996L185.095 355.004Z" fill="#407BFF"/>
<path d="M182.998 358.055C182.064 358.182 181.198 358.74 180.695 359.538" stroke="#407BFF" stroke-width="0.398" stroke-miterlimit="10" stroke-linecap="round" stroke-linejoin="round"/>
<path d="M184.682 359.322C183.748 359.45 182.881 360.008 182.379 360.805" stroke="#407BFF" stroke-width="0.398" stroke-miterlimit="10" stroke-linecap="round" stroke-linejoin="round"/>
<path d="M186.777 360.389C185.844 360.516 184.977 361.074 184.475 361.872" stroke="#407BFF" stroke-width="0.398" stroke-miterlimit="10" stroke-linecap="round" stroke-linejoin="round"/>
<path d="M155.178 165.062C151.007 163.872 146.728 163.532 142.554 163.945L140.014 157.885L127.922 161.666L129.286 168.093C125.621 170.134 122.298 172.85 119.548 176.204L113.483 173.722L107.607 184.946L113.101 188.516C111.912 192.687 111.571 196.966 111.983 201.139L105.924 203.68L109.706 215.772L116.133 214.408C118.172 218.073 120.889 221.395 124.244 224.145L121.763 230.21L132.986 236.086L136.557 230.592C140.728 231.781 145.006 232.122 149.18 231.71L151.721 237.77L163.813 233.989L162.448 227.561C166.113 225.522 169.436 222.805 172.185 219.451L178.25 221.932L184.126 210.708L178.632 207.138C179.822 202.968 180.162 198.689 179.749 194.514L185.81 191.974L182.028 179.883L175.601 181.247C173.561 177.582 170.844 174.259 167.49 171.51L169.972 165.445L158.749 159.569L155.178 165.062ZM152.23 181.898C162.339 185.976 166.156 198.181 160.173 207.292C155.745 214.035 146.982 216.775 139.503 213.757C129.395 209.677 125.579 197.475 131.561 188.364C135.988 181.621 144.75 178.879 152.23 181.898Z" fill="#7970FF"/>
<path d="M117.369 216.869C117.369 216.869 122.88 215.261 124.231 216.084C125.582 216.909 123.643 218.067 123.643 218.067C123.643 218.067 125.855 216.924 126.467 217.797C127.203 218.846 125.166 220.05 125.166 220.05C125.166 220.05 127.01 219.19 127.503 220.004C128.014 220.848 125.811 222.37 125.811 222.37C125.811 222.37 127.224 222.011 127.247 222.77C127.27 223.529 122.658 226.852 120.676 226.893C118.695 226.935 114.606 220.878 114.035 219.355C113.871 218.918 113.722 218.125 115.051 216.444C115.33 216.092 115.838 216.006 116.212 216.255L117.205 216.915L117.369 216.869Z" fill="#895555"/>
<path opacity="0.2" d="M123.705 218.17C123.702 218.171 123.699 218.173 123.695 218.175L119.744 219.984C119.691 220.008 119.624 219.98 119.595 219.92C119.566 219.861 119.587 219.791 119.639 219.768L123.59 217.96C123.643 217.936 123.71 217.964 123.739 218.023C123.766 218.078 123.75 218.142 123.705 218.17Z" fill="#7970FF"/>
<path opacity="0.2" d="M125.121 220.215L125.119 220.217L121.462 222.256C121.411 222.284 121.343 222.261 121.311 222.204C121.278 222.145 121.291 222.09 121.344 222.048L125.001 220.008C125.052 219.98 125.12 220.003 125.152 220.061C125.184 220.117 125.171 220.186 125.121 220.215Z" fill="#7970FF"/>
<path opacity="0.2" d="M125.751 222.546L123.077 224.139C123.027 224.169 122.959 224.147 122.925 224.09C122.891 224.034 122.904 223.963 122.954 223.933L125.628 222.34C125.678 222.309 125.746 222.332 125.78 222.389C125.814 222.446 125.801 222.516 125.751 222.546Z" fill="#7970FF"/>
<path d="M174.316 179.848C174.316 179.848 168.953 181.898 167.54 181.186C166.126 180.473 167.965 179.161 167.965 179.161C167.965 179.161 165.853 180.48 165.172 179.66C164.354 178.674 166.286 177.309 166.286 177.309C166.286 177.309 164.518 178.315 163.961 177.545C163.383 176.745 165.455 175.048 165.455 175.048C165.455 175.048 164.076 175.521 163.992 174.767C163.909 174.012 168.236 170.327 170.207 170.124C172.179 169.922 176.746 175.629 177.438 177.099C177.637 177.522 177.85 178.299 176.661 180.083C176.412 180.456 175.912 180.583 175.52 180.366L174.476 179.789L174.316 179.848Z" fill="#895555"/>
<path opacity="0.2" d="M167.894 179.064C167.897 179.062 167.9 179.06 167.903 179.059L171.694 176.936C171.745 176.908 171.814 176.93 171.847 176.988C171.88 177.045 171.865 177.116 171.816 177.142L168.025 179.265C167.974 179.293 167.905 179.27 167.872 179.214C167.84 179.16 167.851 179.095 167.894 179.064Z" fill="#7970FF"/>
<path opacity="0.2" d="M166.316 177.14L166.319 177.138L169.799 174.809C169.847 174.777 169.917 174.795 169.953 174.849C169.991 174.904 169.982 174.961 169.933 175.007L166.453 177.336C166.405 177.369 166.336 177.351 166.298 177.297C166.261 177.243 166.27 177.173 166.316 177.14Z" fill="#7970FF"/>
<path opacity="0.2" d="M165.502 174.867L168.038 173.063C168.086 173.028 168.155 173.045 168.193 173.099C168.232 173.153 168.224 173.224 168.177 173.258L165.641 175.062C165.593 175.096 165.524 175.08 165.485 175.026C165.447 174.972 165.454 174.901 165.502 174.867Z" fill="#7970FF"/>
</svg>
