<svg width="577" height="328" viewBox="0 0 577 328" fill="none" xmlns="http://www.w3.org/2000/svg">
<path d="M44.2225 326.663C44.2225 326.663 -24.2532 244.178 9.21243 159.259C31.026 103.907 112.852 73.5775 159.031 103.907C178.699 116.825 241.799 104.343 275.491 50.8616C340.963 -53.0658 569.46 10.0509 527.861 169.615C507.73 246.833 589.128 249.64 547.653 326.827L44.2225 326.663Z" fill="#EBF3FA"/>
<path d="M94.9086 190.907C94.9086 190.907 88.0025 182.851 94.4826 177.733C94.4826 177.733 99.2161 174.867 103.076 175.1C103.076 175.1 97.6069 184.271 99.3761 185.183C101.145 186.095 104.733 174.524 104.733 174.524C104.733 174.524 115.505 173.48 118.97 175.146C118.97 175.146 109.762 182.682 111.701 183.13C113.64 183.579 123.587 176.183 123.587 176.183C123.587 176.183 133.612 177.888 133.077 184.004C132.543 190.12 129.088 192.008 127.57 191.846C126.052 191.683 117.17 188.293 116.977 189.537C116.784 190.781 122.13 194.846 125.873 195.037C125.873 195.037 118.805 202.832 114.108 200.582C109.41 198.332 109.009 194.766 106.081 193.429C103.153 192.091 100.653 192.095 101.862 193.459C103.071 194.823 108.371 196.148 110.045 199.11C111.72 202.073 113.222 204.07 108.362 203.339C103.502 202.608 95.602 199.052 95.2553 194.979C94.9086 190.907 94.9086 190.907 94.9086 190.907Z" fill="#C8DBF4"/>
<path d="M128.152 184.169C128.152 184.169 100.923 183.12 94.9097 190.907C94.9097 190.907 93.5798 194.89 89.4875 198.517L88.8496 200.256C88.8496 200.256 93.568 195.281 95.2565 194.98C95.2565 194.98 92.616 185.332 128.152 184.169Z" fill="#C8DBF4"/>
<path d="M89.4868 198.517C89.4868 198.517 83.6423 202.84 83.2363 210.563L84.2971 210.658C84.2971 210.658 86.1637 202.672 89.5377 199.549C92.9118 196.426 89.4868 198.517 89.4868 198.517Z" fill="#C8DBF4"/>
<path d="M70.7629 180.776C70.7629 180.776 81.7487 174.624 76.6219 166.274C76.6219 166.274 72.5206 161.148 68.1263 159.829C68.1263 159.829 70.4699 172.28 68.1263 172.573C65.7827 172.866 66.515 158.511 66.515 158.511C66.515 158.511 54.9435 152.945 50.4026 153.385C50.4026 153.385 57.5799 165.542 55.2363 165.249C52.8926 164.956 44.8364 152.652 44.8364 152.652C44.8364 152.652 32.9719 150.455 31.0676 157.486C29.1633 164.517 32.2393 168.032 33.9972 168.472C35.7549 168.911 47.0336 168.764 46.7407 170.229C46.4477 171.694 38.8308 174.038 34.5832 172.719C34.5832 172.719 39.2704 184.291 45.4224 183.705C51.5743 183.119 53.4786 179.311 57.2869 179.018C61.0952 178.725 63.8784 179.75 61.9742 180.776C60.0699 181.801 53.6252 181.111 50.549 183.727C47.473 186.342 44.983 187.953 50.6956 189.125C56.4082 190.297 66.6614 189.564 68.7121 185.17C70.7629 180.776 70.7629 180.776 70.7629 180.776Z" fill="#C8DBF4"/>
<path d="M36.4883 159.683C36.4883 159.683 67.2482 169.643 70.7636 180.775C70.7636 180.775 70.6172 185.755 73.6932 191.468V193.665C73.6932 193.665 70.4708 186.195 68.7131 185.169C68.7131 185.169 75.5972 175.502 36.4883 159.683Z" fill="#C8DBF4"/>
<path d="M73.6924 191.468C73.6924 191.468 78.4361 198.672 75.7319 207.44L74.5115 207.112C74.5115 207.112 75.696 197.454 73.2141 192.597C70.7321 187.739 73.6924 191.468 73.6924 191.468Z" fill="#C8DBF4"/>
<path d="M88.2409 172.291C88.2409 172.291 73.7597 164.182 80.5175 153.176C80.5175 153.176 85.9239 146.418 91.7163 144.68C91.7163 144.68 88.6269 161.093 91.7163 161.479C94.8055 161.865 93.8402 142.943 93.8402 142.943C93.8402 142.943 109.094 135.605 115.079 136.185C115.079 136.185 105.618 152.211 108.708 151.825C111.797 151.439 122.417 135.219 122.417 135.219C122.417 135.219 138.056 132.323 140.566 141.591C143.077 150.859 139.022 155.493 136.705 156.072C134.388 156.652 119.52 156.458 119.907 158.389C120.293 160.32 130.333 163.409 135.933 161.672C135.933 161.672 129.754 176.925 121.644 176.153C113.535 175.381 111.025 170.36 106.005 169.974C100.985 169.588 97.3159 170.939 99.8261 172.291C102.336 173.643 110.832 172.734 114.886 176.181C118.941 179.628 122.224 181.752 114.693 183.297C107.163 184.841 93.6472 183.876 90.9442 178.084C88.2409 172.291 88.2409 172.291 88.2409 172.291Z" fill="#D4E4F8"/>
<path d="M133.422 144.487C133.422 144.487 92.8745 157.617 88.2406 172.291C88.2406 172.291 88.4336 178.856 84.3789 186.386V189.283C84.3789 189.283 88.6266 179.435 90.9438 178.084C90.9438 178.084 81.8689 165.34 133.422 144.487Z" fill="#D4E4F8"/>
<path d="M84.3785 186.386C84.3785 186.386 78.1254 195.882 81.6902 207.441L83.2988 207.009C83.2988 207.009 81.7372 194.277 85.0087 187.874C88.2805 181.471 84.3785 186.386 84.3785 186.386Z" fill="#D4E4F8"/>
<path d="M87.7532 232.506C103.42 232.506 116.12 219.806 116.12 204.14H59.3867C59.3867 219.806 72.0868 232.506 87.7532 232.506Z" fill="#D4E4F8"/>
<path d="M116.51 233.95H58.9941C58.9941 232.017 60.561 230.45 62.4938 230.45H113.011C114.943 230.45 116.51 232.017 116.51 233.95Z" fill="#D4E4F8"/>
<path d="M116.764 204.14H58.4531V205.01H116.764V204.14Z" fill="#9FC1F4"/>
<path d="M234.126 326.074L234.266 326.071C235.412 326.05 236.297 325.113 236.189 324.035L228.543 247.672L221.871 248.267L232.851 325.042C232.936 325.641 233.485 326.085 234.126 326.074Z" fill="#8CB4F4"/>
<path d="M160.498 326.074L160.358 326.071C159.212 326.05 158.327 325.113 158.435 324.035L166.081 247.672L172.753 248.267L161.774 325.042C161.688 325.641 161.14 326.085 160.498 326.074Z" fill="#8CB4F4"/>
<path d="M288.069 326.074L288.21 326.071C289.356 326.05 290.241 325.113 290.133 324.035L282.487 247.672L275.814 248.267L286.794 325.042C286.88 325.641 287.428 326.085 288.069 326.074Z" fill="#8CB4F4"/>
<path d="M162.776 236.564L149.203 169.538C147.461 160.463 154.981 152.165 164.745 152.388L190.92 152.986C199.95 153.192 207.802 159.236 210.311 167.912L230.169 236.564H162.776Z" fill="#8CB4F4"/>
<path d="M170.987 236.564L157.414 169.538C155.672 160.463 163.192 152.165 172.956 152.388L199.131 152.986C208.161 153.192 216.013 159.236 218.522 167.912L238.38 236.564H170.987Z" fill="#8CB4F4"/>
<path d="M166.558 248.788H270.121C272.201 248.788 273.904 247.086 273.904 245.005V240.347C273.904 238.266 272.201 236.563 270.121 236.563H162.775V245.005C162.775 247.086 164.478 248.788 166.558 248.788Z" fill="#8CB4F4"/>
<path d="M215.159 248.788H281.177C282.853 248.788 284.225 247.417 284.225 245.741V239.611C284.225 237.935 282.854 236.563 281.177 236.563H215.159C213.483 236.563 212.111 237.935 212.111 239.611V245.741C212.111 247.417 213.483 248.788 215.159 248.788Z" fill="#8CB4F4"/>
<path d="M131.875 235.691V237.977C131.875 238.778 131.615 239.432 131.299 239.432H47.8527C47.5365 239.432 47.2773 238.778 47.2773 237.977V235.691C47.2773 234.891 47.5365 234.236 47.8527 234.236H131.299C131.615 234.237 131.875 234.891 131.875 235.691Z" fill="#9ABFE2"/>
<path d="M131.874 235.691V237.977C131.874 238.778 131.636 239.432 131.346 239.432H65.0984C64.8081 239.432 64.5703 238.778 64.5703 237.977V235.691C64.5703 234.891 64.8081 234.236 65.0984 234.236H131.346C131.636 234.237 131.874 234.891 131.874 235.691Z" fill="#BAD4F4"/>
<path d="M110.754 239.433H51.5117V325.78H110.754V239.433Z" fill="#C8DBF4"/>
<path d="M127.357 239.433H68.1152V325.78H127.357V239.433Z" fill="#DFEBFD"/>
<path d="M124.174 321.013H71.2988V241.872H124.174V321.013ZM71.8697 320.442H123.603V242.443H71.8697V320.442Z" fill="#B7D3F3"/>
<path d="M123.888 268.053H71.584V268.624H123.888V268.053Z" fill="#B7D3F3"/>
<path d="M123.888 294.743H71.584V295.314H123.888V294.743Z" fill="#B7D3F3"/>
<path d="M103.095 246.977H93.3895C92.9186 246.977 92.5332 246.591 92.5332 246.12C92.5332 245.649 92.9186 245.264 93.3895 245.264H103.095C103.566 245.264 103.952 245.649 103.952 246.12C103.952 246.591 103.566 246.977 103.095 246.977Z" fill="#B7D3F3"/>
<path d="M103.095 273.077H93.3895C92.9186 273.077 92.5332 272.692 92.5332 272.221C92.5332 271.75 92.9186 271.364 93.3895 271.364H103.095C103.566 271.364 103.952 271.75 103.952 272.221C103.952 272.692 103.566 273.077 103.095 273.077Z" fill="#B7D3F3"/>
<path d="M103.095 300.285H93.3895C92.9186 300.285 92.5332 299.9 92.5332 299.429C92.5332 298.958 92.9186 298.572 93.3895 298.572H103.095C103.566 298.572 103.952 298.958 103.952 299.429C103.952 299.9 103.566 300.285 103.095 300.285Z" fill="#B7D3F3"/>
<path d="M364.441 84.1783H326.89C325.166 84.1783 323.756 82.7678 323.756 81.0441V44.8012C323.756 43.0773 325.166 41.667 326.89 41.667H364.441C366.165 41.667 367.575 43.0773 367.575 44.8012V81.0441C367.575 82.768 366.165 84.1783 364.441 84.1783Z" fill="#C0D8FB"/>
<path d="M362.814 82.3368H328.517C326.943 82.3368 325.654 81.0486 325.654 79.4742V46.3714C325.654 44.797 326.942 43.5088 328.517 43.5088H362.814C364.389 43.5088 365.677 44.797 365.677 46.3714V79.4742C365.677 81.0486 364.389 82.3368 362.814 82.3368Z" fill="#DFEBFD"/>
<path d="M345.665 48.2958C346.167 48.2958 346.573 47.8894 346.573 47.3881C346.573 46.8868 346.167 46.4805 345.665 46.4805C345.164 46.4805 344.758 46.8868 344.758 47.3881C344.758 47.8894 345.164 48.2958 345.665 48.2958Z" fill="#B7D3F3"/>
<path d="M352.081 48.671C352.325 48.2328 352.877 48.075 353.316 48.3186C353.754 48.5621 353.912 49.1148 353.668 49.553C353.425 49.9911 352.872 50.1491 352.434 49.9054C351.996 49.6619 351.838 49.1091 352.081 48.671Z" fill="#B7D3F3"/>
<path d="M358.357 53.6558C358.778 53.384 359.34 53.5053 359.612 53.9266C359.884 54.3478 359.762 54.9098 359.341 55.1814C358.92 55.4532 358.358 55.3318 358.086 54.9106C357.815 54.4893 357.936 53.9276 358.357 53.6558Z" fill="#B7D3F3"/>
<path d="M361.464 61.3721C361.966 61.3721 362.372 61.7785 362.372 62.2797C362.372 62.781 361.966 63.1874 361.464 63.1874C360.963 63.1874 360.557 62.781 360.557 62.2797C360.557 61.7785 360.963 61.3721 361.464 61.3721Z" fill="#B7D3F3"/>
<path d="M359.878 70.3264C360.232 70.6809 360.232 71.2556 359.878 71.6101C359.523 71.9646 358.949 71.9646 358.594 71.6101C358.24 71.2556 358.24 70.6811 358.594 70.3264C358.948 69.9719 359.523 69.9719 359.878 70.3264Z" fill="#B7D3F3"/>
<path d="M354.178 76.0412C354.533 76.3957 354.533 76.9705 354.178 77.3249C353.824 77.6794 353.249 77.6794 352.895 77.3249C352.54 76.9705 352.54 76.3957 352.895 76.0412C353.249 75.6868 353.824 75.6868 354.178 76.0412Z" fill="#B7D3F3"/>
<path d="M344.758 78.9869C344.758 78.4857 345.164 78.0791 345.665 78.0791C346.167 78.0791 346.573 78.4855 346.573 78.9869C346.573 79.4882 346.167 79.8946 345.665 79.8946C345.164 79.8946 344.758 79.4882 344.758 78.9869Z" fill="#B7D3F3"/>
<path d="M339.221 48.671C338.978 48.2328 338.425 48.075 337.986 48.3186C337.548 48.5621 337.39 49.1148 337.634 49.553C337.877 49.9911 338.43 50.1491 338.868 49.9054C339.307 49.6619 339.464 49.1091 339.221 48.671Z" fill="#B7D3F3"/>
<path d="M332.945 53.6558C332.524 53.384 331.962 53.5053 331.69 53.9266C331.418 54.3478 331.539 54.9098 331.961 55.1814C332.382 55.4532 332.944 55.3318 333.215 54.9106C333.487 54.4893 333.366 53.9276 332.945 53.6558Z" fill="#B7D3F3"/>
<path d="M329.838 61.3721C329.336 61.3721 328.93 61.7785 328.93 62.2797C328.93 62.781 329.336 63.1874 329.838 63.1874C330.339 63.1874 330.745 62.781 330.745 62.2797C330.745 61.7785 330.339 61.3721 329.838 61.3721Z" fill="#B7D3F3"/>
<path d="M331.424 70.3264C331.07 70.6809 331.07 71.2556 331.424 71.6101C331.779 71.9646 332.353 71.9646 332.708 71.6101C333.062 71.2556 333.062 70.6811 332.708 70.3264C332.353 69.9719 331.779 69.9719 331.424 70.3264Z" fill="#B7D3F3"/>
<path d="M337.125 76.0412C336.771 76.3957 336.771 76.9705 337.125 77.3249C337.48 77.6794 338.054 77.6794 338.409 77.3249C338.763 76.9705 338.763 76.3957 338.409 76.0412C338.054 75.6868 337.48 75.6868 337.125 76.0412Z" fill="#B7D3F3"/>
<path d="M345.422 62.2807C345.422 61.7794 345.828 61.373 346.33 61.373C346.831 61.373 347.237 61.7794 347.237 62.2807C347.237 62.782 346.831 63.1883 346.33 63.1883C345.828 63.1883 345.422 62.782 345.422 62.2807Z" fill="#B7D3F3"/>
<path d="M346.453 50.9404H346.205V62.2799H346.453V50.9404Z" fill="#B7D3F3"/>
<path d="M352.002 57.2425L345.99 61.9619L346.449 62.5468L352.461 57.8274L352.002 57.2425Z" fill="#B7D3F3"/>
<path d="M252.995 222.537C247.392 232.288 240.346 236.052 240.346 236.052H211.029C211.029 236.052 257.269 215.098 252.995 222.537Z" fill="#233862"/>
<path d="M289.152 319.413C288.835 322.489 293.113 323.284 298.075 323.584C303.037 323.885 301.525 324.885 308.316 326.19C315.106 327.496 317.852 325.663 318.354 324.749C318.802 323.938 315.652 322.629 312.297 321.151C311.875 320.967 311.452 320.777 311.029 320.586C307.253 318.878 305.161 315.452 302.237 312.266C299.467 309.248 296.91 299.653 296.91 299.653L287.686 297.579C287.686 297.579 290.189 306.217 291.051 309.903C291.558 312.071 290.75 314.48 290.036 316.312C289.651 317.309 289.262 318.33 289.152 319.413Z" fill="#FFB27D"/>
<path d="M298.076 323.585C303.038 323.885 301.527 324.886 308.317 326.191C315.107 327.496 317.853 325.664 318.356 324.749C318.803 323.939 315.654 322.629 312.298 321.152L312.245 321.208C312.245 321.208 307.444 322.781 301.939 321.221C297.451 319.951 293.129 317.215 290.037 316.312C289.652 317.309 289.264 318.33 289.153 319.414C288.836 322.49 293.115 323.284 298.076 323.585Z" fill="#0F2549"/>
<path d="M275.177 212.549C270.213 209.064 237.381 202.85 220.626 201.053L202.107 184.978C202.107 184.978 186.344 208.325 186.219 226.186C186.161 234.514 189.997 235.342 189.998 235.343C189.998 235.343 249.364 235.784 251.967 236.052C256.226 236.491 261.845 247.103 263.249 256.768C264.653 266.433 289.409 305.742 289.409 305.742C289.409 305.742 294.572 307.396 296.959 307.256C299.527 307.105 300.715 306.245 300.715 306.245C300.715 306.245 286.37 220.409 275.177 212.549Z" fill="#233862"/>
<path d="M273.797 319.413C273.48 322.489 277.758 323.284 282.72 323.584C287.681 323.885 286.17 324.885 292.96 326.19C299.75 327.496 302.497 325.663 302.999 324.749C303.446 323.938 300.297 322.629 296.941 321.151C296.519 320.967 296.096 320.777 295.674 320.586C291.898 318.878 289.805 315.452 286.881 312.266C284.112 309.248 281.554 299.653 281.554 299.653L272.33 297.579C272.33 297.579 274.834 306.217 275.696 309.903C276.202 312.071 275.394 314.48 274.68 316.312C274.296 317.309 273.907 318.33 273.797 319.413Z" fill="#FFB27D"/>
<path d="M282.721 323.585C287.683 323.885 286.171 324.886 292.961 326.191C299.751 327.496 302.498 325.664 303 324.749C303.447 323.939 300.298 322.629 296.943 321.152L296.889 321.208C296.889 321.208 292.088 322.781 286.583 321.221C282.096 319.951 277.773 317.215 274.682 316.312C274.297 317.309 273.908 318.33 273.798 319.414C273.481 322.49 277.759 323.284 282.721 323.585Z" fill="#233862"/>
<path d="M259.687 212.549C255.375 209.521 242.406 207.174 228.09 205.431C224.132 204.95 220.882 202.072 219.915 198.204L186.617 184.978C186.617 184.978 170.854 208.325 170.729 226.186C170.671 234.514 174.507 235.342 174.508 235.343C174.508 235.343 233.874 235.784 236.477 236.052C240.736 236.491 246.355 247.103 247.759 256.768C249.163 266.433 273.919 305.742 273.919 305.742C273.919 305.742 279.081 307.396 281.469 307.256C284.037 307.105 285.225 306.245 285.225 306.245C285.225 306.245 270.88 220.409 259.687 212.549Z" fill="#2B478B"/>
<path d="M215.129 87.9729C210.553 85.57 203.591 85.245 202.46 85.0929C188.924 83.2738 180.777 102.942 180.298 108.902C179.415 119.887 173.604 121.562 165.424 128.441C149.024 142.235 153.833 158.265 162.801 164.22C168.182 167.794 177.666 164.22 177.666 164.22C177.8 164.314 203.604 149.795 216.324 142.791C235.393 140.081 226.789 94.0959 215.129 87.9729Z" fill="#233862"/>
<path d="M212.306 136.025C212.365 136.056 206.291 138.818 201.907 137.369C197.782 136.01 194.149 129.801 194.208 129.791C195.998 129.532 197.818 127.766 198.326 117.301L199.119 117.5L212.448 120.869C212.448 120.869 211.92 125.092 211.703 129.084C211.519 132.437 211.557 135.627 212.306 136.025Z" fill="#FFB27D"/>
<path d="M212.447 120.869C212.447 120.869 212.447 121.738 211.949 125.666C204.41 123.765 201.086 121.265 198.742 118.404L212.447 120.869Z" fill="#ED975D"/>
<path d="M215.292 121.401C215.292 121.401 197.665 124.271 196.047 113.267C194.429 102.263 191.064 95.2219 202.25 92.9243C213.435 90.6267 216.244 94.5034 217.678 98.0452C219.111 101.587 219.835 120.371 215.292 121.401Z" fill="#FFB27D"/>
<path d="M215.309 92.4629C215.309 92.4629 207.304 105.098 200.158 108.091C193.013 111.083 189.502 109.564 189.502 109.564C189.502 109.564 192.753 104.635 193.6 98.0165C193.849 96.0656 195.12 94.393 196.946 93.6617C202.074 91.608 211.993 88.3695 215.309 92.4629Z" fill="#233862"/>
<path d="M208.277 93.6842C208.277 93.6842 212.969 96.0895 214.901 98.3438C216.766 100.519 218.919 106.422 218.766 109.073C218.766 109.073 221.08 96.3689 216.259 92.0019C211.148 87.3712 208.277 93.6842 208.277 93.6842Z" fill="#233862"/>
<path d="M226.407 162.909C225.872 198.737 226.26 191.25 222.341 194.65C221.397 195.468 218.742 195.956 215.248 196.187C204.262 196.916 184.949 195.106 184.215 193.076C181.681 186.051 183.47 183.868 181.355 173.113C181.135 171.969 180.862 170.731 180.542 169.383C178.779 161.996 177.064 159.483 183.318 147.615C188.989 136.865 195.659 128.132 196.188 128.447C211.151 137.329 211.664 129.884 211.664 129.884C211.664 129.884 226.669 145.432 226.407 162.909Z" fill="white"/>
<path d="M211.664 129.884C211.664 129.884 226.978 132.48 228.786 139.109C230.594 145.738 241.233 184.709 241.233 184.709C241.233 184.709 233.406 186.115 229.79 182.499C226.174 178.883 217.209 148.952 217.209 148.952L211.664 129.884Z" fill="white"/>
<path d="M215.248 196.187C204.262 196.917 184.949 195.107 184.215 193.076C181.681 186.051 183.47 183.869 181.355 173.113L186.654 158.192C186.654 158.192 185.778 174.808 190.678 179.178C195.573 183.549 210.741 187.615 213.123 191.266C214.272 193.019 215.028 194.776 215.248 196.187Z" fill="#EBF3FF"/>
<path d="M202.66 189.198C202.66 189.198 213.499 186.785 215.248 187.747C216.997 188.709 221.271 192.212 221.806 193.431C222.341 194.65 217.912 192.505 216.472 192.119C215.539 191.869 213.083 192.722 211.868 193.128C206.752 194.833 203.618 193.955 203.618 193.955L202.66 189.198Z" fill="#FFB27D"/>
<path d="M196.188 128.447C196.188 128.447 180.848 129.344 175.81 136.371C168.718 146.262 154.65 188.417 162.712 194.039C171.792 200.37 204.038 195.695 204.038 195.695C204.038 195.695 205.111 190.68 203.618 188.253C202.125 185.827 177.863 181.908 176.743 180.788C175.623 179.669 190.74 158.953 190.74 155.593C190.74 152.234 196.188 128.447 196.188 128.447Z" fill="white"/>
<path d="M215.773 190.764C215.773 190.764 218.044 193.693 218.789 194.043C219.533 194.392 220.014 194.305 220.014 194.305L218.484 191.551L215.773 190.764Z" fill="#FFB27D"/>
<path d="M215.248 187.747L221.851 190.953C221.851 190.953 221.57 191.413 220.757 191.376C219.944 191.339 217.893 190.589 217.893 190.589L215.248 187.747Z" fill="#FFB27D"/>
<path d="M239.57 195.349H208.904C208.904 193.999 209.999 192.904 211.349 192.904H239.57V195.349Z" fill="#7970FF"/>
<path d="M239.482 161.951H286.894L275.521 195.349H227.803L239.482 161.951Z" fill="#7970FF"/>
<path d="M287.591 161.95L276.219 195.348H228.5L240.18 161.95H287.591Z" fill="#7970FF"/>
<path d="M262.03 178.341C261.735 179.617 260.462 180.651 259.186 180.651C257.91 180.651 257.114 179.617 257.409 178.341C257.704 177.065 258.977 176.03 260.253 176.03C261.529 176.03 262.324 177.065 262.03 178.341Z" fill="#7970FF"/>
<path d="M198.305 202.862H406.075C406.949 202.862 407.657 202.154 407.657 201.28V196.931C407.657 196.057 406.949 195.349 406.075 195.349H198.305C197.431 195.349 196.723 196.057 196.723 196.931V201.28C196.723 202.154 197.431 202.862 198.305 202.862Z" fill="#182D4F"/>
<path d="M411.161 326.633L411.25 326.622C412.315 326.49 413.068 325.54 412.934 324.5L394.419 199.172L387.641 199.366L409.425 325.372C409.564 326.179 410.33 326.736 411.161 326.633Z" fill="#182D4F"/>
<path d="M191.347 326.633L191.258 326.622C190.193 326.49 189.44 325.54 189.574 324.5L208.089 199.172L214.867 199.366L193.083 325.372C192.944 326.179 192.178 326.736 191.347 326.633Z" fill="#182D4F"/>
<path d="M234.21 326.633L234.121 326.622C233.057 326.49 232.303 325.54 232.437 324.5L250.952 199.172L257.731 199.366L235.946 325.372C235.807 326.179 235.041 326.736 234.21 326.633Z" fill="#182D4F"/>
<path d="M576.213 327.665H0.786707C0.354059 327.665 0 327.312 0 326.879V326.236C0 325.803 0.354059 325.449 0.786707 325.449H576.213C576.646 325.449 577 325.803 577 326.236V326.879C577 327.312 576.646 327.665 576.213 327.665Z" fill="#2E3552"/>
<path d="M343.441 326.532H380.182C381.949 324.376 381.298 316.418 381.031 313.82C380.975 313.297 380.937 312.992 380.937 312.992C380.937 312.992 368.391 302.957 366.668 310.641C366.615 310.882 366.552 311.117 366.482 311.35C364.311 318.537 354.572 321.803 348.949 322.713C345.293 323.306 343.941 325.207 343.441 326.532Z" fill="#233862"/>
<path d="M443.691 207.149C442.365 207.149 380.757 218.717 370.566 231.331C365.476 237.633 364.719 310.411 364.719 310.411C364.719 310.411 371.017 318.219 384.619 313.685C384.619 313.685 394.592 263.892 393.856 248.789C393.652 244.613 435.949 248.185 443.691 246.181C451.433 244.178 470.348 227.337 466.18 219.132C462.012 210.928 443.691 207.149 443.691 207.149Z" fill="#233862"/>
<path d="M370.831 189.327C370.831 189.327 358.404 189.495 355.465 190.755C352.526 192.014 346.564 194.905 348.159 195.349C349.755 195.793 357.368 195.166 359.012 195.418C360.657 195.67 362.686 195.349 363.694 195.349C364.701 195.349 369.401 195.349 369.401 195.349L370.831 189.327Z" fill="#FFB27D"/>
<path d="M356.301 159.504C356.301 159.504 352.064 156.477 347.949 155.889C345.603 155.554 343.321 155.136 341.942 154.65C338.146 153.312 330.55 146.482 331.125 145.681C332.967 143.113 341.835 148.547 343.383 147.963C344.931 147.38 340.408 144.164 341.981 143.033C342.803 142.442 344.725 145.403 346.296 145.7C348.422 146.103 350.084 149.105 350.723 149.261C351.969 149.566 357.425 153.624 357.425 153.624L356.301 159.504Z" fill="#FFB27D"/>
<path d="M437.556 124.147C437.556 124.147 428.096 127.079 418.776 152.745C409.455 178.411 405.916 179.797 402.528 180.804C399.14 181.812 369.402 187.732 369.402 187.732V195.349H415.223C415.223 195.349 432.405 179.005 437.556 168.002C442.707 156.999 437.556 124.147 437.556 124.147Z" fill="#ED7D2B"/>
<path d="M327.203 326.532H363.943C365.71 324.376 365.059 316.418 364.792 313.82C364.737 313.297 364.699 312.992 364.699 312.992C364.699 312.992 352.153 302.957 350.43 310.641C350.377 310.882 350.313 311.117 350.244 311.35C348.073 318.537 338.334 321.803 332.71 322.713C329.054 323.306 327.703 325.207 327.203 326.532Z" fill="#1B3051"/>
<path d="M425.537 207.149C424.21 207.149 362.603 218.717 352.412 231.331C347.321 237.633 346.564 310.411 346.564 310.411C346.564 310.411 352.863 318.219 366.465 313.685C366.465 313.685 376.438 263.892 375.702 248.789C375.498 244.613 417.795 248.185 425.537 246.181C433.278 244.178 452.194 227.337 448.026 219.132C443.858 210.928 425.537 207.149 425.537 207.149Z" fill="#2B478B"/>
<path d="M429.393 132.281C433.825 131.916 438.471 130.734 442.488 129.431C447.508 127.802 451.555 125.421 448.947 120.832C446.544 116.603 442.654 107.156 442.917 99.3301L433.575 106.859L427.229 111.972C427.229 111.972 427.255 114.986 427.949 120.269C428.076 121.232 428.224 122.272 428.399 123.383C428.54 124.281 428.128 125.177 427.356 125.656C427.308 125.686 427.26 125.715 427.212 125.745C424.059 127.727 425.681 132.588 429.393 132.281Z" fill="#FFB27D"/>
<path d="M427.229 110.728C427.229 110.728 426.904 111.822 427.462 115.864C433.119 114.941 438.408 110.429 438.408 110.429C435.528 109.638 434.48 106.526 432.335 106.816L427.229 110.728Z" fill="#ED975D"/>
<path d="M421.996 111.649C421.996 111.649 443.758 115.265 445.801 101.678C447.843 88.0914 452.028 79.4077 438.22 76.5249C424.412 73.6421 420.927 78.4198 419.142 82.789C417.357 87.1581 416.388 110.359 421.996 111.649Z" fill="#FFB27D"/>
<path d="M415.941 76.7762C415.007 80.0478 417.508 84.0331 421.706 85.3449C427.938 87.2923 426.561 94.9364 429.365 94.8326C432.169 94.7288 433.301 90.4387 435.805 93.8663C437.942 96.7898 434.027 100.256 434.297 101.859C434.759 104.612 439.07 110.243 442.956 109.961C446.841 109.678 454.112 91.213 452.657 85.5006C451.203 79.7881 445.387 73.764 439.882 72.9331C434.377 72.1022 426.732 74.479 424.967 74.479C423.201 74.479 416.446 75.009 415.941 76.7762Z" fill="#2B478B"/>
<path d="M466.471 143.004C463.326 130.345 454.632 117.061 448.754 117.072C438.738 117.091 424.339 119.734 418.525 134.076C414.244 144.639 408.532 205.398 414.987 209.719C429.743 219.598 463.945 239.763 470.021 219.199C475.588 200.356 471.93 164.976 466.471 143.004Z" fill="#7970FF"/>
<path d="M442.143 130.407C439.286 122.974 430.069 120.405 423.784 125.294C420.385 127.939 416.222 131.705 411.193 137.06C392.501 156.965 388.702 156.841 385.191 156.43C381.681 156.019 352.02 149.724 352.02 149.724C352.02 149.724 350.501 150.844 349.607 152.656C348.414 155.075 349.014 156.723 349.014 156.723C347.853 155.972 359.528 164.02 365.34 167.23C373.015 171.467 384.58 175.44 389.186 176.949C390.491 177.377 391.899 177.355 393.192 176.889C400.028 174.425 422.988 165.446 441.677 149.865C446.602 145.759 444.792 137.299 442.143 130.407Z" fill="#7970FF"/>
<path d="M449.763 117.195L447.496 112.086C447.496 112.086 427.197 113.741 423.785 125.294C423.785 125.294 439.52 117.442 449.763 117.195Z" fill="white"/>
<path d="M499.046 326.074L499.186 326.071C500.332 326.05 501.218 325.113 501.11 324.035L493.463 247.672L486.791 248.267L497.771 325.042C497.856 325.641 498.405 326.085 499.046 326.074Z" fill="#8CB4F4"/>
<path d="M459.688 326.074L459.828 326.071C460.975 326.05 461.86 325.113 461.752 324.035L454.106 247.672L447.434 248.267L458.413 325.042C458.499 325.641 459.047 326.085 459.688 326.074Z" fill="#8CB4F4"/>
<path d="M385.803 326.074L385.663 326.071C384.517 326.05 383.631 325.113 383.739 324.035L391.386 247.672L398.058 248.267L387.079 325.042C386.992 325.641 386.444 326.085 385.803 326.074Z" fill="#73A2E5"/>
<path d="M496.885 236.854L504.142 173.074C505.094 163.883 502.018 154.883 488.755 154.187L465.421 152.766C451.591 152.195 445.347 163.705 443.596 172.566L429.744 242.676L496.885 236.854Z" fill="#8CB4F4"/>
<path d="M492.986 248.789H389.424C387.343 248.789 385.641 247.087 385.641 245.006V240.348C385.641 238.267 387.343 236.564 389.424 236.564H496.769V245.006C496.769 247.087 495.067 248.789 492.986 248.789Z" fill="#73A2E5"/>
<path d="M493.831 248.788H432.682C431.066 248.788 429.744 247.466 429.744 245.85V239.501C429.744 237.885 431.066 236.563 432.682 236.563H496.769V245.85C496.769 247.466 495.447 248.788 493.831 248.788Z" fill="#8CB4F4"/>
</svg>
