<svg width="475" height="365" viewBox="0 0 475 365" fill="none" xmlns="http://www.w3.org/2000/svg">
<path d="M397.11 93.4C383.848 74.1121 352.932 70.3801 335.463 85.9582C335.105 70.2909 324.729 55.3051 310.191 49.4567C295.652 43.6073 277.789 47.233 266.682 58.2874C269.185 49.5208 259.981 40.9727 250.876 40.4987C241.772 40.0247 233.357 44.9221 225.545 49.624C217.734 54.326 209.262 59.1623 200.164 58.548C190.316 57.8826 182.127 51.014 172.921 47.4544C150.398 38.7449 121.887 54.2028 116.895 77.8299C91.9635 67.7646 59.9756 84.2446 53.6973 110.388L418.762 114.651C416.3 104.273 407.531 95.6658 397.11 93.4Z" fill="#F5F5F5"/>
<path d="M440.921 22.7107C441.647 17.4375 434.205 13.1003 428.614 12.6494C425.947 12.4339 423.178 12.8418 420.651 11.9619C415.178 10.0538 412.992 2.98282 407.651 0.730034C403.658 -0.953542 399.061 0.544643 395.19 2.49278C391.319 4.44092 387.494 6.89312 383.17 7.16971C379.408 7.41022 375.323 6.01526 372.032 7.85316C369.58 9.22207 368.295 12.0481 366.034 13.7156C363.823 15.3471 360.938 15.6918 358.195 15.8411C355.451 15.9904 352.61 16.0175 350.111 17.1619C347.613 18.3064 345.546 20.948 346.065 23.6467L440.921 22.7107Z" fill="#EBEBEB"/>
<path d="M79.7157 20.8567C80.0955 18.0949 76.1982 15.8231 73.27 15.5876C71.873 15.4753 70.4229 15.6888 69.1001 15.2278C66.234 14.2287 65.0886 10.5258 62.2917 9.34529C60.2002 8.46342 57.7931 9.24809 55.7658 10.2693C53.7385 11.2894 51.7352 12.5731 49.4704 12.7185C47.5003 12.8447 45.3607 12.1142 43.637 13.0762C42.3523 13.7937 41.6799 15.2739 40.4964 16.1467C39.3379 17.0005 37.8277 17.1819 36.3907 17.2601C34.9536 17.3383 33.4664 17.3523 32.1577 17.9516C30.8489 18.5508 29.7666 19.9348 30.0382 21.3478L79.7157 20.8567Z" fill="#EBEBEB"/>
<path d="M14.6141 187.918C14.6141 187.918 6.07399 189.131 10.9263 207.829C15.7796 226.526 19.8763 236.158 19.8763 236.158C19.8763 236.158 20.5337 240.395 17.1164 240.274C13.6992 240.153 6.72538 237.4 4.37338 241.093C1.9342 244.925 4.09078 249.525 9.46419 254.332C14.8376 259.138 26.2238 270.1 27.249 271.095C28.2561 272.072 29.0237 274.146 26.6828 274.437C24.3418 274.728 7.70546 272.826 7.27555 280.774C6.84563 288.722 24.0151 299.652 25.869 300.882C27.723 302.113 28.0176 303.08 27.6057 304.156C27.1948 305.233 21.6621 304.066 16.909 303.719C12.1549 303.373 6.58207 303.803 6.71836 308.409C6.85465 313.016 15.8868 324.63 42.1636 333.207L54.599 336.385L63.7575 327.311C82.1746 306.7 84.1538 292.121 81.9581 288.068C79.7625 284.017 74.7268 286.442 70.7904 289.129C66.8541 291.817 62.6552 295.603 61.7593 294.879C60.8623 294.155 60.6319 293.171 61.618 291.176C62.603 289.181 71.9629 271.107 67.5996 264.449C63.2364 257.792 49.8049 267.79 47.6343 268.714C45.4636 269.638 45.0868 267.459 45.4666 266.109C45.8545 264.733 50.1957 249.535 52.4294 242.681C54.6632 235.826 54.2172 230.764 50.1847 228.677C46.2954 226.664 41.6465 232.546 38.7524 234.366C35.8582 236.186 34.2989 232.192 34.2989 232.192C34.2989 232.192 33.0062 221.805 27.8132 203.199C22.6211 184.592 14.4418 187.954 14.4418 187.954" fill="#EBEBEB"/>
<path d="M54.5944 339.475C50.8354 325.795 44.5621 301.37 39.0675 280.427C33.5748 259.491 28.5842 240.541 24.8944 226.844C23.0454 220.008 21.5482 214.473 20.508 210.628C19.995 208.726 19.5951 207.241 19.3185 206.217C19.1902 205.724 19.09 205.341 19.0189 205.068C18.9537 204.808 18.9297 204.672 18.9297 204.672C18.9297 204.672 18.9798 204.8 19.058 205.056C19.1381 205.327 19.2504 205.706 19.3957 206.195C19.6883 207.215 20.1132 208.691 20.6574 210.585C21.7487 214.4 23.2889 219.929 25.1659 226.77C28.9249 240.45 33.9596 259.39 39.4523 280.326C44.9469 301.268 51.1762 325.704 54.866 339.401" fill="#E0E0E0"/>
<path d="M13.9752 245.338C13.9903 245.315 14.2809 245.471 14.795 245.775C15.3101 246.076 16.0426 246.534 16.9415 247.106C18.7373 248.256 21.1785 249.908 23.8382 251.779C26.4547 253.634 28.8208 255.31 30.6306 256.594C31.4493 257.167 32.1408 257.65 32.697 258.039C33.186 258.379 33.4506 258.577 33.4366 258.6C33.4225 258.623 33.1299 258.469 32.6138 258.169C32.0987 257.867 31.3662 257.41 30.4733 256.827C28.6875 255.658 26.2703 253.975 23.6107 252.105C20.9821 250.27 18.6051 248.61 16.7872 247.34C15.9644 246.771 15.271 246.291 14.7128 245.904C14.2227 245.562 13.9602 245.361 13.9752 245.338Z" fill="#E0E0E0"/>
<path d="M34.4688 257.988C34.3756 257.929 37.5594 252.748 41.5779 246.416C45.5984 240.083 48.9315 234.998 49.0237 235.057C49.1169 235.116 45.9341 240.296 41.9136 246.63C37.8951 252.961 34.561 258.047 34.4688 257.988Z" fill="#E0E0E0"/>
<path d="M41.4559 290.523C41.4389 290.502 41.6814 290.268 42.1354 289.863C42.6535 289.407 43.3008 288.836 44.0685 288.161C45.6979 286.722 47.9407 284.726 50.3348 282.432C52.7349 280.143 54.8343 277.995 56.3415 276.429C57.052 275.693 57.6503 275.072 58.1293 274.575C58.5542 274.139 58.7987 273.907 58.8188 273.925C58.8398 273.943 58.6344 274.21 58.2446 274.679C57.8547 275.147 57.2785 275.814 56.548 276.622C55.0909 278.24 53.0175 280.425 50.6114 282.72C48.2113 285.021 45.9324 286.991 44.2529 288.377C43.4101 289.066 42.7216 289.617 42.2356 289.984C41.7495 290.351 41.473 290.544 41.4559 290.523Z" fill="#E0E0E0"/>
<path d="M20.3986 283.161C20.4076 283.135 20.7103 283.209 21.2514 283.366C21.8707 283.555 22.6313 283.789 23.5293 284.063C25.4473 284.669 28.0869 285.53 30.9951 286.505C33.9043 287.481 36.5299 288.385 38.4249 289.059C39.3068 289.381 40.0533 289.654 40.6616 289.876C41.1867 290.077 41.4734 290.2 41.4643 290.226C41.4553 290.252 41.1527 290.178 40.6115 290.022C39.9922 289.833 39.2316 289.6 38.3347 289.324C36.4176 288.719 33.777 287.857 30.8678 286.882C27.9597 285.907 25.3341 285.003 23.4391 284.33C22.5582 284.008 21.8106 283.735 21.2023 283.513C20.6762 283.312 20.3906 283.187 20.3986 283.161Z" fill="#E0E0E0"/>
<path d="M22.9181 312.67C22.9261 312.644 23.3139 312.742 24.0064 312.942C24.768 313.171 25.7491 313.468 26.9286 313.824C29.3908 314.585 32.783 315.664 36.522 316.878C40.2619 318.093 43.6411 319.214 46.0803 320.044C47.2428 320.449 48.2118 320.785 48.9624 321.047C49.6398 321.292 50.0106 321.44 50.0026 321.466C49.9936 321.492 49.6068 321.394 48.9143 321.194C48.1527 320.965 47.1716 320.668 45.9921 320.311C43.5299 319.55 40.1377 318.471 36.3977 317.257C32.6588 316.042 29.2796 314.922 26.8404 314.091C25.678 313.686 24.7089 313.35 23.9583 313.089C23.2809 312.844 22.9101 312.696 22.9181 312.67Z" fill="#E0E0E0"/>
<path d="M49.4148 321.072C49.3968 321.051 49.6964 320.746 50.2546 320.213C50.8669 319.634 51.6656 318.878 52.6277 317.967C54.6299 316.068 57.3838 313.436 60.343 310.443C63.3073 307.455 65.9189 304.679 67.7949 302.657C68.6968 301.686 69.4454 300.88 70.0196 300.263C70.5477 299.7 70.8493 299.396 70.8694 299.415C70.8904 299.433 70.6279 299.771 70.1358 300.366C69.6438 300.961 68.9183 301.811 68.0043 302.846C66.1794 304.92 63.5959 307.731 60.6266 310.724C57.6633 313.721 54.8724 316.327 52.8201 318.174C51.7909 319.095 50.9511 319.832 50.3588 320.328C49.7676 320.827 49.4329 321.093 49.4148 321.072Z" fill="#E0E0E0"/>
<path d="M409.748 340.489C388.976 328.992 381.173 303.412 378.754 279.784C378.35 275.84 377.389 271.755 378.672 268.069C379.956 264.383 383.714 261.467 387.226 262.667C390.138 263.664 391.782 266.892 393.686 269.488C396.219 272.941 399.658 275.613 403.483 277.097C405.997 278.072 408.996 278.467 411.121 276.787C414.038 274.481 413.781 269.75 413.233 265.847C412.21 258.573 411.189 251.3 410.166 244.028C409.618 240.125 409.071 236.139 409.707 232.276C410.345 228.412 412.391 224.622 415.725 223.103C419.06 221.584 423.645 223.133 424.894 226.855C425.413 228.403 425.333 230.097 425.652 231.703C425.972 233.311 426.92 235.007 428.42 235.26C429.939 235.518 431.252 234.208 432.19 232.914C435.43 228.451 437.304 223.018 439.015 217.637C440.726 212.255 442.35 206.763 445.192 201.99C448.034 197.217 452.307 193.157 457.495 192.118C462.684 191.081 468.722 193.765 470.782 199.073C472.849 204.396 470.597 210.397 467.927 215.305C463.967 222.586 459.017 229.225 453.28 234.947C452.247 235.979 451.125 237.096 450.88 238.603C450.437 241.317 453.093 243.584 455.612 244.109C458.465 244.703 461.378 243.994 464.274 243.959C467.17 243.925 470.436 244.843 471.902 247.573C473.935 251.359 471.375 255.974 468.673 259.138C463.259 265.474 456.819 270.777 449.719 274.746C447.174 276.168 444.47 277.48 442.575 279.797C440.68 282.114 439.845 285.804 441.524 288.375C443.205 290.948 446.683 291.365 449.423 290.419C452.161 289.474 454.461 287.492 456.997 286.041C461.744 283.323 468.276 282.799 472.115 286.995C474.638 289.753 475.396 293.973 474.816 297.755C474.238 301.537 472.491 304.966 470.578 308.171C463.892 319.373 454.686 328.918 443.622 334.84C432.56 340.763 421.928 343.419 409.748 340.489Z" fill="#F5F5F5"/>
<path d="M413.443 324.958C415.084 312.64 417.933 299.312 421.364 285.489C422.234 282.038 423.093 278.626 423.94 275.264C424.792 271.911 425.638 268.585 426.653 265.39C428.66 258.989 431.048 253.004 433.483 247.401C435.916 241.795 438.417 236.574 440.79 231.71C443.174 226.85 445.476 222.366 447.74 218.377C452.244 210.377 456.591 204.407 459.733 200.441C461.3 198.451 462.564 196.952 463.434 195.948C463.853 195.47 464.181 195.095 464.429 194.813C464.656 194.56 464.776 194.436 464.785 194.444C464.794 194.453 464.691 194.595 464.481 194.864C464.245 195.158 463.933 195.549 463.536 196.047C462.701 197.083 461.469 198.612 459.935 200.626C456.861 204.643 452.589 210.64 448.151 218.65C445.92 222.645 443.648 227.133 441.29 231.998C438.942 236.872 436.461 242.096 434.049 247.695C431.637 253.292 429.271 259.259 427.284 265.629C426.278 268.809 425.443 272.106 424.59 275.468C423.744 278.828 422.887 282.237 422.019 285.687C418.591 299.5 415.73 312.79 414.06 325.065" fill="#E0E0E0"/>
<path d="M426.842 265.337C426.798 265.351 426.593 264.774 426.26 263.72C425.924 262.667 425.483 261.129 424.965 259.219C423.924 255.401 422.657 250.079 421.28 244.208C419.902 238.332 418.567 233.044 417.476 229.253C416.935 227.356 416.483 225.825 416.158 224.771C415.838 223.715 415.682 223.122 415.726 223.104C415.77 223.087 416.01 223.647 416.405 224.677C416.807 225.704 417.33 227.217 417.93 229.101C419.142 232.867 420.557 238.157 421.935 244.037C423.281 249.836 424.497 255.082 425.427 259.089C425.858 260.897 426.221 262.42 426.514 263.643C426.768 264.719 426.888 265.323 426.842 265.337Z" fill="#E0E0E0"/>
<path d="M472.538 249.477C472.546 249.527 471.889 249.702 470.697 249.975C469.508 250.256 467.784 250.653 465.672 251.215C461.438 252.304 455.641 254.029 449.328 256.231C443.017 258.445 437.389 260.711 433.364 262.475C431.345 263.342 429.729 264.091 428.61 264.602C427.492 265.117 426.864 265.38 426.842 265.335C426.821 265.289 427.412 264.938 428.496 264.342C429.583 263.752 431.173 262.928 433.173 261.996C437.159 260.104 442.779 257.754 449.11 255.531C455.441 253.324 461.282 251.671 465.559 250.709C467.693 250.209 469.438 249.888 470.647 249.694C471.857 249.508 472.529 249.427 472.538 249.477Z" fill="#E0E0E0"/>
<path d="M413.895 323.955C413.875 323.968 413.737 323.772 413.49 323.387C413.207 322.926 412.861 322.362 412.443 321.681C411.539 320.196 410.284 318.01 408.766 315.289C405.727 309.849 401.747 302.198 397.462 293.692C393.174 285.182 389.267 277.502 386.338 272.004C384.906 269.333 383.726 267.136 382.85 265.503C382.474 264.793 382.165 264.208 381.91 263.728C381.702 263.319 381.602 263.098 381.622 263.083C381.642 263.071 381.78 263.266 382.027 263.652C382.31 264.113 382.655 264.675 383.074 265.356C383.978 266.842 385.232 269.027 386.751 271.748C389.79 277.188 393.769 284.84 398.056 293.349C402.342 301.855 406.249 309.534 409.179 315.033C410.613 317.704 411.791 319.901 412.667 321.534C413.043 322.243 413.353 322.829 413.607 323.309C413.815 323.72 413.915 323.942 413.895 323.955Z" fill="#E0E0E0"/>
<path d="M473.403 293.846C473.412 293.869 473.212 293.992 472.821 294.204C472.356 294.446 471.787 294.743 471.096 295.102C469.501 295.914 467.346 297.008 464.726 298.339C459.347 301.074 451.96 304.942 443.803 309.228C435.644 313.518 428.215 317.316 422.781 319.931C420.064 321.24 417.855 322.275 416.315 322.957C415.602 323.266 415.014 323.522 414.536 323.73C414.126 323.9 413.906 323.977 413.897 323.954C413.888 323.931 414.089 323.807 414.479 323.594C414.942 323.353 415.512 323.057 416.204 322.696C417.799 321.884 419.953 320.791 422.573 319.459C427.953 316.725 435.34 312.856 443.5 308.568C451.656 304.281 459.084 300.483 464.519 297.867C467.236 296.559 469.445 295.523 470.987 294.842C471.7 294.532 472.287 294.276 472.766 294.068C473.174 293.9 473.393 293.823 473.403 293.846Z" fill="#E0E0E0"/>
<path d="M472.458 363.741C472.458 363.885 366.687 364.002 236.241 364.002C105.75 364.002 0 363.884 0 363.741C0 363.597 105.75 363.48 236.241 363.48C366.687 363.479 472.458 363.597 472.458 363.741Z" fill="#263238"/>
<path d="M410.955 358.191H57.6253C49.5632 358.191 43.0273 351.655 43.0273 343.593V119.828C43.0273 111.766 49.5632 105.23 57.6253 105.23H410.955C419.017 105.23 425.553 111.766 425.553 119.828V343.593C425.553 351.655 419.017 358.191 410.955 358.191Z" fill="#455A64"/>
<path d="M425.053 363.988H45.5373C35.8938 363.988 28.0762 356.17 28.0762 346.526V341.854H442.513V346.526C442.514 356.17 434.697 363.988 425.053 363.988Z" fill="#455A64"/>
<path d="M414.215 115.281H53.2949V328.903H414.215V115.281Z" fill="#263238"/>
<path d="M196.58 339.482L201.723 347.663H274.089L278.865 339.482H196.58Z" fill="#263238"/>
<path d="M404.243 328.219H64.0085C62.1966 328.219 60.7285 326.75 60.7285 324.939V125.792C60.7285 123.98 62.1966 122.512 64.0085 122.512H404.244C406.055 122.512 407.523 123.98 407.523 125.792V324.939C407.523 326.75 406.055 328.219 404.243 328.219Z" fill="#EBEBEB"/>
<path d="M407.153 328.521H60.3574L60.7292 137.887H407.153V328.521Z" fill="#FAFAFA"/>
<path d="M89.1716 130.456C89.1716 131.986 87.9319 133.226 86.4017 133.226C84.8724 133.226 83.6328 131.987 83.6328 130.456C83.6328 128.926 84.8724 127.688 86.4017 127.688C87.9309 127.686 89.1716 128.926 89.1716 130.456Z" fill="#263238"/>
<path d="M72.3855 130.456C72.3855 131.986 71.1458 133.226 69.6156 133.226C68.0863 133.226 66.8457 131.987 66.8457 130.456C66.8457 128.926 68.0863 127.688 69.6156 127.688C71.1458 127.686 72.3855 128.926 72.3855 130.456Z" fill="#263238"/>
<path d="M80.4441 130.456C80.4441 131.986 79.2044 133.226 77.6742 133.226C76.1449 133.226 74.9043 131.987 74.9043 130.456C74.9043 128.926 76.1439 127.688 77.6742 127.688C79.2044 127.686 80.4441 128.926 80.4441 130.456Z" fill="#263238"/>
<path d="M422.266 339.482C422.266 339.619 337.363 339.729 232.656 339.729C127.912 339.729 43.0273 339.618 43.0273 339.482C43.0273 339.346 127.912 339.234 232.656 339.234C337.363 339.234 422.266 339.345 422.266 339.482Z" fill="#263238"/>
<path d="M370.619 219.961C360.859 228.115 356.373 242.081 359.56 254.394C350.561 252.602 340.753 255.559 334.244 262.027C327.735 268.495 324.716 278.283 326.449 287.293C316.513 280.459 301.339 283.02 294.196 292.734C294.044 286.319 293.793 279.558 290.421 274.098C287.049 268.637 279.393 265.268 273.994 268.736C278.062 264.115 278.675 256.789 275.433 251.555C272.192 246.321 265.36 243.606 259.41 245.188C259.258 237.484 254.376 182.992 250.355 137.014H216.236C212.28 182.192 207.645 234.08 207.497 241.584C201.547 240.002 194.716 242.716 191.474 247.95C188.232 253.184 188.846 260.51 192.913 265.132C187.513 261.663 179.858 265.034 176.486 270.493C173.114 275.954 172.863 282.713 172.711 289.13C165.568 279.414 150.393 276.855 140.457 283.688C142.191 274.678 139.172 264.889 132.663 258.423C126.154 251.956 116.346 248.998 107.348 250.789C110.535 238.476 106.05 224.51 96.2886 216.356C86.5279 208.202 71.987 206.272 60.4375 211.599V328.421H406.47V215.204C394.921 209.876 380.38 211.806 370.619 219.961Z" fill="#7970FF"/>
<g opacity="0.8">
<path d="M370.619 219.961C360.859 228.115 356.373 242.081 359.56 254.394C350.561 252.602 340.753 255.559 334.244 262.027C327.735 268.495 324.716 278.283 326.449 287.293C316.513 280.459 301.339 283.02 294.196 292.734C294.044 286.319 293.793 279.558 290.421 274.098C287.049 268.637 279.393 265.268 273.994 268.736C278.062 264.115 278.675 256.789 275.433 251.555C272.192 246.321 265.36 243.606 259.41 245.188C259.258 237.484 254.376 182.992 250.355 137.014H216.236C212.28 182.192 207.645 234.08 207.497 241.584C201.547 240.002 194.716 242.716 191.474 247.95C188.232 253.184 188.846 260.51 192.913 265.132C187.513 261.663 179.858 265.034 176.486 270.493C173.114 275.954 172.863 282.713 172.711 289.13C165.568 279.414 150.393 276.855 140.457 283.688C142.191 274.678 139.172 264.889 132.663 258.423C126.154 251.956 116.346 248.998 107.348 250.789C110.535 238.476 106.05 224.51 96.2886 216.356C86.5279 208.202 71.987 206.272 60.4375 211.599V328.421H406.47V215.204C394.921 209.876 380.38 211.806 370.619 219.961Z" fill="white"/>
</g>
<path d="M368.541 305.103C356.164 296.789 340.3 293.86 325.77 297.208C311.24 300.555 298.256 310.13 290.766 323.021C287.754 318.901 283.718 315.591 279.165 313.296C279.484 312.432 279.763 311.552 279.969 310.651C282.012 301.707 278.162 291.704 270.647 286.44C265.318 282.707 258.383 281.533 252.048 282.932L241.808 137.016H228.353V271.139C220.033 272.41 214.235 282.266 217.166 290.156C211.377 291.001 206.124 294.904 203.645 300.203C202.838 301.928 202.719 305.573 203.412 309.7C193.308 309.837 183.298 314.842 177.32 323.022C169.829 310.13 156.844 300.556 142.315 297.209C127.785 293.862 111.922 296.79 99.5444 305.104C96.026 288.066 76.9765 275.962 60.0586 280.012V328.649L216.177 328.445C217.209 328.734 218.302 328.903 219.47 328.903L257.639 328.453L408.028 328.65V280.013C391.109 275.961 372.059 288.065 368.541 305.103Z" fill="#7970FF"/>
<g opacity="0.6">
<path d="M368.541 305.103C356.164 296.789 340.3 293.86 325.77 297.208C311.24 300.555 298.256 310.13 290.766 323.021C287.754 318.901 283.718 315.591 279.165 313.296C279.484 312.432 279.763 311.552 279.969 310.651C282.012 301.707 278.162 291.704 270.647 286.44C265.318 282.707 258.383 281.533 252.048 282.932L241.808 137.016H228.353V271.139C220.033 272.41 214.235 282.266 217.166 290.156C211.377 291.001 206.124 294.904 203.645 300.203C202.838 301.928 202.719 305.573 203.412 309.7C193.308 309.837 183.298 314.842 177.32 323.022C169.829 310.13 156.844 300.556 142.315 297.209C127.785 293.862 111.922 296.79 99.5444 305.104C96.026 288.066 76.9765 275.962 60.0586 280.012V328.649L216.177 328.445C217.209 328.734 218.302 328.903 219.47 328.903L257.639 328.453L408.028 328.65V280.013C391.109 275.961 372.059 288.065 368.541 305.103Z" fill="white"/>
</g>
<path d="M226.656 139.646C222.171 141.776 220.144 147.917 222.479 152.298C223.4 154.027 224.902 155.548 225.101 157.497C225.406 160.484 222.58 162.821 221.707 165.694C220.683 169.063 222.919 173.058 226.326 173.948C227.861 174.349 229.698 174.279 230.726 175.487C232.038 177.028 231.091 179.589 232.213 181.274C233.226 182.795 235.59 182.869 237.112 181.859C238.635 180.849 239.475 179.09 240.075 177.364C240.675 175.638 241.127 173.822 242.164 172.317C243.305 170.661 245.052 169.534 246.44 168.078C249.779 164.575 250.799 159.318 250.048 154.536C249.297 149.755 246.979 145.363 244.36 141.293" fill="#7970FF"/>
<g opacity="0.3">
<path d="M226.656 139.646C222.171 141.776 220.144 147.917 222.479 152.298C223.4 154.027 224.902 155.548 225.101 157.497C225.406 160.484 222.58 162.821 221.707 165.694C220.683 169.063 222.919 173.058 226.326 173.948C227.861 174.349 229.698 174.279 230.726 175.487C232.038 177.028 231.091 179.589 232.213 181.274C233.226 182.795 235.59 182.869 237.112 181.859C238.635 180.849 239.475 179.09 240.075 177.364C240.675 175.638 241.127 173.822 242.164 172.317C243.305 170.661 245.052 169.534 246.44 168.078C249.779 164.575 250.799 159.318 250.048 154.536C249.297 149.755 246.979 145.363 244.36 141.293" fill="white"/>
</g>
<path d="M230.594 142.172C226.796 143.844 225.132 149.113 227.278 152.664C228.59 154.833 231.136 156.792 230.519 159.25C230.1 160.918 228.312 161.94 227.798 163.58C227.114 165.764 229.184 168.08 231.455 168.356C233.727 168.632 235.929 167.416 237.648 165.906C243.61 160.67 245.06 150.382 241.345 143.371" fill="#7970FF"/>
<path d="M250.181 108.768C250.181 108.768 269.693 121.676 267.561 143.995L249.621 135.945L250.181 108.768Z" fill="#7970FF"/>
<path d="M217.758 135.506L222.189 142.852H245.189L249.621 135.927L217.758 135.506Z" fill="#263238"/>
<path d="M232.497 61.3806C223.407 61.9887 216.4 69.6358 216.588 78.7446L217.756 135.925H249.619L250.684 78.7108C250.869 68.7214 242.466 60.7137 232.497 61.3806Z" fill="#7970FF"/>
<g opacity="0.8">
<path d="M232.497 61.3806C223.407 61.9887 216.4 69.6358 216.588 78.7446L217.756 135.925H249.619L250.684 78.7108C250.869 68.7214 242.466 60.7137 232.497 61.3806Z" fill="white"/>
</g>
<path d="M217.198 108.768C217.198 108.768 197.686 121.676 199.817 143.995L217.757 135.945L217.198 108.768Z" fill="#7970FF"/>
<path d="M216.768 76.8496C223.503 70.9508 244.656 71.0792 250.336 75.8798C248.874 54.6512 232.666 46.7129 232.666 46.7129C216.08 58.1885 216.768 76.8496 216.768 76.8496Z" fill="#7970FF"/>
<path d="M232.666 46.7129C232.666 46.7129 232.733 46.7689 232.856 46.8839C232.983 47.0035 233.165 47.175 233.402 47.3985C233.643 47.6273 233.938 47.9085 234.287 48.2406C234.462 48.4074 234.65 48.5866 234.851 48.7786C235.04 48.9828 235.241 49.1999 235.454 49.4298C235.876 49.8931 236.353 50.4014 236.86 50.9715C237.338 51.5667 237.858 52.2132 238.415 52.9076C238.68 53.2665 238.938 53.6481 239.213 54.0367C239.478 54.4312 239.783 54.8181 240.041 55.2534C240.563 56.1187 241.141 57.0185 241.636 58.0274C242.672 60.0161 243.612 62.3059 244.267 64.8646C244.606 66.1408 244.856 67.4864 245.033 68.881C245.128 69.5766 245.184 70.2908 245.281 70.9998C245.366 71.7129 245.353 72.4685 245.359 73.2014C245.369 79.1277 245.284 85.6399 245.208 92.4764C245.043 106.154 244.852 118.533 244.705 127.494C244.626 131.971 244.562 135.594 244.518 138.105C244.492 139.354 244.471 140.325 244.457 140.99C244.449 141.316 244.442 141.566 244.437 141.741C244.432 141.91 244.424 141.996 244.424 141.996C244.424 141.996 244.419 141.909 244.419 141.741C244.42 141.566 244.421 141.316 244.422 140.99C244.429 140.326 244.438 139.354 244.45 138.105C244.482 135.594 244.527 131.97 244.582 127.493C244.698 118.527 244.858 106.15 245.035 92.4747C245.111 85.6387 245.201 79.1254 245.2 73.2026C245.194 72.4563 245.211 71.7426 245.127 71.0237C245.03 70.3019 244.976 69.5952 244.883 68.9009C244.709 67.5115 244.463 66.1717 244.129 64.9008C243.482 62.3519 242.553 60.0686 241.527 58.084C241.038 57.0769 240.465 56.1783 239.948 55.3129C239.693 54.8776 239.391 54.4907 239.127 54.0962C238.855 53.7076 238.599 53.3248 238.338 52.9659C237.785 52.2698 237.271 51.6221 236.797 51.0251C236.295 50.4533 235.822 49.9427 235.404 49.4765C235.193 49.2448 234.995 49.0266 234.808 48.8206C234.61 48.6269 234.424 48.446 234.251 48.2773C233.907 47.9412 233.615 47.6564 233.378 47.4242C233.146 47.1949 232.968 47.0192 232.845 46.8973C232.724 46.7771 232.666 46.7129 232.666 46.7129Z" fill="#263238"/>
<path d="M234.292 81.4073C238.509 82.3386 241.115 86.7711 240.114 91.3074C239.112 95.8437 234.881 98.7666 230.665 97.8353C226.448 96.904 223.842 92.4715 224.843 87.9352C225.845 83.3989 230.076 80.476 234.292 81.4073Z" fill="#FAFAFA"/>
<path d="M234.293 81.408C234.292 81.411 234.247 81.4069 234.161 81.3952C234.066 81.3818 233.94 81.3637 233.779 81.3409C233.694 81.3281 233.601 81.3141 233.498 81.2989C233.393 81.2943 233.279 81.2896 233.155 81.2843C233.032 81.2785 232.899 81.2727 232.756 81.2668C232.614 81.2668 232.463 81.2826 232.302 81.2902C231.98 81.2937 231.63 81.3654 231.244 81.4279C230.867 81.5242 230.452 81.6199 230.032 81.799C229.186 82.131 228.277 82.6655 227.444 83.4527C226.616 84.2381 225.847 85.2686 225.361 86.5261C225.244 86.8418 225.114 87.1593 225.037 87.4989C224.995 87.6669 224.942 87.835 224.906 88.0077C224.876 88.1816 224.847 88.3572 224.817 88.5335L224.772 88.7996L224.752 89.0703C224.738 89.2518 224.724 89.4339 224.711 89.6177C224.714 89.8021 224.717 89.987 224.721 90.1738L224.726 90.4544L224.758 90.7351C224.901 92.2348 225.46 93.7893 226.483 95.0777C227.477 96.3877 228.989 97.3564 230.682 97.7514C232.385 98.1074 234.165 97.8652 235.619 97.0955C237.09 96.3574 238.251 95.1827 239.013 93.8826L239.16 93.6411L239.283 93.389C239.365 93.2209 239.445 93.0546 239.526 92.8889C239.591 92.7168 239.655 92.5452 239.719 92.3754L239.815 92.121L239.886 91.8607C239.933 91.688 239.98 91.5165 240.026 91.3461C240.067 91.1745 240.089 91 240.122 90.8296C240.195 90.4889 240.211 90.1463 240.238 89.8108C240.326 88.4646 240.063 87.2065 239.643 86.1457C239.219 85.0808 238.618 84.2131 237.991 83.556C237.686 83.217 237.35 82.9556 237.048 82.7093C236.725 82.4905 236.437 82.2781 236.146 82.1392C236.004 82.0645 235.873 81.9869 235.745 81.9268C235.613 81.8725 235.49 81.8223 235.375 81.7751C235.261 81.7278 235.156 81.6841 235.058 81.6444C234.959 81.6152 234.868 81.5884 234.786 81.5638C234.631 81.5166 234.508 81.4798 234.417 81.4518C234.335 81.4261 234.292 81.411 234.293 81.408C234.293 81.4051 234.337 81.4145 234.422 81.4349C234.514 81.4582 234.639 81.4903 234.797 81.5306C234.88 81.5528 234.972 81.5767 235.073 81.6035C235.172 81.6415 235.279 81.6829 235.394 81.7272C235.511 81.7722 235.636 81.8212 235.77 81.8725C235.901 81.9309 236.034 82.0067 236.179 82.0797C236.475 82.2156 236.768 82.4257 237.098 82.6434C237.406 82.8884 237.749 83.1493 238.062 83.4895C238.704 84.1483 239.319 85.023 239.757 86.1002C240.19 87.1739 240.465 88.4506 240.382 89.8184C240.357 90.1592 240.342 90.5075 240.269 90.8541C240.237 91.028 240.214 91.2048 240.174 91.3793C240.127 91.5526 240.08 91.7271 240.033 91.9033L239.961 92.1683L239.865 92.4273C239.8 92.6006 239.735 92.7751 239.67 92.9508C239.589 93.1194 239.507 93.2898 239.424 93.4608L239.299 93.7175L239.151 93.9638C238.379 95.2901 237.198 96.4904 235.697 97.2467C234.213 98.0344 232.39 98.2853 230.647 97.9201C228.913 97.5168 227.365 96.5219 226.352 95.1827C225.309 93.8651 224.743 92.2791 224.602 90.7515L224.57 90.4655L224.565 90.1796C224.562 89.9899 224.56 89.8009 224.557 89.6136C224.571 89.4268 224.586 89.2413 224.6 89.0569L224.621 88.7815L224.668 88.5113C224.699 88.3316 224.73 88.1536 224.76 87.9768C224.797 87.8011 224.851 87.6313 224.896 87.4604C224.976 87.1155 225.108 86.7934 225.228 86.473C225.729 85.1975 226.516 84.1553 227.361 83.364C228.211 82.571 229.138 82.0365 229.998 81.7091C230.425 81.5323 230.846 81.4396 231.229 81.3474C231.619 81.289 231.974 81.2219 232.299 81.2231C232.461 81.2178 232.614 81.205 232.757 81.2073C232.9 81.2166 233.034 81.2254 233.159 81.233C233.283 81.2412 233.397 81.2487 233.503 81.2557C233.605 81.2738 233.699 81.2908 233.784 81.3059C233.944 81.3363 234.07 81.3596 234.164 81.3771C234.25 81.3952 234.293 81.4051 234.293 81.408Z" fill="#263238"/>
<path d="M224.42 88.3636C224.418 88.4633 222.622 88.4138 220.459 88.8059C218.294 89.1834 216.625 89.8492 216.588 89.7559C216.573 89.7179 216.97 89.5014 217.652 89.2394C218.333 88.9768 219.303 88.6822 220.403 88.4861C221.502 88.2918 222.515 88.2334 223.244 88.2457C223.974 88.2562 224.422 88.3221 224.42 88.3636Z" fill="#263238"/>
<path d="M250.181 88.3525C250.171 88.3992 249.628 88.328 248.75 88.2189C247.872 88.1092 246.66 87.9709 245.317 87.8758C243.973 87.7818 242.753 87.7486 241.869 87.7345C240.985 87.72 240.436 87.7135 240.434 87.6663C240.431 87.6237 240.977 87.549 241.866 87.5046C242.754 87.4603 243.985 87.4568 245.34 87.5513C246.694 87.6476 247.913 87.8232 248.786 87.9913C249.659 88.1599 250.189 88.3105 250.181 88.3525Z" fill="#263238"/>
<path d="M250.358 121.074C250.357 121.085 250.24 121.084 250.02 121.071C249.763 121.053 249.444 121.029 249.056 121.001C248.173 120.933 246.976 120.841 245.517 120.729C242.528 120.518 238.392 120.316 233.822 120.319C229.249 120.326 225.113 120.536 222.125 120.754C220.666 120.869 219.469 120.963 218.586 121.032C218.198 121.061 217.88 121.086 217.624 121.105C217.403 121.118 217.286 121.12 217.285 121.109C217.284 121.098 217.398 121.074 217.616 121.04C217.871 121.005 218.187 120.96 218.573 120.907C219.405 120.795 220.612 120.662 222.106 120.525C225.094 120.249 229.239 120.001 233.821 119.994C238.402 119.992 242.547 120.23 245.535 120.501C247.03 120.635 248.238 120.765 249.07 120.875C249.455 120.928 249.772 120.972 250.027 121.007C250.245 121.04 250.359 121.063 250.358 121.074Z" fill="#263238"/>
<path d="M225.268 96.5607C225.27 96.6091 225.07 96.6278 224.933 96.8554C224.867 96.9633 224.824 97.1203 224.87 97.2545C224.908 97.387 225.053 97.4896 225.233 97.5048C225.414 97.5171 225.573 97.4389 225.632 97.3134C225.698 97.188 225.679 97.0263 225.631 96.9096C225.531 96.6634 225.336 96.6144 225.346 96.5671C225.332 96.5274 225.615 96.4825 225.832 96.7993C225.928 96.9475 226.005 97.1815 225.905 97.4366C225.807 97.6986 225.495 97.8573 225.208 97.8293C224.921 97.8129 224.637 97.6075 224.581 97.3333C224.522 97.066 224.633 96.8466 224.751 96.7153C225.014 96.4352 225.288 96.5233 225.268 96.5607Z" fill="#263238"/>
<path d="M232.211 100.305C232.213 100.353 232.013 100.372 231.876 100.599C231.811 100.707 231.767 100.864 231.813 100.999C231.852 101.131 231.996 101.234 232.176 101.249C232.357 101.261 232.516 101.183 232.575 101.058C232.641 100.932 232.622 100.77 232.574 100.654C232.474 100.408 232.28 100.359 232.29 100.311C232.275 100.272 232.559 100.227 232.776 100.543C232.871 100.692 232.948 100.926 232.848 101.181C232.75 101.443 232.438 101.601 232.151 101.573C231.864 101.557 231.58 101.352 231.524 101.077C231.465 100.81 231.577 100.591 231.694 100.459C231.958 100.179 232.232 100.267 232.211 100.305Z" fill="#263238"/>
<path d="M239.875 97.111C239.877 97.1595 239.677 97.1781 239.54 97.4057C239.475 97.5137 239.431 97.6706 239.477 97.8048C239.516 97.9373 239.66 98.04 239.841 98.0552C240.021 98.068 240.18 97.9892 240.239 97.8638C240.305 97.7383 240.286 97.5767 240.238 97.46C240.138 97.2137 239.944 97.1647 239.954 97.1174C239.939 97.0778 240.223 97.0328 240.44 97.3497C240.536 97.4979 240.612 97.7319 240.512 97.9869C240.414 98.2489 240.102 98.4076 239.815 98.3796C239.528 98.3633 239.244 98.1579 239.188 97.8836C239.129 97.6164 239.241 97.397 239.358 97.2657C239.622 96.9861 239.896 97.0743 239.875 97.111Z" fill="#263238"/>
<path d="M242.361 91.3849C242.364 91.4334 242.163 91.452 242.026 91.679C241.961 91.787 241.918 91.944 241.963 92.0782C242.002 92.2106 242.147 92.3133 242.327 92.3285C242.508 92.3408 242.666 92.2626 242.725 92.1371C242.791 92.0117 242.773 91.85 242.725 91.7333C242.624 91.4871 242.43 91.438 242.44 91.3908C242.425 91.3511 242.709 91.3062 242.926 91.623C243.022 91.7712 243.098 92.0052 242.998 92.2602C242.9 92.5222 242.588 92.681 242.302 92.6529C242.015 92.6366 241.73 92.4312 241.674 92.1569C241.616 91.8897 241.727 91.6703 241.844 91.539C242.109 91.2595 242.382 91.3476 242.361 91.3849Z" fill="#263238"/>
<path d="M222.734 90.8317C222.737 90.8802 222.537 90.8988 222.399 91.1264C222.334 91.2344 222.291 91.3913 222.336 91.5255C222.375 91.658 222.52 91.7607 222.7 91.7759C222.881 91.7881 223.04 91.7099 223.098 91.5845C223.164 91.459 223.146 91.2974 223.098 91.1807C222.997 90.9344 222.803 90.8854 222.813 90.8381C222.799 90.7985 223.082 90.7535 223.299 91.0704C223.395 91.2186 223.471 91.4526 223.372 91.7076C223.274 91.9696 222.961 92.1283 222.675 92.1003C222.388 92.084 222.104 91.8786 222.048 91.6043C221.989 91.3371 222.1 91.1177 222.217 90.9864C222.482 90.7069 222.755 90.795 222.734 90.8317Z" fill="#263238"/>
<path d="M239.86 82.9782C239.858 82.9298 240.058 82.9111 240.195 82.6841C240.26 82.5762 240.303 82.4192 240.258 82.285C240.219 82.1525 240.075 82.0498 239.894 82.0347C239.713 82.0224 239.555 82.1006 239.496 82.2261C239.43 82.3515 239.448 82.5132 239.496 82.6299C239.597 82.8761 239.791 82.9251 239.781 82.9724C239.796 83.0121 239.512 83.057 239.295 82.7401C239.199 82.5919 239.123 82.3579 239.223 82.1029C239.321 81.8409 239.633 81.6822 239.919 81.7102C240.206 81.7266 240.491 81.932 240.547 82.2062C240.606 82.4735 240.494 82.6929 240.377 82.8242C240.113 83.1031 239.839 83.015 239.86 82.9782Z" fill="#263238"/>
<path d="M232.198 79.5817C232.195 79.5333 232.396 79.5146 232.533 79.2876C232.598 79.1797 232.641 79.0227 232.596 78.8885C232.557 78.756 232.412 78.6533 232.232 78.6382C232.051 78.6259 231.893 78.7041 231.834 78.8296C231.768 78.955 231.786 79.1167 231.834 79.2334C231.935 79.4796 232.129 79.5286 232.119 79.5759C232.134 79.6156 231.85 79.6605 231.633 79.3437C231.537 79.1954 231.461 78.9614 231.561 78.7064C231.659 78.4444 231.971 78.2857 232.257 78.3137C232.544 78.3301 232.829 78.5355 232.885 78.8097C232.943 79.077 232.832 79.2964 232.715 79.4277C232.45 79.7066 232.177 79.6185 232.198 79.5817Z" fill="#263238"/>
<path d="M224.624 82.9782C224.621 82.9298 224.821 82.9111 224.958 82.6841C225.024 82.5762 225.067 82.4192 225.021 82.285C224.982 82.1525 224.838 82.0498 224.658 82.0347C224.477 82.0224 224.318 82.1006 224.259 82.2261C224.193 82.3515 224.212 82.5132 224.26 82.6299C224.36 82.8761 224.555 82.9251 224.545 82.9724C224.559 83.0121 224.276 83.057 224.059 82.7401C223.963 82.5919 223.887 82.3579 223.986 82.1029C224.084 81.8409 224.397 81.6822 224.683 81.7102C224.97 81.7266 225.254 81.932 225.31 82.2062C225.369 82.4735 225.258 82.6929 225.141 82.8242C224.876 83.1031 224.603 83.015 224.624 82.9782Z" fill="#263238"/>
<path d="M231.231 111.116L231.911 145.257C231.931 146.246 232.748 147.033 233.737 147.017C234.709 147.001 235.491 146.218 235.502 145.246C235.57 139.096 235.795 118.378 235.833 111.07C235.841 109.659 234.589 108.586 233.193 108.793C232.048 108.964 231.208 109.958 231.231 111.116Z" fill="#7970FF"/>
<g opacity="0.3">
<path d="M231.231 111.116L231.911 145.257C231.931 146.246 232.748 147.033 233.737 147.017C234.709 147.001 235.491 146.218 235.502 145.246C235.57 139.096 235.795 118.378 235.833 111.07C235.841 109.659 234.589 108.586 233.193 108.793C232.048 108.964 231.208 109.958 231.231 111.116Z" fill="black"/>
</g>
<path d="M232.284 48.658C232.388 48.7735 231.251 49.874 229.603 51.7985C228.774 52.7566 227.846 53.9441 226.876 55.3031C225.923 56.675 224.938 58.2249 224.02 59.9177C223.114 61.6186 222.364 63.2945 221.745 64.8461C221.146 66.4047 220.667 67.8343 220.325 69.0545C219.628 71.4901 219.337 73.0452 219.184 73.0231C219.072 73.0096 219.121 71.4108 219.657 68.8864C219.919 67.6237 220.338 66.1427 220.904 64.5316C221.49 62.9281 222.234 61.1985 223.162 59.4567C224.103 57.723 225.134 56.1487 226.149 54.7762C227.181 53.4154 228.185 52.249 229.094 51.3346C230.904 49.4947 232.211 48.571 232.284 48.658Z" fill="white"/>
<path d="M216.452 112.165C216.546 112.309 214.931 113.359 212.68 115.446C212.401 115.711 212.11 115.987 211.807 116.275C211.506 116.564 211.221 116.896 210.91 117.221C210.276 117.861 209.68 118.617 209.032 119.393C207.791 120.99 206.542 122.834 205.44 124.891C204.362 126.962 203.542 129.034 202.922 130.959C202.647 131.931 202.358 132.851 202.187 133.735C202.094 134.176 201.98 134.597 201.911 135.01C201.844 135.422 201.779 135.818 201.718 136.197C201.262 139.233 201.306 141.157 201.134 141.161C201.067 141.163 201.002 140.686 200.943 139.813C200.93 139.59 200.916 139.348 200.9 139.086C200.894 138.82 200.908 138.532 200.914 138.221C200.937 137.6 200.929 136.889 201.034 136.111C201.077 135.72 201.122 135.312 201.169 134.888C201.22 134.462 201.317 134.027 201.395 133.572C201.537 132.659 201.802 131.707 202.062 130.701C202.65 128.71 203.469 126.566 204.579 124.436C205.712 122.32 207.021 120.435 208.334 118.827C209.019 118.046 209.655 117.291 210.33 116.659C210.661 116.338 210.966 116.012 211.289 115.73C211.613 115.453 211.925 115.185 212.223 114.929C212.806 114.405 213.398 114.009 213.898 113.64C214.151 113.461 214.382 113.287 214.605 113.142C214.83 113.007 215.038 112.882 215.23 112.768C215.985 112.324 216.416 112.109 216.452 112.165Z" fill="white"/>
<path d="M191.341 223.49C189.793 222.603 188.893 220.707 189.183 218.947C189.473 217.186 190.933 215.68 192.684 215.335C194.284 215.021 196.281 215.473 197.289 214.192C198.205 213.029 197.514 211.485 197.916 209.613C198.307 207.793 199.922 206.865 201.691 206.891C203.461 206.917 205.101 208.066 205.985 209.6C206.868 211.134 207.426 213.498 207.22 215.255C206.745 219.29 204.591 221.357 201.915 223.066C199.239 224.774 194.163 225.164 191.341 223.49Z" fill="#7970FF"/>
<g opacity="0.8">
<path d="M191.341 223.49C189.793 222.603 188.893 220.707 189.183 218.947C189.473 217.186 190.933 215.68 192.684 215.335C194.284 215.021 196.281 215.473 197.289 214.192C198.205 213.029 197.514 211.485 197.916 209.613C198.307 207.793 199.922 206.865 201.691 206.891C203.461 206.917 205.101 208.066 205.985 209.6C206.868 211.134 207.426 213.498 207.22 215.255C206.745 219.29 204.591 221.357 201.915 223.066C199.239 224.774 194.163 225.164 191.341 223.49Z" fill="white"/>
</g>
<path d="M248.42 202.566C248.228 200.792 249.233 198.949 250.827 198.15C252.422 197.349 254.499 197.646 255.807 198.859C257.001 199.968 257.809 201.85 259.438 201.913C260.917 201.97 261.761 200.503 263.512 199.728C265.214 198.975 266.913 199.736 267.932 201.183C268.951 202.63 268.987 204.632 268.265 206.249C267.543 207.865 265.958 209.706 264.415 210.572C260.872 212.56 257.934 212.032 254.979 210.872C252.023 209.711 248.725 205.833 248.42 202.566Z" fill="#7970FF"/>
<g opacity="0.8">
<path d="M248.42 202.566C248.228 200.792 249.233 198.949 250.827 198.15C252.422 197.349 254.499 197.646 255.807 198.859C257.001 199.968 257.809 201.85 259.438 201.913C260.917 201.97 261.761 200.503 263.512 199.728C265.214 198.975 266.913 199.736 267.932 201.183C268.951 202.63 268.987 204.632 268.265 206.249C267.543 207.865 265.958 209.706 264.415 210.572C260.872 212.56 257.934 212.032 254.979 210.872C252.023 209.711 248.725 205.833 248.42 202.566Z" fill="white"/>
</g>
<path d="M209.65 182.891C208.569 183.365 207.278 184.949 207.344 186.722C207.431 189.048 209.846 191 212.138 190.595C214.431 190.191 216.032 187.529 215.317 185.315C214.601 183.1 211.745 181.879 209.65 182.891Z" fill="#7970FF"/>
<g opacity="0.8">
<path d="M209.65 182.891C208.569 183.365 207.278 184.949 207.344 186.722C207.431 189.048 209.846 191 212.138 190.595C214.431 190.191 216.032 187.529 215.317 185.315C214.601 183.1 211.745 181.879 209.65 182.891Z" fill="white"/>
</g>
<path d="M271.693 231.828C271.152 232.065 270.507 232.857 270.54 233.744C270.583 234.906 271.791 235.882 272.937 235.68C274.083 235.478 274.884 234.147 274.526 233.04C274.169 231.933 272.741 231.322 271.693 231.828Z" fill="#7970FF"/>
<g opacity="0.8">
<path d="M271.693 231.828C271.152 232.065 270.507 232.857 270.54 233.744C270.583 234.906 271.791 235.882 272.937 235.68C274.083 235.478 274.884 234.147 274.526 233.04C274.169 231.933 272.741 231.322 271.693 231.828Z" fill="white"/>
</g>
<path d="M269.88 264.562H207.596C196.668 264.562 187.811 255.704 187.811 244.777V242.004C187.811 231.077 196.668 222.219 207.596 222.219H269.88C280.807 222.219 289.665 231.077 289.665 242.004V244.777C289.665 255.703 280.807 264.562 269.88 264.562Z" fill="#7970FF"/>
<path d="M218.26 246.188L218.95 244.657C219.691 245.196 220.796 245.573 221.85 245.573C223.056 245.573 223.545 245.172 223.545 244.632C223.545 242.988 218.435 244.117 218.435 240.853C218.435 239.359 219.641 238.115 222.138 238.115C223.243 238.115 224.373 238.38 225.188 238.894L224.561 240.438C223.745 239.973 222.904 239.748 222.125 239.748C220.92 239.748 220.455 240.2 220.455 240.752C220.455 242.371 225.565 241.254 225.565 244.481C225.565 245.95 224.348 247.206 221.836 247.206C220.444 247.206 219.038 246.792 218.26 246.188Z" fill="white"/>
<path d="M228.65 239.923H225.838V238.266H233.495V239.923H230.683V247.053H228.65V239.923Z" fill="white"/>
<path d="M239.931 245.171H235.851L235.074 247.054H232.99L236.907 238.266H238.915L242.845 247.054H240.711L239.931 245.171ZM239.291 243.627L237.897 240.263L236.503 243.627H239.291Z" fill="white"/>
<path d="M250.925 249.721L247.66 244.607H247.56H245.789L245.79 248.688H243.756V238.266H247.56C249.908 238.266 251.376 239.484 251.376 241.455C251.376 242.773 250.712 243.739 249.568 244.23L252.474 248.688L250.925 249.721ZM247.447 239.924H245.79V242.988H247.447C248.689 242.988 249.318 242.41 249.318 241.456C249.318 240.489 248.689 239.924 247.447 239.924Z" fill="white"/>
<path d="M254.67 239.923H251.857V238.266H259.516V239.923H256.704V247.053H254.67V239.923Z" fill="white"/>
<path d="M392.742 344.095L404.585 348.249L404.459 359.639C398.789 361.239 397.995 364.106 397.995 364.106L409.847 363.835L420.158 342.867L412 337.53L396.752 330.859" fill="#7970FF"/>
<g opacity="0.6">
<path d="M420.157 342.866L409.845 363.834L397.994 364.106L399.289 362.294L408.914 361.545L418.422 341.73L420.157 342.866Z" fill="white"/>
</g>
<path d="M404.416 354.424C404.506 354.543 405.182 354.139 406.099 354.145C407.016 354.124 407.697 354.517 407.785 354.396C407.895 354.304 407.211 353.608 406.094 353.623C404.977 353.627 404.305 354.334 404.416 354.424Z" fill="#263238"/>
<path d="M404.545 351.597C404.666 351.678 405.177 350.966 406.118 350.761C407.057 350.546 407.824 350.971 407.898 350.846C407.937 350.792 407.796 350.597 407.459 350.422C407.128 350.249 406.586 350.123 406.004 350.253C405.422 350.383 404.986 350.729 404.76 351.027C404.531 351.327 404.487 351.564 404.545 351.597Z" fill="#263238"/>
<path d="M404.385 347.972C404.516 348.034 404.905 347.341 405.724 347.036C406.54 346.721 407.29 346.984 407.347 346.851C407.377 346.791 407.224 346.628 406.893 346.513C406.569 346.397 406.056 346.354 405.541 346.548C405.025 346.744 404.67 347.115 404.503 347.417C404.331 347.725 404.323 347.947 404.385 347.972Z" fill="#263238"/>
<path d="M403.516 347.964C403.661 347.929 403.571 347.182 403.926 346.381C404.259 345.569 404.86 345.118 404.785 344.988C404.744 344.852 403.864 345.185 403.447 346.177C403.019 347.164 403.387 348.03 403.516 347.964Z" fill="#263238"/>
<path d="M402.113 346.63C402.184 346.634 402.286 346.026 402.391 345.039C402.444 344.468 402.497 343.892 402.551 343.303C402.561 342.976 402.648 342.648 402.551 342.199C402.495 341.976 402.359 341.751 402.129 341.61C401.898 341.453 401.53 341.481 401.322 341.642C400.911 341.965 400.793 342.34 400.649 342.692C400.521 343.052 400.456 343.417 400.434 343.764C400.394 344.461 400.544 345.081 400.748 345.558C401.171 346.525 401.765 346.872 401.787 346.827C401.857 346.764 401.386 346.335 401.093 345.427C400.949 344.979 400.854 344.415 400.914 343.801C400.946 343.495 401.014 343.179 401.129 342.868C401.244 342.569 401.415 342.215 401.616 342.074C401.715 342.012 401.779 342.01 401.864 342.056C401.95 342.107 402.028 342.211 402.059 342.332C402.129 342.583 402.077 342.951 402.073 343.276C402.057 343.867 402.041 344.445 402.026 345.018C402.013 346.01 402.041 346.625 402.113 346.63Z" fill="#263238"/>
<path d="M401.92 347.146C401.966 347.115 401.617 346.597 400.705 346.299C399.828 346.026 398.282 346.083 397.343 347.5C397.295 347.634 397.305 347.824 397.394 347.959C397.481 348.098 397.603 348.168 397.705 348.213C397.918 348.304 398.099 348.306 398.259 348.326C398.594 348.356 398.918 348.352 399.224 348.324C399.836 348.268 400.371 348.108 400.792 347.925C401.641 347.552 402.033 347.121 401.995 347.076C401.947 347.007 401.487 347.319 400.664 347.579C400.254 347.708 399.752 347.819 399.19 347.845C398.909 347.858 398.614 347.852 398.311 347.818C398.156 347.798 398.003 347.784 397.912 347.738C397.81 347.677 397.838 347.695 397.839 347.659C397.85 347.602 397.963 347.48 398.074 347.378C398.183 347.275 398.299 347.181 398.421 347.1C398.664 346.936 398.923 346.814 399.182 346.732C399.7 346.567 400.204 346.577 400.615 346.657C401.442 346.829 401.868 347.214 401.92 347.146Z" fill="#263238"/>
<g opacity="0.6">
<path d="M410.696 342.717C410.713 343.493 411.356 344.109 412.132 344.092C412.908 344.075 413.524 343.431 413.507 342.655C413.49 341.878 412.846 341.263 412.07 341.28C411.294 341.297 410.679 341.94 410.696 342.717Z" fill="white"/>
</g>
<path d="M331.968 339.332L332.128 354.85C332.128 354.85 316.41 360.224 316.16 363.096L346.259 363.864L347.001 339.676L331.968 339.332Z" fill="#7970FF"/>
<g opacity="0.6">
<path d="M341.468 353.782C342.046 353.956 342.432 354.622 342.281 355.207C342.131 355.792 341.458 356.19 340.876 356.027C340.295 355.862 339.807 355.079 340.023 354.514C340.237 353.948 341.054 353.524 341.578 353.823" fill="white"/>
</g>
<g opacity="0.6">
<path d="M346.259 363.863L346.239 361.422L317.388 361.597C317.388 361.597 316.034 362.145 316.161 363.093L346.259 363.863Z" fill="white"/>
</g>
<path d="M331.643 354.683C331.644 354.83 332.378 354.915 333.088 355.406C333.812 355.878 334.169 356.525 334.306 356.471C334.442 356.446 334.246 355.562 333.374 354.981C332.508 354.395 331.615 354.547 331.643 354.683Z" fill="#263238"/>
<path d="M328.455 355.909C328.418 356.051 329.048 356.317 329.531 356.952C330.033 357.572 330.141 358.247 330.288 358.244C330.425 358.271 330.549 357.413 329.933 356.636C329.325 355.852 328.462 355.769 328.455 355.909Z" fill="#263238"/>
<path d="M326.565 359.64C326.698 359.675 326.92 358.946 326.564 358.132C326.213 357.314 325.527 356.98 325.462 357.1C325.376 357.218 325.811 357.662 326.094 358.336C326.393 359.002 326.419 359.622 326.565 359.64Z" fill="#263238"/>
<path d="M331.999 351.143C332.057 351.278 332.736 351.093 333.566 351.171C334.397 351.232 335.036 351.527 335.116 351.403C335.204 351.298 334.587 350.738 333.609 350.661C332.631 350.576 331.93 351.027 331.999 351.143Z" fill="#263238"/>
<g opacity="0.3">
<path d="M332.002 342.404L332.027 345.169L346.823 345.413L346.906 342.923L332.002 342.404Z" fill="black"/>
</g>
<path d="M332.023 348.011C332.02 348.072 332.599 348.177 333.532 348.042C333.996 347.974 334.544 347.837 335.121 347.598C335.41 347.479 335.704 347.334 335.998 347.161C336.139 347.075 336.306 346.99 336.462 346.819C336.629 346.669 336.731 346.282 336.549 346.039C336.401 345.803 336.131 345.697 335.914 345.686C335.692 345.673 335.511 345.713 335.347 345.75C335.009 345.823 334.692 345.926 334.402 346.048C333.819 346.294 333.344 346.614 332.989 346.925C332.274 347.554 332.021 348.096 332.071 348.126C332.136 348.176 332.487 347.724 333.212 347.209C333.573 346.953 334.033 346.69 334.576 346.486C334.847 346.386 335.14 346.3 335.448 346.241C335.768 346.166 336.04 346.17 336.118 346.314C336.146 346.37 336.149 346.391 336.081 346.483C336.01 346.567 335.879 346.648 335.739 346.733C335.469 346.901 335.197 347.044 334.932 347.168C334.401 347.416 333.893 347.58 333.461 347.689C332.592 347.906 332.023 347.931 332.023 348.011Z" fill="#263238"/>
<path d="M332.211 348.227C332.262 348.251 332.568 347.732 332.646 346.781C332.683 346.31 332.649 345.736 332.483 345.126C332.398 344.821 332.28 344.509 332.122 344.201C331.953 343.899 331.748 343.495 331.18 343.415C330.882 343.396 330.629 343.623 330.54 343.819C330.436 344.02 330.41 344.195 330.371 344.368C330.307 344.718 330.305 345.064 330.344 345.383C330.422 346.027 330.671 346.566 330.949 346.957C331.517 347.751 332.126 347.943 332.139 347.894C332.19 347.821 331.685 347.525 331.254 346.763C331.042 346.389 330.857 345.895 330.813 345.334C330.791 345.055 330.802 344.759 330.863 344.464C330.919 344.146 331.045 343.891 331.164 343.926C331.313 343.927 331.562 344.175 331.678 344.433C331.825 344.707 331.942 344.987 332.031 345.26C332.205 345.808 332.274 346.331 332.284 346.771C332.303 347.657 332.132 348.202 332.211 348.227Z" fill="#263238"/>
<path d="M401.936 331.423L367.277 318.534L403.712 313.42L405.547 295.67L337.411 301.616L327.789 315.467L330.323 332.849L396.706 349.726L401.936 331.423Z" fill="#263238"/>
<path d="M328.449 343.846L325.131 280.413C325.311 274.234 328.676 268.589 334.026 265.493C338.449 262.931 343.758 262.391 348.608 264.008L392.815 278.746L417.077 284.984C417.077 284.984 421.209 295.18 418.78 303.101C416.402 310.854 407.906 316.011 400.428 313.795C391.142 311.044 348.509 292.71 348.509 292.71V344.363L328.449 343.846Z" fill="#263238"/>
<path d="M399.786 313.963C399.783 313.97 399.694 313.94 399.523 313.877C399.332 313.804 399.082 313.708 398.765 313.585C398.078 313.311 397.106 312.922 395.866 312.425C393.331 311.392 389.705 309.912 385.233 308.088C376.25 304.381 363.879 299.275 350.214 293.636C349.604 293.382 348.995 293.131 348.431 292.897L348.715 292.708C348.69 307.061 348.668 319.963 348.651 329.307C348.624 333.95 348.602 337.706 348.587 340.329C348.571 341.609 348.558 342.611 348.549 343.319C348.541 343.643 348.534 343.9 348.529 344.095C348.522 344.27 348.515 344.36 348.508 344.36C348.501 344.36 348.494 344.271 348.487 344.095C348.482 343.899 348.475 343.642 348.467 343.319C348.458 342.61 348.445 341.608 348.429 340.329C348.414 337.706 348.392 333.949 348.365 329.307C348.349 319.963 348.327 307.06 348.303 292.708V292.4L348.587 292.519C349.152 292.752 349.759 293.005 350.37 293.257C364.017 298.94 376.372 304.084 385.343 307.82C389.794 309.695 393.404 311.215 395.926 312.278C397.153 312.805 398.116 313.218 398.795 313.509C399.106 313.648 399.35 313.756 399.538 313.839C399.705 313.914 399.789 313.956 399.786 313.963Z" fill="#455A64"/>
<path d="M358.957 314.036C358.969 313.937 361.146 314.325 363.499 315.638C365.861 316.935 367.344 318.574 367.266 318.637C367.181 318.731 365.605 317.261 363.3 315.996C361.006 314.715 358.922 314.158 358.957 314.036Z" fill="#455A64"/>
<path d="M344.664 284.126C344.759 284.073 345.897 285.949 347.001 288.416C348.109 290.881 348.752 292.98 348.65 293.015C348.539 293.055 347.727 291.033 346.626 288.584C345.531 286.134 344.561 284.182 344.664 284.126Z" fill="#455A64"/>
<path d="M344.762 256.174L336.944 254.713L328.73 263.091L330.247 268.427L339.822 264.901L344.762 256.174Z" fill="#FFBE9D"/>
<path d="M272.531 237.053L281.425 235.08L295.734 237.322L295.181 246.447C295.181 246.447 290.746 247.091 289.143 246.57C287.541 246.05 286.214 246.504 286.214 246.504C286.214 246.504 287.085 248.302 285.58 248.596C284.074 248.889 281.621 249.513 281.163 247.386C281.163 247.386 280.025 247.56 279.489 246.166C279.489 246.166 278.324 246.584 277.807 244.549C277.29 242.515 277.582 239.463 281.606 238.49C281.817 238.444 281.911 237.955 281.517 237.976L275.158 239.167C275.161 239.167 270.927 239.329 272.531 237.053Z" fill="#FFBE9D"/>
<path d="M280.098 243.422C280.094 243.368 280.673 243.269 281.613 243.15C282.092 243.107 282.621 242.99 283.298 243.001C283.633 243.023 284.028 243.14 284.293 243.475C284.57 243.82 284.546 244.327 284.351 244.689C283.928 245.457 283.106 245.645 282.536 245.805C281.928 245.974 281.369 246.094 280.895 246.161C279.945 246.297 279.352 246.255 279.35 246.209C279.346 246.149 279.931 246.095 280.847 245.895C281.305 245.795 281.845 245.651 282.439 245.465C282.738 245.367 283.055 245.287 283.331 245.141C283.607 244.997 283.878 244.785 284.016 244.514C284.159 244.237 284.163 243.913 284 243.705C283.837 243.489 283.55 243.378 283.269 243.352C282.694 243.322 282.101 243.41 281.636 243.42C280.69 243.47 280.103 243.475 280.098 243.422Z" fill="#EB996E"/>
<path d="M281.631 241.462C281.664 241.566 281.181 241.797 280.84 242.325C280.484 242.842 280.453 243.383 280.346 243.391C280.247 243.423 280.093 242.756 280.527 242.109C280.955 241.46 281.623 241.356 281.631 241.462Z" fill="#EB996E"/>
<path d="M284.066 244.71C284.075 244.688 284.157 244.68 284.304 244.738C284.474 244.788 284.606 245.029 284.725 245.223C284.876 245.458 284.985 245.821 284.873 246.214C284.771 246.633 284.328 246.906 283.948 247.001C283.197 247.207 282.519 247.385 282 247.433C281.485 247.485 281.165 247.433 281.164 247.384C281.163 247.328 281.473 247.283 281.955 247.166C282.436 247.054 283.1 246.835 283.84 246.634C284.195 246.533 284.457 246.367 284.541 246.104C284.634 245.842 284.586 245.558 284.49 245.355C284.376 245.1 284.335 244.939 284.228 244.866C284.127 244.782 284.054 244.736 284.066 244.71Z" fill="#EB996E"/>
<path d="M284.663 246.265C284.638 246.226 284.763 246.082 285.043 246.044C285.321 246.003 285.695 246.102 286.032 246.31C286.438 246.572 286.522 246.999 286.542 247.247C286.558 247.51 286.51 247.667 286.461 247.67C286.407 247.674 286.359 247.522 286.281 247.302C286.203 247.085 286.08 246.786 285.838 246.639C285.541 246.457 285.256 246.345 285.045 246.315C284.834 246.281 284.688 246.316 284.663 246.265Z" fill="#EB996E"/>
<path d="M289.089 239.172L285.071 240.765L281.285 243.432C281.285 243.432 281.274 244.348 283.418 244.012C285.56 243.677 287.186 242.544 287.186 242.544C287.186 242.544 289.989 244.311 292.462 243.902" fill="#FFBE9D"/>
<path d="M292.462 243.904C292.465 243.922 292.329 243.955 292.068 244.001C291.807 244.037 291.417 244.06 290.926 244.013C289.942 243.924 288.568 243.536 287.099 242.69L287.281 242.686C286.034 243.491 284.423 244.211 282.555 244.277C282.278 244.274 281.997 244.254 281.719 244.149C281.453 244.042 281.138 243.85 281.1 243.431L281.092 243.339L281.181 243.278C282.58 242.308 283.872 241.413 284.987 240.64L285.003 240.629L285.018 240.623C286.246 240.155 287.258 239.778 287.966 239.525C288.675 239.272 289.08 239.144 289.091 239.174C289.102 239.204 288.719 239.388 288.03 239.689C287.34 239.991 286.344 240.411 285.128 240.912L285.159 240.895C284.055 241.685 282.777 242.599 281.392 243.591L281.473 243.437C281.479 243.553 281.642 243.726 281.849 243.792C282.058 243.872 282.307 243.893 282.557 243.895C284.29 243.839 285.901 243.151 287.092 242.409L287.185 242.351L287.274 242.405C288.67 243.246 290.007 243.678 290.95 243.817C291.899 243.966 292.456 243.85 292.462 243.904Z" fill="#EB996E"/>
<path d="M283.262 238.975C283.245 239.077 282.79 239.072 282.326 238.787C281.86 238.504 281.641 238.1 281.721 238.037C281.804 237.967 282.115 238.215 282.52 238.458C282.921 238.707 283.284 238.869 283.262 238.975Z" fill="#EB996E"/>
<path d="M294.961 248.837L328.895 253.757C332.266 254.829 335.924 254.524 339.071 252.908L369.289 237.404L360.24 217.451C358.955 217.923 357.47 218.502 356.834 218.889L331.972 236.809L295.853 235.543L294.961 248.837Z" fill="#7970FF"/>
<path d="M416.4 284.836L414.238 281.041L391.104 275.25L393.828 279.955L416.4 284.836Z" fill="#FFBE9D"/>
<path d="M360.239 217.452C360.271 218.262 356.844 243.367 356.844 248.496C356.844 253.625 366.666 259.192 366.666 259.192L377.42 282.026H415.725L402.63 257.438L396.709 237.742C394.466 230.277 394.696 226.427 389.14 220.959L378.426 213.75L360.239 217.452Z" fill="#7970FF"/>
<path d="M371.365 237.277L377.799 264.27L345.352 255.128L339.82 264.901L382.04 284.131C387.24 286.5 393.391 284.825 396.673 280.147C398.664 277.31 399.315 273.745 398.456 270.387L389.002 233.454C387.7 228.369 382.354 225.462 377.378 227.134C373.138 228.558 370.58 232.873 371.365 237.277Z" fill="#7970FF"/>
<path d="M367.267 260.467C367.26 260.48 366.532 259.15 366.293 259.032C366.055 258.916 365.709 258.734 365.27 258.486C364.395 257.989 363.141 257.233 361.711 256.126C360.316 255.004 358.623 253.56 357.523 251.367C356.483 249.121 356.557 246.356 356.936 243.653C357.328 240.921 357.89 238.377 358.22 236.025C358.58 233.68 358.828 231.558 358.961 229.77C359.099 227.982 359.121 226.531 359.116 225.528C359.112 224.525 359.083 223.97 359.118 223.967C359.132 223.966 359.154 224.103 359.184 224.367C359.216 224.63 359.248 225.02 359.275 225.523C359.329 226.529 359.351 227.989 359.25 229.789C359.155 231.589 358.935 233.725 358.595 236.081C358.285 238.441 357.731 241.009 357.344 243.708C356.966 246.388 356.899 249.073 357.867 251.208C358.893 253.306 360.536 254.765 361.893 255.9C363.284 257.023 364.506 257.812 365.352 258.35C366.201 258.883 367.282 260.439 367.267 260.467Z" fill="#263238"/>
<path d="M380.17 215.552C380.189 215.573 379.98 215.805 379.585 216.207C379.19 216.609 378.604 217.177 377.866 217.865C376.392 219.241 374.299 221.083 371.899 223.009C369.496 224.933 367.242 226.575 365.578 227.713C364.746 228.283 364.065 228.732 363.586 229.029C363.107 229.327 362.835 229.481 362.819 229.458C362.803 229.435 363.045 229.236 363.495 228.898C364.018 228.509 364.657 228.035 365.409 227.477C367.026 226.28 369.246 224.607 371.642 222.688C374.036 220.768 376.151 218.966 377.672 217.649C378.38 217.036 378.982 216.516 379.475 216.089C379.904 215.725 380.151 215.532 380.17 215.552Z" fill="#263238"/>
<path d="M371.365 237.277C371.377 237.274 371.431 237.451 371.525 237.792C371.623 238.167 371.753 238.667 371.917 239.298C372.254 240.65 372.729 242.556 373.32 244.928C374.492 249.766 376.122 256.496 377.993 264.224L378.073 264.554L377.745 264.462C375.12 263.725 372.336 262.942 369.472 262.137C360.092 259.471 351.58 257.051 345.312 255.271L345.481 255.201C343.762 258.183 342.364 260.607 341.376 262.32C340.897 263.132 340.519 263.775 340.242 264.245C340.12 264.444 340.02 264.607 339.937 264.74C339.867 264.85 339.827 264.905 339.821 264.901C339.815 264.897 339.841 264.836 339.899 264.719C339.971 264.58 340.06 264.411 340.167 264.203C340.427 263.724 340.783 263.068 341.233 262.239C342.193 260.511 343.551 258.066 345.223 255.056L345.279 254.955L345.392 254.986C351.667 256.739 360.191 259.12 369.583 261.742C372.446 262.551 375.229 263.338 377.853 264.078L377.604 264.317C375.789 256.576 374.208 249.834 373.071 244.988C372.528 242.604 372.092 240.689 371.783 239.33C371.646 238.692 371.537 238.187 371.455 237.809C371.384 237.463 371.353 237.28 371.365 237.277Z" fill="#263238"/>
<path d="M389.146 235.598C389.16 235.595 389.214 235.754 389.305 236.061C389.402 236.411 389.527 236.857 389.68 237.409C390.002 238.635 390.446 240.322 390.987 242.383C392.063 246.639 393.529 252.432 395.148 258.833C395.943 262.052 396.72 265.106 397.377 267.909C398.026 270.71 398.314 273.347 397.996 275.528C397.702 277.712 396.902 279.36 396.184 280.346C395.468 281.346 394.888 281.725 394.888 281.725C394.853 281.691 395.389 281.265 396.052 280.256C396.716 279.259 397.457 277.633 397.707 275.492C397.981 273.355 397.673 270.773 397.007 267.995C396.311 265.204 395.549 262.145 394.748 258.933C393.175 252.522 391.751 246.718 390.704 242.454C390.215 240.38 389.816 238.682 389.525 237.448C389.402 236.889 389.303 236.436 389.224 236.082C389.159 235.768 389.132 235.602 389.146 235.598Z" fill="#263238"/>
<g opacity="0.3">
<path d="M395.032 282.027C399.783 282.464 402.54 279.755 403.048 276.048C403.329 274.006 402.653 271.966 401.988 270.015C399.076 261.476 396.131 252.866 391.51 245.117C393.255 252.871 395.482 260.315 397.227 268.069C397.797 270.601 398.006 272.076 397.964 274.672C397.923 277.267 396.76 280.089 395.032 282.027Z" fill="black"/>
</g>
<path d="M356.08 243.169C356.034 243.21 355.247 242.451 354.161 241.057C353.076 239.666 351.732 237.609 350.599 235.158C349.471 232.703 348.78 230.346 348.427 228.617C348.073 226.887 348.006 225.795 348.067 225.787C348.149 225.775 348.343 226.843 348.786 228.532C349.226 230.221 349.962 232.521 351.073 234.939C352.189 237.353 353.461 239.406 354.459 240.837C355.456 242.272 356.143 243.114 356.08 243.169Z" fill="#FAFAFA"/>
<path d="M346.78 248.667C346.72 248.704 346.132 247.878 345.258 246.496C344.383 245.114 343.227 243.17 342.034 240.979C340.84 238.785 339.834 236.761 339.148 235.275C338.461 233.79 338.086 232.849 338.149 232.819C338.216 232.787 338.708 233.672 339.477 235.111C340.334 236.708 341.359 238.619 342.492 240.729C343.65 242.825 344.698 244.721 345.575 246.308C346.366 247.735 346.842 248.628 346.78 248.667Z" fill="#FAFAFA"/>
<path d="M333.989 253.66C333.846 253.683 333.145 250.094 332.421 245.643C331.698 241.191 331.227 237.564 331.369 237.541C331.511 237.518 332.213 241.108 332.936 245.559C333.66 250.01 334.131 253.637 333.989 253.66Z" fill="#FAFAFA"/>
<path d="M322.605 252.892C322.535 252.895 322.424 252.021 322.338 250.601C322.253 249.181 322.204 247.215 322.255 245.045C322.307 242.875 322.449 240.913 322.601 239.499C322.753 238.085 322.906 237.217 322.976 237.223C323.05 237.23 323.027 238.109 322.969 239.526C322.911 240.943 322.827 242.897 322.776 245.057C322.726 247.217 322.716 249.174 322.707 250.591C322.698 252.009 322.679 252.888 322.605 252.892Z" fill="#FAFAFA"/>
<path d="M311.203 236.309C311.272 236.305 311.392 237.117 311.488 238.44C311.585 239.763 311.65 241.595 311.613 243.619C311.576 245.643 311.446 247.472 311.302 248.791C311.157 250.11 311.009 250.918 310.94 250.911C310.79 250.896 311.024 247.636 311.091 243.61C311.168 239.586 311.051 236.319 311.203 236.309Z" fill="#FAFAFA"/>
<path d="M301.847 237.514C301.99 237.527 301.861 240.265 301.559 243.627C301.256 246.991 300.893 249.707 300.75 249.694C300.607 249.681 300.736 246.944 301.038 243.58C301.341 240.217 301.704 237.501 301.847 237.514Z" fill="#FAFAFA"/>
<path d="M358.258 228.242C358.112 228.289 357.505 226.628 356.483 224.722C355.472 222.809 354.437 221.377 354.556 221.282C354.657 221.192 355.905 222.511 356.944 224.476C357.993 226.437 358.389 228.208 358.258 228.242Z" fill="#FAFAFA"/>
<path d="M375.896 255.517C375.896 255.553 375.618 255.583 375.11 255.607C374.602 255.637 373.866 255.624 372.958 255.559C371.145 255.431 368.642 254.991 366.03 254.018C363.421 253.037 361.243 251.727 359.792 250.632C359.065 250.086 358.5 249.613 358.138 249.256C357.77 248.906 357.58 248.699 357.604 248.672C357.661 248.607 358.516 249.328 360.005 250.331C361.491 251.334 363.652 252.567 366.213 253.529C368.775 254.483 371.214 254.972 372.994 255.192C374.777 255.413 375.896 255.429 375.896 255.517Z" fill="#FAFAFA"/>
<path d="M372.24 242.721C372.228 242.787 371.427 242.726 370.149 242.493C368.872 242.259 367.125 241.833 365.25 241.188C363.375 240.541 361.735 239.8 360.586 239.197C359.435 238.594 358.766 238.148 358.798 238.089C358.872 237.949 361.707 239.425 365.419 240.694C369.125 241.981 372.268 242.565 372.24 242.721Z" fill="#FAFAFA"/>
<path d="M370.117 233.515C370.141 233.639 367.625 233.814 364.805 232.672C361.974 231.554 360.272 229.692 360.376 229.618C360.48 229.492 362.276 231.116 364.998 232.187C367.707 233.289 370.128 233.351 370.117 233.515Z" fill="#FAFAFA"/>
<path d="M385.116 226.967C385.068 227.048 384.286 226.514 382.859 226.117C381.454 225.714 379.332 225.54 377.226 226.32C375.123 227.109 373.633 228.631 372.836 229.856C372.018 231.09 371.777 232.005 371.688 231.975C371.638 231.97 371.753 231.001 372.522 229.66C373.27 228.336 374.802 226.672 377.044 225.831C379.288 224.999 381.535 225.252 382.967 225.764C384.429 226.273 385.149 226.93 385.116 226.967Z" fill="#FAFAFA"/>
<path d="M386.883 239.27C386.912 239.328 386.281 239.729 385.179 240.219C384.08 240.71 382.497 241.263 380.689 241.626C378.881 241.984 377.207 242.082 376.004 242.051C374.798 242.021 374.062 241.893 374.066 241.828C374.071 241.665 377.038 241.838 380.587 241.115C384.142 240.419 386.815 239.12 386.883 239.27Z" fill="#FAFAFA"/>
<path d="M392.021 254.713C392.035 254.857 388.882 255.282 384.981 255.662C381.077 256.043 377.903 256.236 377.889 256.091C377.875 255.948 381.026 255.523 384.93 255.142C388.832 254.763 392.007 254.57 392.021 254.713Z" fill="#FAFAFA"/>
<path d="M396.537 276.108C396.527 276.142 396.244 276.085 395.737 275.95C395.229 275.821 394.509 275.581 393.636 275.24C391.887 274.566 389.566 273.388 387.182 271.815C384.799 270.24 382.777 268.632 381.341 267.444C379.907 266.252 379.053 265.476 379.097 265.421C379.143 265.364 380.079 266.039 381.57 267.154C383.062 268.265 385.109 269.819 387.469 271.379C389.83 272.937 392.088 274.147 393.78 274.9C395.47 275.661 396.563 276.026 396.537 276.108Z" fill="#FAFAFA"/>
<path d="M372.245 279.368C372.182 279.371 372.067 278.504 372.086 277.094C372.103 275.685 372.289 273.733 372.797 271.637C373.308 269.54 374.037 267.72 374.668 266.46C375.298 265.198 375.797 264.481 375.852 264.513C376.002 264.588 374.289 267.626 373.303 271.76C372.284 275.884 372.414 279.37 372.245 279.368Z" fill="#FAFAFA"/>
<path d="M360.029 272.817C359.906 272.842 359.626 269.966 360.666 266.62C361.679 263.265 363.523 261.039 363.61 261.13C363.75 261.218 362.145 263.517 361.165 266.774C360.153 270.019 360.194 272.822 360.029 272.817Z" fill="#FAFAFA"/>
<path d="M353.216 256.831C353.338 256.947 351.11 258.969 349.483 262.218C347.819 265.45 347.502 268.441 347.336 268.41C347.274 268.404 347.27 267.651 347.486 266.458C347.701 265.266 348.179 263.64 349.017 261.981C349.861 260.326 350.891 258.981 351.727 258.104C352.565 257.225 353.175 256.785 353.216 256.831Z" fill="#FAFAFA"/>
<path d="M398.232 242.833C398.338 242.913 397.259 244.197 395.382 244.932C393.511 245.683 391.845 245.487 391.867 245.356C391.864 245.198 393.436 245.155 395.189 244.447C396.952 243.761 398.127 242.717 398.232 242.833Z" fill="#FAFAFA"/>
<path d="M393.639 228.764C393.76 228.822 393.132 230.139 391.764 231.251C390.403 232.374 388.988 232.73 388.955 232.599C388.9 232.455 390.155 231.906 391.433 230.848C392.722 229.804 393.509 228.681 393.639 228.764Z" fill="#FAFAFA"/>
<path d="M377.282 219.405C377.368 219.301 378.481 220.172 379.299 221.678C380.127 223.178 380.264 224.585 380.129 224.601C379.979 224.633 379.626 223.345 378.842 221.928C378.07 220.505 377.174 219.514 377.282 219.405Z" fill="#FAFAFA"/>
<path d="M401.595 256.066C401.673 256.176 400.38 257.107 398.505 257.586C396.632 258.078 395.051 257.892 395.065 257.758C395.067 257.604 396.586 257.553 398.375 257.081C400.166 256.625 401.519 255.931 401.595 256.066Z" fill="#FAFAFA"/>
<path d="M408.601 268.398C408.613 268.541 406.171 268.865 403.147 269.121C400.123 269.377 397.662 269.468 397.648 269.325C397.636 269.182 400.078 268.858 403.103 268.602C406.127 268.346 408.589 268.255 408.601 268.398Z" fill="#FAFAFA"/>
<path d="M413.466 278.321C413.462 278.465 409.85 278.491 405.399 278.38C400.945 278.269 397.34 278.061 397.344 277.917C397.348 277.773 400.959 277.747 405.412 277.858C409.863 277.97 413.47 278.178 413.466 278.321Z" fill="#FAFAFA"/>
<path d="M378.002 178.869C378.666 182.266 383.548 183.617 384.03 187.046C384.236 188.517 383.535 189.978 383.586 191.462C383.655 193.457 385.041 195.133 385.75 197C387.212 200.846 385.561 205.406 382.474 208.126C379.386 210.846 375.145 211.941 371.031 212.027" fill="#263238"/>
<path d="M350.364 182.375C350.789 184.188 349.837 186.018 348.834 187.586C347.83 189.154 346.699 190.803 346.723 192.665C346.765 195.965 350.396 198.461 350.25 201.757C350.17 203.524 348.987 205.12 349.01 206.889C349.032 208.6 350.187 210.095 351.499 211.192C352.811 212.29 354.069 211.901 355.268 213.119C356.532 214.404 358.433 215.627 360.129 216.235C363.975 217.614 367.78 214.138 369.408 213.366" fill="#263238"/>
<path d="M378.999 180.728C378.783 179.058 377.042 178.016 375.397 177.65C373.753 177.285 371.995 177.327 370.468 176.617C369.116 175.987 368.092 174.834 366.891 173.948C363.946 171.775 359.815 171.335 356.478 172.837C353.141 174.339 350.732 177.724 350.405 181.369C350.185 183.832 351.033 186.569 353.149 187.848C355.605 189.333 358.754 188.419 361.441 187.412C364.129 186.405 367.184 185.347 369.76 186.612C371.313 187.375 372.368 188.848 373.457 190.194C374.545 191.539 375.857 192.881 377.562 193.183C379.266 193.485 381.31 192.177 381.102 190.458" fill="#263238"/>
<path d="M379.586 216.208L375.531 183.755C375.335 182.305 374.061 181.247 372.6 181.319L357.24 179.885C352.43 180.121 350.19 186.439 350.63 191.235C351.119 196.564 351.927 203.05 353.165 206.89C355.654 214.612 361.879 214.675 361.879 214.675C361.878 214.665 363.041 226.078 363.496 228.9" fill="#FFBE9D"/>
<path d="M352.735 197.157C352.8 197.696 353.31 198.086 353.874 198.029C354.437 197.972 354.843 197.49 354.778 196.951C354.713 196.412 354.203 196.021 353.64 196.078C353.076 196.135 352.67 196.618 352.735 197.157Z" fill="#263238"/>
<path d="M352.447 195.16C352.593 195.273 353.273 194.584 354.367 194.416C355.456 194.234 356.345 194.671 356.443 194.519C356.492 194.45 356.327 194.231 355.938 194.032C355.555 193.832 354.931 193.677 354.251 193.786C353.571 193.895 353.037 194.235 352.748 194.543C352.452 194.853 352.376 195.111 352.447 195.16Z" fill="#263238"/>
<path d="M363.743 195.55C363.807 196.089 364.317 196.479 364.881 196.422C365.445 196.364 365.849 195.882 365.785 195.343C365.721 194.804 365.211 194.413 364.648 194.47C364.084 194.528 363.679 195.011 363.743 195.55Z" fill="#263238"/>
<path d="M363.218 193.691C363.364 193.803 364.045 193.115 365.139 192.948C366.228 192.765 367.118 193.202 367.215 193.05C367.264 192.982 367.1 192.762 366.71 192.563C366.327 192.363 365.703 192.208 365.022 192.317C364.343 192.428 363.809 192.767 363.52 193.074C363.225 193.385 363.147 193.642 363.218 193.691Z" fill="#263238"/>
<path d="M360.514 202.413C360.509 202.35 359.812 202.339 358.689 202.369C358.405 202.384 358.133 202.369 358.056 202.187C357.958 201.995 358.029 201.677 358.113 201.331C358.27 200.615 358.434 199.865 358.607 199.078C359.281 195.875 359.724 193.259 359.595 193.233C359.466 193.207 358.813 195.782 358.139 198.985C357.979 199.774 357.826 200.526 357.681 201.245C357.625 201.578 357.499 201.966 357.707 202.362C357.814 202.558 358.043 202.678 358.229 202.699C358.416 202.726 358.574 202.704 358.713 202.691C359.831 202.577 360.52 202.476 360.514 202.413Z" fill="#263238"/>
<path d="M361.881 214.671C361.881 214.671 367.174 214.315 371.957 210.322C371.871 210.355 369.816 216.425 362.1 216.794L361.881 214.671Z" fill="#EB996E"/>
<path d="M361.388 204.973C361.699 204.393 362.344 204 363.039 203.967C363.521 203.944 364.036 204.098 364.384 204.44C364.732 204.781 364.878 205.32 364.674 205.729C364.443 206.19 363.842 206.381 363.298 206.314C362.753 206.247 362.251 205.973 361.771 205.698C361.639 205.622 361.503 205.541 361.409 205.423C361.314 205.305 361.272 205.138 361.346 205.016" fill="#EB996E"/>
<path d="M363.848 202.667C363.669 202.684 363.851 203.871 362.967 204.871C362.085 205.873 360.801 205.937 360.817 206.104C360.812 206.181 361.134 206.291 361.669 206.223C362.195 206.159 362.934 205.872 363.475 205.26C364.014 204.648 364.173 203.918 364.138 203.425C364.106 202.921 363.927 202.648 363.848 202.667Z" fill="#263238"/>
<path d="M362.242 190.714C362.396 190.994 363.464 190.684 364.77 190.638C366.075 190.567 367.167 190.782 367.295 190.488C367.351 190.349 367.128 190.097 366.665 189.875C366.206 189.652 365.502 189.482 364.72 189.516C363.937 189.552 363.252 189.784 362.815 190.046C362.374 190.309 362.173 190.579 362.242 190.714Z" fill="#263238"/>
<path d="M352.357 191.936C352.588 192.155 353.3 191.78 354.204 191.627C355.102 191.442 355.902 191.533 356.038 191.246C356.096 191.107 355.936 190.878 355.565 190.696C355.198 190.513 354.617 190.407 353.998 190.523C353.38 190.639 352.875 190.948 352.6 191.252C352.318 191.556 352.253 191.828 352.357 191.936Z" fill="#263238"/>
<path d="M380.025 208.054C377.918 208.837 377.549 207.759 375.684 206.505C373.819 205.25 372.613 203.067 372.544 200.821C372.483 198.838 373.219 196.695 372.254 194.961C370.98 192.669 367.451 192.46 366.164 190.175C365.415 188.847 365.626 187.122 364.812 185.834C364.046 184.622 362.56 184.09 361.153 183.818C359.746 183.547 358.266 183.441 357.011 182.748C355.756 182.056 354.799 180.526 355.329 179.194C361.344 178.968 367.387 179.463 373.287 180.664C374.655 180.942 376.103 181.307 377.048 182.335C378.048 183.423 378.257 184.998 378.419 186.466C379.209 193.624 380 200.783 380.791 207.943" fill="#263238"/>
<path d="M382.453 191.123C382.291 188.475 384.051 185.825 386.554 184.946C389.057 184.067 392.088 185.036 393.616 187.205C395.069 189.266 395.118 192.047 394.45 194.478C393.655 197.368 391.546 200.227 388.566 200.56C385.764 200.874 383.138 198.783 381.914 196.243C380.691 193.702 380.563 190.791 380.457 187.974" fill="#263238"/>
<path d="M385.715 201.716C385.725 201.724 385.886 201.561 386.057 201.191C386.231 200.826 386.399 200.244 386.397 199.515C386.401 198.786 386.243 197.925 385.93 197.025C385.622 196.119 385.154 195.193 384.762 194.193C384.366 193.198 384.097 192.205 384.126 191.292C384.149 190.385 384.446 189.571 384.518 188.847C384.608 188.12 384.486 187.513 384.298 187.146C384.111 186.776 383.915 186.641 383.905 186.655C383.881 186.675 384.037 186.839 384.173 187.2C384.311 187.559 384.387 188.127 384.272 188.812C384.176 189.5 383.85 190.299 383.803 191.281C383.753 192.258 384.03 193.307 384.434 194.322C384.835 195.342 385.311 196.263 385.625 197.133C385.945 198.002 386.121 198.824 386.148 199.519C386.22 200.932 385.641 201.691 385.715 201.716Z" fill="#455A64"/>
<path d="M384.329 192.195C384.304 192.219 384.767 192.711 385.73 193.191C386.678 193.671 388.177 194.081 389.821 193.852C391.465 193.62 392.794 192.815 393.574 192.093C394.367 191.366 394.678 190.767 394.647 190.75C394.598 190.712 394.219 191.251 393.411 191.903C392.616 192.555 391.332 193.283 389.772 193.503C388.211 193.72 386.776 193.373 385.833 192.965C384.878 192.559 384.365 192.145 384.329 192.195Z" fill="#455A64"/>
<path d="M384.916 193.371C384.885 193.392 385.16 193.873 385.783 194.508C386.402 195.142 387.404 195.896 388.667 196.41C389.933 196.92 391.177 197.076 392.063 197.05C392.951 197.027 393.484 196.874 393.476 196.837C393.468 196.778 392.928 196.843 392.066 196.801C391.205 196.762 390.018 196.573 388.799 196.083C387.582 195.587 386.598 194.898 385.954 194.325C385.305 193.757 384.963 193.335 384.916 193.371Z" fill="#455A64"/>
<path d="M384.649 204.601C384.654 204.604 384.678 204.566 384.72 204.488C384.757 204.409 384.83 204.299 384.888 204.138C385.022 203.823 385.164 203.327 385.191 202.672C385.218 202.02 385.101 201.199 384.695 200.355C384.308 199.509 383.542 198.656 382.462 198.168C381.418 197.654 380.123 197.386 379.18 196.455C378.711 196.002 378.442 195.36 378.457 194.665C378.456 193.969 378.66 193.254 378.821 192.502C379.201 190.989 378.928 189.216 377.973 187.793C377.493 187.087 376.847 186.458 376.052 186.051C375.258 185.627 374.349 185.488 373.465 185.428C372.577 185.368 371.704 185.39 370.873 185.276C370.044 185.164 369.231 184.929 368.593 184.459C367.942 183.999 367.583 183.275 367.355 182.527C367.126 181.778 366.943 180.994 366.619 180.285C365.997 178.862 365.035 177.666 363.892 176.878C362.747 176.084 361.443 175.73 360.266 175.74C359.084 175.742 358.029 176.128 357.28 176.686C356.519 177.238 356.038 177.912 355.752 178.498C355.468 179.091 355.373 179.599 355.345 179.939C355.315 180.281 355.348 180.46 355.348 180.46C355.402 180.473 355.293 179.708 355.874 178.56C356.169 178 356.652 177.362 357.393 176.848C358.124 176.327 359.132 175.977 360.265 175.99C361.393 175.996 362.638 176.349 363.723 177.117C364.811 177.881 365.729 179.036 366.32 180.414C366.63 181.1 366.799 181.848 367.033 182.628C367.26 183.396 367.661 184.222 368.387 184.737C369.095 185.259 369.963 185.504 370.825 185.622C371.695 185.743 372.571 185.72 373.441 185.78C374.306 185.837 375.161 185.973 375.89 186.363C376.628 186.739 377.232 187.322 377.686 187.985C378.589 189.33 378.86 190.983 378.503 192.436C378.351 193.174 378.141 193.908 378.147 194.667C378.131 195.424 378.454 196.176 378.974 196.662C380.017 197.661 381.345 197.905 382.356 198.393C383.399 198.849 384.125 199.633 384.519 200.442C384.924 201.245 385.06 202.035 385.054 202.669C385.035 203.955 384.593 204.587 384.649 204.601Z" fill="#455A64"/>
<path d="M380.628 182.588C380.628 182.588 380.684 182.462 380.668 182.207C380.656 181.958 380.557 181.571 380.24 181.198C379.931 180.829 379.425 180.463 378.744 180.312C378.057 180.165 377.258 180.3 376.459 180.596C375.655 180.885 374.847 181.352 373.934 181.682C373.037 182.006 371.938 182.206 371 181.684C370.058 181.178 369.461 180.136 368.854 179.104C368.255 178.046 367.476 177.007 366.511 176.133C364.581 174.38 362.177 173.348 359.91 173.205C358.778 173.141 357.676 173.337 356.761 173.787C355.848 174.236 355.127 174.906 354.681 175.65C354.225 176.391 354.075 177.206 354.136 177.886C354.187 178.573 354.412 179.135 354.665 179.541C354.918 179.951 355.201 180.205 355.404 180.35C355.607 180.498 355.729 180.549 355.733 180.542C355.769 180.505 355.248 180.279 354.783 179.471C354.558 179.071 354.362 178.527 354.332 177.873C354.293 177.224 354.451 176.47 354.894 175.78C355.326 175.087 356.017 174.464 356.888 174.05C357.757 173.635 358.804 173.458 359.891 173.529C362.067 173.681 364.405 174.691 366.274 176.393C367.214 177.246 367.959 178.235 368.558 179.279C369.168 180.301 369.786 181.404 370.847 181.971C371.364 182.255 371.957 182.347 372.501 182.311C373.051 182.278 373.56 182.128 374.032 181.957C374.977 181.599 375.769 181.123 376.546 180.829C377.312 180.528 378.071 180.389 378.703 180.506C379.34 180.627 379.83 180.956 380.135 181.288C380.449 181.625 380.562 181.979 380.596 182.215C380.636 182.455 380.607 182.586 380.628 182.588Z" fill="#455A64"/>
</svg>
