<svg width="470" height="441" viewBox="0 0 470 441" fill="none" xmlns="http://www.w3.org/2000/svg">
<path d="M235 440.886C364.787 440.886 470 392.433 470 332.664C470 272.894 364.787 224.441 235 224.441C105.213 224.441 0 272.894 0 332.664C0 392.433 105.213 440.886 235 440.886Z" fill="#F5F5F5"/>
<path d="M55.1708 367.245L14.6357 343.841C12.3506 342.522 12.3506 340.382 14.6357 339.064L250.415 202.937C252.7 201.617 256.405 201.617 258.691 202.937L299.228 226.339C301.513 227.659 301.513 229.798 299.228 231.117L63.4464 367.245C61.1613 368.564 57.4559 368.564 55.1708 367.245Z" fill="#E6E6E6"/>
<path d="M422.453 278.359L349.119 236.496C347.923 235.812 345.987 235.817 344.794 236.506L344.035 236.944C342.842 237.633 342.85 238.736 344.052 239.408L369.038 253.382L343.472 268.142L318.777 253.884C317.584 253.195 315.651 253.195 314.458 253.884L313.699 254.321C312.506 255.01 312.506 256.127 313.699 256.815L388.272 299.866L389.079 298.903L389.482 299.135L418.914 282.174L419.146 282.308L419.576 281.793L420.203 281.432L419.984 281.307L422.453 278.359Z" fill="#E6E6E6"/>
<path d="M200.237 397.802C194.045 397.802 188.211 396.381 183.81 393.8C183.286 393.494 182.802 393.182 182.328 392.849L178.236 389.969L202.18 386.462L203.782 383.112L198.463 379.993L176.035 383.27L177.134 380.154C178.158 377.253 180.552 374.667 184.057 372.673C188.422 370.191 194.157 368.825 200.206 368.825C202.628 368.825 205.014 369.043 207.31 369.476L280.144 327.426C279.401 325.543 279.261 323.57 279.748 321.628C280.561 318.375 283.04 315.492 286.917 313.288C291.286 310.804 297.027 309.436 303.083 309.436C309.275 309.436 315.109 310.857 319.511 313.436C320.035 313.743 320.519 314.055 320.993 314.389L325.085 317.268L301.14 320.775L299.538 324.125L304.858 327.243L327.284 323.968L326.185 327.083C325.162 329.983 322.768 332.571 319.262 334.565C314.898 337.046 309.163 338.413 303.114 338.413C300.691 338.413 298.305 338.193 296.009 337.761L223.175 379.811C223.918 381.695 224.057 383.667 223.571 385.609C222.757 388.862 220.279 391.746 216.403 393.949C212.035 396.433 206.293 397.802 200.237 397.802Z" fill="#E0E0E0"/>
<path d="M43.8918 299.556V276.975C43.8918 276.975 42.7368 264.231 33.8099 254.568C24.883 244.904 16.8867 248.191 14.2834 252.778C11.6801 257.364 17.6038 266.07 21.386 270.97C25.9392 276.867 43.8918 304.253 43.8918 316.518V299.556Z" fill="#7970FF"/>
<g opacity="0.15">
<path d="M43.8918 299.556V276.975C43.8918 276.975 42.7368 264.231 33.8099 254.568C24.883 244.904 16.8867 248.191 14.2834 252.778C11.6801 257.364 17.6038 266.07 21.386 270.97C25.9392 276.867 43.8918 304.253 43.8918 316.518V299.556Z" fill="black"/>
</g>
<path d="M43.8915 295.988C43.6252 295.988 43.3908 295.795 43.3459 295.525C39.2734 270.9 20.5329 253.999 20.3444 253.832C20.115 253.628 20.0951 253.277 20.2985 253.049C20.501 252.819 20.8521 252.801 21.0805 253.002C21.272 253.173 40.3018 270.321 44.4391 295.342C44.4889 295.645 44.2845 295.93 43.9833 295.98C43.9523 295.985 43.9214 295.988 43.8915 295.988Z" fill="white"/>
<path d="M47.7579 309.154C47.7579 309.154 48.5349 306.794 45.0689 306.198C41.6029 305.6 40.2713 302.716 39.9461 297.879C39.621 293.044 38.1608 289.572 33.813 288.859C29.4653 288.146 25.9653 290.334 23.1396 288.157C20.3139 285.98 13.0148 280.719 6.93256 283.114C0.851294 285.509 2.84513 290.701 6.00695 294.069C9.16977 297.438 10.0874 298.572 7.66666 304.047C5.24592 309.523 7.00836 314.639 12.6039 315.919C18.1984 317.198 21.3253 316.543 21.4131 322.683C21.5009 328.823 22.3477 331.555 25.4118 333.959C28.4758 336.363 38.1219 335.281 42.1315 336.214C46.1401 337.148 47.7569 340.724 47.7569 340.724L47.7579 309.154Z" fill="#7970FF"/>
<path d="M47.7584 334.442C47.5579 334.442 47.3704 334.315 47.3026 334.113C37.1179 303.875 14.0695 291.661 13.8381 291.542C13.6028 291.42 13.51 291.13 13.6317 290.893C13.7524 290.658 14.0426 290.564 14.279 290.687C14.5144 290.808 37.8989 303.183 48.2132 333.807C48.298 334.059 48.1633 334.331 47.911 334.416C47.8601 334.434 47.8093 334.442 47.7584 334.442Z" fill="white"/>
<path d="M33.1479 308.082C33.112 308.082 33.0761 308.078 33.0402 308.07C26.3914 306.551 15.749 307.372 15.6422 307.379C15.3749 307.4 15.1455 307.203 15.1246 306.938C15.1036 306.673 15.3011 306.441 15.5664 306.42C16.0083 306.383 26.4622 305.579 33.2547 307.132C33.514 307.191 33.6756 307.449 33.6157 307.708C33.5659 307.93 33.3674 308.082 33.1479 308.082Z" fill="white"/>
<path d="M38.5693 322.615C35.5302 322.615 32.3065 322.417 32.1031 322.404C31.8378 322.387 31.6373 322.158 31.6532 321.894C31.6702 321.629 31.8956 321.415 32.1629 321.444C32.2367 321.448 39.6665 321.905 42.564 321.449C42.8283 321.41 43.0727 321.587 43.1136 321.849C43.1555 322.111 42.9759 322.358 42.7136 322.4C41.6863 322.562 40.1532 322.615 38.5693 322.615Z" fill="white"/>
<path d="M30.0274 304.53C30.0184 304.53 30.0095 304.53 30.0005 304.529C29.7352 304.515 29.5327 304.287 29.5477 304.022C29.8429 298.689 31.6123 294.089 31.6881 293.895C31.7849 293.648 32.0641 293.523 32.3105 293.622C32.5579 293.718 32.6805 293.997 32.5848 294.244C32.5668 294.29 30.7954 298.899 30.5082 304.074C30.4922 304.331 30.2798 304.53 30.0274 304.53Z" fill="white"/>
<path d="M200.875 320.899L235.723 300.75C239.314 298.676 241.11 295.958 241.111 293.24C241.111 290.521 241.126 288.393 241.126 288.393L204.97 268.006C203.054 266.899 201.502 264.209 201.502 261.997V224.824L140.637 259.995L140.635 297.167C140.635 299.379 142.188 302.069 144.104 303.175L174.86 320.898C182.043 325.047 193.69 325.046 200.875 320.899Z" fill="#7970FF"/>
<path opacity="0.4" d="M200.875 320.899L235.723 300.75C239.314 298.676 241.11 295.958 241.111 293.24C241.111 290.521 241.126 288.393 241.126 288.393L204.97 268.006C203.054 266.899 201.502 264.209 201.502 261.997V224.824L140.637 259.995L140.635 297.167C140.635 299.379 142.188 302.069 144.104 303.175L174.86 320.898C182.043 325.047 193.69 325.046 200.875 320.899Z" fill="black"/>
<path opacity="0.2" d="M155.247 304.776V309.603L144.092 303.175C142.19 302.073 140.627 299.389 140.627 297.166V259.998L152.223 253.309C152.463 256.253 152.724 259.297 152.964 262.261L144.833 266.968V294.743C144.833 296.967 146.375 299.65 148.298 300.752L155.247 304.776Z" fill="black"/>
<path d="M144.832 294.75C144.832 296.962 146.385 299.652 148.301 300.758L174.854 316.054C182.039 320.202 193.688 320.203 200.872 316.057L235.737 295.91C242.922 291.764 242.923 285.04 235.739 280.892L209.169 265.586C207.253 264.48 205.7 261.79 205.7 259.578V231.799L144.833 266.97V294.75H144.832Z" fill="#7970FF"/>
<path opacity="0.3" d="M144.832 294.75C144.832 296.962 146.385 299.652 148.301 300.758L174.854 316.054C182.039 320.202 193.688 320.203 200.872 316.057L235.737 295.91C242.922 291.764 242.923 285.04 235.739 280.892L209.169 265.586C207.253 264.48 205.7 261.79 205.7 259.578V231.799L144.833 266.97V294.75H144.832Z" fill="black"/>
<path opacity="0.6" d="M216.232 269.671V269.666L209.167 265.586C207.251 264.48 205.698 261.79 205.698 259.578V231.799L144.83 266.97V294.75C144.83 296.962 146.383 299.652 148.299 300.758L155.242 304.767L216.232 269.671Z" fill="#7970FF"/>
<path opacity="0.3" d="M216.232 269.671V269.666L209.167 265.586C207.251 264.48 205.698 261.79 205.698 259.578V231.799L144.83 266.97V294.75C144.83 296.962 146.383 299.652 148.299 300.758L155.242 304.767L216.232 269.671Z" fill="black"/>
<path d="M241.118 288.396C241.118 288.396 241.118 290.519 241.118 293.243C241.118 295.967 239.315 298.67 235.731 300.754L200.878 320.891C197.433 322.894 192.967 323.896 188.461 323.975V319.149C192.967 319.089 197.433 318.048 200.878 316.065L235.731 295.907C239.315 293.843 241.118 291.12 241.118 288.396Z" fill="#7970FF"/>
<path opacity="0.2" d="M241.118 288.396C241.118 288.396 241.118 290.519 241.118 293.243C241.118 295.967 239.315 298.67 235.731 300.754L200.878 320.891C197.433 322.894 192.967 323.896 188.461 323.975V319.149C192.967 319.089 197.433 318.048 200.878 316.065L235.731 295.907C239.315 293.843 241.118 291.12 241.118 288.396Z" fill="black"/>
<path d="M47.1036 336.477C49.3498 337.774 53.113 337.704 55.5078 336.322C85.4314 319.046 260.976 217.697 290.896 200.423C293.291 199.041 295.231 195.679 295.231 192.914V8.2836C295.231 5.51875 293.409 2.22528 291.163 0.92863C288.917 -0.368015 285.155 -0.298197 282.76 1.08423L47.3759 136.983C44.9811 138.365 43.0401 141.727 43.0401 144.493L43.0371 329.122C43.0371 331.887 44.8574 335.181 47.1036 336.477Z" fill="#7970FF"/>
<path opacity="0.3" d="M47.1036 336.477C49.3498 337.774 53.113 337.704 55.5078 336.322C85.4314 319.046 260.976 217.697 290.896 200.423C293.291 199.041 295.231 195.679 295.231 192.914V8.2836C295.231 5.51875 293.409 2.22528 291.163 0.92863C288.917 -0.368015 285.155 -0.298197 282.76 1.08423L47.3759 136.983C44.9811 138.365 43.0401 141.727 43.0401 144.493L43.0371 329.122C43.0371 331.887 44.8574 335.181 47.1036 336.477Z" fill="black"/>
<path d="M55.5077 336.315L290.895 200.418C293.289 199.036 295.23 195.673 295.23 192.908V8.2772C295.23 5.51236 293.289 4.39126 290.895 5.77368L55.5106 141.672C53.1158 143.055 51.1749 146.417 51.1749 149.183L51.1719 333.812C51.1719 336.577 53.1129 337.698 55.5077 336.315Z" fill="#7970FF"/>
<path opacity="0.5" d="M55.5077 336.315L290.895 200.418C293.289 199.036 295.23 195.673 295.23 192.908V8.2772C295.23 5.51236 293.289 4.39126 290.895 5.77368L55.5106 141.672C53.1158 143.055 51.1749 146.417 51.1749 149.183L51.1719 333.812C51.1719 336.577 53.1129 337.698 55.5077 336.315Z" fill="black"/>
<path d="M54.8696 341.265C52.4668 342.326 49.1424 342.287 47.0987 341.105C44.8555 339.803 43.0332 336.518 43.0332 333.735V322.188L51.1642 326.894V338.441C51.1652 340.965 52.767 342.107 54.8696 341.265Z" fill="#7970FF"/>
<path opacity="0.4" d="M54.8696 341.265C52.4668 342.326 49.1424 342.287 47.0987 341.105C44.8555 339.803 43.0332 336.518 43.0332 333.735V322.188L51.1642 326.894V338.441C51.1652 340.965 52.767 342.107 54.8696 341.265Z" fill="black"/>
<path d="M51.166 326.895L51.173 338.436C51.173 341.2 53.115 342.322 55.5088 340.939L290.896 205.042C293.291 203.659 295.232 200.297 295.232 197.531V185.953L51.166 326.895Z" fill="#7970FF"/>
<path opacity="0.3" d="M51.166 326.895L51.173 338.436C51.173 341.2 53.115 342.322 55.5088 340.939L290.896 205.042C293.291 203.659 295.232 200.297 295.232 197.531V185.953L51.166 326.895Z" fill="black"/>
<path d="M59.3047 305.142L59.3067 151.884C59.3067 150.224 60.4717 148.207 61.908 147.378L284.488 18.871C285.925 18.0411 287.09 18.7144 287.09 20.3731L287.097 173.636C287.097 175.294 285.932 177.312 284.496 178.142L61.907 306.644C60.4697 307.474 59.3047 306.802 59.3047 305.142Z" fill="#7970FF"/>
<path d="M59.3047 305.142L59.3067 151.884C59.3067 150.224 60.4717 148.207 61.908 147.378L284.488 18.871C285.925 18.0411 287.09 18.7144 287.09 20.3731L287.097 173.636C287.097 175.294 285.932 177.312 284.496 178.142L61.907 306.644C60.4697 307.474 59.3047 306.802 59.3047 305.142Z" fill="#37474F"/>
<path d="M173.198 260.736C171.217 261.88 169.611 264.661 169.611 266.948C169.611 269.235 171.217 270.162 173.198 269.019C175.179 267.875 176.785 265.094 176.785 262.807C176.785 260.519 175.179 259.592 173.198 260.736Z" fill="#7970FF"/>
<path d="M52.4459 144.893C51.6649 146.254 51.1841 147.796 51.1642 149.179V326.894L43.0332 322.187L43.0382 144.492C43.0382 143.111 43.5339 141.569 44.3149 140.207L52.4459 144.893Z" fill="#7970FF"/>
<path opacity="0.7" d="M52.4459 144.893C51.6649 146.254 51.1841 147.796 51.1642 149.179V326.894L43.0332 322.187L43.0382 144.492C43.0382 143.111 43.5339 141.569 44.3149 140.207L52.4459 144.893Z" fill="black"/>
<path d="M389.082 125.095L347.579 238.043L347.57 238.062C347.477 238.352 347.235 238.621 346.844 238.844C345.801 239.45 344.106 239.45 343.063 238.844C342.606 238.583 342.354 238.258 342.29 237.913C342.271 237.81 342.271 237.708 342.29 237.605C342.299 237.354 342.345 237.093 342.438 236.832L384.053 123.25C384.565 121.863 386.101 121.146 387.49 121.657C388.876 122.169 389.593 123.706 389.082 125.095Z" fill="#7970FF"/>
<path opacity="0.5" d="M389.082 125.095L347.579 238.043L347.57 238.062C347.477 238.352 347.235 238.621 346.844 238.844C345.801 239.45 344.106 239.45 343.063 238.844C342.606 238.583 342.354 238.258 342.29 237.913C342.271 237.81 342.271 237.708 342.29 237.605C342.299 237.354 342.345 237.093 342.438 236.832L384.053 123.25C384.565 121.863 386.101 121.146 387.49 121.657C388.876 122.169 389.593 123.706 389.082 125.095Z" fill="black"/>
<path d="M335.095 198.232L332.104 203.414L373.72 227.442L376.711 222.26L335.095 198.232Z" fill="#7970FF"/>
<g opacity="0.6">
<path d="M335.095 198.232L332.104 203.414L373.72 227.442L376.711 222.26L335.095 198.232Z" fill="black"/>
</g>
<path d="M365.367 180.764L362.375 185.945L403.99 209.973L406.982 204.791L365.367 180.764Z" fill="#7970FF"/>
<g opacity="0.6">
<path d="M365.367 180.764L362.375 185.945L403.99 209.973L406.982 204.791L365.367 180.764Z" fill="black"/>
</g>
<path d="M355.217 117.336L377.411 104.521C379.228 103.477 381.258 103.319 382.981 104.083C384.705 104.847 385.942 106.458 386.38 108.506L423.226 280.886C423.254 281.007 423.273 281.12 423.273 281.24C423.292 281.361 423.292 281.492 423.282 281.613C423.217 281.949 422.965 282.275 422.509 282.535C421.465 283.14 419.771 283.14 418.727 282.535C418.337 282.303 418.094 282.023 417.991 281.734C417.972 281.678 417.963 281.622 417.955 281.576L381.147 109.623C381.063 109.25 380.914 109.018 380.803 108.971C380.7 108.924 380.43 108.962 380.094 109.158L357.89 121.973" fill="#7970FF"/>
<path opacity="0.4" d="M355.217 117.336L377.411 104.521C379.228 103.477 381.258 103.319 382.981 104.083C384.705 104.847 385.942 106.458 386.38 108.506L423.226 280.886C423.254 281.007 423.273 281.12 423.273 281.24C423.292 281.361 423.292 281.492 423.282 281.613C423.217 281.949 422.965 282.275 422.509 282.535C421.465 283.14 419.771 283.14 418.727 282.535C418.337 282.303 418.094 282.023 417.991 281.734C417.972 281.678 417.963 281.622 417.955 281.576L381.147 109.623C381.063 109.25 380.914 109.018 380.803 108.971C380.7 108.924 380.43 108.962 380.094 109.158L357.89 121.973" fill="black"/>
<path d="M391.44 282.07L377.92 274.264C377.474 274.007 377.113 273.381 377.113 272.867V272.544C377.113 272.03 377.474 271.404 377.92 271.147L410.357 252.42C410.803 252.162 411.525 252.162 411.97 252.42L425.49 260.225C425.936 260.483 426.297 261.108 426.297 261.623V261.944C426.297 262.459 425.936 263.084 425.49 263.341L393.053 282.069C392.607 282.326 391.885 282.326 391.44 282.07Z" fill="#7970FF"/>
<path opacity="0.1" d="M377.35 271.75C377.204 272.003 377.113 272.288 377.113 272.545V272.867C377.113 273.382 377.474 274.006 377.92 274.264L391.44 282.07C391.663 282.199 391.955 282.263 392.247 282.263V280.351L377.35 271.75Z" fill="black"/>
<path opacity="0.15" d="M392.246 280.35V282.262C392.538 282.262 392.83 282.198 393.053 282.069L409.271 272.705L425.489 263.342C425.935 263.084 426.296 262.459 426.296 261.944V261.623C426.296 261.366 426.205 261.08 426.06 260.828L392.246 280.35Z" fill="black"/>
<path d="M385.577 254.658L372.057 246.852C371.611 246.595 371.25 245.969 371.25 245.455V245.132C371.25 244.618 371.611 243.992 372.057 243.735L404.494 225.007C404.94 224.75 405.662 224.75 406.107 225.007L419.627 232.813C420.073 233.071 420.434 233.696 420.434 234.211V234.533C420.434 235.047 420.073 235.673 419.627 235.93L387.19 254.658C386.745 254.915 386.023 254.915 385.577 254.658Z" fill="#7970FF"/>
<path opacity="0.1" d="M371.486 244.338C371.341 244.591 371.25 244.875 371.25 245.133V245.455C371.25 245.97 371.611 246.595 372.057 246.852L385.577 254.658C385.799 254.787 386.092 254.852 386.384 254.852V252.94L371.486 244.338Z" fill="black"/>
<path opacity="0.15" d="M386.385 252.94V254.853C386.677 254.853 386.968 254.788 387.192 254.66L403.41 245.296L419.628 235.932C420.074 235.675 420.435 235.05 420.435 234.535V234.213C420.435 233.956 420.344 233.67 420.198 233.418L386.385 252.94Z" fill="black"/>
<path d="M379.716 227.246L366.196 219.44C365.75 219.182 365.389 218.557 365.389 218.042V217.72C365.389 217.206 365.75 216.58 366.196 216.323L398.632 197.595C399.077 197.338 399.8 197.338 400.244 197.595L413.764 205.401C414.21 205.658 414.571 206.284 414.571 206.799V207.121C414.571 207.635 414.21 208.261 413.764 208.518L381.328 227.246C380.884 227.503 380.161 227.503 379.716 227.246Z" fill="#7970FF"/>
<path opacity="0.1" d="M365.625 216.926C365.479 217.178 365.389 217.463 365.389 217.721V218.043C365.389 218.558 365.75 219.183 366.196 219.44L372.955 223.343L379.715 227.246C379.937 227.375 380.229 227.439 380.522 227.439V225.527L365.625 216.926Z" fill="black"/>
<path opacity="0.15" d="M380.523 225.528V227.44C380.816 227.44 381.107 227.377 381.33 227.248L397.548 217.884L413.766 208.52C414.212 208.263 414.573 207.638 414.573 207.123V206.801C414.573 206.543 414.484 206.258 414.337 206.006L380.523 225.528Z" fill="black"/>
<path d="M373.854 199.834L360.334 192.028C359.888 191.77 359.527 191.145 359.527 190.63V190.308C359.527 189.794 359.888 189.168 360.334 188.911L392.77 170.183C393.216 169.926 393.938 169.926 394.383 170.183L407.903 177.989C408.349 178.246 408.71 178.872 408.71 179.386V179.708C408.71 180.222 408.349 180.848 407.903 181.105L375.467 199.833C375.021 200.091 374.299 200.091 373.854 199.834Z" fill="#7970FF"/>
<path opacity="0.15" d="M374.66 198.114V200.026C374.952 200.026 375.244 199.963 375.467 199.834L391.685 190.47L407.903 181.106C408.349 180.849 408.71 180.224 408.71 179.709V179.387C408.71 179.129 408.62 178.844 408.474 178.592L374.66 198.114Z" fill="black"/>
<path opacity="0.1" d="M359.764 189.514C359.618 189.767 359.527 190.051 359.527 190.309V190.631C359.527 191.145 359.888 191.771 360.334 192.028L373.854 199.834C374.077 199.963 374.369 200.026 374.661 200.026V198.114L359.764 189.514Z" fill="black"/>
<path d="M367.992 172.421L345.524 159.452C345.078 159.194 344.717 158.569 344.717 158.054V157.732C344.717 157.217 345.078 156.592 345.524 156.335L377.96 137.607C378.406 137.35 379.128 137.35 379.573 137.607L402.04 150.577C402.486 150.834 402.847 151.459 402.847 151.974V152.295C402.847 152.81 402.486 153.435 402.04 153.692L369.603 172.42C369.16 172.678 368.437 172.678 367.992 172.421Z" fill="#7970FF"/>
<path opacity="0.15" d="M368.799 170.7V172.612C369.091 172.612 369.382 172.548 369.606 172.42L385.824 163.056L402.042 153.692C402.488 153.435 402.849 152.81 402.849 152.295V151.973C402.849 151.715 402.758 151.43 402.612 151.178L368.799 170.7Z" fill="black"/>
<path opacity="0.1" d="M344.953 156.938C344.808 157.191 344.717 157.475 344.717 157.732V158.055C344.717 158.569 345.078 159.195 345.524 159.452L367.992 172.421C368.214 172.55 368.506 172.614 368.798 172.614V170.702L344.953 156.938Z" fill="black"/>
<path d="M358.821 142.567L317.357 255.386L317.348 255.423L317.255 255.674C317.134 255.906 316.911 256.131 316.585 256.326C315.541 256.923 313.847 256.923 312.793 256.326C312.337 256.056 312.085 255.73 312.02 255.395C312.011 255.292 312.011 255.19 312.02 255.087C312.029 254.817 312.085 254.566 312.179 254.305L353.793 140.723C354.296 139.336 355.833 138.628 357.23 139.13C358.616 139.642 359.324 141.179 358.821 142.567Z" fill="#7970FF"/>
<path opacity="0.5" d="M358.821 142.567L317.357 255.386L317.348 255.423L317.255 255.674C317.134 255.906 316.911 256.131 316.585 256.326C315.541 256.923 313.847 256.923 312.793 256.326C312.337 256.056 312.085 255.73 312.02 255.395C312.011 255.292 312.011 255.19 312.02 255.087C312.029 254.817 312.085 254.566 312.179 254.305L353.793 140.723C354.296 139.336 355.833 138.628 357.23 139.13C358.616 139.642 359.324 141.179 358.821 142.567Z" fill="black"/>
<path d="M357.89 121.975C356.66 122.692 355.813 124.592 356.112 125.98L392.966 298.351C393.003 298.49 393.022 298.63 393.022 298.77C393.031 298.862 393.031 298.965 393.022 299.068C392.966 299.403 392.706 299.738 392.249 300.008C391.206 300.614 389.511 300.614 388.468 300.008C388.086 299.785 387.843 299.515 387.732 299.235C387.732 299.226 387.732 299.216 387.723 299.207L387.676 298.984L350.877 127.107C350.104 123.484 352.004 119.19 355.217 117.336" fill="#7970FF"/>
<path opacity="0.4" d="M392.965 298.35L356.111 125.979C355.812 124.591 356.66 122.691 357.89 121.974L355.217 117.336C352.004 119.189 350.104 123.483 350.877 127.107L387.676 298.984L387.723 299.207C387.732 299.216 387.732 299.226 387.732 299.235C387.843 299.515 388.086 299.785 388.468 300.008C389.511 300.614 391.206 300.614 392.249 300.008C392.706 299.738 392.966 299.403 393.022 299.068C393.031 298.965 393.031 298.863 393.022 298.77C393.021 298.63 393.002 298.49 392.965 298.35Z" fill="black"/>
<path d="M325.271 42.0254C325.319 42.1281 325.348 42.2508 325.38 42.3685C325.348 42.2498 325.319 42.1271 325.271 42.0254Z" fill="#7970FF"/>
<path d="M97.7039 327.343V174.698C97.7039 172.892 98.9706 170.688 100.537 169.79L322.662 41.5321C323.445 41.0782 324.153 41.0364 324.666 41.3326C324.125 41.0164 321.155 39.3168 320.689 39.0026C320.171 38.6545 319.431 38.6775 318.608 39.1542L96.4831 167.412C94.9171 168.31 93.6504 170.514 93.6504 172.32V324.965C93.6504 325.867 93.9666 326.501 94.4792 326.796C94.9919 327.091 98.0201 328.834 98.5288 329.131L98.5298 329.132C98.0191 328.837 97.7039 328.244 97.7039 327.343Z" fill="#EBEBEB"/>
<path d="M94.2668 169.947C93.8868 170.725 93.6504 171.556 93.6504 172.32V195.322L97.7009 197.661L97.7039 197.645V174.697C97.7039 173.923 97.9463 173.081 98.3353 172.295L94.2668 169.947Z" fill="#7970FF"/>
<path opacity="0.15" d="M94.2668 169.947C93.8868 170.725 93.6504 171.556 93.6504 172.32V195.322L97.7009 197.661L97.7039 197.645V174.697C97.7039 173.923 97.9463 173.081 98.3353 172.295L94.2668 169.947Z" fill="black"/>
<path d="M100.537 169.79L322.663 41.5321C323.446 41.0782 324.154 41.0364 324.666 41.3326C324.126 41.0164 321.156 39.3168 320.69 39.0026C320.172 38.6545 319.432 38.6775 318.609 39.1542L96.4838 167.412C95.5812 167.93 94.7862 168.887 94.2676 169.947L98.335 172.296C98.8547 171.247 99.6417 170.304 100.537 169.79Z" fill="#7970FF"/>
<path opacity="0.4" d="M100.537 169.79L322.663 41.5321C323.446 41.0782 324.154 41.0364 324.666 41.3326C324.126 41.0164 321.156 39.3168 320.69 39.0026C320.172 38.6545 319.432 38.6775 318.609 39.1542L96.4838 167.412C95.5812 167.93 94.7862 168.887 94.2676 169.947L98.335 172.296C98.8547 171.247 99.6417 170.304 100.537 169.79Z" fill="white"/>
<path d="M325.494 43.1474V195.792C325.494 197.598 324.227 199.792 322.661 200.7L100.536 328.958C98.9688 329.802 97.7021 329.074 97.7031 327.322V174.677C97.7031 172.872 98.9698 170.667 100.536 169.77L322.661 41.5116C324.227 40.6039 325.494 41.342 325.494 43.1474Z" fill="#FAFAFA"/>
<path d="M324.67 41.337L324.664 41.334C324.738 41.3769 324.798 41.4417 324.864 41.4986C324.801 41.4427 324.742 41.3789 324.67 41.337Z" fill="#7970FF"/>
<path d="M325.438 42.543C325.475 42.7335 325.494 42.9419 325.494 43.1674C325.495 42.9429 325.475 42.7345 325.438 42.543Z" fill="#7970FF"/>
<path d="M325.383 42.3691C325.4 42.429 325.426 42.4799 325.438 42.5437C325.426 42.4799 325.4 42.43 325.383 42.3691Z" fill="#FAFAFA"/>
<path d="M325.496 43.1688V53.143L97.7051 184.673V174.699C97.7051 172.893 98.9718 170.689 100.538 169.791L322.663 41.5331C324.229 40.6254 325.496 41.3635 325.496 43.1688Z" fill="#7970FF"/>
<path d="M325.493 53.1465V66.1458L97.7012 197.661L97.7032 184.672L101.947 182.215C103.082 181.556 103.463 180.556 104.007 178.639L105.446 173.641C105.9 171.905 106.371 170.723 107.516 170.065L156.764 141.63C157.908 140.971 158.801 140.899 159.672 142.338L161.437 145.541C162.086 146.661 162.409 147.319 163.544 146.661L325.493 53.1465Z" fill="#E6E6E6"/>
<path d="M317.48 48.5214C318.696 47.8192 319.682 48.3888 319.682 49.7931C319.682 51.1975 318.696 52.9051 317.48 53.6072C316.263 54.3094 315.277 53.7399 315.277 52.3355C315.277 50.9322 316.263 49.2236 317.48 48.5214Z" fill="white"/>
<path d="M309.55 53.0937C310.766 52.3915 311.752 52.961 311.752 54.3654C311.752 55.7697 310.766 57.4773 309.55 58.1795C308.334 58.8817 307.348 58.3122 307.348 56.9078C307.348 55.5034 308.334 53.7959 309.55 53.0937Z" fill="white"/>
<path d="M301.622 57.6659C302.839 56.9638 303.825 57.5333 303.825 58.9376C303.825 60.342 302.839 62.0496 301.622 62.7518C300.406 63.454 299.42 62.8844 299.42 61.4801C299.42 60.0757 300.405 58.3681 301.622 57.6659Z" fill="white"/>
<path opacity="0.5" d="M107.174 185.64L103.933 187.511L105.169 185.134C105.278 184.926 105.289 184.665 105.193 184.554C105.098 184.44 104.933 184.521 104.826 184.728L103.067 188.11C103.065 188.114 103.064 188.119 103.062 188.123C103.043 188.162 103.028 188.205 103.015 188.248C103.011 188.262 103.004 188.275 103.001 188.289C102.987 188.347 102.979 188.406 102.979 188.464C102.979 188.521 102.986 188.57 103.001 188.612C103.004 188.622 103.011 188.628 103.015 188.637C103.028 188.665 103.043 188.691 103.062 188.708C103.064 188.71 103.065 188.714 103.067 188.715L104.826 190.066C104.876 190.104 104.936 190.101 104.997 190.066C105.069 190.024 105.142 189.937 105.193 189.816C105.289 189.594 105.277 189.347 105.169 189.263L103.933 188.314L107.174 186.443C107.318 186.36 107.434 186.113 107.434 185.891C107.434 185.669 107.317 185.557 107.174 185.64Z" fill="#455A64"/>
<path opacity="0.5" d="M109.879 184.077L113.12 182.206L111.884 181.256C111.776 181.173 111.765 180.926 111.86 180.704C111.955 180.481 112.12 180.37 112.228 180.453L113.987 181.805C113.989 181.807 113.99 181.81 113.992 181.812C114.012 181.829 114.026 181.854 114.039 181.883C114.043 181.891 114.05 181.896 114.053 181.907C114.067 181.949 114.076 181.998 114.076 182.056C114.076 182.114 114.067 182.173 114.053 182.231C114.05 182.245 114.043 182.258 114.039 182.272C114.026 182.314 114.011 182.357 113.992 182.396C113.99 182.4 113.989 182.405 113.987 182.409L112.228 185.791C112.179 185.886 112.118 185.954 112.057 185.99C111.985 186.032 111.912 186.027 111.86 185.966C111.766 185.853 111.777 185.594 111.884 185.385L113.12 183.009L109.879 184.88C109.735 184.963 109.619 184.851 109.619 184.629C109.619 184.407 109.735 184.161 109.879 184.077Z" fill="#455A64"/>
<path opacity="0.5" d="M120.512 174.744C120.492 174.549 120.321 174.574 120.236 174.785L119.792 175.871C119.035 175.789 118.118 176.528 117.499 177.838C116.696 179.538 116.696 181.548 117.499 182.321C117.9 182.707 118.427 182.712 118.955 182.407C119.482 182.102 120.009 181.489 120.41 180.64C120.512 180.425 120.512 180.17 120.41 180.073C120.308 179.975 120.143 180.07 120.041 180.285C119.442 181.552 118.466 182.117 117.868 181.54C117.268 180.963 117.268 179.461 117.868 178.193C118.294 177.29 118.907 176.756 119.443 176.723L119.109 177.541C119.022 177.754 119.101 177.951 119.237 177.862L120.559 177C120.652 176.939 120.72 176.77 120.706 176.638L120.512 174.744Z" fill="#455A64"/>
<path opacity="0.5" d="M155.344 147.758L156.525 145.257C156.665 144.961 156.665 144.613 156.525 144.478C156.385 144.345 156.159 144.474 156.019 144.771L154.838 147.271L153.657 146.134C153.518 145.999 153.291 146.13 153.152 146.426C153.012 146.723 153.012 147.071 153.152 147.204L154.333 148.341L153.152 150.842C153.012 151.137 153.012 151.486 153.152 151.621C153.221 151.688 153.313 151.689 153.404 151.636C153.496 151.583 153.587 151.476 153.656 151.329L154.837 148.828L156.018 149.965C156.088 150.032 156.18 150.033 156.271 149.98C156.362 149.927 156.454 149.821 156.523 149.673C156.663 149.377 156.663 149.029 156.523 148.895L155.344 147.758Z" fill="#455A64"/>
<path d="M124.811 177.819V173.641C124.811 172.325 125.735 170.724 126.875 170.066L311.813 63.3328C312.953 62.6745 313.877 63.2081 313.877 64.5247V68.7019C313.877 70.0185 312.953 71.6193 311.813 72.2776L126.875 179.01C125.735 179.669 124.811 179.135 124.811 177.819Z" fill="#FAFAFA"/>
<path d="M309.005 72.6176C308.936 72.6176 308.869 72.6027 308.813 72.5797C308.629 72.5039 308.45 72.2954 308.494 71.9374L308.695 70.2537L307.908 69.6842C307.766 69.5815 307.685 69.4139 307.682 69.2114C307.677 68.9341 307.817 68.6379 308.029 68.4753L309.242 67.5408C309.25 67.5328 309.274 67.5009 309.288 67.455L309.831 65.6766C309.932 65.3444 310.182 65.109 310.457 65.0881C310.671 65.0682 310.856 65.1878 310.947 65.3833L311.396 66.3369L312.408 65.9489C312.614 65.8711 312.83 65.9179 312.972 66.0795C313.153 66.283 313.164 66.6271 313.001 66.9323L312.123 68.5791L312.303 70.158C312.339 70.4143 312.234 70.7195 312.04 70.916C311.897 71.0616 311.72 71.1325 311.546 71.1075L310.564 70.9858L309.5 72.3453C309.343 72.5448 309.163 72.6176 309.005 72.6176ZM308.441 69.1456L309.223 69.7111C309.391 69.8328 309.472 70.0453 309.443 70.2946L309.315 71.3669L309.996 70.4981C310.146 70.3036 310.35 70.2079 310.556 70.2308L311.535 70.3525C311.552 70.3206 311.565 70.2817 311.563 70.2607L311.356 68.7706C311.331 68.6 311.371 68.4015 311.463 68.226L312.211 66.8246L311.461 67.1119C311.201 67.2086 310.928 67.1009 310.813 66.8505L310.474 66.1304L310.003 67.6704C309.947 67.8569 309.835 68.0245 309.697 68.1312L308.484 69.0668C308.469 69.0808 308.452 69.1137 308.441 69.1456Z" fill="#E6E6E6"/>
<g opacity="0.5">
<path d="M316.53 62.9304C316.297 62.9344 316.07 62.8177 315.943 62.6042C315.753 62.286 315.856 61.8751 316.174 61.6846L321.569 58.449C321.888 58.2585 322.298 58.3622 322.488 58.6794C322.679 58.9975 322.575 59.4085 322.258 59.599L316.863 62.8346C316.758 62.8975 316.643 62.9284 316.53 62.9304Z" fill="#455A64"/>
<path d="M316.492 66.031C316.259 66.031 316.034 65.9113 315.91 65.6959C315.725 65.3747 315.836 64.9648 316.156 64.7793L321.604 61.6334C321.926 61.4469 322.335 61.5586 322.519 61.8788C322.705 62.1999 322.594 62.6099 322.274 62.7944L316.826 65.9403C316.721 66.0021 316.606 66.031 316.492 66.031Z" fill="#455A64"/>
<path d="M316.492 69.1785C316.259 69.1785 316.034 69.0588 315.91 68.8433C315.725 68.5222 315.836 68.1122 316.156 67.9277L321.604 64.7819C321.926 64.5953 322.335 64.707 322.519 65.0272C322.705 65.3484 322.594 65.7583 322.274 65.9429L316.826 69.0887C316.721 69.1496 316.606 69.1785 316.492 69.1785Z" fill="#455A64"/>
</g>
<path d="M97.701 184.673L93.6484 182.334L93.6504 195.322L97.701 197.661V184.673Z" fill="#E6E6E6"/>
<path d="M317.815 82.1736C317.436 82.0041 316.927 82.054 316.379 82.3731L110.013 201.515C108.826 202.203 107.858 203.879 107.858 205.255V214.302C107.858 214.96 108.078 215.439 108.447 215.678C108.078 215.439 104.816 213.594 104.417 213.354C104.038 213.125 103.799 212.646 103.799 211.968V202.921C103.799 201.545 104.766 199.869 105.963 199.181L312.319 80.0292C312.928 79.6801 313.476 79.6601 313.865 79.8896C314.214 80.099 317.047 81.7049 317.815 82.1736Z" fill="#7970FF"/>
<path d="M110.013 201.516L316.375 82.373C317.568 81.6847 318.534 82.2423 318.534 83.6197V92.6673C318.534 94.0448 317.568 95.7194 316.375 96.4076L110.013 215.551C108.82 216.24 107.854 215.682 107.854 214.305V205.257C107.854 203.88 108.82 202.205 110.013 201.516Z" fill="#7970FF"/>
<path opacity="0.15" d="M108.488 203.13L104.433 200.789C104.04 201.467 103.797 202.231 103.797 202.922V211.968C103.797 212.646 104.036 213.125 104.415 213.355C104.814 213.594 108.076 215.439 108.445 215.679C108.076 215.439 107.856 214.96 107.856 214.302V205.256C107.857 204.568 108.099 203.806 108.488 203.13Z" fill="black"/>
<path opacity="0.4" d="M317.814 82.1736C317.046 81.7049 314.213 80.099 313.864 79.8896C313.475 79.6601 312.926 79.6801 312.318 80.0292L105.962 199.181C105.364 199.524 104.825 200.114 104.434 200.789L108.488 203.13C108.878 202.451 109.418 201.859 110.011 201.515L316.377 82.3731C316.926 82.054 317.435 82.0041 317.814 82.1736Z" fill="white"/>
<path d="M310.43 92.8227C310.43 94.1143 309.464 95.7202 308.271 96.4084L255.868 126.663C254.675 127.351 253.709 126.863 253.709 125.571C253.709 124.279 254.675 122.673 255.868 121.985L308.272 91.7305C309.464 91.0413 310.43 91.53 310.43 92.8227Z" fill="#FAFAFA"/>
<path d="M219.247 164.895L314.839 109.691C315.748 109.166 316.485 109.539 316.485 110.524C316.485 111.508 315.748 112.732 314.839 113.257L219.247 168.461C218.339 168.985 217.602 168.612 217.602 167.628C217.602 166.643 218.339 165.42 219.247 164.895Z" fill="#455A64"/>
<path d="M219.247 172.026L314.839 116.822C315.748 116.297 316.485 116.67 316.485 117.654C316.485 118.639 315.748 119.863 314.839 120.387L219.247 175.592C218.339 176.116 217.602 175.743 217.602 174.759C217.602 173.774 218.339 172.55 219.247 172.026Z" fill="#455A64"/>
<path d="M219.247 179.158L314.839 123.954C315.748 123.43 316.485 123.803 316.485 124.787C316.485 125.772 315.748 126.996 314.839 127.52L219.247 182.724C218.339 183.249 217.602 182.876 217.602 181.892C217.602 180.906 218.339 179.682 219.247 179.158Z" fill="#455A64"/>
<path opacity="0.7" d="M105.956 224.472L198.874 170.816C200.067 170.128 201.033 170.686 201.033 172.063V255.961C201.033 257.338 200.067 259.013 198.874 259.701L105.956 313.357C104.763 314.045 103.797 313.487 103.797 312.11V228.212C103.797 226.835 104.763 225.161 105.956 224.472Z" fill="#E6E6E6"/>
<path d="M147.084 238.248C146.904 237.879 146.685 237.549 146.455 237.26C146.336 237.111 146.216 236.981 146.086 236.851C145.747 236.502 145.358 236.213 144.929 236.003C144.72 235.884 144.5 235.794 144.271 235.714C143.662 235.515 143.014 235.425 142.306 235.455C142.077 235.465 141.827 235.495 141.588 235.535C141.418 235.565 141.249 235.594 141.069 235.634C140.9 235.674 140.73 235.714 140.56 235.764C140.371 235.824 140.181 235.884 139.982 235.964C139.812 236.023 139.643 236.093 139.473 236.163C139.493 236.353 139.513 236.542 139.513 236.742V236.811C139.523 236.921 139.523 237.031 139.523 237.15C139.533 237.27 139.533 237.38 139.533 237.5C139.533 243.654 135.204 251.144 129.878 254.226C129.479 254.466 129.08 254.665 128.701 254.835V254.845C128.711 255.014 128.741 255.184 128.771 255.343C128.781 255.413 128.791 255.483 128.811 255.553C128.841 255.732 128.881 255.912 128.931 256.091C128.96 256.261 129.01 256.421 129.07 256.58C129.12 256.76 129.18 256.939 129.25 257.099C129.31 257.248 129.369 257.388 129.439 257.518C129.629 257.917 129.848 258.266 130.108 258.585C130.337 258.874 130.586 259.124 130.856 259.343C130.886 259.373 130.915 259.393 130.935 259.403C131.055 259.493 131.165 259.572 131.284 259.652C131.314 259.672 131.334 259.682 131.354 259.692C131.494 259.782 131.644 259.862 131.793 259.932C131.953 260.001 132.122 260.071 132.292 260.131C133.369 260.5 134.636 260.49 136.022 260.071C136.381 259.961 136.75 259.822 137.129 259.662C137.508 259.493 137.887 259.293 138.276 259.074C143.613 255.992 147.941 248.511 147.941 242.347C147.941 240.711 147.632 239.325 147.084 238.248Z" fill="#7970FF"/>
<path d="M153.816 227.475L152.838 229.44C152.659 229.789 152.709 230.338 152.918 230.677C153.367 231.415 153.756 232.263 154.045 233.191C154.165 233.57 154.534 233.749 154.893 233.59L159.98 231.295C160.13 231.226 160.269 231.226 160.389 231.266L153.816 227.475ZM147.522 216.753L143.832 214.619C143.752 214.579 143.662 214.599 143.572 214.589C143.493 214.579 143.413 214.549 143.333 214.549C143.283 214.549 143.233 214.559 143.193 214.589C143.104 214.639 143.024 214.708 142.954 214.778C142.914 214.818 142.854 214.818 142.824 214.868L139.822 219.386L136.022 217.192L135.942 217.152L133.189 215.566C133.179 215.556 133.169 215.556 133.159 215.556C133.109 215.536 133.07 215.526 133.02 215.526C132.93 215.526 132.83 215.546 132.73 215.606L128.801 217.88L128.352 218.14L128.332 218.15L127.095 218.858C127.065 218.878 127.045 218.888 127.015 218.908C126.935 218.957 126.866 219.017 126.796 219.087C126.646 219.237 126.526 219.426 126.437 219.626V219.636C126.387 219.745 126.347 219.865 126.337 219.975L125.758 226.338C125.758 226.368 125.748 226.408 125.738 226.438C125.729 226.548 125.699 226.667 125.649 226.777C125.539 227.066 125.359 227.346 125.17 227.525C124.053 228.553 122.986 229.68 121.988 230.887C121.868 231.026 121.699 231.136 121.509 231.186C121.3 231.266 121.061 231.276 120.861 231.206L117.201 229.919C117.111 229.889 117.021 229.929 116.931 229.929L116.851 229.889C116.822 229.889 116.802 229.899 116.772 229.909C116.752 229.919 116.732 229.929 116.702 229.939C116.652 229.949 116.612 229.959 116.562 229.979C116.512 229.999 116.462 230.029 116.413 230.059C116.373 230.079 116.323 230.109 116.293 230.148C116.243 230.188 116.193 230.248 116.163 230.308L114.438 233.3L112.612 236.462L111.964 237.589C111.864 237.749 111.834 237.958 111.864 238.148L111.874 238.158C111.904 238.357 111.994 238.537 112.144 238.666L115.096 241.21C115.146 241.26 115.196 241.31 115.236 241.369C115.355 241.539 115.425 241.748 115.435 241.958C115.435 242.088 115.415 242.217 115.375 242.337C114.827 243.813 114.388 245.289 114.059 246.765C114.009 246.985 113.879 247.244 113.71 247.474C113.59 247.633 113.46 247.783 113.321 247.883L108.104 251.553C108.034 251.603 107.974 251.663 107.915 251.733C107.855 251.802 107.804 251.891 107.744 251.981L107.745 251.982C107.615 252.201 107.516 252.451 107.516 252.68V259.283C107.516 259.483 107.595 259.632 107.715 259.702L114.338 263.532L111.924 268.4C111.745 268.749 111.884 269.197 112.223 269.387L121.22 274.603C121.26 274.623 121.3 274.643 121.34 274.653L121.23 274.593L120.632 274.244C120.283 274.045 120.153 273.596 120.322 273.247L123.724 266.405C123.764 266.325 123.794 266.235 123.803 266.135C123.863 265.816 123.794 265.427 123.644 265.178C123.185 264.43 122.806 263.582 122.507 262.654C122.387 262.275 122.018 262.096 121.659 262.255L119.096 263.412L116.572 264.549C116.403 264.629 116.243 264.629 116.123 264.549H116.113C115.994 264.48 115.924 264.33 115.924 264.131V257.528C115.924 257.308 116.004 257.049 116.143 256.829C116.233 256.66 116.363 256.51 116.502 256.411L121.729 252.73C121.859 252.63 121.998 252.491 122.108 252.331C122.277 252.102 122.407 251.842 122.457 251.623C122.786 250.147 123.235 248.661 123.784 247.194C123.823 247.075 123.843 246.955 123.843 246.825V246.815C123.833 246.526 123.704 246.237 123.494 246.057L120.552 243.524C120.402 243.394 120.313 243.215 120.283 243.015C120.243 242.816 120.263 242.606 120.362 242.437L121.559 240.362L123.045 237.789L124.572 235.156C124.701 234.926 124.951 234.776 125.22 234.757H125.23C125.359 234.727 125.479 234.737 125.599 234.777L129.269 236.053C129.469 236.123 129.717 236.121 129.928 236.041C130.117 235.991 130.278 235.874 130.397 235.734C131.395 234.527 132.462 233.4 133.569 232.373C133.759 232.203 133.938 231.914 134.048 231.635C134.108 231.475 134.158 231.325 134.168 231.186L134.736 224.822C134.746 224.713 134.776 224.593 134.836 224.483C134.946 224.184 135.175 223.895 135.424 223.755L136.502 223.137L138.806 221.8L141.14 220.454C141.299 220.364 141.449 220.354 141.569 220.404C141.579 220.404 141.588 220.414 141.598 220.424C141.728 220.483 141.808 220.623 141.828 220.813L142.117 223.725L142.386 226.368C142.426 226.757 142.765 226.987 143.144 226.907C144.102 226.687 145.03 226.598 145.897 226.628C146.157 226.638 146.466 226.528 146.695 226.368C146.825 226.279 146.925 226.179 147.004 226.069L151.234 219.715C151.273 219.656 151.313 219.606 151.363 219.566C151.543 219.406 151.792 219.346 152.031 219.396C152.091 219.406 152.141 219.426 152.191 219.456L147.522 216.753ZM134.855 275.352C134.815 275.312 134.795 275.272 134.775 275.222C134.745 275.162 134.735 275.102 134.725 275.032L134.177 269.487C134.137 269.088 133.798 268.858 133.409 268.948C132.451 269.158 131.533 269.247 130.656 269.227C130.267 269.217 129.768 269.447 129.549 269.776L128.332 271.601L134.865 275.371C134.865 275.361 134.865 275.352 134.855 275.352Z" fill="#7970FF"/>
<path opacity="0.55" d="M152.191 219.456C152.141 219.426 152.091 219.406 152.031 219.396C151.792 219.346 151.543 219.406 151.363 219.566C151.313 219.606 151.273 219.656 151.234 219.715L147.004 226.069C146.925 226.179 146.825 226.279 146.695 226.368C146.466 226.528 146.157 226.638 145.897 226.628C145.03 226.598 144.102 226.687 143.144 226.907C142.765 226.987 142.426 226.757 142.386 226.368L142.117 223.725L141.828 220.813C141.808 220.623 141.728 220.483 141.598 220.424C141.588 220.414 141.578 220.404 141.569 220.404C141.449 220.354 141.299 220.364 141.14 220.454L138.806 221.8L136.502 223.137L135.424 223.755C135.175 223.895 134.946 224.184 134.836 224.483C134.776 224.593 134.746 224.713 134.736 224.822L134.168 231.186C134.158 231.325 134.108 231.475 134.048 231.635C133.938 231.914 133.759 232.203 133.569 232.373C132.462 233.4 131.395 234.527 130.397 235.734C130.278 235.874 130.117 235.991 129.928 236.041C129.718 236.121 129.469 236.123 129.269 236.053L125.599 234.777C125.479 234.737 125.359 234.727 125.23 234.757H125.22C124.951 234.776 124.701 234.926 124.571 235.156L123.045 237.789L121.559 240.362L120.362 242.437C120.263 242.606 120.243 242.816 120.283 243.015C120.313 243.215 120.402 243.394 120.552 243.524L123.494 246.057C123.704 246.237 123.833 246.526 123.843 246.815V246.825C123.843 246.955 123.823 247.075 123.784 247.194C123.235 248.661 122.786 250.147 122.457 251.623C122.407 251.842 122.277 252.102 122.108 252.331C121.998 252.491 121.859 252.63 121.729 252.73L116.502 256.411C116.363 256.51 116.233 256.66 116.143 256.829C116.004 257.049 115.924 257.308 115.924 257.528V264.131C115.924 264.33 115.994 264.48 116.113 264.549H116.123C116.243 264.629 116.403 264.629 116.572 264.549L119.096 263.412L121.659 262.255C122.018 262.096 122.387 262.275 122.507 262.654C122.806 263.582 123.185 264.43 123.644 265.178C123.794 265.427 123.863 265.816 123.803 266.135C123.794 266.235 123.764 266.325 123.724 266.405L120.322 273.247C120.153 273.596 120.283 274.045 120.632 274.244L121.23 274.593L121.34 274.653C121.3 274.643 121.26 274.623 121.22 274.603L112.223 269.387C111.884 269.197 111.745 268.749 111.924 268.4L114.338 263.532L107.715 259.702C107.595 259.632 107.516 259.483 107.516 259.283V252.68C107.516 252.451 107.615 252.201 107.745 251.982L107.744 251.981C107.804 251.891 107.855 251.802 107.915 251.733C107.974 251.663 108.034 251.603 108.104 251.553L113.321 247.883C113.46 247.783 113.59 247.633 113.71 247.474C113.879 247.244 114.009 246.985 114.059 246.765C114.388 245.289 114.827 243.813 115.375 242.337C115.415 242.217 115.435 242.088 115.435 241.958C115.425 241.748 115.355 241.539 115.236 241.369C115.196 241.31 115.146 241.26 115.096 241.21L112.144 238.666C111.994 238.537 111.904 238.357 111.874 238.158L111.864 238.148C111.834 237.958 111.864 237.749 111.964 237.589L112.612 236.462L114.438 233.3L114.936 232.433L116.203 230.238C116.393 229.919 116.782 229.769 117.131 229.899L117.191 229.919C117.201 229.919 117.201 229.919 117.201 229.919L120.562 231.106H120.572L120.861 231.206C121.061 231.276 121.3 231.266 121.509 231.186C121.699 231.136 121.868 231.026 121.988 230.887C122.986 229.68 124.053 228.553 125.17 227.525C125.359 227.346 125.539 227.066 125.649 226.777C125.699 226.667 125.729 226.548 125.738 226.438C125.748 226.408 125.758 226.368 125.758 226.338L126.337 219.975C126.347 219.865 126.387 219.745 126.437 219.636V219.626C126.526 219.426 126.646 219.237 126.796 219.087C126.886 218.997 126.985 218.918 127.095 218.858L128.332 218.15L128.352 218.14L128.801 217.88L132.73 215.606C132.83 215.546 132.93 215.526 133.02 215.526C133.07 215.526 133.109 215.536 133.159 215.556C133.169 215.556 133.179 215.556 133.189 215.566L135.942 217.152L136.022 217.192L139.822 219.386L142.824 214.868C142.854 214.818 142.914 214.818 142.954 214.778C143.024 214.708 143.104 214.639 143.193 214.589C143.233 214.559 143.283 214.549 143.333 214.549C143.413 214.549 143.493 214.579 143.572 214.589C143.662 214.599 143.752 214.579 143.832 214.619L147.522 216.753L152.191 219.456Z" fill="black"/>
<path opacity="0.55" d="M134.775 275.221C134.745 275.161 134.735 275.101 134.725 275.031L134.177 269.486C134.137 269.087 133.798 268.857 133.409 268.947C132.451 269.157 131.534 269.246 130.656 269.226C130.267 269.216 129.768 269.446 129.549 269.775L128.332 271.6L134.865 275.37C134.865 275.361 134.865 275.351 134.855 275.351C134.815 275.311 134.795 275.271 134.775 275.221Z" fill="black"/>
<path opacity="0.55" d="M153.816 227.475L152.839 229.44C152.659 229.789 152.709 230.337 152.918 230.676C153.367 231.414 153.756 232.262 154.045 233.19C154.165 233.569 154.534 233.748 154.893 233.589L159.98 231.295C160.13 231.225 160.269 231.225 160.389 231.265L153.816 227.475Z" fill="black"/>
<path opacity="0.15" d="M134.835 224.482C134.775 224.592 134.745 224.712 134.735 224.821L134.167 231.185C134.157 231.325 134.107 231.474 134.047 231.634L125.649 226.776L125.629 226.766C125.669 226.657 125.719 226.537 125.739 226.437C125.749 226.407 125.759 226.367 125.759 226.337L126.337 219.974C126.347 219.864 126.388 219.743 126.438 219.633L134.835 224.482Z" fill="black"/>
<path opacity="0.15" d="M123.844 246.816L115.436 241.958L115.396 241.938C115.386 241.729 115.336 241.529 115.236 241.37C115.196 241.31 115.147 241.26 115.097 241.21L112.144 238.667C111.995 238.537 111.905 238.358 111.875 238.158L120.283 243.016C120.313 243.215 120.403 243.395 120.553 243.524L123.495 246.058C123.704 246.237 123.834 246.527 123.844 246.816Z" fill="black"/>
<path opacity="0.15" d="M120.323 273.247C120.153 273.596 120.283 274.045 120.632 274.244L121.23 274.593L121.22 274.603L112.224 269.387C111.884 269.197 111.745 268.748 111.924 268.399L114.338 263.532L116.114 264.549H116.123C116.243 264.629 116.403 264.629 116.572 264.549L119.096 263.412L123.804 266.135C123.794 266.235 123.764 266.325 123.724 266.404L120.323 273.247Z" fill="black"/>
<path opacity="0.15" d="M134.855 275.351C134.865 275.351 134.865 275.361 134.865 275.37L128.332 271.6L129.549 269.775C129.768 269.446 130.267 269.216 130.656 269.226C131.534 269.246 132.451 269.157 133.409 268.947C133.798 268.857 134.137 269.087 134.177 269.486L134.725 275.031C134.735 275.101 134.745 275.161 134.775 275.221C134.795 275.271 134.815 275.311 134.855 275.351Z" fill="black"/>
<path opacity="0.65" d="M147.941 242.347C147.941 248.511 143.613 255.992 138.276 259.074C137.887 259.293 137.508 259.493 137.129 259.662C136.75 259.822 136.381 259.961 136.022 260.071C134.636 260.49 133.369 260.5 132.292 260.131C132.122 260.071 131.953 260.001 131.793 259.932C131.644 259.862 131.494 259.782 131.354 259.692C131.334 259.682 131.314 259.672 131.284 259.652C131.165 259.572 131.055 259.493 130.935 259.403C130.915 259.393 130.886 259.373 130.856 259.343C130.586 259.124 130.337 258.874 130.108 258.585C129.848 258.266 129.629 257.917 129.439 257.518C129.369 257.388 129.31 257.248 129.25 257.099C129.18 256.939 129.12 256.76 129.07 256.58C129.01 256.421 128.96 256.261 128.931 256.091C128.881 255.912 128.841 255.732 128.811 255.553C128.791 255.483 128.781 255.413 128.771 255.343C128.741 255.184 128.711 255.014 128.701 254.845V254.835C129.08 254.665 129.479 254.466 129.878 254.226C135.204 251.144 139.533 243.654 139.533 237.5C139.533 237.38 139.533 237.27 139.523 237.15C139.523 237.031 139.523 236.921 139.513 236.811V236.742C139.503 236.542 139.493 236.353 139.463 236.163C139.473 236.163 139.473 236.163 139.473 236.163C139.643 236.093 139.812 236.023 139.982 235.964C140.181 235.884 140.371 235.824 140.56 235.764C140.73 235.714 140.9 235.674 141.069 235.634C141.249 235.594 141.418 235.565 141.588 235.535C141.827 235.495 142.077 235.465 142.306 235.455C143.014 235.425 143.662 235.515 144.271 235.714C144.5 235.794 144.72 235.884 144.929 236.003C145.358 236.213 145.747 236.502 146.086 236.851C146.216 236.981 146.336 237.111 146.455 237.26C146.685 237.549 146.904 237.879 147.084 238.248C147.632 239.325 147.941 240.711 147.941 242.347Z" fill="black"/>
<path opacity="0.15" d="M160.389 231.265C160.269 231.225 160.13 231.225 159.98 231.295L154.893 233.589C154.534 233.748 154.165 233.569 154.045 233.19C153.756 232.262 153.367 231.414 152.918 230.676C152.709 230.337 152.659 229.789 152.839 229.44L153.816 227.475L160.389 231.265Z" fill="black"/>
<path opacity="0.15" d="M152.19 219.456C152.14 219.426 152.091 219.406 152.031 219.396C151.791 219.346 151.542 219.406 151.362 219.566C151.313 219.616 151.273 219.656 151.233 219.716L147.004 226.069C146.924 226.179 146.824 226.279 146.694 226.368L144.331 225.002L142.116 223.725L141.827 220.813C141.807 220.623 141.727 220.484 141.598 220.424C141.588 220.414 141.578 220.404 141.568 220.404L139.822 219.386L142.825 214.868C142.914 214.728 143.044 214.639 143.194 214.589C143.233 214.559 143.283 214.549 143.333 214.549C143.503 214.509 143.682 214.529 143.832 214.619L147.522 216.753L152.19 219.456Z" fill="black"/>
<path opacity="0.15" d="M122.108 252.332C121.998 252.492 121.859 252.631 121.729 252.731L116.502 256.412C116.363 256.511 116.233 256.661 116.143 256.83L107.744 251.982C107.794 251.902 107.855 251.813 107.915 251.734C107.975 251.664 108.034 251.604 108.104 251.554L113.321 247.884C113.46 247.784 113.59 247.634 113.71 247.475L122.108 252.332Z" fill="black"/>
<path d="M141.599 220.414V220.424C141.589 220.414 141.578 220.404 141.568 220.404L141.599 220.414Z" fill="#7970FF"/>
<path opacity="0.35" d="M141.599 220.414V220.424C141.589 220.414 141.578 220.404 141.568 220.404L141.599 220.414Z" fill="black"/>
<path d="M160.635 238.315V231.713C160.635 231.319 160.344 231.131 159.985 231.294L154.896 233.588C154.537 233.749 154.167 233.571 154.048 233.196C153.752 232.26 153.371 231.418 152.913 230.672C152.708 230.336 152.661 229.792 152.836 229.439L156.229 222.6C156.404 222.247 156.269 221.801 155.927 221.604L152.246 219.478C151.905 219.281 151.451 219.387 151.233 219.715L147.005 226.073C146.787 226.401 146.292 226.633 145.898 226.623C145.024 226.6 144.104 226.69 143.146 226.902C142.761 226.987 142.422 226.756 142.383 226.364L141.826 220.811C141.787 220.419 141.478 220.26 141.137 220.458L135.419 223.758C135.078 223.955 134.773 224.433 134.737 224.825L134.165 231.187C134.13 231.579 133.859 232.107 133.57 232.375C132.457 233.399 131.395 234.528 130.394 235.737C130.143 236.04 129.643 236.185 129.271 236.055L125.601 234.774C125.229 234.644 124.768 234.815 124.571 235.157L120.367 242.437C120.171 242.778 120.253 243.263 120.551 243.52L123.496 246.057C123.795 246.315 123.919 246.82 123.783 247.189C123.237 248.66 122.79 250.145 122.459 251.621C122.373 252.005 122.05 252.503 121.728 252.729L116.505 256.406C116.183 256.632 115.922 257.136 115.922 257.53V264.132C115.922 264.526 116.213 264.714 116.572 264.551L121.661 262.257C122.02 262.096 122.39 262.274 122.509 262.649C122.805 263.585 123.186 264.427 123.643 265.173C123.848 265.509 123.895 266.054 123.72 266.407L120.327 273.246C120.152 273.599 120.288 274.045 120.629 274.241L124.309 276.366C124.65 276.563 125.104 276.457 125.323 276.129L129.55 269.772C129.768 269.444 130.263 269.212 130.657 269.222C131.531 269.245 132.451 269.155 133.41 268.943C133.795 268.858 134.134 269.089 134.173 269.481L134.73 275.035C134.769 275.427 135.078 275.586 135.419 275.388L141.137 272.087C141.478 271.889 141.783 271.412 141.819 271.02L142.391 264.658C142.426 264.266 142.696 263.738 142.986 263.47C144.098 262.446 145.161 261.317 146.162 260.109C146.413 259.806 146.914 259.66 147.286 259.791L150.956 261.072C151.328 261.202 151.789 261.031 151.987 260.689L156.19 253.409C156.386 253.068 156.304 252.583 156.006 252.326L153.061 249.789C152.763 249.531 152.638 249.026 152.775 248.657C153.32 247.185 153.767 245.701 154.098 244.225C154.185 243.841 154.507 243.343 154.829 243.117L160.052 239.44C160.375 239.213 160.635 238.709 160.635 238.315ZM138.279 259.075C132.945 262.155 128.62 259.658 128.62 253.498C128.62 247.339 132.945 239.848 138.279 236.768C143.613 233.689 147.938 236.185 147.938 242.345C147.937 248.505 143.613 255.996 138.279 259.075Z" fill="#7970FF"/>
<path opacity="0.45" d="M160.635 238.315V231.713C160.635 231.319 160.344 231.131 159.985 231.294L154.896 233.588C154.537 233.749 154.167 233.571 154.048 233.196C153.752 232.26 153.371 231.418 152.913 230.672C152.708 230.336 152.661 229.792 152.836 229.439L156.229 222.6C156.404 222.247 156.269 221.801 155.927 221.604L152.246 219.478C151.905 219.281 151.451 219.387 151.233 219.715L147.005 226.073C146.787 226.401 146.292 226.633 145.898 226.623C145.024 226.6 144.104 226.69 143.146 226.902C142.761 226.987 142.422 226.756 142.383 226.364L141.826 220.811C141.787 220.419 141.478 220.26 141.137 220.458L135.419 223.758C135.078 223.955 134.773 224.433 134.737 224.825L134.165 231.187C134.13 231.579 133.859 232.107 133.57 232.375C132.457 233.399 131.395 234.528 130.394 235.737C130.143 236.04 129.643 236.185 129.271 236.055L125.601 234.774C125.229 234.644 124.768 234.815 124.571 235.157L120.367 242.437C120.171 242.778 120.253 243.263 120.551 243.52L123.496 246.057C123.795 246.315 123.919 246.82 123.783 247.189C123.237 248.66 122.79 250.145 122.459 251.621C122.373 252.005 122.05 252.503 121.728 252.729L116.505 256.406C116.183 256.632 115.922 257.136 115.922 257.53V264.132C115.922 264.526 116.213 264.714 116.572 264.551L121.661 262.257C122.02 262.096 122.39 262.274 122.509 262.649C122.805 263.585 123.186 264.427 123.643 265.173C123.848 265.509 123.895 266.054 123.72 266.407L120.327 273.246C120.152 273.599 120.288 274.045 120.629 274.241L124.309 276.366C124.65 276.563 125.104 276.457 125.323 276.129L129.55 269.772C129.768 269.444 130.263 269.212 130.657 269.222C131.531 269.245 132.451 269.155 133.41 268.943C133.795 268.858 134.134 269.089 134.173 269.481L134.73 275.035C134.769 275.427 135.078 275.586 135.419 275.388L141.137 272.087C141.478 271.889 141.783 271.412 141.819 271.02L142.391 264.658C142.426 264.266 142.696 263.738 142.986 263.47C144.098 262.446 145.161 261.317 146.162 260.109C146.413 259.806 146.914 259.66 147.286 259.791L150.956 261.072C151.328 261.202 151.789 261.031 151.987 260.689L156.19 253.409C156.386 253.068 156.304 252.583 156.006 252.326L153.061 249.789C152.763 249.531 152.638 249.026 152.775 248.657C153.32 247.185 153.767 245.701 154.098 244.225C154.185 243.841 154.507 243.343 154.829 243.117L160.052 239.44C160.375 239.213 160.635 238.709 160.635 238.315ZM138.279 259.075C132.945 262.155 128.62 259.658 128.62 253.498C128.62 247.339 132.945 239.848 138.279 236.768C143.613 233.689 147.938 236.185 147.938 242.345C147.937 248.505 143.613 255.996 138.279 259.075Z" fill="black"/>
<path d="M118.785 231.008L116.815 229.861C116.566 229.88 116.333 230.013 116.202 230.24L114.939 232.433L114.438 233.3L112.613 236.462L111.964 237.589C111.865 237.749 111.835 237.958 111.865 238.148L111.875 238.158L120.283 243.015C120.243 242.816 120.263 242.606 120.363 242.437L121.559 240.362L123.046 237.789L124.572 235.156C124.701 234.926 124.951 234.777 125.22 234.757L118.785 231.008Z" fill="#7970FF"/>
<path opacity="0.35" d="M118.785 231.008L116.815 229.861C116.566 229.88 116.333 230.013 116.202 230.24L114.939 232.433L114.438 233.3L112.613 236.462L111.964 237.589C111.865 237.749 111.835 237.958 111.865 238.148L111.875 238.158L120.283 243.015C120.243 242.816 120.263 242.606 120.363 242.437L121.559 240.362L123.046 237.789L124.572 235.156C124.701 234.926 124.951 234.777 125.22 234.757L118.785 231.008Z" fill="black"/>
<path opacity="0.15" d="M121.511 231.185C121.302 231.255 121.062 231.275 120.863 231.205L120.576 231.104L120.565 231.1L117.202 229.918C117.2 229.918 117.199 229.918 117.197 229.918L117.132 229.895C117.028 229.859 116.921 229.853 116.816 229.861L116.933 229.928L118.786 231.008L119.42 231.377L125.222 234.756H125.232C125.361 234.726 125.481 234.736 125.601 234.776L129.271 236.053C129.471 236.122 129.719 236.12 129.929 236.041L121.511 231.185Z" fill="black"/>
<path d="M141.568 220.403C141.449 220.353 141.299 220.363 141.139 220.453L138.805 221.799L136.501 223.136L135.424 223.754C135.175 223.894 134.945 224.183 134.836 224.482L126.438 219.635V219.625C126.527 219.425 126.647 219.236 126.797 219.086C126.866 219.016 126.936 218.957 127.016 218.907C127.046 218.887 127.066 218.877 127.096 218.857L128.333 218.149L128.353 218.139L128.801 217.879L132.731 215.605C132.831 215.545 132.931 215.525 133.02 215.525C133.07 215.525 133.11 215.535 133.16 215.555C133.17 215.555 133.18 215.555 133.19 215.565L135.943 217.151L136.023 217.191L139.823 219.385L141.568 220.403Z" fill="#7970FF"/>
<path opacity="0.35" d="M141.568 220.403C141.449 220.353 141.299 220.363 141.139 220.453L138.805 221.799L136.501 223.136L135.424 223.754C135.175 223.894 134.945 224.183 134.836 224.482L126.438 219.635V219.625C126.527 219.425 126.647 219.236 126.797 219.086C126.866 219.016 126.936 218.957 127.016 218.907C127.046 218.887 127.066 218.877 127.096 218.857L128.333 218.149L128.353 218.139L128.801 217.879L132.731 215.605C132.831 215.545 132.931 215.525 133.02 215.525C133.07 215.525 133.11 215.535 133.16 215.555C133.17 215.555 133.18 215.555 133.19 215.565L135.943 217.151L136.023 217.191L139.823 219.385L141.568 220.403Z" fill="black"/>
<path d="M184.841 242.557C184.322 241.41 183.455 240.772 182.388 240.612C182.348 240.602 182.308 240.602 182.268 240.602C182.228 240.592 182.198 240.592 182.158 240.582H182.038C182.028 240.582 182.028 240.582 182.018 240.582C181.33 240.542 180.582 240.702 179.804 241.051C179.824 241.32 179.834 241.6 179.834 241.899C179.834 245.908 177.031 250.776 173.56 252.771C173.311 252.92 173.062 253.05 172.822 253.16C172.882 253.758 173.022 254.307 173.251 254.795C173.84 256.112 174.907 256.76 176.194 256.78H176.283C176.353 256.78 176.423 256.77 176.483 256.77L176.812 256.74C176.902 256.73 176.991 256.71 177.091 256.69C177.131 256.681 177.171 256.681 177.211 256.661C177.271 256.651 177.331 256.641 177.38 256.621C178.687 256.292 180.103 255.404 181.45 253.987C184.652 250.606 186.168 245.489 184.841 242.557Z" fill="#7970FF"/>
<path opacity="0.65" d="M181.45 253.987C180.103 255.404 178.687 256.292 177.38 256.621C177.331 256.641 177.271 256.651 177.211 256.661C177.171 256.681 177.131 256.681 177.091 256.69C176.991 256.71 176.902 256.73 176.812 256.74L176.483 256.77C176.423 256.77 176.353 256.78 176.283 256.78H176.194C174.907 256.76 173.84 256.112 173.251 254.795C173.022 254.307 172.882 253.758 172.822 253.16C173.062 253.05 173.311 252.92 173.56 252.771C177.031 250.776 179.834 245.908 179.834 241.899C179.834 241.6 179.824 241.32 179.804 241.051C180.582 240.702 181.33 240.542 182.018 240.582C182.028 240.582 182.028 240.582 182.038 240.582H182.158C182.198 240.592 182.228 240.592 182.268 240.602C182.308 240.602 182.348 240.602 182.388 240.612C183.455 240.772 184.322 241.41 184.841 242.557C186.168 245.489 184.652 250.606 181.45 253.987Z" fill="black"/>
<path d="M182.317 262.854L180.711 260.41C180.602 260.241 180.302 260.251 180.043 260.43C179.734 260.65 179.415 260.849 179.105 261.029L182.347 262.904C182.337 262.884 182.327 262.874 182.317 262.854Z" fill="#7970FF"/>
<path d="M189.768 242.566C189.768 242.975 189.748 243.394 189.708 243.823C189.688 244.053 189.888 244.242 190.157 244.262L192.84 244.412C192.92 244.412 192.98 244.432 193.04 244.461C192.85 244.352 191.294 243.444 189.768 242.566Z" fill="#7970FF"/>
<path d="M172.152 262.146C171.664 261.947 171.205 261.687 170.786 261.348C170.616 261.209 170.317 261.258 170.088 261.468L166.896 264.39C166.776 264.49 166.657 264.55 166.547 264.55C167.445 265.059 168.661 265.767 169.679 266.355C170.696 266.954 171.514 267.433 171.614 267.482C171.514 267.423 171.464 267.313 171.484 267.173L172.472 262.705C172.531 262.475 172.372 262.226 172.152 262.146Z" fill="#7970FF"/>
<path d="M166.109 264.34C166.129 264.35 166.149 264.36 166.169 264.37C166.248 264.42 166.318 264.46 166.358 264.48C166.378 264.49 166.398 264.5 166.408 264.51C166.378 264.48 166.348 264.46 166.338 264.42L164.912 261.278C164.872 261.178 164.872 261.039 164.912 260.899C164.942 260.769 165.012 260.63 165.091 260.53L168.084 256.909C168.213 256.75 168.313 256.54 168.353 256.361C168.373 256.271 168.383 256.181 168.373 256.111C168.303 255.293 168.303 254.426 168.383 253.528C168.403 253.309 168.203 253.109 167.934 253.099L165.251 252.939C164.982 252.929 164.812 252.73 164.882 252.491L166.358 247.523C166.438 247.284 166.727 247.045 167.026 246.965L169.959 246.257C170.258 246.187 170.587 245.938 170.707 245.708C171.176 244.771 171.704 243.853 172.283 242.965C172.323 242.905 172.363 242.826 172.393 242.746C172.413 242.706 172.432 242.656 172.442 242.606C172.452 242.556 172.462 242.506 172.472 242.467C172.492 242.357 172.482 242.267 172.462 242.187L171.505 238.956C171.475 238.856 171.495 238.716 171.545 238.587C171.565 238.517 171.595 238.447 171.635 238.387C171.674 238.317 171.724 238.257 171.774 238.198L175.205 234.577C175.355 234.417 175.534 234.358 175.664 234.417C175.674 234.417 175.684 234.417 175.694 234.427C175.724 234.437 175.764 234.467 175.784 234.497L177.38 236.941C177.489 237.11 177.789 237.1 178.048 236.921C178.696 236.482 179.345 236.103 179.983 235.804C180.272 235.664 180.581 235.375 180.671 235.145L182.357 230.597C182.367 230.557 182.397 230.517 182.427 230.478C182.516 230.348 182.686 230.228 182.856 230.168C182.885 230.158 182.905 230.148 182.935 230.148C182.975 230.138 183.005 230.128 183.045 230.128L186.167 229.809H186.237C186.277 229.809 186.317 229.819 186.356 229.829C186.396 229.829 186.436 229.849 186.466 229.869C186.576 229.929 186.636 230.039 186.596 230.178L185.618 234.657C185.568 234.886 185.718 235.126 185.938 235.215C186.426 235.405 186.885 235.664 187.304 236.003C187.474 236.143 187.773 236.093 188.002 235.884L191.194 232.971C191.363 232.822 191.533 232.772 191.653 232.831C191.284 232.612 185.389 229.201 185.359 229.181C185.319 229.161 185.279 229.151 185.239 229.151C184.9 228.961 184.511 228.732 184.102 228.493H184.092C183.683 228.263 183.264 228.014 182.846 227.775C182.676 227.675 182.506 227.575 182.347 227.485C181.938 227.246 181.549 227.017 181.22 226.827C181.16 226.787 181.1 226.757 181.04 226.717C180.532 226.428 180.192 226.229 180.162 226.219C180.093 226.169 179.983 226.149 179.853 226.159L176.731 226.468C176.681 226.468 176.642 226.478 176.592 226.498C176.542 226.508 176.492 226.528 176.452 226.548C176.402 226.568 176.352 226.598 176.312 226.628C176.273 226.657 176.243 226.687 176.213 226.717C176.133 226.787 176.083 226.867 176.053 226.947L174.357 231.485C174.348 231.525 174.328 231.555 174.298 231.595C174.268 231.645 174.228 231.704 174.178 231.754C174.128 231.814 174.078 231.864 174.018 231.914C174.008 231.924 173.998 231.934 173.988 231.944C173.939 231.984 173.899 232.014 173.849 232.044C173.789 232.083 173.729 232.123 173.669 232.153C173.34 232.303 173.021 232.482 172.682 232.672L169.4 230.777C169.39 230.767 169.37 230.757 169.35 230.757C169.281 230.717 169.181 230.737 169.081 230.787C169.011 230.807 168.951 230.857 168.892 230.916V230.926L166.458 233.49L165.461 234.547C165.401 234.607 165.351 234.677 165.311 234.747C165.271 234.816 165.241 234.896 165.211 234.976C165.181 235.076 165.171 235.155 165.181 235.235C165.181 235.255 165.191 235.275 165.191 235.295L166.149 238.527C166.169 238.607 166.169 238.706 166.159 238.816C166.159 238.846 166.149 238.876 166.139 238.916C166.139 238.926 166.129 238.946 166.129 238.956C166.129 238.976 166.119 238.986 166.109 239.006C166.079 239.115 166.029 239.225 165.969 239.315C165.391 240.192 164.862 241.12 164.393 242.048C164.284 242.287 163.944 242.536 163.655 242.606L160.713 243.314C160.414 243.384 160.114 243.634 160.054 243.863L158.568 248.84C158.528 248.98 158.578 249.119 158.688 249.199C158.728 249.229 159.995 249.967 160.952 250.516C161.541 250.855 162.009 251.124 162.009 251.124C162.009 251.583 162.029 252.032 162.069 252.461V252.501C162.069 252.56 162.059 252.63 162.039 252.7C162.029 252.78 161.999 252.85 161.97 252.93C161.91 253.039 161.85 253.159 161.78 253.249L158.778 256.879C158.698 256.979 158.628 257.119 158.598 257.248C158.578 257.318 158.568 257.388 158.568 257.448C158.568 257.508 158.578 257.567 158.598 257.617L160.025 260.759C160.045 260.809 160.074 260.839 160.114 260.869L160.124 260.879C160.194 260.919 160.533 261.108 161.022 261.398C161.152 261.467 161.301 261.547 161.451 261.647C162.578 262.295 164.184 263.223 165.271 263.851C165.421 263.931 165.56 264.021 165.69 264.091C165.77 264.14 165.85 264.19 165.919 264.23" fill="#7970FF"/>
<path opacity="0.55" d="M166.109 264.34C166.129 264.35 166.149 264.36 166.169 264.37C166.248 264.42 166.318 264.46 166.358 264.48C166.378 264.49 166.398 264.5 166.408 264.51C166.378 264.48 166.348 264.46 166.338 264.42L164.912 261.278C164.872 261.178 164.872 261.039 164.912 260.899C164.942 260.769 165.012 260.63 165.091 260.53L168.084 256.909C168.213 256.75 168.313 256.54 168.353 256.361C168.373 256.271 168.383 256.181 168.373 256.111C168.303 255.293 168.303 254.426 168.383 253.528C168.403 253.309 168.203 253.109 167.934 253.099L165.251 252.939C164.982 252.929 164.812 252.73 164.882 252.491L166.358 247.523C166.438 247.284 166.727 247.045 167.026 246.965L169.959 246.257C170.258 246.187 170.587 245.938 170.707 245.708C171.176 244.771 171.704 243.853 172.283 242.965C172.323 242.905 172.363 242.826 172.393 242.746C172.413 242.706 172.432 242.656 172.442 242.606C172.452 242.556 172.462 242.506 172.472 242.467C172.492 242.357 172.482 242.267 172.462 242.187L171.505 238.956C171.475 238.856 171.495 238.716 171.545 238.587C171.565 238.517 171.595 238.447 171.635 238.387C171.674 238.317 171.724 238.257 171.774 238.198L175.205 234.577C175.355 234.417 175.534 234.358 175.664 234.417C175.674 234.417 175.684 234.417 175.694 234.427C175.724 234.437 175.764 234.467 175.784 234.497L177.38 236.941C177.489 237.11 177.789 237.1 178.048 236.921C178.696 236.482 179.345 236.103 179.983 235.804C180.272 235.664 180.581 235.375 180.671 235.145L182.357 230.597C182.367 230.557 182.397 230.517 182.427 230.478C182.516 230.348 182.686 230.228 182.856 230.168C182.885 230.158 182.905 230.148 182.935 230.148C182.975 230.138 183.005 230.128 183.045 230.128L186.167 229.809H186.237C186.277 229.809 186.317 229.819 186.356 229.829C186.396 229.829 186.436 229.849 186.466 229.869C186.576 229.929 186.636 230.039 186.596 230.178L185.618 234.657C185.568 234.886 185.718 235.126 185.938 235.215C186.426 235.405 186.885 235.664 187.304 236.003C187.474 236.143 187.773 236.093 188.002 235.884L191.194 232.971C191.363 232.822 191.533 232.772 191.653 232.831C191.284 232.612 185.389 229.201 185.359 229.181C185.319 229.161 185.279 229.151 185.239 229.151C184.9 228.961 184.511 228.732 184.102 228.493H184.092C183.683 228.263 183.264 228.014 182.846 227.775C182.676 227.675 182.506 227.575 182.347 227.485C181.938 227.246 181.549 227.017 181.22 226.827C181.16 226.787 181.1 226.757 181.04 226.717C180.532 226.428 180.192 226.229 180.162 226.219C180.093 226.169 179.983 226.149 179.853 226.159L176.731 226.468C176.681 226.468 176.642 226.478 176.592 226.498C176.542 226.508 176.492 226.528 176.452 226.548C176.402 226.568 176.352 226.598 176.312 226.628C176.273 226.657 176.243 226.687 176.213 226.717C176.133 226.787 176.083 226.867 176.053 226.947L174.357 231.485C174.348 231.525 174.328 231.555 174.298 231.595C174.268 231.645 174.228 231.704 174.178 231.754C174.128 231.814 174.078 231.864 174.018 231.914C174.008 231.924 173.998 231.934 173.988 231.944C173.939 231.984 173.899 232.014 173.849 232.044C173.789 232.083 173.729 232.123 173.669 232.153C173.34 232.303 173.021 232.482 172.682 232.672L169.4 230.777C169.39 230.767 169.37 230.757 169.35 230.757C169.281 230.717 169.181 230.737 169.081 230.787C169.011 230.807 168.951 230.857 168.892 230.916V230.926L166.458 233.49L165.461 234.547C165.401 234.607 165.351 234.677 165.311 234.747C165.271 234.816 165.241 234.896 165.211 234.976C165.181 235.076 165.171 235.155 165.181 235.235C165.181 235.255 165.191 235.275 165.191 235.295L166.149 238.527C166.169 238.607 166.169 238.706 166.159 238.816C166.159 238.846 166.149 238.876 166.139 238.916C166.139 238.926 166.129 238.946 166.129 238.956C166.129 238.976 166.119 238.986 166.109 239.006C166.079 239.115 166.029 239.225 165.969 239.315C165.391 240.192 164.862 241.12 164.393 242.048C164.284 242.287 163.944 242.536 163.655 242.606L160.713 243.314C160.414 243.384 160.114 243.634 160.054 243.863L158.568 248.84C158.528 248.98 158.578 249.119 158.688 249.199C158.728 249.229 159.995 249.967 160.952 250.516C161.541 250.855 162.009 251.124 162.009 251.124C162.009 251.583 162.029 252.032 162.069 252.461V252.501C162.069 252.56 162.059 252.63 162.039 252.7C162.029 252.78 161.999 252.85 161.97 252.93C161.91 253.039 161.85 253.159 161.78 253.249L158.778 256.879C158.698 256.979 158.628 257.119 158.598 257.248C158.578 257.318 158.568 257.388 158.568 257.448C158.568 257.508 158.578 257.567 158.598 257.617L160.025 260.759C160.045 260.809 160.074 260.839 160.114 260.869L160.124 260.879C160.194 260.919 160.533 261.108 161.022 261.398C161.152 261.467 161.301 261.547 161.451 261.647C162.578 262.295 164.184 263.223 165.271 263.851C165.421 263.931 165.56 264.021 165.69 264.091C165.77 264.14 165.85 264.19 165.919 264.23" fill="black"/>
<path opacity="0.65" d="M182.317 262.854L180.711 260.41C180.602 260.241 180.302 260.251 180.043 260.43C179.734 260.65 179.415 260.849 179.105 261.029L182.347 262.904C182.337 262.884 182.327 262.874 182.317 262.854Z" fill="black"/>
<path opacity="0.55" d="M189.768 242.566C189.768 242.975 189.748 243.394 189.708 243.823C189.688 244.053 189.888 244.242 190.157 244.262L192.84 244.412C192.92 244.412 192.98 244.432 193.04 244.461C192.85 244.352 191.294 243.444 189.768 242.566Z" fill="black"/>
<path opacity="0.65" d="M172.152 262.146C171.664 261.947 171.205 261.687 170.786 261.348C170.616 261.209 170.317 261.258 170.088 261.468L166.896 264.39C166.776 264.49 166.657 264.55 166.547 264.55C167.445 265.059 168.661 265.767 169.679 266.355C170.696 266.954 171.514 267.433 171.614 267.482C171.514 267.423 171.464 267.313 171.484 267.173L172.472 262.705C172.531 262.475 172.372 262.226 172.152 262.146Z" fill="black"/>
<path opacity="0.2" d="M168.283 256.57C168.233 256.69 168.163 256.81 168.083 256.909L165.091 260.53C165.011 260.63 164.941 260.769 164.911 260.899L158.598 257.249C158.628 257.119 158.697 256.979 158.777 256.879L161.779 253.249C161.849 253.159 161.909 253.039 161.969 252.93L168.283 256.57Z" fill="black"/>
<path opacity="0.05" d="M168.372 256.112C168.392 256.242 168.352 256.401 168.282 256.571L161.969 252.93C161.999 252.85 162.029 252.781 162.039 252.701C162.059 252.631 162.068 252.561 162.068 252.501V252.461C162.029 252.032 162.009 251.594 162.009 251.135L164.971 252.84C165.041 252.9 165.131 252.93 165.25 252.94L167.933 253.1C168.203 253.11 168.402 253.309 168.382 253.529C168.302 254.426 168.302 255.294 168.372 256.112Z" fill="black"/>
<path opacity="0.1" d="M170.358 246.067C170.238 246.156 170.098 246.226 169.959 246.256L167.026 246.964C166.817 247.024 166.607 247.154 166.488 247.313L160.164 243.673C160.244 243.563 160.364 243.463 160.493 243.393C160.563 243.364 160.643 243.334 160.713 243.314L163.655 242.606C163.785 242.576 163.914 242.506 164.034 242.426C164.044 242.416 164.044 242.416 164.044 242.416L170.358 246.067Z" fill="black"/>
<path opacity="0.35" d="M164.882 252.491C164.842 252.631 164.882 252.75 164.972 252.84L162.009 251.135C162.009 251.135 161.999 251.125 161.989 251.125L158.738 249.239C158.708 249.219 158.688 249.209 158.688 249.2C158.578 249.12 158.528 248.99 158.568 248.84L160.054 243.863C160.074 243.803 160.104 243.734 160.154 243.674L166.488 247.314C166.428 247.384 166.378 247.454 166.358 247.524L164.882 252.491Z" fill="black"/>
<path opacity="0.1" d="M165.221 234.977L171.535 238.597C171.485 238.727 171.475 238.857 171.505 238.956L172.462 242.188C172.492 242.298 172.482 242.457 172.442 242.607L166.129 238.956C166.129 238.946 166.139 238.926 166.139 238.916C166.149 238.876 166.149 238.847 166.159 238.817C166.169 238.707 166.169 238.607 166.149 238.527L165.191 235.296C165.161 235.206 165.171 235.096 165.211 234.977" fill="black"/>
<path opacity="0.1" d="M182.526 230.367C182.446 230.437 182.386 230.517 182.356 230.597L180.67 235.145C180.62 235.285 180.491 235.434 180.331 235.564L174.018 231.913C174.137 231.814 174.237 231.704 174.297 231.594C174.327 231.554 174.347 231.524 174.357 231.484L176.052 226.946C176.082 226.866 176.132 226.787 176.212 226.717L182.526 230.367Z" fill="black"/>
<path d="M164.882 252.491C164.842 252.631 164.882 252.75 164.972 252.84L162.009 251.135C162.009 251.135 161.999 251.125 161.989 251.125L158.738 249.239C158.708 249.219 158.688 249.209 158.688 249.2C158.578 249.12 158.528 248.99 158.568 248.84L160.054 243.863C160.074 243.803 160.104 243.734 160.154 243.674L166.488 247.314C166.428 247.384 166.378 247.454 166.358 247.524L164.882 252.491Z" fill="#7970FF"/>
<path opacity="0.35" d="M164.882 252.491C164.842 252.631 164.882 252.75 164.972 252.84L162.009 251.135C162.009 251.135 161.999 251.125 161.989 251.125L158.738 249.239C158.708 249.219 158.688 249.209 158.688 249.2C158.578 249.12 158.528 248.99 158.568 248.84L160.054 243.863C160.074 243.803 160.104 243.734 160.154 243.674L166.488 247.314C166.428 247.384 166.378 247.454 166.358 247.524L164.882 252.491Z" fill="black"/>
<path opacity="0.35" d="M160.165 243.674C160.145 243.684 160.135 243.704 160.125 243.714C160.135 243.694 160.145 243.684 160.155 243.674H160.165Z" fill="black"/>
<path d="M175.704 234.418L175.694 234.428C175.564 234.348 175.364 234.408 175.205 234.578L171.774 238.198C171.674 238.308 171.584 238.458 171.534 238.597L165.221 234.977C165.241 234.897 165.271 234.827 165.31 234.747C165.35 234.677 165.4 234.608 165.46 234.548L168.891 230.927C168.951 230.867 169.021 230.817 169.081 230.787C169.18 230.738 169.28 230.718 169.35 230.758C169.37 230.758 169.38 230.758 169.4 230.768V230.777L172.681 232.673L175.704 234.418Z" fill="#7970FF"/>
<path opacity="0.35" d="M175.704 234.418L175.694 234.428C175.564 234.348 175.364 234.408 175.205 234.578L171.774 238.198C171.674 238.308 171.584 238.458 171.534 238.597L165.221 234.977C165.241 234.897 165.271 234.827 165.31 234.747C165.35 234.677 165.4 234.608 165.46 234.548L168.891 230.927C168.951 230.867 169.021 230.817 169.081 230.787C169.18 230.738 169.28 230.718 169.35 230.758C169.37 230.758 169.38 230.758 169.4 230.768V230.777L172.681 232.673L175.704 234.418Z" fill="black"/>
<path d="M186.446 229.859C186.367 229.819 186.277 229.799 186.167 229.809L183.045 230.128C182.856 230.138 182.666 230.238 182.527 230.368L176.213 226.717C176.243 226.687 176.273 226.657 176.313 226.628C176.353 226.608 176.402 226.578 176.452 226.548C176.492 226.528 176.542 226.508 176.592 226.498C176.632 226.478 176.682 226.478 176.732 226.468L179.853 226.159C179.983 226.149 180.093 226.169 180.163 226.219C180.193 226.229 186.357 229.799 186.446 229.859Z" fill="#7970FF"/>
<path opacity="0.35" d="M186.446 229.859C186.367 229.819 186.277 229.799 186.167 229.809L183.045 230.128C182.856 230.138 182.666 230.238 182.527 230.368L176.213 226.717C176.243 226.687 176.273 226.657 176.313 226.628C176.353 226.608 176.402 226.578 176.452 226.548C176.492 226.528 176.542 226.508 176.592 226.498C176.632 226.478 176.682 226.478 176.732 226.468L179.853 226.159C179.983 226.149 180.093 226.169 180.163 226.219C180.193 226.229 186.357 229.799 186.446 229.859Z" fill="black"/>
<path opacity="0.35" d="M161.83 251.023C161.94 251.083 162.01 251.123 162.01 251.123V251.133C162.01 251.133 162 251.123 161.99 251.123L161.83 251.023Z" fill="black"/>
<path d="M193.04 244.461C192.98 244.431 192.92 244.411 192.841 244.411L190.158 244.262C189.888 244.242 189.689 244.052 189.709 243.823C189.749 243.394 189.769 242.975 189.769 242.566C189.779 242.117 189.759 241.668 189.719 241.24C189.699 241.02 189.818 240.671 190.008 240.452L193 236.821C193.19 236.602 193.269 236.262 193.18 236.083L191.763 232.941C191.743 232.891 191.714 232.861 191.674 232.841C191.664 232.831 191.664 232.831 191.654 232.831C191.534 232.771 191.364 232.821 191.195 232.971L188.003 235.883C187.774 236.093 187.474 236.143 187.305 236.003C186.886 235.664 186.427 235.405 185.938 235.215C185.719 235.125 185.569 234.886 185.619 234.657L186.597 230.178C186.637 230.039 186.577 229.929 186.467 229.869C186.387 229.819 186.288 229.799 186.168 229.809L183.046 230.128C182.757 230.148 182.447 230.368 182.358 230.597L180.672 235.145C180.582 235.375 180.273 235.664 179.984 235.804C179.346 236.103 178.697 236.482 178.049 236.921C177.79 237.1 177.49 237.11 177.381 236.941L175.785 234.497C175.665 234.327 175.406 234.357 175.206 234.577L171.775 238.197C171.566 238.417 171.446 238.756 171.506 238.955L172.463 242.187C172.523 242.387 172.443 242.736 172.284 242.965C171.705 243.853 171.177 244.77 170.708 245.708C170.588 245.937 170.259 246.187 169.96 246.257L167.027 246.965C166.728 247.045 166.439 247.284 166.359 247.523L164.883 252.49C164.813 252.73 164.983 252.929 165.252 252.939L167.935 253.099C168.204 253.109 168.404 253.308 168.384 253.528C168.304 254.425 168.304 255.293 168.374 256.111C168.404 256.331 168.274 256.68 168.085 256.909L165.092 260.53C164.913 260.749 164.833 261.088 164.913 261.278L166.309 264.4C166.329 264.44 166.349 264.459 166.369 264.469C166.379 264.489 166.389 264.499 166.409 264.509L166.429 264.519C166.469 264.539 166.509 264.549 166.549 264.549C166.658 264.549 166.778 264.499 166.898 264.39L170.089 261.467C170.319 261.258 170.618 261.208 170.788 261.348C171.207 261.687 171.665 261.946 172.154 262.145C172.374 262.225 172.533 262.475 172.473 262.704L171.486 267.172C171.466 267.312 171.516 267.422 171.616 267.482C171.625 267.482 171.625 267.482 171.625 267.492C171.705 267.532 171.805 267.552 171.925 267.542L175.047 267.232C175.336 267.202 175.645 266.983 175.735 266.754L177.43 262.215C177.51 261.976 177.819 261.687 178.109 261.547C178.438 261.397 178.777 261.218 179.106 261.028C179.415 260.849 179.734 260.649 180.044 260.43C180.303 260.25 180.602 260.24 180.712 260.41L182.318 262.854C182.338 262.894 182.358 262.914 182.388 262.933C182.517 263.013 182.727 262.953 182.886 262.774L186.327 259.153C186.527 258.944 186.647 258.595 186.587 258.405L185.629 255.174C185.569 254.964 185.659 254.615 185.809 254.386C186.397 253.498 186.916 252.58 187.385 251.653C187.504 251.413 187.834 251.164 188.133 251.094L191.065 250.386C191.364 250.316 191.664 250.067 191.733 249.837L193.21 244.86C193.26 244.701 193.19 244.551 193.05 244.471C193.05 244.461 193.04 244.461 193.04 244.461ZM181.45 253.987C180.104 255.403 178.687 256.291 177.381 256.62C177.331 256.64 177.271 256.65 177.211 256.66C177.171 256.68 177.131 256.68 177.091 256.69C176.992 256.71 176.902 256.729 176.812 256.739L176.483 256.769C176.423 256.769 176.353 256.779 176.283 256.779H176.194C174.907 256.759 173.84 256.111 173.251 254.795C173.022 254.306 172.882 253.757 172.822 253.159C172.782 252.869 172.763 252.56 172.773 252.251C172.792 249.418 174.249 245.907 176.643 243.364C177.42 242.546 178.218 241.908 179.016 241.449C179.276 241.289 179.545 241.16 179.804 241.05C180.582 240.701 181.33 240.541 182.019 240.581C182.029 240.581 182.029 240.581 182.039 240.581H182.158C182.198 240.591 182.228 240.591 182.268 240.601C182.308 240.601 182.348 240.601 182.388 240.611C183.455 240.771 184.323 241.409 184.841 242.556C186.168 245.489 184.652 250.605 181.45 253.987Z" fill="#7970FF"/>
<path opacity="0.45" d="M193.04 244.461C192.98 244.431 192.92 244.411 192.841 244.411L190.158 244.262C189.888 244.242 189.689 244.052 189.709 243.823C189.749 243.394 189.769 242.975 189.769 242.566C189.779 242.117 189.759 241.668 189.719 241.24C189.699 241.02 189.818 240.671 190.008 240.452L193 236.821C193.19 236.602 193.269 236.262 193.18 236.083L191.763 232.941C191.743 232.891 191.714 232.861 191.674 232.841C191.664 232.831 191.664 232.831 191.654 232.831C191.534 232.771 191.364 232.821 191.195 232.971L188.003 235.883C187.774 236.093 187.474 236.143 187.305 236.003C186.886 235.664 186.427 235.405 185.938 235.215C185.719 235.125 185.569 234.886 185.619 234.657L186.597 230.178C186.637 230.039 186.577 229.929 186.467 229.869C186.387 229.819 186.288 229.799 186.168 229.809L183.046 230.128C182.757 230.148 182.447 230.368 182.358 230.597L180.672 235.145C180.582 235.375 180.273 235.664 179.984 235.804C179.346 236.103 178.697 236.482 178.049 236.921C177.79 237.1 177.49 237.11 177.381 236.941L175.785 234.497C175.665 234.327 175.406 234.357 175.206 234.577L171.775 238.197C171.566 238.417 171.446 238.756 171.506 238.955L172.463 242.187C172.523 242.387 172.443 242.736 172.284 242.965C171.705 243.853 171.177 244.77 170.708 245.708C170.588 245.937 170.259 246.187 169.96 246.257L167.027 246.965C166.728 247.045 166.439 247.284 166.359 247.523L164.883 252.49C164.813 252.73 164.983 252.929 165.252 252.939L167.935 253.099C168.204 253.109 168.404 253.308 168.384 253.528C168.304 254.425 168.304 255.293 168.374 256.111C168.404 256.331 168.274 256.68 168.085 256.909L165.092 260.53C164.913 260.749 164.833 261.088 164.913 261.278L166.309 264.4C166.329 264.44 166.349 264.459 166.369 264.469C166.379 264.489 166.389 264.499 166.409 264.509L166.429 264.519C166.469 264.539 166.509 264.549 166.549 264.549C166.658 264.549 166.778 264.499 166.898 264.39L170.089 261.467C170.319 261.258 170.618 261.208 170.788 261.348C171.207 261.687 171.665 261.946 172.154 262.145C172.374 262.225 172.533 262.475 172.473 262.704L171.486 267.172C171.466 267.312 171.516 267.422 171.616 267.482C171.625 267.482 171.625 267.482 171.625 267.492C171.705 267.532 171.805 267.552 171.925 267.542L175.047 267.232C175.336 267.202 175.645 266.983 175.735 266.754L177.43 262.215C177.51 261.976 177.819 261.687 178.109 261.547C178.438 261.397 178.777 261.218 179.106 261.028C179.415 260.849 179.734 260.649 180.044 260.43C180.303 260.25 180.602 260.24 180.712 260.41L182.318 262.854C182.338 262.894 182.358 262.914 182.388 262.933C182.517 263.013 182.727 262.953 182.886 262.774L186.327 259.153C186.527 258.944 186.647 258.595 186.587 258.405L185.629 255.174C185.569 254.964 185.659 254.615 185.809 254.386C186.397 253.498 186.916 252.58 187.385 251.653C187.504 251.413 187.834 251.164 188.133 251.094L191.065 250.386C191.364 250.316 191.664 250.067 191.733 249.837L193.21 244.86C193.26 244.701 193.19 244.551 193.05 244.471C193.05 244.461 193.04 244.461 193.04 244.461ZM181.45 253.987C180.104 255.403 178.687 256.291 177.381 256.62C177.331 256.64 177.271 256.65 177.211 256.66C177.171 256.68 177.131 256.68 177.091 256.69C176.992 256.71 176.902 256.729 176.812 256.739L176.483 256.769C176.423 256.769 176.353 256.779 176.283 256.779H176.194C174.907 256.759 173.84 256.111 173.251 254.795C173.022 254.306 172.882 253.757 172.822 253.159C172.782 252.869 172.763 252.56 172.773 252.251C172.792 249.418 174.249 245.907 176.643 243.364C177.42 242.546 178.218 241.908 179.016 241.449C179.276 241.289 179.545 241.16 179.804 241.05C180.582 240.701 181.33 240.541 182.019 240.581C182.029 240.581 182.029 240.581 182.039 240.581H182.158C182.198 240.591 182.228 240.591 182.268 240.601C182.308 240.601 182.348 240.601 182.388 240.611C183.455 240.771 184.323 241.409 184.841 242.556C186.168 245.489 184.652 250.605 181.45 253.987Z" fill="black"/>
<path opacity="0.7" d="M247.743 183.538L340.661 129.883C341.854 129.195 342.82 129.752 342.82 131.129V215.027C342.82 216.405 341.854 218.08 340.661 218.768L247.743 272.423C246.55 273.111 245.584 272.554 245.584 271.176V187.278C245.584 185.901 246.551 184.226 247.743 183.538Z" fill="#37474F"/>
<path opacity="0.7" d="M246.22 185.151L242.166 182.811C241.773 183.489 241.529 184.253 241.529 184.943V268.84C241.529 269.518 241.769 269.997 242.148 270.226C242.547 270.466 245.808 272.311 246.177 272.55C245.808 272.311 245.589 271.832 245.589 271.174V187.277C245.59 186.59 245.83 185.828 246.22 185.151Z" fill="#263238"/>
<path opacity="0.5" d="M342.102 129.683C341.334 129.215 338.502 127.609 338.153 127.399C337.764 127.17 337.215 127.19 336.607 127.539L243.694 181.203C243.097 181.546 242.557 182.136 242.166 182.811L246.221 185.152C246.611 184.474 247.15 183.882 247.745 183.537L340.667 129.883C341.215 129.564 341.723 129.514 342.102 129.683Z" fill="#455A64"/>
<path d="M260.922 219.451C260.922 218.805 261.021 218.253 261.217 217.796C261.414 217.34 261.695 216.823 262.064 216.246L276.826 192.329C276.93 192.189 277.016 192.09 277.081 192.03C277.146 191.972 277.206 191.927 277.259 191.897C277.495 191.761 277.692 191.77 277.85 191.92C278.008 192.071 278.085 192.329 278.085 192.692V200.995C278.085 201.682 277.942 202.311 277.653 202.881C277.363 203.452 277.088 203.956 276.826 204.389L269.898 215.541L276.826 218.692C277.088 218.825 277.363 219.008 277.653 219.246C277.941 219.483 278.085 219.946 278.085 220.633V228.936C278.085 229.299 278.008 229.647 277.85 229.981C277.692 230.315 277.496 230.548 277.259 230.685C277.206 230.716 277.147 230.742 277.081 230.757C277.016 230.775 276.93 230.775 276.826 230.753L262.064 223.882C261.696 223.73 261.415 223.54 261.217 223.31C261.021 223.082 260.922 222.642 260.922 221.995V219.451Z" fill="#FAFAFA"/>
<path d="M297.608 174.937C297.739 174.418 297.937 173.89 298.199 173.354C298.462 172.819 298.842 172.408 299.341 172.119L304.223 169.302C304.459 169.165 304.661 169.18 304.833 169.344C305.003 169.507 305.089 169.77 305.089 170.134C305.089 170.296 305.062 170.493 305.01 170.725L291.745 227.414C291.639 227.879 291.455 228.39 291.193 228.944C290.93 229.5 290.537 229.93 290.012 230.233L285.21 233.005C284.974 233.141 284.77 233.128 284.599 232.964C284.429 232.798 284.344 232.535 284.344 232.172C284.344 232.009 284.37 231.813 284.422 231.581L297.608 174.937Z" fill="#FAFAFA"/>
<path d="M327.486 183.565C327.486 184.212 327.387 184.765 327.191 185.221C326.994 185.679 326.712 186.194 326.344 186.77L311.582 210.687C311.477 210.83 311.392 210.929 311.326 210.986C311.261 211.046 311.201 211.089 311.149 211.119C310.913 211.256 310.715 211.249 310.558 211.097C310.4 210.945 310.322 210.688 310.322 210.325V202.023C310.322 201.335 310.467 200.707 310.755 200.135C311.043 199.565 311.319 199.063 311.582 198.627L318.509 187.476L311.582 184.324C311.319 184.194 311.043 184.009 310.755 183.771C310.467 183.535 310.322 183.073 310.322 182.384V174.082C310.322 173.719 310.4 173.37 310.558 173.037C310.715 172.703 310.912 172.468 311.149 172.331C311.201 172.301 311.26 172.278 311.326 172.26C311.391 172.244 311.476 172.244 311.582 172.264L326.344 179.135C326.711 179.286 326.993 179.478 327.191 179.707C327.387 179.937 327.486 180.376 327.486 181.021V183.565Z" fill="#FAFAFA"/>
<path opacity="0.7" d="M235.518 191.452C235.139 191.282 234.63 191.332 234.082 191.651L141.159 245.306C139.972 245.994 139.005 247.669 139.005 249.046V332.943C139.005 333.601 139.224 334.08 139.593 334.319C139.224 334.08 135.963 332.235 135.564 331.995C135.185 331.766 134.945 331.287 134.945 330.609V246.713C134.945 245.337 135.913 243.661 137.11 242.973L230.022 189.308C230.631 188.959 231.179 188.939 231.568 189.169C231.917 189.377 234.75 190.983 235.518 191.452Z" fill="#7970FF"/>
<path opacity="0.7" d="M141.159 245.307L234.077 191.652C235.27 190.964 236.236 191.522 236.236 192.899V276.797C236.236 278.174 235.27 279.849 234.077 280.537L141.159 334.192C139.967 334.881 139 334.323 139 332.946V249.048C139 247.67 139.968 245.996 141.159 245.307Z" fill="#7970FF"/>
<path opacity="0.15" d="M139.636 246.921L135.582 244.58C135.189 245.258 134.945 246.022 134.945 246.713V330.609C134.945 331.287 135.185 331.766 135.564 331.995C135.963 332.234 139.224 334.08 139.593 334.319C139.224 334.08 139.005 333.601 139.005 332.942V249.047C139.005 248.359 139.246 247.597 139.636 246.921Z" fill="black"/>
<path opacity="0.5" d="M235.518 191.453C234.75 190.984 231.918 189.378 231.569 189.169C231.18 188.939 230.631 188.959 230.023 189.308L137.11 242.973C136.513 243.316 135.973 243.905 135.582 244.58L139.637 246.921C140.027 246.243 140.566 245.651 141.161 245.307L234.083 191.652C234.631 191.333 235.139 191.283 235.518 191.453Z" fill="white"/>
<path opacity="0.95" d="M199.822 273.136L207.168 283.46L173.977 253.253L139 312.505V332.947C139 334.324 139.967 334.882 141.159 334.193L234.077 280.538C235.27 279.85 236.236 278.175 236.236 276.798V265.567L211.483 247.748L199.822 273.136Z" fill="#FAFAFA"/>
<path opacity="0.95" d="M203.824 223.464C208.157 220.962 211.669 222.991 211.669 227.994C211.669 232.997 208.157 239.081 203.824 241.583C199.491 244.085 195.979 242.056 195.979 237.053C195.979 232.05 199.491 225.965 203.824 223.464Z" fill="#FAFAFA"/>
<path d="M235.042 192.355C235.234 192.355 235.239 192.844 235.239 192.899V276.797C235.239 277.819 234.463 279.163 233.578 279.674L140.661 333.329C140.408 333.475 140.251 333.491 140.195 333.491C140.002 333.491 139.997 333.002 139.997 332.946V249.048C139.997 248.027 140.773 246.682 141.658 246.172L234.576 192.516C234.828 192.371 234.986 192.355 235.042 192.355ZM235.042 191.357C234.751 191.357 234.423 191.452 234.077 191.653L141.159 245.308C139.967 245.996 139 247.671 139 249.048V332.946C139 333.923 139.487 334.488 140.195 334.488C140.485 334.488 140.812 334.393 141.159 334.193L234.077 280.538C235.27 279.849 236.236 278.175 236.236 276.797V192.899C236.237 191.922 235.751 191.357 235.042 191.357Z" fill="#7970FF"/>
<path d="M185.042 373.113C183.306 374.1 180.051 374.06 179.015 375.249L179.014 379.523L198.865 376.624L206.372 381.024L203.518 386.987L183.475 385.648L183.474 389.922C183.897 390.221 184.341 390.506 184.818 390.785C193.203 395.701 206.902 395.761 215.416 390.921C219.712 388.478 221.857 385.26 221.858 382.039L221.859 382.04V377.78L220.676 377.968C220.63 377.89 220.592 377.811 220.543 377.733L295.661 334.364C303.267 335.967 312.117 335.037 318.274 331.536C321.467 329.721 323.471 327.482 324.303 325.126L324.304 320.852L304.451 328.026L296.945 323.626L299.798 317.663L319.842 314.728L319.843 310.454C319.843 310.454 296.415 308.89 287.901 313.73C285.399 315.153 283.641 316.839 282.596 318.635L281.461 318.224L281.46 322.465L281.468 322.455C281.434 323.966 281.865 325.48 282.773 326.918L207.656 370.287C200.049 368.681 191.199 369.612 185.042 373.113Z" fill="#263238"/>
<path d="M295.661 334.364L295.662 330.09L220.544 373.459L220.543 377.733L295.661 334.364Z" fill="#37474F"/>
<path d="M282.773 322.642L207.656 366.011C200.049 364.408 191.199 365.339 185.042 368.839C181.849 370.654 179.846 372.893 179.014 375.249L198.865 372.35L206.372 376.751L203.518 382.713L183.474 385.648C183.897 385.946 184.341 386.232 184.818 386.511C193.203 391.428 206.902 391.487 215.416 386.647C221.658 383.098 223.358 377.913 220.544 373.459L295.662 330.09C303.268 331.693 312.118 330.762 318.275 327.263C321.468 325.447 323.472 323.208 324.304 320.852L304.452 323.752L296.946 319.351L299.799 313.388L319.843 310.453C319.42 310.156 318.977 309.87 318.5 309.59C310.115 304.674 296.416 304.614 287.901 309.455C281.659 313.003 279.959 318.188 282.773 322.642Z" fill="#455A64"/>
<path d="M298.542 320.286L296.945 319.349L299.799 313.387L319.843 310.451L319.842 314.725L299.798 317.662L298.542 320.286Z" fill="#37474F"/>
<path d="M384.779 70.4556L386.621 80.6283L396.798 81.129L394.445 67.627L384.779 70.4556Z" fill="#FFA8A7"/>
<path d="M377.273 55.6532C377.273 55.6532 375.12 51.5099 378.101 46.8819C381.614 41.43 388.793 38.73 396.74 40.9064C400.679 41.9856 405.677 46.072 406.173 55.5794C406.477 61.4203 390.222 65.6374 390.572 69.638L377.273 55.6532Z" fill="#263238"/>
<path d="M376.911 57.8672C376.911 57.8672 374.684 61.3981 374.992 61.7601C375.3 62.1212 376.773 62.4822 376.773 62.4822L376.911 57.8672Z" fill="#F28F8F"/>
<path d="M381.783 47.5007C379.569 48.7055 376.746 50.7054 376.537 58.4793C376.309 67.0042 377.554 69.5426 378.732 70.6268C379.528 71.3589 383.724 71.2732 385.806 70.577C388.411 69.7062 394.275 67.2665 396.846 62.841C399.869 57.6334 400.367 50.7692 396.692 48.162C391.518 44.4914 383.656 46.4803 381.783 47.5007Z" fill="#FFA8A7"/>
<path d="M379.628 47.4601C379.628 47.4601 376.053 55.2011 383.715 59.6466C383.715 59.6466 385.017 56.6034 387.627 57.4123C390.253 58.2262 390.089 61.7082 388.076 63.5295C386.062 65.3508 384.946 64.1948 384.946 64.1948C384.946 64.1948 384.886 67.0105 387.56 69.6118C387.56 69.6118 395.622 73.8488 402.36 66.3233C408.475 59.495 407.408 47.5229 398.114 44.6504C388.82 41.7788 379.628 47.4601 379.628 47.4601Z" fill="#263238"/>
<path d="M417.66 78.7373C411.959 79.1133 407.032 74.7955 406.657 69.0942L405.49 51.388C411.191 51.012 416.118 55.3298 416.493 61.0311L417.66 78.7373Z" fill="#263238"/>
<path d="M408.895 220.114L408.621 211.309L415.925 210.047L416.345 217.559C416.695 219.31 417.935 219.882 418.243 220.867C418.551 221.851 413.278 231.936 410.303 234.162C407.328 236.389 402.505 233.534 402.033 232.463C401.56 231.392 406.013 232.187 406.733 230.654C407.705 228.583 408.895 220.114 408.895 220.114Z" fill="#FFA8A7"/>
<path d="M417.04 219.021C416.077 219.824 415.345 221.841 414.027 224.602C412.71 227.363 410.82 231.849 408.77 232.489C406.382 233.234 401.694 231.869 404.684 231.644C405.338 231.595 406.48 231.345 406.787 230.653C407.019 230.129 407.073 229.887 407.073 229.887C407.073 229.887 406 230.273 403.887 230.183C402.053 230.103 400.696 230.526 399.736 231.972C399.241 232.717 400.038 233.964 400.038 233.964C400.946 235.092 402.662 236.201 406.589 236.504C410.372 236.795 412.851 236.22 414.262 233.551C415.973 230.311 419.003 226.872 420.222 225.053C421.697 222.851 419.322 219.609 417.04 219.021Z" fill="#263238"/>
<path d="M406.971 230.048C406.732 230.653 405.008 230.833 404.137 230.949C403.267 231.065 402.863 231.865 404.263 232.315C406.679 232.574 407.867 230.001 406.971 230.048Z" fill="#FFA8A7"/>
<path d="M402.802 74.8868C405.883 74.2773 409.213 77.7504 410.86 80.5461C412.506 83.3419 420.682 97.9132 421.592 100.365C422.502 102.816 422.773 103.36 419.645 106.565C416.517 109.77 406.247 118.684 406.247 118.684L402.82 111.642L411.575 101.736L401.834 87.5819L402.802 74.8868Z" fill="#FFA8A7"/>
<path d="M401.168 74.7888C401.168 74.7888 404.448 74.0427 406.178 75.1399C407.908 76.237 410.018 78.4324 412.019 81.9832C414.02 85.535 418.878 94.4359 418.878 94.4359C418.878 94.4359 416.87 99.2256 410.445 100.584L404.042 92.3783L401.168 74.7888Z" fill="#7970FF"/>
<path opacity="0.1" d="M401.168 74.7888C401.168 74.7888 404.448 74.0427 406.178 75.1399C407.908 76.237 410.018 78.4324 412.019 81.9832C414.02 85.535 418.878 94.4359 418.878 94.4359C418.878 94.4359 416.87 99.2256 410.445 100.584L404.042 92.3783L401.168 74.7888Z" fill="black"/>
<path d="M416.551 213.918C416.551 213.918 412.125 215.866 408.337 215.109C408.337 215.109 404.96 202.966 401.378 188.583C397.741 173.961 393.878 157.024 393.109 148.193C392.07 136.191 394.668 119.903 396.41 110.856C397.2 106.71 397.817 104.081 397.817 104.081L403.423 103.465C404.885 105.531 406.453 107.469 407.937 109.46C410.328 112.631 412.504 115.911 413.759 119.98C413.77 120.013 413.781 120.056 413.792 120.088C417.666 132.869 410.75 157.631 410.123 167.479C410.123 167.479 413.564 171.732 414.387 179.168C414.841 183.205 416.551 213.918 416.551 213.918Z" fill="#37474F"/>
<path d="M391.151 228.873L390.877 220.066L398.181 218.805L398.601 226.317C398.951 228.068 400.191 228.64 400.499 229.625C400.807 230.609 395.534 240.694 392.559 242.92C389.584 245.147 384.762 242.292 384.289 241.221C383.816 240.149 388.269 240.944 388.989 239.411C389.961 237.341 391.151 228.873 391.151 228.873Z" fill="#FFA8A7"/>
<path d="M399.242 227.779C398.278 228.582 397.546 230.599 396.228 233.36C394.911 236.121 393.022 240.607 390.971 241.246C388.583 241.992 383.895 240.627 386.885 240.402C387.539 240.353 388.681 240.102 388.988 239.411C389.22 238.887 389.274 238.645 389.274 238.645C389.274 238.645 388.201 239.031 386.089 238.939C384.254 238.86 382.897 239.283 381.937 240.73C381.443 241.475 382.24 242.722 382.24 242.722C383.147 243.85 384.863 244.959 388.791 245.262C392.573 245.553 395.052 244.979 396.463 242.309C398.174 239.069 401.204 235.63 402.423 233.811C403.897 231.609 401.524 228.368 399.242 227.779Z" fill="#263238"/>
<path d="M389.226 238.805C388.988 239.411 387.264 239.591 386.393 239.707C385.523 239.823 385.119 240.623 386.518 241.072C388.935 241.332 390.124 238.759 389.226 238.805Z" fill="#FFA8A7"/>
<path d="M413.758 119.98C412.968 124.741 410.814 130.002 403.336 134.146C402.004 148.691 398.952 162.036 398.39 171.019C398.39 171.019 401.485 175.684 401.723 180.845C401.766 181.82 401.625 184.72 401.377 188.583C400.598 200.835 398.801 222.685 398.801 222.685C398.801 222.685 394.386 224.633 390.587 223.875C390.587 223.875 382.619 170.566 380.33 153.15C377.623 132.558 379.491 115.156 379.491 115.156L396.409 110.855L407.935 109.459C410.328 112.631 412.503 115.91 413.758 119.98Z" fill="#455A64"/>
<path d="M405.616 103.464C405.655 103.386 406.473 97.5954 407.33 92.3669C408.695 84.0285 403 74.9121 402.803 74.8861C400.752 74.6248 395.727 74.9739 395.727 74.9739C395.727 74.9739 395.619 76.3593 392.752 76.9169C388.799 77.6859 385.882 76.5399 385.882 76.5399C385.342 76.5957 379.089 77.0306 380.476 76.9338C380.549 77.4445 375.359 89.3906 375.359 89.3906C373.594 91.8562 373.318 95.1946 375.155 98.147C376.063 99.6052 377.148 100.586 378.017 101.207C378.469 104.467 378.866 107.345 378.866 107.345L378.796 123.717C378.796 123.717 386.352 125.651 398.669 123.293C409.095 121.297 412.57 116.235 412.57 116.235L405.616 103.464Z" fill="#7970FF"/>
<path d="M380.477 76.9336C373.833 77.2907 374.178 77.7625 365.761 83.0228C357.899 87.9371 350.391 92.1552 350.391 92.1552L329.196 85.9313C328.331 85.665 327.422 84.5339 326.953 83.7599C325.697 81.6833 324.184 80.9632 322.583 79.3902C321.33 78.1584 321.03 77.1201 320.623 77.2737C320.1 77.4712 319.246 78.325 319.678 79.8181C319.896 80.5702 320.467 81.5447 321.219 82.7615C321.219 82.7615 318.859 81.8419 316.281 79.6755C312.786 76.7381 310.211 75.3497 310.074 81.1746C309.988 84.8242 312.982 88.9724 320.985 91.838C323.291 92.6629 326.877 93.2055 329.892 94.4483L329.891 94.4413C337.683 97.8575 349.251 102.701 351.684 102.465C353.434 102.294 377.254 91.3084 377.254 91.3084C377.254 91.3084 382.469 85.3618 380.477 76.9336Z" fill="#FFA8A7"/>
<path d="M382.043 76.8238C382.043 76.8238 377.179 76.0937 372.047 78.7608C366.69 81.5436 356.059 88.5385 356.059 88.5385C356.059 88.5385 356.945 97.5721 361.05 99.3984L378.866 91.9158C378.866 91.9158 385.242 84.7323 382.043 76.8238Z" fill="#7970FF"/>
<path opacity="0.1" d="M382.043 76.8238C382.043 76.8238 377.179 76.0937 372.047 78.7608C366.69 81.5436 356.059 88.5385 356.059 88.5385C356.059 88.5385 356.945 97.5721 361.05 99.3984L378.866 91.9158C378.866 91.9158 385.242 84.7323 382.043 76.8238Z" fill="black"/>
</svg>
