<svg width="570" height="393" viewBox="0 0 570 393" fill="none" xmlns="http://www.w3.org/2000/svg">
<path d="M512.888 360.559H475.129V360.844H512.888V360.559Z" fill="#EBEBEB"/>
<path d="M377.592 363.646H367.682V363.931H377.592V363.646Z" fill="#EBEBEB"/>
<path d="M473.986 349.998H452.107V350.283H473.986V349.998Z" fill="#EBEBEB"/>
<path d="M109.043 351.908H59.8027V352.193H109.043V351.908Z" fill="#EBEBEB"/>
<path d="M126.413 351.908H119.193V352.193H126.413V351.908Z" fill="#EBEBEB"/>
<path d="M256.668 356.711H149.877V356.996H256.668V356.711Z" fill="#EBEBEB"/>
<path d="M570 342.252H0V342.537H570V342.252Z" fill="#EBEBEB"/>
<path d="M218.471 64.5999L280.03 126.017C277.8 132.387 279.236 139.75 284.337 144.84C287.112 147.608 291.147 148.707 295.024 149.03C296.313 149.137 297.026 147.567 296.112 146.655L288.862 139.421L292.62 127.452L304.618 123.702L311.868 130.935C312.782 131.848 314.355 131.136 314.248 129.85C313.925 125.982 312.823 121.957 310.049 119.187C304.947 114.098 297.567 112.665 291.183 114.89L229.624 53.4729C231.854 47.1036 230.418 39.7413 225.317 34.6504C222.542 31.882 218.507 30.7833 214.629 30.4603C213.341 30.3534 212.628 31.9229 213.542 32.8351L220.792 40.0689L217.034 52.0387L205.036 55.7886L197.786 48.5549C196.872 47.6427 195.298 48.3547 195.406 49.6399C195.729 53.5082 196.829 57.5345 199.605 60.3029C204.707 65.3927 212.087 66.8247 218.471 64.5999Z" fill="#F0F0F0"/>
<path d="M226.044 63.5012L228.522 61.0285C229.503 60.0504 231.092 60.0504 232.072 61.0285L284.227 113.064C285.208 114.042 285.208 115.627 284.227 116.604L281.749 119.077C280.768 120.055 279.179 120.055 278.199 119.077L226.044 67.0419C225.063 66.0648 225.063 64.4793 226.044 63.5012Z" fill="#FAFAFA"/>
<path d="M80.2041 222.162L115.324 199.877V164.854L76.1856 213.688C75.7536 214.227 75.5176 214.898 75.5176 215.589V219.592C75.5164 221.996 78.1738 223.45 80.2041 222.162Z" fill="#EBEBEB"/>
<path d="M116.676 164.854V199.877L151.795 222.162C153.825 223.45 156.481 221.994 156.481 219.593V215.59C156.481 214.899 156.245 214.228 155.813 213.689L116.676 164.854Z" fill="#EBEBEB"/>
<path d="M98.829 210.343L115.322 199.877V164.854L96.8477 187.905C97.4587 195.293 98.1199 202.832 98.829 210.343Z" fill="#E0E0E0"/>
<path d="M135.149 187.905L116.676 164.854V199.877L133.169 210.342C133.877 202.832 134.54 195.292 135.149 187.905Z" fill="#E0E0E0"/>
<path d="M116 59.5742C105.211 59.5742 96.4648 102.512 96.4648 117.464C96.4648 125.617 99.0663 170.593 103.181 209.808C106.71 210.222 110.654 210.46 114.838 210.46C119.982 210.46 124.771 210.103 128.852 209.496C132.948 170.354 135.536 125.596 135.536 117.464C135.536 102.512 126.789 59.5742 116 59.5742Z" fill="#F5F5F5"/>
<path d="M115.999 94.3247C121.624 94.3247 127.115 94.0938 132.424 93.657C128.947 77.1001 122.892 59.5742 115.999 59.5742C109.106 59.5742 103.051 77.1001 99.5742 93.657C104.883 94.0926 110.375 94.3247 115.999 94.3247Z" fill="#E6E6E6"/>
<path d="M115.999 130.45C108.15 130.45 101.764 124.079 101.764 116.248C101.764 108.417 108.149 102.047 115.999 102.047C123.848 102.047 130.233 108.417 130.233 116.248C130.233 124.079 123.848 130.45 115.999 130.45ZM115.999 104.593C109.558 104.593 104.317 109.822 104.317 116.248C104.317 122.674 109.558 127.903 115.999 127.903C122.44 127.903 127.679 122.674 127.679 116.248C127.68 109.822 122.44 104.593 115.999 104.593Z" fill="#EBEBEB"/>
<path d="M115.998 125.388C121.058 125.388 125.16 121.295 125.16 116.247C125.16 111.198 121.058 107.105 115.998 107.105C110.938 107.105 106.836 111.198 106.836 116.247C106.836 121.295 110.938 125.388 115.998 125.388Z" fill="#EBEBEB"/>
<path d="M121.249 108.76L113.627 125.066C114.385 125.269 115.177 125.387 115.999 125.387C116.445 125.387 116.879 125.345 117.308 125.284L123.78 111.436C123.124 110.382 122.265 109.471 121.249 108.76Z" fill="#E0E0E0"/>
<path d="M110.994 123.898L118.659 107.499C118.222 107.367 117.771 107.275 117.309 107.209L109.902 123.057C110.245 123.362 110.608 123.646 110.994 123.898Z" fill="#E0E0E0"/>
<path d="M116.329 225.136H115.669C114.147 225.136 112.912 223.904 112.912 222.386V167.604C112.912 166.085 114.147 164.854 115.669 164.854H116.329C117.851 164.854 119.085 166.085 119.085 167.604V222.386C119.084 223.905 117.851 225.136 116.329 225.136Z" fill="#E0E0E0"/>
<path d="M357.778 65.6506C357.918 64.0469 357.94 62.4716 357.868 60.9248L364.076 57.6446C363.873 55.7576 363.535 53.9185 363.078 52.1317L356.308 52.2431C355.352 49.2928 353.989 46.546 352.279 44.0597L356.263 38.2749C355.133 36.8384 353.899 35.4883 352.568 34.2361L346.466 37.7051C344.143 35.7818 341.53 34.1815 338.679 32.9702L339.382 26.2255C337.645 25.6125 335.846 25.1154 333.986 24.748L330.181 30.6533C328.649 30.4463 327.08 30.3292 325.473 30.3292C323.865 30.3292 322.276 30.4463 320.709 30.6533L317.939 24.748C316.015 25.1154 314.129 25.6136 312.283 26.2255L311.803 32.9702C308.74 34.1815 305.847 35.7818 303.186 37.7051L297.692 34.2361C296.142 35.4895 294.671 36.8384 293.29 38.2749L296.259 44.0597C294.113 46.546 292.269 49.2928 290.795 52.2431L284.045 52.1317C283.275 53.9185 282.615 55.7576 282.081 57.6446L287.713 60.9248C287.37 62.4716 287.114 64.0469 286.974 65.6506C286.834 67.2543 286.812 68.8296 286.884 70.3764L280.678 73.6566C280.881 75.5435 281.218 77.3827 281.675 79.1695L288.446 79.058C289.401 82.0084 290.764 84.7552 292.474 87.2415L288.49 93.0262C289.62 94.4628 290.855 95.8128 292.185 97.0651L298.287 93.5961C300.611 95.5194 303.224 97.1197 306.075 98.331L305.371 105.076C307.109 105.689 308.908 106.186 310.767 106.553L314.572 100.648C316.104 100.855 317.673 100.972 319.28 100.972C320.888 100.972 322.477 100.855 324.044 100.648L326.815 106.553C328.738 106.186 330.625 105.688 332.469 105.076L332.949 98.331C336.012 97.1197 338.906 95.5194 341.566 93.5961L347.06 97.0651C348.61 95.8117 350.081 94.4628 351.463 93.0262L348.493 87.2415C350.638 84.7552 352.483 82.0084 353.957 79.058L360.707 79.1695C361.478 77.3827 362.138 75.5435 362.671 73.6566L357.039 70.3764C357.381 68.8296 357.637 67.2543 357.778 65.6506ZM321.322 77.6602C314.675 77.6602 309.757 72.2838 310.338 65.6506C310.92 59.0174 316.78 53.641 323.428 53.641C330.076 53.641 334.993 59.0174 334.412 65.6506C333.83 72.2838 327.969 77.6602 321.322 77.6602Z" fill="#F0F0F0"/>
<path d="M425.552 36.0061C425.642 34.9825 425.671 33.9725 425.651 32.9773L434.333 28.3891C434.174 27.0993 433.941 25.8368 433.646 24.6004L424.166 24.7563C423.506 22.8921 422.639 21.1348 421.587 19.5118L427.165 11.4125C426.373 10.4389 425.526 9.51193 424.626 8.63615L416.082 13.4928C414.559 12.3019 412.888 11.284 411.091 10.4616L412.076 1.01682C410.872 0.614183 409.636 0.271834 408.367 0L403.044 8.26081C402.055 8.15389 401.049 8.09475 400.023 8.09475C398.997 8.09475 397.98 8.15389 396.973 8.26081L393.098 0C391.782 0.271834 390.485 0.614183 389.212 1.01682L388.541 10.4616C386.6 11.284 384.75 12.3019 383.018 13.4928L375.327 8.63615C374.273 9.51193 373.265 10.4389 372.301 11.4125L376.459 19.5118C375.123 21.1348 373.949 22.8921 372.961 24.7563L363.508 24.6004C362.997 25.8368 362.542 27.0993 362.156 28.3891L370.034 32.9773C369.839 33.9725 369.692 34.9825 369.602 36.0061C369.512 37.0298 369.482 38.0397 369.503 39.035L360.82 43.6232C360.979 44.9129 361.212 46.1754 361.508 47.4118L370.988 47.256C371.648 49.1201 372.514 50.8774 373.567 52.5004L367.989 60.5997C368.781 61.5733 369.628 62.5003 370.527 63.3761L379.072 58.5195C380.595 59.7103 382.266 60.7283 384.063 61.5506L383.078 70.9954C384.281 71.398 385.517 71.7415 386.786 72.0122L392.11 63.7514C393.098 63.8583 394.105 63.9175 395.131 63.9175C396.157 63.9175 397.174 63.8583 398.182 63.7514L402.056 72.0122C403.373 71.7404 404.669 71.398 405.943 70.9954L406.614 61.5506C408.554 60.7283 410.405 59.7114 412.136 58.5195L419.828 63.3761C420.88 62.5003 421.891 61.5733 422.853 60.5997L418.696 52.5004C420.032 50.8774 421.206 49.1201 422.193 47.256L431.646 47.4118C432.158 46.1754 432.613 44.9129 432.998 43.6232L425.121 39.035C425.315 38.0397 425.462 37.0298 425.552 36.0061ZM396.539 47.8372C389.989 47.8372 385.144 42.5404 385.718 36.0061C386.291 29.4718 392.064 24.1751 398.614 24.1751C405.163 24.1751 410.008 29.4718 409.434 36.0061C408.862 42.5404 403.088 47.8372 396.539 47.8372Z" fill="#EBEBEB"/>
<path d="M489.216 135.018C489.259 134.52 489.274 134.029 489.264 133.546L493.482 131.316C493.404 130.69 493.291 130.077 493.148 129.475L488.542 129.551C488.221 128.646 487.8 127.792 487.289 127.004L489.999 123.068C489.614 122.595 489.202 122.145 488.765 121.719L484.614 124.079C483.874 123.5 483.061 123.006 482.189 122.606L482.668 118.017C482.083 117.821 481.482 117.655 480.865 117.523L478.279 121.537C477.799 121.485 477.31 121.457 476.81 121.457C476.312 121.457 475.817 121.485 475.328 121.537L473.445 117.523C472.805 117.655 472.176 117.821 471.556 118.017L471.23 122.606C470.287 123.006 469.388 123.5 468.546 124.079L464.808 121.719C464.297 122.145 463.806 122.595 463.338 123.068L465.358 127.004C464.708 127.792 464.138 128.646 463.658 129.551L459.065 129.475C458.817 130.076 458.595 130.69 458.408 131.316L462.235 133.546C462.141 134.029 462.069 134.52 462.026 135.018C461.982 135.515 461.968 136.006 461.978 136.489L457.76 138.719C457.837 139.345 457.95 139.958 458.094 140.56L462.699 140.484C463.021 141.389 463.442 142.243 463.952 143.032L461.241 146.967C461.627 147.44 462.038 147.89 462.475 148.316L466.627 145.956C467.367 146.535 468.179 147.029 469.051 147.429L468.573 152.018C469.158 152.214 469.758 152.381 470.375 152.512L472.962 148.498C473.442 148.55 473.931 148.579 474.43 148.579C474.928 148.579 475.423 148.55 475.912 148.498L477.795 152.512C478.435 152.38 479.064 152.214 479.684 152.018L480.01 147.429C480.953 147.029 481.853 146.535 482.694 145.956L486.432 148.316C486.944 147.89 487.434 147.44 487.903 146.967L485.882 143.032C486.532 142.243 487.102 141.389 487.582 140.484L492.175 140.56C492.424 139.959 492.645 139.345 492.832 138.719L489.005 136.489C489.101 136.006 489.172 135.516 489.216 135.018ZM475.119 140.767C471.937 140.767 469.583 138.193 469.861 135.019C470.139 131.844 472.945 129.27 476.126 129.27C479.308 129.27 481.662 131.844 481.384 135.019C481.107 138.193 478.301 140.767 475.119 140.767Z" fill="#F0F0F0"/>
<path d="M477.936 79.1465C478.015 78.2389 478.042 77.3438 478.023 76.4612L485.722 72.3916C485.58 71.2474 485.374 70.1282 485.112 69.0318L476.706 69.1706C476.12 67.5179 475.352 65.9597 474.42 64.5198L479.366 57.3372C478.664 56.4739 477.913 55.6516 477.115 54.8759L469.538 59.1821C468.189 58.1254 466.705 57.2235 465.113 56.4944L465.986 48.1187C464.919 47.7616 463.822 47.4579 462.697 47.2168L457.977 54.5415C457.1 54.446 456.207 54.3937 455.297 54.3937C454.388 54.3937 453.485 54.446 452.592 54.5415L449.156 47.2168C447.989 47.4579 446.84 47.7616 445.71 48.1187L445.115 56.4944C443.395 57.2235 441.753 58.1254 440.218 59.1821L433.397 54.8759C432.463 55.6528 431.567 56.4739 430.713 57.3372L434.4 64.5198C433.215 65.9597 432.174 67.5179 431.298 69.1706L422.916 69.0318C422.462 70.1282 422.059 71.2486 421.718 72.3916L428.702 76.4612C428.529 77.3438 428.399 78.2389 428.319 79.1465C428.24 80.0542 428.213 80.9493 428.232 81.8319L420.533 85.9014C420.675 87.0456 420.881 88.1648 421.143 89.2613L429.549 89.1225C430.135 90.7751 430.903 92.3333 431.835 93.7733L426.889 100.956C427.591 101.819 428.343 102.641 429.14 103.417L436.717 99.111C438.066 100.168 439.55 101.07 441.142 101.799L440.269 110.174C441.336 110.531 442.433 110.835 443.558 111.076L448.279 103.752C449.155 103.847 450.048 103.899 450.958 103.899C451.867 103.899 452.769 103.847 453.663 103.752L457.099 111.076C458.266 110.835 459.415 110.531 460.545 110.174L461.14 101.799C462.86 101.07 464.502 100.168 466.037 99.111L472.859 103.417C473.793 102.64 474.689 101.819 475.543 100.956L471.856 93.7733C473.042 92.3333 474.082 90.7751 474.958 89.1225L483.34 89.2613C483.794 88.1648 484.198 87.0456 484.54 85.9014L477.555 81.8319C477.725 80.9493 477.856 80.0542 477.936 79.1465ZM451.844 93.7721C443.748 93.7721 437.759 87.2231 438.467 79.1454C439.174 71.0677 446.313 64.5187 454.409 64.5187C462.506 64.5187 468.495 71.0677 467.787 79.1454C467.078 87.2242 459.941 93.7721 451.844 93.7721Z" fill="#F5F5F5"/>
<path d="M159.206 58.4245L195.452 22.2615C199.211 23.5717 203.557 22.7289 206.561 19.7308C208.194 18.1009 208.843 15.7295 209.033 13.4524C209.096 12.6961 208.17 12.2764 207.632 12.8132L203.363 17.0727L196.298 14.8651L194.086 7.81671L198.355 3.55721C198.893 3.02037 198.473 2.09568 197.714 2.15938C195.432 2.34932 193.055 2.99649 191.421 4.62636C188.418 7.62336 187.572 11.9591 188.885 15.709L152.639 51.8721C148.88 50.5618 144.534 51.4057 141.53 54.4027C139.897 56.0326 139.248 58.4041 139.058 60.6811C138.994 61.4375 139.921 61.8572 140.459 61.3203L144.728 57.0608L151.793 59.2685L154.005 66.3168L149.736 70.5763C149.198 71.1132 149.618 72.0379 150.377 71.9742C152.659 71.7842 155.036 71.1371 156.67 69.5072C159.674 66.5102 160.519 62.1745 159.206 58.4245Z" fill="#F0F0F0"/>
<path d="M157.827 53.2463C156.847 52.2682 156.847 50.6826 157.827 49.7056L187.077 20.5227C188.058 19.5445 189.647 19.5445 190.627 20.5227C191.608 21.5008 191.608 23.0863 190.627 24.0645L161.377 53.2474C160.397 54.2233 158.807 54.2233 157.827 53.2463Z" fill="#FAFAFA"/>
<path d="M285 392.999C407.074 392.999 506.034 387.233 506.034 380.121C506.034 373.008 407.074 367.242 285 367.242C162.927 367.242 63.9668 373.008 63.9668 380.121C63.9668 387.233 162.927 392.999 285 392.999Z" fill="#F5F5F5"/>
<path d="M288.29 249.775L266.52 361.516H322.382L344.152 249.775H288.29ZM311.464 321.248L308.331 337.329C307.466 341.769 303.157 345.369 298.706 345.369C294.256 345.369 291.349 341.769 292.214 337.329L295.347 321.248C296.212 316.808 300.521 313.208 304.972 313.208C309.422 313.208 312.329 316.808 311.464 321.248Z" fill="#263238"/>
<path opacity="0.3" d="M288.29 249.775L266.52 361.516H322.382L344.152 249.775H288.29ZM311.464 321.248L308.331 337.329C307.466 341.769 303.157 345.369 298.706 345.369C294.256 345.369 291.349 341.769 292.214 337.329L295.347 321.248C296.212 316.808 300.521 313.208 304.972 313.208C309.422 313.208 312.329 316.808 311.464 321.248Z" fill="white"/>
<path d="M266.641 361.516H261.742L283.512 249.775H288.411L266.641 361.516Z" fill="#263238"/>
<path opacity="0.6" d="M266.641 361.516H261.742L283.512 249.775H288.411L266.641 361.516Z" fill="white"/>
<path opacity="0.2" d="M288.288 249.775H283.512L271.898 309.384H332.537L344.152 249.775H288.411H288.288Z" fill="black"/>
<path d="M304.971 313.209C304.212 313.209 303.458 313.32 302.723 313.517C305.923 314.469 307.805 317.566 307.088 321.249L303.955 337.329C303.238 341.012 300.15 344.109 296.578 345.061C297.237 345.257 297.946 345.37 298.705 345.37C303.156 345.37 307.465 341.77 308.33 337.329L311.463 321.249C312.327 316.809 309.421 313.209 304.971 313.209Z" fill="#263238"/>
<path opacity="0.6" d="M304.971 313.209C304.212 313.209 303.458 313.32 302.723 313.517C305.923 314.469 307.805 317.566 307.088 321.249L303.955 337.329C303.238 341.012 300.15 344.109 296.578 345.061C297.237 345.257 297.946 345.37 298.705 345.37C303.156 345.37 307.465 341.77 308.33 337.329L311.463 321.249C312.327 316.809 309.421 313.209 304.971 313.209Z" fill="white"/>
<path d="M296.577 361.023H216.41V378.944H296.577V361.023Z" fill="#7970FF"/>
<path opacity="0.4" d="M296.577 361.023H216.41V378.944H296.577V361.023Z" fill="white"/>
<path d="M402.415 361.023H296.578V378.944H402.415V361.023Z" fill="#7970FF"/>
<path opacity="0.6" d="M402.415 361.023H296.578V378.944H402.415V361.023Z" fill="white"/>
<path d="M165.065 302.753H446.719C451.839 302.849 456.067 298.786 456.164 293.68C456.172 293.272 456.153 292.865 456.107 292.46L438.313 89.4013C437.731 83.6325 432.917 79.2103 427.108 79.1091H145.453C140.333 79.0124 136.105 83.0752 136.008 88.1831C136 88.5903 136.019 88.9975 136.065 89.4024L153.871 292.474C154.454 298.235 159.262 302.652 165.065 302.753Z" fill="#263238"/>
<path opacity="0.3" d="M165.065 302.753H446.719C451.839 302.849 456.067 298.786 456.164 293.68C456.172 293.272 456.153 292.865 456.107 292.46L438.313 89.4013C437.731 83.6325 432.917 79.2103 427.108 79.1091H145.453C140.333 79.0124 136.105 83.0752 136.008 88.1831C136 88.5903 136.019 88.9975 136.065 89.4024L153.871 292.474C154.454 298.235 159.262 302.652 165.065 302.753Z" fill="white"/>
<path d="M454.197 270.527L456.118 292.474C456.696 297.55 453.04 302.133 447.952 302.708C447.547 302.754 447.138 302.773 446.731 302.766H165.065C159.257 302.664 154.447 298.241 153.872 292.474L151.938 270.527H454.197Z" fill="#7970FF"/>
<path opacity="0.6" d="M454.197 270.527L456.118 292.474C456.696 297.55 453.04 302.133 447.952 302.708C447.547 302.754 447.138 302.773 446.731 302.766H165.065C159.257 302.664 154.447 298.241 153.872 292.474L151.938 270.527H454.197Z" fill="white"/>
<path d="M161.881 264.313H443.173C445.951 264.365 448.244 262.162 448.297 259.392C448.301 259.174 448.291 258.958 448.267 258.742L433.554 90.9214C433.235 87.7982 430.627 85.4063 427.481 85.3505H146.189C143.412 85.2982 141.118 87.5013 141.066 90.272C141.061 90.4892 141.071 90.7053 141.095 90.9214L155.808 258.743C156.127 261.865 158.736 264.258 161.881 264.313Z" fill="#7970FF"/>
<path opacity="0.8" d="M161.881 264.313H443.173C445.951 264.365 448.244 262.162 448.297 259.392C448.301 259.174 448.291 258.958 448.267 258.742L433.554 90.9214C433.235 87.7982 430.627 85.4063 427.481 85.3505H146.189C143.412 85.2982 141.118 87.5013 141.066 90.272C141.061 90.4892 141.071 90.7053 141.095 90.9214L155.808 258.743C156.127 261.865 158.736 264.258 161.881 264.313Z" fill="#7970FF"/>
<path opacity="0.8" d="M161.881 264.313H443.173C445.951 264.365 448.244 262.162 448.297 259.392C448.301 259.174 448.291 258.958 448.267 258.742L433.554 90.9214C433.235 87.7982 430.627 85.4063 427.481 85.3505H146.189C143.412 85.2982 141.118 87.5013 141.066 90.272C141.061 90.4892 141.071 90.7053 141.095 90.9214L155.808 258.743C156.127 261.865 158.736 264.258 161.881 264.313Z" fill="white"/>
<g opacity="0.5">
<path d="M364.352 264.312H390.035L351.908 85.3477H326.225L364.352 264.312Z" fill="white"/>
<path d="M348.087 264.312H354.661L316.532 85.3477H309.959L348.087 264.312Z" fill="white"/>
<path d="M252.416 264.312H256.721L218.594 85.3477H214.287L252.416 264.312Z" fill="white"/>
<path d="M236.151 264.312H242.724L204.597 85.3477H198.023L236.151 264.312Z" fill="white"/>
</g>
<path d="M139.225 79.1483H145.453C140.333 79.0516 136.105 83.1143 136.008 88.2212C136 88.6284 136.019 89.0356 136.065 89.4405L153.872 292.473C154.446 298.24 159.257 302.663 165.064 302.766H158.837C153.029 302.663 148.219 298.24 147.644 292.473L129.838 89.4143C129.275 84.337 132.944 79.7648 138.033 79.2029C138.428 79.1585 138.827 79.1403 139.225 79.1483Z" fill="#263238"/>
<path opacity="0.6" d="M139.225 79.1483H145.453C140.333 79.0516 136.105 83.1143 136.008 88.2212C136 88.6284 136.019 89.0356 136.065 89.4405L153.872 292.473C154.446 298.24 159.257 302.663 165.064 302.766H158.837C153.029 302.663 148.219 298.24 147.644 292.473L129.838 89.4143C129.275 84.337 132.944 79.7648 138.033 79.2029C138.428 79.1585 138.827 79.1403 139.225 79.1483Z" fill="white"/>
<path d="M200.912 142.355H188.214C187.196 142.355 186.299 141.532 186.21 140.516C186.121 139.501 186.874 138.678 187.892 138.678H200.589C201.607 138.678 202.504 139.501 202.593 140.516C202.683 141.532 201.93 142.355 200.912 142.355Z" fill="#7970FF"/>
<path d="M232.251 127.644H222.832C221.814 127.644 220.916 126.821 220.827 125.805C220.739 124.79 221.491 123.967 222.509 123.967H231.929C232.947 123.967 233.844 124.79 233.933 125.805C234.022 126.821 233.269 127.644 232.251 127.644Z" fill="#7970FF"/>
<path d="M335.662 142.355H322.964C321.946 142.355 321.049 141.532 320.96 140.516C320.871 139.501 321.624 138.678 322.642 138.678H335.339C336.357 138.678 337.254 139.501 337.343 140.516C337.433 141.532 336.68 142.355 335.662 142.355Z" fill="#7970FF"/>
<path d="M310.269 142.355H213.201C212.183 142.355 211.286 141.532 211.197 140.516C211.108 139.501 211.86 138.678 212.878 138.678H309.947C310.965 138.678 311.862 139.501 311.951 140.516C312.041 141.532 311.287 142.355 310.269 142.355Z" fill="#263238"/>
<path d="M202.023 155.023H189.326C188.308 155.023 187.411 154.2 187.322 153.184C187.233 152.169 187.985 151.346 189.003 151.346H201.7C202.718 151.346 203.616 152.169 203.705 153.184C203.793 154.2 203.041 155.023 202.023 155.023Z" fill="#7970FF"/>
<path d="M240.523 155.023H214.31C213.292 155.023 212.395 154.2 212.306 153.184C212.217 152.169 212.969 151.346 213.987 151.346H240.201C241.219 151.346 242.116 152.169 242.205 153.184C242.294 154.2 241.541 155.023 240.523 155.023Z" fill="#7970FF"/>
<path d="M287.626 155.023H248.716C247.698 155.023 246.801 154.2 246.712 153.184C246.623 152.169 247.376 151.346 248.394 151.346H287.303C288.321 151.346 289.218 152.169 289.307 153.184C289.396 154.2 288.643 155.023 287.626 155.023Z" fill="#7970FF"/>
<path d="M203.134 167.691H190.437C189.419 167.691 188.522 166.868 188.433 165.852C188.344 164.837 189.096 164.014 190.114 164.014H202.812C203.83 164.014 204.727 164.837 204.816 165.852C204.906 166.868 204.152 167.691 203.134 167.691Z" fill="#7970FF"/>
<path d="M267.437 167.691H215.421C214.403 167.691 213.506 166.868 213.417 165.852C213.328 164.837 214.081 164.014 215.099 164.014H267.115C268.133 164.014 269.03 164.837 269.119 165.852C269.209 166.868 268.455 167.691 267.437 167.691Z" fill="#263238"/>
<path d="M204.246 180.359H191.548C190.53 180.359 189.633 179.536 189.544 178.52C189.455 177.505 190.208 176.682 191.226 176.682H203.923C204.941 176.682 205.838 177.505 205.927 178.52C206.016 179.536 205.263 180.359 204.246 180.359Z" fill="#7970FF"/>
<path d="M238.445 180.359H216.533C215.515 180.359 214.618 179.536 214.529 178.52C214.44 177.505 215.192 176.682 216.21 176.682H238.122C239.14 176.682 240.037 177.505 240.126 178.52C240.216 179.536 239.463 180.359 238.445 180.359Z" fill="#263238"/>
<path d="M288.613 203.652H266.701C265.683 203.652 264.786 202.829 264.697 201.813C264.608 200.798 265.36 199.975 266.378 199.975H288.29C289.308 199.975 290.205 200.798 290.294 201.813C290.383 202.829 289.631 203.652 288.613 203.652Z" fill="#7970FF"/>
<path d="M402.064 203.652H299.773C298.755 203.652 297.858 202.829 297.769 201.813C297.68 200.798 298.432 199.975 299.45 199.975H401.741C402.759 199.975 403.657 200.798 403.746 201.813C403.836 202.829 403.082 203.652 402.064 203.652Z" fill="#263238"/>
<path d="M364.675 216.318H259.21C258.192 216.318 257.295 215.495 257.206 214.479C257.117 213.464 257.87 212.641 258.888 212.641H364.354C365.372 212.641 366.269 213.464 366.358 214.479C366.446 215.495 365.693 216.318 364.675 216.318Z" fill="#7970FF"/>
<path d="M403.174 216.318H377.781C376.763 216.318 375.866 215.495 375.777 214.479C375.688 213.464 376.44 212.641 377.458 212.641H402.852C403.87 212.641 404.767 213.464 404.856 214.479C404.945 215.495 404.192 216.318 403.174 216.318Z" fill="#7970FF"/>
<path d="M345.922 228.986H335.273C334.255 228.986 333.358 228.163 333.269 227.147C333.18 226.132 333.932 225.309 334.95 225.309H345.599C346.617 225.309 347.514 226.132 347.603 227.147C347.693 228.163 346.94 228.986 345.922 228.986Z" fill="#7970FF"/>
<path d="M404.286 228.986H357.39C356.372 228.986 355.475 228.163 355.386 227.147C355.297 226.132 356.05 225.309 357.068 225.309H403.964C404.982 225.309 405.879 226.132 405.968 227.147C406.057 228.163 405.304 228.986 404.286 228.986Z" fill="#263238"/>
<path d="M271.262 241.654H240.134C239.116 241.654 238.219 240.831 238.13 239.815C238.041 238.8 238.794 237.977 239.812 237.977H270.939C271.957 237.977 272.855 238.8 272.943 239.815C273.032 240.831 272.279 241.654 271.262 241.654Z" fill="#263238"/>
<path d="M405.395 241.654H312.832C311.814 241.654 310.916 240.831 310.827 239.815C310.739 238.8 311.491 237.977 312.509 237.977H405.072C406.09 237.977 406.988 238.8 407.076 239.815C407.167 240.831 406.413 241.654 405.395 241.654Z" fill="#263238"/>
<path d="M306.844 180.359H250.937C249.919 180.359 249.022 179.536 248.933 178.52C248.844 177.505 249.596 176.682 250.614 176.682H306.521C307.539 176.682 308.436 177.505 308.525 178.52C308.615 179.536 307.862 180.359 306.844 180.359Z" fill="#263238"/>
<path d="M213.957 193.025H192.66C191.642 193.025 190.744 192.202 190.656 191.186C190.567 190.171 191.319 189.348 192.337 189.348H213.635C214.653 189.348 215.55 190.171 215.639 191.186C215.728 192.202 214.975 193.025 213.957 193.025Z" fill="#263238"/>
<path d="M234.5 193.025H223.173C222.155 193.025 221.258 192.202 221.169 191.186C221.08 190.171 221.833 189.348 222.851 189.348H234.178C235.196 189.348 236.093 190.171 236.182 191.186C236.271 192.202 235.518 193.025 234.5 193.025Z" fill="#263238"/>
<path d="M194.126 118.64L188.509 120.763L194.493 122.864C194.955 123.026 195.292 123.452 195.334 123.928L195.335 123.945C195.405 124.738 194.657 125.285 193.89 125.003L186.915 122.443C186.249 122.198 185.769 121.582 185.709 120.895L185.686 120.629C185.626 119.94 185.997 119.325 186.621 119.081L193.146 116.52C193.864 116.238 194.708 116.786 194.778 117.579C194.819 118.052 194.559 118.477 194.126 118.64Z" fill="#263238"/>
<path d="M202.164 111.111C203.052 111.111 203.752 111.987 203.531 112.823L199.341 128.725C199.206 129.241 198.747 129.586 198.2 129.586H198.199C197.311 129.586 196.611 128.71 196.832 127.874L201.023 111.972C201.159 111.457 201.617 111.111 202.164 111.111Z" fill="#263238"/>
<path d="M214.528 120.628L214.551 120.895C214.612 121.583 214.24 122.198 213.616 122.443L207.091 125.003C206.373 125.285 205.529 124.738 205.46 123.945L205.458 123.928C205.416 123.451 205.678 123.026 206.113 122.863L211.727 120.763L205.739 118.64C205.277 118.477 204.943 118.052 204.901 117.577C204.831 116.784 205.579 116.237 206.346 116.518L213.321 119.078C213.988 119.325 214.468 119.941 214.528 120.628Z" fill="#263238"/>
<path d="M431.014 215.248C431.061 214.983 430.209 214.611 429.113 214.419C428.398 214.293 427.759 214.276 427.385 214.352C427.284 213.981 427.002 213.431 426.603 212.863C425.965 211.953 425.267 211.34 425.046 211.495C424.825 211.649 425.164 212.512 425.802 213.422C426.345 214.195 426.928 214.751 427.228 214.807C427.53 215.021 428.172 215.244 428.943 215.379C430.041 215.572 430.967 215.513 431.014 215.248Z" fill="#263238"/>
<path d="M425.251 218.091C425.571 217.212 425.694 216.423 425.574 216.139C425.578 215.771 425.39 215.111 425.058 214.403C424.587 213.396 424.007 212.671 423.763 212.785C423.518 212.899 423.701 213.808 424.172 214.814C424.478 215.469 424.83 216.003 425.106 216.266C424.86 216.561 424.57 217.106 424.333 217.758C423.952 218.802 423.848 219.723 424.103 219.815C424.355 219.907 424.87 219.135 425.251 218.091Z" fill="#263238"/>
<path d="M432.293 210.163C432.179 209.919 431.268 210.102 430.258 210.571C429.602 210.876 429.067 211.227 428.804 211.503C428.507 211.257 427.961 210.968 427.308 210.732C426.261 210.352 425.338 210.248 425.246 210.502C425.153 210.756 425.927 211.268 426.974 211.648C427.855 211.968 428.646 212.09 428.93 211.971C429.3 211.974 429.961 211.787 430.672 211.456C431.681 210.985 432.407 210.406 432.293 210.163Z" fill="#263238"/>
<path d="M413.713 197.99C413.979 197.943 414.352 198.793 414.545 199.887C414.672 200.6 414.689 201.237 414.613 201.61C414.984 201.712 415.536 201.993 416.106 202.391C417.018 203.028 417.633 203.724 417.477 203.944C417.322 204.165 416.457 203.827 415.545 203.19C414.77 202.649 414.213 202.067 414.157 201.767C413.942 201.466 413.719 200.826 413.583 200.057C413.389 198.961 413.448 198.037 413.713 197.99Z" fill="#263238"/>
<path d="M410.866 203.738C411.747 203.419 412.538 203.296 412.823 203.417C413.192 203.413 413.854 203.601 414.565 203.932C415.574 204.401 416.3 204.98 416.186 205.223C416.072 205.468 415.161 205.285 414.151 204.815C413.494 204.511 412.96 204.159 412.696 203.884C412.4 204.13 411.854 204.418 411.201 204.655C410.154 205.035 409.231 205.138 409.139 204.885C409.045 204.631 409.819 204.118 410.866 203.738Z" fill="#263238"/>
<path d="M418.811 196.713C419.056 196.827 418.872 197.736 418.401 198.742C418.096 199.397 417.744 199.931 417.468 200.194C417.714 200.489 418.004 201.035 418.241 201.686C418.621 202.73 418.725 203.651 418.471 203.743C418.217 203.835 417.703 203.063 417.322 202.019C417.002 201.14 416.878 200.35 416.998 200.067C416.995 199.699 417.183 199.039 417.515 198.331C417.985 197.323 418.566 196.598 418.811 196.713Z" fill="#263238"/>
<path d="M424.538 202.848C423.742 202.848 423.096 203.491 423.096 204.286C423.096 205.08 423.741 205.723 424.538 205.723C425.335 205.723 425.979 205.08 425.979 204.286H424.538V202.848Z" fill="#7970FF"/>
<path opacity="0.2" d="M424.538 202.848C423.742 202.848 423.096 203.491 423.096 204.286C423.096 205.08 423.741 205.723 424.538 205.723C425.335 205.723 425.979 205.08 425.979 204.286H424.538V202.848Z" fill="black"/>
<path d="M415.93 202.598C414.903 203.103 413.921 203.793 413.043 204.67C409.388 208.316 408.911 213.754 411.979 216.815C415.047 219.876 420.497 219.4 424.152 215.754C425.03 214.878 425.723 213.898 426.229 212.873L415.93 202.598Z" fill="#7970FF"/>
<path opacity="0.3" d="M415.93 202.598C414.903 203.103 413.921 203.793 413.043 204.67C409.388 208.316 408.911 213.754 411.979 216.815C415.047 219.876 420.497 219.4 424.152 215.754C425.03 214.878 425.723 213.898 426.229 212.873L415.93 202.598Z" fill="black"/>
<path d="M416.959 203.625L425.198 211.845C426.478 209.252 426.252 206.294 424.387 204.433C422.523 202.573 419.558 202.347 416.959 203.625Z" fill="#7970FF"/>
<path opacity="0.5" d="M416.959 203.625L425.198 211.845C426.478 209.252 426.252 206.294 424.387 204.433C422.523 202.573 419.558 202.347 416.959 203.625Z" fill="black"/>
<path opacity="0.2" d="M415.93 202.598C414.903 203.103 413.921 203.793 413.043 204.67C409.388 208.316 408.911 213.754 411.979 216.815L421.08 207.735L415.93 202.598Z" fill="black"/>
<path d="M420.545 195.952C421.418 196.307 422.272 196.872 422.932 197.536C424.697 199.313 424.345 201.462 422.893 203.338C422.797 203.464 422.972 203.642 423.071 203.514C424.393 201.807 425.012 199.759 423.599 197.91C422.856 196.938 421.742 196.168 420.609 195.708C420.46 195.649 420.398 195.893 420.545 195.952Z" fill="#263238"/>
<path d="M433.133 208.204C432.673 207.075 431.901 205.963 430.926 205.221C429.075 203.812 427.021 204.429 425.31 205.748C425.182 205.845 425.361 206.022 425.486 205.925C427.36 204.482 429.525 204.12 431.301 205.886C431.967 206.548 432.534 207.395 432.889 208.267C432.951 208.414 433.194 208.353 433.133 208.204Z" fill="#263238"/>
<path d="M417.136 207.845C416.56 208.42 415.625 208.42 415.048 207.845C414.471 207.269 414.471 206.337 415.048 205.762C415.625 205.186 416.56 205.186 417.136 205.762C417.713 206.337 417.713 207.269 417.136 207.845Z" fill="#7970FF"/>
<path d="M423.058 213.753C422.481 214.328 421.547 214.328 420.97 213.753C420.393 213.178 420.393 212.245 420.97 211.67C421.547 211.094 422.481 211.094 423.058 211.67C423.635 212.245 423.635 213.178 423.058 213.753Z" fill="#7970FF"/>
<path d="M413.925 212.462C413.349 213.037 412.414 213.037 411.837 212.462C411.26 211.887 411.26 210.954 411.837 210.379C412.414 209.803 413.349 209.803 413.925 210.379C414.502 210.954 414.502 211.887 413.925 212.462Z" fill="#7970FF"/>
<path d="M418.429 216.956C417.852 217.531 416.918 217.531 416.341 216.956C415.764 216.381 415.764 215.448 416.341 214.873C416.918 214.298 417.852 214.298 418.429 214.873C419.005 215.447 419.005 216.38 418.429 216.956Z" fill="#7970FF"/>
<g opacity="0.7">
<path d="M417.136 207.845C416.56 208.42 415.625 208.42 415.048 207.845C414.471 207.269 414.471 206.337 415.048 205.762C415.625 205.186 416.56 205.186 417.136 205.762C417.713 206.337 417.713 207.269 417.136 207.845Z" fill="white"/>
<path d="M423.058 213.753C422.481 214.328 421.547 214.328 420.97 213.753C420.393 213.178 420.393 212.245 420.97 211.67C421.547 211.094 422.481 211.094 423.058 211.67C423.635 212.245 423.635 213.178 423.058 213.753Z" fill="white"/>
<path d="M413.925 212.462C413.349 213.037 412.414 213.037 411.837 212.462C411.26 211.887 411.26 210.954 411.837 210.379C412.414 209.803 413.349 209.803 413.925 210.379C414.502 210.954 414.502 211.887 413.925 212.462Z" fill="white"/>
<path d="M418.429 216.956C417.852 217.531 416.918 217.531 416.341 216.956C415.764 216.381 415.764 215.448 416.341 214.873C416.918 214.298 417.852 214.298 418.429 214.873C419.005 215.447 419.005 216.38 418.429 216.956Z" fill="white"/>
</g>
<path d="M339.032 113.637C339.078 113.372 338.227 113 337.13 112.808C336.415 112.682 335.777 112.665 335.403 112.741C335.302 112.37 335.02 111.82 334.621 111.251C333.983 110.342 333.285 109.729 333.064 109.883C332.843 110.038 333.181 110.901 333.82 111.811C334.362 112.584 334.946 113.14 335.246 113.196C335.548 113.409 336.19 113.632 336.96 113.768C338.058 113.961 338.985 113.902 339.032 113.637Z" fill="#263238"/>
<path d="M333.269 116.479C333.59 115.6 333.713 114.81 333.592 114.527C333.595 114.159 333.407 113.499 333.076 112.789C332.605 111.783 332.025 111.058 331.781 111.172C331.535 111.286 331.719 112.194 332.19 113.201C332.495 113.856 332.848 114.39 333.123 114.652C332.877 114.948 332.588 115.494 332.351 116.145C331.97 117.189 331.866 118.11 332.12 118.202C332.374 118.294 332.889 117.523 333.269 116.479Z" fill="#263238"/>
<path d="M340.312 108.552C340.198 108.307 339.287 108.49 338.278 108.96C337.621 109.265 337.087 109.616 336.823 109.891C336.527 109.646 335.98 109.357 335.328 109.12C334.281 108.741 333.358 108.637 333.265 108.891C333.173 109.144 333.947 109.657 334.994 110.037C335.875 110.356 336.666 110.479 336.95 110.36C337.319 110.363 337.98 110.176 338.691 109.845C339.701 109.374 340.426 108.795 340.312 108.552Z" fill="#263238"/>
<path d="M321.732 96.3749C321.997 96.3282 322.37 97.1779 322.563 98.272C322.689 98.9852 322.707 99.6221 322.63 99.9952C323.002 100.096 323.554 100.377 324.124 100.775C325.036 101.412 325.65 102.108 325.495 102.329C325.34 102.55 324.475 102.212 323.563 101.575C322.787 101.034 322.23 100.451 322.174 100.153C321.96 99.8519 321.736 99.2115 321.601 98.4426C321.407 97.3473 321.465 96.4226 321.732 96.3749Z" fill="#263238"/>
<path d="M318.884 102.127C319.765 101.808 320.557 101.685 320.84 101.805C321.21 101.802 321.871 101.989 322.581 102.32C323.59 102.79 324.316 103.369 324.202 103.612C324.088 103.857 323.177 103.674 322.168 103.204C321.512 102.899 320.977 102.548 320.714 102.273C320.417 102.518 319.87 102.807 319.218 103.044C318.172 103.423 317.248 103.527 317.156 103.273C317.064 103.02 317.838 102.507 318.884 102.127Z" fill="#263238"/>
<path d="M326.83 95.0996C327.075 95.2134 326.892 96.1222 326.421 97.1299C326.115 97.785 325.763 98.3184 325.487 98.5812C325.734 98.8769 326.023 99.4228 326.26 100.073C326.641 101.118 326.744 102.039 326.491 102.131C326.236 102.223 325.722 101.451 325.341 100.407C325.021 99.5275 324.898 98.7381 325.018 98.4549C325.014 98.0864 325.202 97.4267 325.534 96.717C326.005 95.7104 326.585 94.9859 326.83 95.0996Z" fill="#263238"/>
<path d="M332.555 101.234C331.76 101.234 331.113 101.878 331.113 102.672C331.113 103.465 331.759 104.11 332.555 104.11C333.352 104.11 333.997 103.467 333.997 102.672H332.555V101.234Z" fill="#7970FF"/>
<path opacity="0.2" d="M332.555 101.234C331.76 101.234 331.113 101.878 331.113 102.672C331.113 103.465 331.759 104.11 332.555 104.11C333.352 104.11 333.997 103.467 333.997 102.672H332.555V101.234Z" fill="black"/>
<path d="M323.948 100.984C322.921 101.489 321.939 102.18 321.06 103.057C317.406 106.703 316.929 112.141 319.997 115.202C323.065 118.262 328.515 117.787 332.17 114.14C333.048 113.265 333.741 112.284 334.247 111.259L323.948 100.984Z" fill="#7970FF"/>
<path opacity="0.3" d="M323.948 100.984C322.921 101.489 321.939 102.18 321.06 103.057C317.406 106.703 316.929 112.141 319.997 115.202C323.065 118.262 328.515 117.787 332.17 114.14C333.048 113.265 333.741 112.284 334.247 111.259L323.948 100.984Z" fill="black"/>
<path d="M324.977 102.014L333.215 110.234C334.497 107.641 334.27 104.682 332.405 102.822C330.541 100.962 327.577 100.736 324.977 102.014Z" fill="#7970FF"/>
<path opacity="0.5" d="M324.977 102.014L333.215 110.234C334.497 107.641 334.27 104.682 332.405 102.822C330.541 100.962 327.577 100.736 324.977 102.014Z" fill="black"/>
<path opacity="0.2" d="M323.948 100.984C322.921 101.489 321.939 102.18 321.06 103.057C317.406 106.703 316.929 112.141 319.997 115.202L329.097 106.122L323.948 100.984Z" fill="black"/>
<path d="M328.562 94.3397C329.435 94.6934 330.289 95.2587 330.949 95.9241C332.714 97.7007 332.362 99.8503 330.911 101.726C330.814 101.852 330.989 102.03 331.089 101.903C332.41 100.196 333.029 98.1477 331.616 96.2994C330.873 95.327 329.759 94.5569 328.626 94.0974C328.478 94.0372 328.415 94.2794 328.562 94.3397Z" fill="#263238"/>
<path d="M341.151 106.592C340.69 105.463 339.919 104.351 338.944 103.61C337.093 102.201 335.038 102.817 333.327 104.136C333.199 104.234 333.378 104.41 333.505 104.314C335.379 102.871 337.544 102.509 339.32 104.275C339.986 104.937 340.552 105.784 340.908 106.656C340.969 106.803 341.211 106.741 341.151 106.592Z" fill="#263238"/>
<path d="M325.154 106.233C324.577 106.809 323.642 106.809 323.065 106.233C322.489 105.658 322.489 104.726 323.065 104.15C323.642 103.575 324.577 103.575 325.154 104.15C325.731 104.725 325.731 105.658 325.154 106.233Z" fill="#7970FF"/>
<path d="M331.076 112.14C330.499 112.715 329.564 112.715 328.987 112.14C328.41 111.564 328.41 110.632 328.987 110.057C329.564 109.481 330.499 109.481 331.076 110.057C331.653 110.632 331.653 111.564 331.076 112.14Z" fill="#7970FF"/>
<path d="M321.943 110.851C321.366 111.426 320.431 111.426 319.855 110.851C319.278 110.275 319.278 109.343 319.855 108.767C320.431 108.192 321.366 108.192 321.943 108.767C322.52 109.343 322.52 110.275 321.943 110.851Z" fill="#7970FF"/>
<path d="M326.447 115.343C325.87 115.918 324.935 115.918 324.358 115.343C323.782 114.767 323.782 113.835 324.358 113.26C324.935 112.684 325.87 112.684 326.447 113.26C327.024 113.835 327.024 114.767 326.447 115.343Z" fill="#7970FF"/>
<g opacity="0.7">
<path d="M325.154 106.233C324.577 106.809 323.642 106.809 323.065 106.233C322.489 105.658 322.489 104.726 323.065 104.15C323.642 103.575 324.577 103.575 325.154 104.15C325.731 104.725 325.731 105.658 325.154 106.233Z" fill="white"/>
<path d="M331.076 112.14C330.499 112.715 329.564 112.715 328.987 112.14C328.41 111.564 328.41 110.632 328.987 110.057C329.564 109.481 330.499 109.481 331.076 110.057C331.653 110.632 331.653 111.564 331.076 112.14Z" fill="white"/>
<path d="M321.943 110.851C321.366 111.426 320.431 111.426 319.855 110.851C319.278 110.275 319.278 109.343 319.855 108.767C320.431 108.192 321.366 108.192 321.943 108.767C322.52 109.343 322.52 110.275 321.943 110.851Z" fill="white"/>
<path d="M326.447 115.343C325.87 115.918 324.935 115.918 324.358 115.343C323.782 114.767 323.782 113.835 324.358 113.26C324.935 112.684 325.87 112.684 326.447 113.26C327.024 113.835 327.024 114.767 326.447 115.343Z" fill="white"/>
</g>
<path d="M222.478 233.916C222.212 233.869 221.839 234.719 221.645 235.813C221.52 236.526 221.502 237.163 221.578 237.536C221.207 237.637 220.655 237.918 220.085 238.316C219.173 238.953 218.558 239.649 218.713 239.87C218.868 240.091 219.734 239.753 220.646 239.116C221.421 238.575 221.978 237.992 222.034 237.693C222.249 237.392 222.472 236.751 222.608 235.983C222.803 234.888 222.743 233.964 222.478 233.916Z" fill="#263238"/>
<path d="M225.325 239.665C224.444 239.345 223.653 239.222 223.368 239.342C222.998 239.338 222.337 239.526 221.627 239.857C220.618 240.326 219.892 240.905 220.006 241.149C220.12 241.393 221.031 241.21 222.041 240.74C222.697 240.436 223.232 240.084 223.495 239.809C223.792 240.055 224.338 240.344 224.991 240.58C226.038 240.96 226.961 241.063 227.053 240.81C227.145 240.557 226.372 240.044 225.325 239.665Z" fill="#263238"/>
<path d="M217.38 232.639C217.135 232.752 217.319 233.661 217.789 234.669C218.095 235.324 218.447 235.858 218.723 236.12C218.477 236.416 218.187 236.962 217.95 237.612C217.569 238.657 217.466 239.578 217.72 239.67C217.973 239.762 218.488 238.99 218.869 237.946C219.189 237.067 219.312 236.277 219.192 235.993C219.195 235.624 219.007 234.965 218.675 234.256C218.204 233.249 217.624 232.525 217.38 232.639Z" fill="#263238"/>
<path d="M205.178 251.176C205.131 250.911 205.982 250.539 207.079 250.347C207.794 250.221 208.432 250.204 208.806 250.28C208.908 249.909 209.189 249.359 209.588 248.79C210.227 247.881 210.924 247.268 211.146 247.422C211.367 247.577 211.028 248.44 210.39 249.35C209.847 250.123 209.263 250.679 208.964 250.735C208.661 250.948 208.02 251.171 207.249 251.307C206.151 251.499 205.224 251.441 205.178 251.176Z" fill="#263238"/>
<path d="M210.941 254.018C210.62 253.139 210.497 252.349 210.618 252.066C210.614 251.698 210.803 251.038 211.134 250.328C211.605 249.322 212.185 248.597 212.429 248.711C212.674 248.825 212.491 249.733 212.02 250.74C211.715 251.395 211.362 251.929 211.086 252.191C211.333 252.487 211.622 253.033 211.859 253.684C212.24 254.728 212.344 255.649 212.09 255.741C211.835 255.833 211.321 255.062 210.941 254.018Z" fill="#263238"/>
<path d="M203.897 246.091C204.011 245.846 204.921 246.029 205.931 246.499C206.588 246.804 207.123 247.155 207.386 247.43C207.682 247.185 208.23 246.896 208.882 246.659C209.928 246.28 210.852 246.176 210.944 246.43C211.036 246.683 210.263 247.196 209.216 247.576C208.335 247.895 207.543 248.018 207.258 247.898C206.889 247.901 206.229 247.713 205.518 247.383C204.509 246.913 203.783 246.334 203.897 246.091Z" fill="#263238"/>
<path d="M210.047 240.377C210.047 241.17 210.692 241.815 211.489 241.815C212.285 241.815 212.931 241.172 212.931 240.377C212.931 239.582 212.286 238.939 211.489 238.939V240.377H210.047Z" fill="#7970FF"/>
<path opacity="0.2" d="M210.047 240.377C210.047 241.17 210.692 241.815 211.489 241.815C212.285 241.815 212.931 241.172 212.931 240.377C212.931 239.582 212.286 238.939 211.489 238.939V240.377H210.047Z" fill="black"/>
<path d="M209.797 248.967C210.303 249.991 210.995 250.971 211.874 251.847C215.529 255.494 220.979 255.969 224.047 252.909C227.115 249.848 226.638 244.41 222.983 240.764C222.105 239.888 221.123 239.196 220.096 238.691L209.797 248.967Z" fill="#7970FF"/>
<path opacity="0.3" d="M209.797 248.967C210.303 249.991 210.995 250.971 211.874 251.847C215.529 255.494 220.979 255.969 224.047 252.909C227.115 249.848 226.638 244.41 222.983 240.764C222.105 239.888 221.123 239.196 220.096 238.691L209.797 248.967Z" fill="black"/>
<path d="M210.826 247.938L219.065 239.718C216.466 238.441 213.501 238.666 211.637 240.527C209.772 242.387 209.545 245.345 210.826 247.938Z" fill="#7970FF"/>
<path opacity="0.5" d="M210.826 247.938L219.065 239.718C216.466 238.441 213.501 238.666 211.637 240.527C209.772 242.387 209.545 245.345 210.826 247.938Z" fill="black"/>
<path opacity="0.2" d="M209.797 248.966C210.303 249.99 210.995 250.97 211.874 251.847C215.529 255.493 220.979 255.969 224.047 252.908L214.946 243.828L209.797 248.966Z" fill="black"/>
<path d="M203.135 244.36C203.49 243.489 204.057 242.637 204.723 241.979C206.504 240.218 208.659 240.57 210.538 242.017C210.665 242.114 210.843 241.939 210.716 241.841C209.005 240.523 206.952 239.906 205.099 241.315C204.125 242.056 203.353 243.167 202.892 244.297C202.832 244.445 203.075 244.508 203.135 244.36Z" fill="#263238"/>
<path d="M215.417 231.803C214.285 232.262 213.17 233.032 212.426 234.005C211.014 235.852 211.632 237.901 212.954 239.609C213.052 239.736 213.229 239.557 213.132 239.431C211.685 237.561 211.323 235.401 213.093 233.629C213.757 232.965 214.606 232.4 215.48 232.045C215.627 231.985 215.566 231.741 215.417 231.803Z" fill="#263238"/>
<path d="M215.056 247.762C215.633 248.337 215.633 249.269 215.056 249.845C214.479 250.42 213.545 250.42 212.968 249.845C212.391 249.269 212.391 248.337 212.968 247.762C213.543 247.186 214.479 247.186 215.056 247.762Z" fill="#7970FF"/>
<path d="M220.978 241.853C221.555 242.429 221.555 243.361 220.978 243.937C220.401 244.512 219.467 244.512 218.89 243.937C218.313 243.361 218.313 242.429 218.89 241.853C219.467 241.278 220.401 241.278 220.978 241.853Z" fill="#7970FF"/>
<path d="M219.685 250.965C220.262 251.54 220.262 252.473 219.685 253.048C219.108 253.623 218.174 253.623 217.597 253.048C217.02 252.473 217.02 251.54 217.597 250.965C218.172 250.389 219.108 250.389 219.685 250.965Z" fill="#7970FF"/>
<path d="M224.187 246.471C224.764 247.046 224.764 247.978 224.187 248.554C223.61 249.129 222.675 249.129 222.099 248.554C221.522 247.978 221.522 247.046 222.099 246.471C222.675 245.895 223.61 245.895 224.187 246.471Z" fill="#7970FF"/>
<g opacity="0.7">
<path d="M215.056 247.762C215.633 248.337 215.633 249.269 215.056 249.845C214.479 250.42 213.545 250.42 212.968 249.845C212.391 249.269 212.391 248.337 212.968 247.762C213.543 247.186 214.479 247.186 215.056 247.762Z" fill="white"/>
<path d="M220.978 241.853C221.555 242.429 221.555 243.361 220.978 243.937C220.401 244.512 219.467 244.512 218.89 243.937C218.313 243.361 218.313 242.429 218.89 241.853C219.467 241.278 220.401 241.278 220.978 241.853Z" fill="white"/>
<path d="M219.685 250.965C220.262 251.54 220.262 252.473 219.685 253.048C219.108 253.623 218.174 253.623 217.597 253.048C217.02 252.473 217.02 251.54 217.597 250.965C218.172 250.389 219.108 250.389 219.685 250.965Z" fill="white"/>
<path d="M224.187 246.471C224.764 247.046 224.764 247.978 224.187 248.554C223.61 249.129 222.675 249.129 222.099 248.554C221.522 247.978 221.522 247.046 222.099 246.471C222.675 245.895 223.61 245.895 224.187 246.471Z" fill="white"/>
</g>
<path d="M392.558 89.3078C392.114 89.2293 391.494 90.6454 391.171 92.4686C390.962 93.6571 390.933 94.7183 391.058 95.3393C390.439 95.5077 389.519 95.9763 388.57 96.6405C387.049 97.7028 386.025 98.8618 386.284 99.2303C386.542 99.5977 387.984 99.0347 389.505 97.9724C390.796 97.0704 391.727 96.0991 391.819 95.6021C392.176 95.1005 392.548 94.0325 392.775 92.7506C393.099 90.9274 393.001 89.3863 392.558 89.3078Z" fill="#263238"/>
<path d="M397.305 98.8901C395.837 98.3568 394.518 98.1533 394.044 98.3523C393.428 98.3477 392.327 98.6593 391.141 99.2108C389.459 99.9931 388.249 100.957 388.44 101.364C388.63 101.772 390.147 101.467 391.83 100.684C392.923 100.176 393.815 99.5906 394.254 99.1312C394.747 99.5405 395.658 100.022 396.747 100.416C398.491 101.049 400.03 101.221 400.184 100.799C400.338 100.38 399.05 99.5235 397.305 98.8901Z" fill="#263238"/>
<path d="M384.062 87.1818C383.654 87.3717 383.959 88.8867 384.744 90.5644C385.253 91.6562 385.84 92.5445 386.301 92.9824C385.892 93.4749 385.408 94.3837 385.013 95.4699C384.378 97.2101 384.205 98.7456 384.628 98.8991C385.051 99.0526 385.909 97.7663 386.544 96.0261C387.078 94.5611 387.282 93.2452 387.083 92.772C387.087 92.1578 386.774 91.0591 386.222 89.8762C385.436 88.1986 384.47 86.9918 384.062 87.1818Z" fill="#263238"/>
<path d="M363.722 118.078C363.643 117.636 365.063 117.017 366.89 116.695C368.081 116.486 369.145 116.457 369.767 116.583C369.936 115.965 370.406 115.048 371.071 114.1C372.136 112.582 373.298 111.561 373.666 111.819C374.034 112.076 373.471 113.515 372.406 115.032C371.502 116.321 370.529 117.249 370.031 117.341C369.528 117.696 368.457 118.069 367.173 118.295C365.345 118.618 363.801 118.521 363.722 118.078Z" fill="#263238"/>
<path d="M373.327 122.812C372.793 121.347 372.588 120.031 372.788 119.558C372.783 118.944 373.097 117.845 373.65 116.663C374.434 114.984 375.401 113.777 375.809 113.967C376.217 114.157 375.912 115.671 375.127 117.35C374.618 118.441 374.031 119.33 373.57 119.768C373.979 120.26 374.463 121.169 374.858 122.255C375.493 123.995 375.665 125.531 375.242 125.684C374.821 125.839 373.962 124.554 373.327 122.812Z" fill="#263238"/>
<path d="M361.59 109.6C361.78 109.193 363.298 109.498 364.98 110.28C366.075 110.789 366.965 111.374 367.404 111.834C367.899 111.425 368.81 110.943 369.897 110.549C371.641 109.915 373.18 109.744 373.334 110.166C373.488 110.587 372.199 111.443 370.455 112.076C368.986 112.609 367.667 112.813 367.193 112.614C366.578 112.618 365.476 112.306 364.291 111.754C362.609 110.971 361.4 110.006 361.59 109.6Z" fill="#263238"/>
<path d="M371.838 100.079C371.838 101.403 372.914 102.477 374.241 102.477C375.568 102.477 376.644 101.403 376.644 100.079C376.644 98.7553 375.568 97.6816 374.241 97.6816V100.079H371.838Z" fill="#7970FF"/>
<path opacity="0.2" d="M371.838 100.079C371.838 101.403 372.914 102.477 374.241 102.477C375.568 102.477 376.644 101.403 376.644 100.079C376.644 98.7553 375.568 97.6816 374.241 97.6816V100.079H371.838Z" fill="black"/>
<path d="M371.424 114.393C372.267 116.101 373.421 117.735 374.885 119.194C380.977 125.272 390.061 126.064 395.173 120.963C400.286 115.862 399.493 106.799 393.401 100.721C391.938 99.2603 390.301 98.1092 388.589 97.2676L371.424 114.393Z" fill="#7970FF"/>
<path opacity="0.3" d="M371.424 114.393C372.267 116.101 373.421 117.735 374.885 119.194C380.977 125.272 390.061 126.064 395.173 120.963C400.286 115.862 399.493 106.799 393.401 100.721C391.938 99.2603 390.301 98.1092 388.589 97.2676L371.424 114.393Z" fill="black"/>
<path d="M373.14 112.681L386.871 98.9797C382.539 96.8505 377.598 97.2258 374.489 100.327C371.382 103.429 371.004 108.359 373.14 112.681Z" fill="#7970FF"/>
<path opacity="0.5" d="M373.14 112.681L386.871 98.9797C382.539 96.8505 377.598 97.2258 374.489 100.327C371.382 103.429 371.004 108.359 373.14 112.681Z" fill="black"/>
<path opacity="0.2" d="M371.424 114.393C372.267 116.102 373.421 117.735 374.885 119.194C380.977 125.272 390.061 126.064 395.173 120.963L380.006 105.83L371.424 114.393Z" fill="black"/>
<path d="M360.321 106.718C360.913 105.266 361.856 103.847 362.968 102.749C365.935 99.8131 369.528 100.399 372.66 102.814C372.87 102.975 373.169 102.683 372.956 102.519C370.103 100.322 366.682 99.2922 363.595 101.642C361.97 102.877 360.683 104.73 359.916 106.614C359.816 106.86 360.222 106.964 360.321 106.718Z" fill="#263238"/>
<path d="M380.789 85.7876C378.902 86.5531 377.044 87.8372 375.806 89.4568C373.453 92.5357 374.483 95.9501 376.685 98.797C376.849 99.0085 377.142 98.7117 376.98 98.5024C374.568 95.3871 373.965 91.785 376.915 88.8324C378.021 87.7257 379.436 86.7828 380.895 86.1914C381.141 86.0913 381.038 85.6864 380.789 85.7876Z" fill="#263238"/>
<path d="M380.189 112.387C381.15 113.346 381.15 114.901 380.189 115.861C379.228 116.819 377.669 116.819 376.707 115.861C375.746 114.902 375.746 113.347 376.707 112.387C377.668 111.428 379.228 111.428 380.189 112.387Z" fill="#7970FF"/>
<path d="M390.058 102.539C391.019 103.498 391.019 105.053 390.058 106.013C389.097 106.972 387.537 106.972 386.576 106.013C385.615 105.054 385.615 103.499 386.576 102.539C387.537 101.581 389.096 101.581 390.058 102.539Z" fill="#7970FF"/>
<path d="M387.904 117.725C388.865 118.684 388.865 120.24 387.904 121.199C386.942 122.157 385.384 122.157 384.422 121.199C383.461 120.24 383.461 118.684 384.422 117.725C385.383 116.766 386.942 116.766 387.904 117.725Z" fill="#7970FF"/>
<path d="M395.409 110.237C396.37 111.196 396.37 112.751 395.409 113.71C394.448 114.669 392.89 114.669 391.928 113.71C390.967 112.751 390.967 111.196 391.928 110.237C392.89 109.278 394.448 109.278 395.409 110.237Z" fill="#7970FF"/>
<g opacity="0.7">
<path d="M380.189 112.387C381.15 113.346 381.15 114.901 380.189 115.861C379.228 116.819 377.669 116.819 376.707 115.861C375.746 114.902 375.746 113.347 376.707 112.387C377.668 111.428 379.228 111.428 380.189 112.387Z" fill="white"/>
<path d="M390.058 102.539C391.019 103.498 391.019 105.053 390.058 106.013C389.097 106.972 387.537 106.972 386.576 106.013C385.615 105.054 385.615 103.499 386.576 102.539C387.537 101.581 389.096 101.581 390.058 102.539Z" fill="white"/>
<path d="M387.904 117.725C388.865 118.684 388.865 120.24 387.904 121.199C386.942 122.157 385.384 122.157 384.422 121.199C383.461 120.24 383.461 118.684 384.422 117.725C385.383 116.766 386.942 116.766 387.904 117.725Z" fill="white"/>
<path d="M395.409 110.237C396.37 111.196 396.37 112.751 395.409 113.71C394.448 114.669 392.89 114.669 391.928 113.71C390.967 112.751 390.967 111.196 391.928 110.237C392.89 109.278 394.448 109.278 395.409 110.237Z" fill="white"/>
</g>
<path d="M389.72 132.72L384.066 133.715L385.063 139.356L390.717 138.361L389.72 132.72Z" fill="black"/>
<path opacity="0.5" d="M389.72 132.72L384.066 133.715L385.063 139.356L390.717 138.361L389.72 132.72Z" fill="white"/>
<path d="M394.315 170.161L392.616 170.46C390.808 170.778 389.083 169.574 388.764 167.769L384.051 141.102C383.732 139.298 384.939 137.577 386.748 137.258L388.447 136.959C390.255 136.641 391.98 137.845 392.299 139.65L397.012 166.317C397.33 168.122 396.123 169.843 394.315 170.161Z" fill="black"/>
<path opacity="0.1" d="M392.506 84.0352C392.654 84.6596 392.789 85.2908 392.903 85.9312C396.112 104.087 383.961 121.402 365.762 124.603C365.12 124.716 364.479 124.805 363.84 124.881C369.533 130.857 378.021 133.966 386.769 132.427C400.64 129.988 409.902 116.79 407.456 102.951C405.914 94.2227 400.082 87.329 392.506 84.0352Z" fill="black"/>
<path d="M377.277 78.7144C361.416 81.5044 350.825 96.5952 353.622 112.42C356.418 128.244 371.544 138.811 387.404 136.02C403.265 133.23 413.857 118.139 411.059 102.315C408.264 86.4907 393.139 75.9244 377.277 78.7144ZM386.407 130.374C373.672 132.615 361.528 124.13 359.282 111.424C357.036 98.7187 365.54 86.6021 378.275 84.3615C391.01 82.1208 403.155 90.6057 405.4 103.311C407.646 116.017 399.143 128.134 386.407 130.374Z" fill="#7970FF"/>
<path d="M474.194 139.646C475.312 141.386 476.266 143.053 477.244 144.778C478.217 146.491 479.142 148.229 480.033 149.989C481.819 153.507 483.457 157.118 484.913 160.854C485.659 162.711 486.298 164.636 486.912 166.581L487.031 166.956L487.185 167.567C487.292 167.968 487.353 168.392 487.401 168.818C487.51 169.665 487.468 170.536 487.353 171.368C487.1 173.039 486.454 174.487 485.696 175.659C484.139 178.004 482.25 179.447 480.364 180.617C479.41 181.188 478.453 181.698 477.462 182.11C476.457 182.537 475.53 182.898 474.397 183.217L472.238 178.628C473.519 177.566 474.917 176.323 476.013 175.115C477.128 173.914 478.043 172.619 478.371 171.605C478.541 171.105 478.58 170.717 478.515 170.476C478.474 170.355 478.442 170.259 478.388 170.161C478.364 170.114 478.348 170.063 478.304 170.009C478.287 169.982 478.273 169.955 478.262 169.927L478.138 169.626C477.468 167.957 476.734 166.3 475.962 164.634C474.412 161.312 472.713 158.008 470.934 154.734L468.231 149.833L465.469 145.033L474.194 139.646Z" fill="#FFC3BD"/>
<path d="M474.598 178.003L469.576 176.701L469.287 184.793C469.287 184.793 473.217 185.375 475.622 182.977L474.598 178.003Z" fill="#FFC3BD"/>
<path d="M462.457 175.338L463.59 182.441L469.287 184.793L469.575 176.702L462.457 175.338Z" fill="#FFC3BD"/>
<path d="M441.68 107.005C441.567 107.559 441.181 107.948 440.818 107.875C440.455 107.801 440.252 107.293 440.365 106.739C440.478 106.185 440.863 105.796 441.226 105.87C441.59 105.943 441.792 106.451 441.68 107.005Z" fill="#263238"/>
<path d="M441.232 107.959C441.232 107.959 439.32 110.898 437.615 112.158C438.411 113.272 440.167 113.192 440.167 113.192L441.232 107.959Z" fill="#ED847E"/>
<path d="M444.338 104.341C444.419 104.341 444.5 104.312 444.564 104.254C444.699 104.13 444.708 103.919 444.582 103.785C443.333 102.437 441.818 102.677 441.752 102.687C441.571 102.718 441.449 102.889 441.479 103.07C441.51 103.251 441.685 103.371 441.861 103.342C441.911 103.334 443.096 103.16 444.093 104.236C444.159 104.305 444.25 104.341 444.338 104.341Z" fill="#263238"/>
<path d="M457.494 114.795C456.486 119.921 455.481 129.314 459.076 132.734C459.076 132.734 457.671 137.934 448.125 137.934C437.627 137.934 443.108 132.735 443.108 132.735C448.838 131.37 448.689 127.129 447.692 123.146L457.494 114.795Z" fill="#FFC3BD"/>
<path d="M461.145 133.684C461.912 132.26 462.758 130.63 461.009 130.12C459.086 129.558 446.731 128.516 443.101 129.57C444.216 131.549 442.328 133.982 442.328 133.982L461.145 133.684Z" fill="#7970FF"/>
<path opacity="0.3" d="M461.145 133.684C461.912 132.26 462.758 130.63 461.009 130.12C459.086 129.558 446.731 128.516 443.101 129.57C444.216 131.549 442.328 133.982 442.328 133.982L461.145 133.684Z" fill="black"/>
<path d="M450.238 373.476H443.216L442.516 357.25H449.539L450.238 373.476Z" fill="#FFC3BD"/>
<path d="M501.787 370.232L494.923 371.714L488.031 356.6L494.895 355.117L501.787 370.232Z" fill="#FFC3BD"/>
<path d="M494.263 371.028L501.974 369.361C502.254 369.301 502.539 369.443 502.66 369.703L505.337 375.496C505.615 376.098 505.247 376.802 504.596 376.932C501.894 377.468 500.551 377.592 497.161 378.325C495.075 378.776 490.365 379.921 487.483 380.543C484.665 381.152 483.61 378.405 484.733 377.892C489.77 375.595 491.876 373.573 493.239 371.688C493.485 371.35 493.852 371.116 494.263 371.028Z" fill="#263238"/>
<path d="M443.262 372.664H450.931C451.219 372.664 451.467 372.863 451.53 373.143L452.917 379.371C453.061 380.017 452.57 380.629 451.907 380.618C449.141 380.571 445.143 380.409 441.666 380.409C437.599 380.409 434.088 380.629 429.319 380.629C426.436 380.629 425.636 377.721 426.843 377.458C432.337 376.259 436.823 376.131 441.571 373.21C442.086 372.893 442.656 372.664 443.262 372.664Z" fill="#263238"/>
<path d="M471.649 134.318C478.231 135.823 483.659 152.588 483.659 152.588L470.44 162.641C470.44 162.641 465.59 158.077 463.429 149.69C461.168 140.904 464.918 132.779 471.649 134.318Z" fill="#7970FF"/>
<path opacity="0.2" d="M466.009 146.646C469.584 150.176 470.75 156.604 471.029 162.193L470.445 162.641C470.445 162.641 465.589 158.073 463.428 149.689C463.295 149.165 463.18 148.639 463.084 148.125L466.009 146.646Z" fill="black"/>
<path d="M432.304 134.68C432.304 134.68 424.83 143.103 431.888 195.243C443.206 195.243 463.945 195.243 469.453 195.243C469.711 189.49 466.088 161.425 471.649 134.318C471.649 134.318 465.211 133.029 459.075 132.734C454.276 132.503 447.326 132.35 443.107 132.735C437.544 133.241 432.304 134.68 432.304 134.68Z" fill="#7970FF"/>
<path opacity="0.2" d="M429.021 150.616L429.164 150.492L437.702 152.533C438.19 158.293 432.253 165.18 429.194 168.327C428.772 160.974 428.781 155.175 429.021 150.616Z" fill="black"/>
<path opacity="0.2" d="M442.52 357.254L442.879 365.618H449.904L449.545 357.254H442.52Z" fill="black"/>
<path opacity="0.2" d="M494.899 355.123L488.031 356.606L491.587 364.395L498.454 362.912L494.899 355.123Z" fill="black"/>
<path d="M460.434 109.586C458.629 116.304 457.916 120.326 453.762 123.119C447.512 127.32 439.732 122.499 439.488 115.379C439.269 108.971 442.256 99.062 449.481 97.7085C456.599 96.3755 462.239 102.87 460.434 109.586Z" fill="#FFC3BD"/>
<path d="M445.213 195.243C445.213 195.243 453.183 248.791 457.559 268.852C462.351 290.821 488.044 363.503 488.044 363.503L500.616 360.787C500.616 360.787 482.649 301.556 478.629 270.843C477.307 260.752 475.438 251.149 473.73 236.955C473.098 231.702 473.629 220.913 473.078 216.279C472.498 211.402 470.842 207.044 470.433 203.577C469.826 198.427 469.453 195.242 469.453 195.242L445.213 195.243Z" fill="#7970FF"/>
<path d="M485.034 359.316C484.981 359.328 487.377 363.852 487.377 363.852L501.522 360.797L500.329 356.555L485.034 359.316Z" fill="#7970FF"/>
<path opacity="0.3" d="M485.034 359.316C484.981 359.328 487.377 363.852 487.377 363.852L501.522 360.797L500.329 356.555L485.034 359.316Z" fill="black"/>
<path opacity="0.3" d="M450.251 214.321C459.466 216.124 458.492 250.413 457.382 268.049C454.725 255.583 450.834 231.595 448.176 214.569C448.787 214.265 449.475 214.169 450.251 214.321Z" fill="black"/>
<path d="M431.887 195.242C431.887 195.242 430.921 247.631 431.684 268.999C432.479 291.225 440.26 363.998 440.26 363.998H452.157C452.157 363.998 452.593 292.524 453.122 270.696C453.699 246.9 456.579 195.243 456.579 195.243H431.887V195.242Z" fill="#7970FF"/>
<path d="M437.972 359.271C437.917 359.271 438.643 364.2 438.643 364.2H453.115L453.506 359.802L437.972 359.271Z" fill="#7970FF"/>
<path opacity="0.3" d="M437.972 359.271C437.917 359.271 438.643 364.2 438.643 364.2H453.115L453.506 359.802L437.972 359.271Z" fill="black"/>
<path d="M429.005 141.17C427.922 142.858 426.688 144.739 425.459 146.485C424.205 148.246 422.942 149.994 421.628 151.692C420.311 153.377 418.972 155.049 417.564 156.605C416.882 157.42 416.145 158.134 415.438 158.907C414.7 159.608 413.977 160.369 413.223 161.016L412.098 162.015L410.947 162.912L410.475 163.282C410.158 163.231 409.727 163.113 409.269 162.913C408.519 162.591 407.673 162.159 406.836 161.639C403.465 159.536 400.006 156.618 396.754 153.771L392.801 156.957C395.359 161.024 398.171 164.709 402.011 168.086C402.987 168.919 404.029 169.743 405.28 170.477C406.538 171.198 407.965 171.935 410.044 172.238C411.082 172.372 412.336 172.344 413.627 171.934C414.259 171.747 414.924 171.415 415.446 171.096L416.255 170.564C416.791 170.207 417.34 169.856 417.864 169.488L419.37 168.344C423.329 165.239 426.584 161.703 429.642 158.055C431.128 156.204 432.587 154.342 433.93 152.403C435.289 150.443 436.569 148.566 437.832 146.391L429.005 141.17ZM410.902 163.3C410.844 163.322 410.715 163.316 410.561 163.295C410.6 163.284 410.641 163.272 410.669 163.265C410.89 163.226 410.986 163.268 410.902 163.3Z" fill="#FFC3BD"/>
<path d="M442.636 145.278C444.883 154.673 427.845 163.872 427.845 163.872L416.779 150.937C416.779 150.937 421.817 143.32 428.085 137.319C435.826 129.906 440.926 138.128 442.636 145.278Z" fill="#7970FF"/>
<path d="M393.785 158.046L387.416 152.011L393.526 147.369C393.526 147.369 398.573 150.963 397.313 155.91L393.785 158.046Z" fill="#FFC3BD"/>
<path d="M385.408 149.656L389.679 144.859L393.526 147.37L387.416 152.01L385.408 149.656Z" fill="#FFC3BD"/>
<path d="M446.088 107.959C446.088 107.959 442.292 103.587 442.858 99.4593C442.858 99.4593 439.32 93.5426 442.627 91.4543C445.933 89.3661 448 93.8451 448 93.8451C448 93.8451 450.137 89.2239 453.202 89.7926C456.266 90.3613 455.518 94.4138 455.518 94.4138C455.518 94.4138 459.614 90.8436 462.179 91.9537C464.744 93.0637 463.248 97.0446 463.248 97.0446C463.248 97.0446 467.44 96.253 468.408 98.8519C469.376 101.452 466.874 103.036 466.874 103.036C466.874 103.036 470.645 104.443 470.759 107.959C470.873 111.475 466.812 111.109 466.812 111.109C466.812 111.109 466.119 116.332 458.06 120.787C457.552 121.068 456.941 121.139 456.387 120.961C455.727 120.751 454.64 120.569 453.198 120.891C452.363 121.077 451.496 120.743 450.98 120.063C449.88 118.613 448.146 116.248 447.648 115.099C446.915 113.423 446.088 107.959 446.088 107.959Z" fill="#263238"/>
<path opacity="0.3" d="M463.317 112.043C460.822 116.522 457.759 109.259 457.759 109.259C455.455 115.085 451.204 107.209 451.204 107.209C450.135 111.332 446.088 107.959 446.088 107.959C446.088 107.959 446.914 113.424 447.642 115.1C448.141 116.249 449.873 118.614 450.974 120.064C451.492 120.745 452.358 121.078 453.194 120.892C454.636 120.569 455.722 120.751 456.382 120.962C456.936 121.14 457.547 121.069 458.056 120.788C466.114 116.334 466.807 111.11 466.807 111.11C465.739 114.652 463.317 112.043 463.317 112.043Z" fill="white"/>
<path d="M438.091 109.676C437.986 109.676 437.882 109.661 437.778 109.632C437.434 109.533 437.172 109.301 437.022 108.962C436.353 107.45 438.144 103.742 438.35 103.324L438.556 102.906L446.307 107.593L445.864 108.324L440.752 105.232C440.529 106.202 439.835 108.817 438.718 109.493C438.518 109.613 438.304 109.676 438.091 109.676ZM438.918 104.122C438.238 105.603 437.456 107.829 437.805 108.617C437.866 108.752 437.945 108.792 438.016 108.812C438.078 108.831 438.155 108.838 438.276 108.764C439.012 108.318 439.708 106.089 439.98 104.765L438.918 104.122Z" fill="#7970FF"/>
<path d="M448.98 109.868C448.522 111.631 447.361 113.147 446.146 114.049C444.319 115.406 442.953 114.071 443.083 112.006C443.2 110.149 444.291 107.206 446.308 106.655C448.294 106.113 449.503 107.852 448.98 109.868Z" fill="#FFC3BD"/>
<path d="M233.569 331.202H178.315C175.515 331.202 173.002 329.487 171.989 326.884L150.626 272.062C148.564 266.77 142.593 264.148 137.288 266.205C137.288 266.205 81.0999 264.148 75.7955 266.205L71.5957 267.834L99.3091 338.954C100.959 343.188 105.046 345.978 109.6 345.978H171.093H182.381H243.874V341.483C243.875 335.805 239.261 331.202 233.569 331.202Z" fill="#7970FF"/>
<path opacity="0.3" d="M233.569 331.202H178.315C175.515 331.202 173.002 329.487 171.989 326.884L150.626 272.062C148.564 266.77 142.593 264.148 137.288 266.205C137.288 266.205 81.0999 264.148 75.7955 266.205L71.5957 267.834L99.3091 338.954C100.959 343.188 105.046 345.978 109.6 345.978H171.093H182.381H243.874V341.483C243.875 335.805 239.261 331.202 233.569 331.202Z" fill="white"/>
<path opacity="0.2" d="M110.496 326.884L89.1335 272.062C87.0712 266.77 81.0999 264.148 75.7955 266.205L71.5957 267.834L99.3091 338.954C100.959 343.188 105.046 345.978 109.6 345.978H182.381V341.483C182.381 335.805 177.767 331.202 172.076 331.202H116.822C114.023 331.202 111.511 329.487 110.496 326.884Z" fill="black"/>
<path d="M234.172 352.031H159.205L151.354 380.352H155.758L164.23 362.411H229.147L237.618 380.352H242.023L234.172 352.031Z" fill="#263238"/>
<path opacity="0.2" d="M234.172 352.031H159.205L151.354 380.352H155.758L164.23 362.411H229.147L237.618 380.352H242.023L234.172 352.031Z" fill="white"/>
<path d="M230.612 352.031H155.645L147.793 380.352H152.199L160.67 362.411H225.588L234.059 380.352H238.464L230.612 352.031Z" fill="#263238"/>
<path opacity="0.3" d="M230.612 352.031H155.645L147.793 380.352H152.199L160.67 362.411H225.588L234.059 380.352H238.464L230.612 352.031Z" fill="white"/>
<path d="M180.782 352.031H105.815L97.9629 380.352H102.369L110.84 362.411H175.756L184.229 380.352H188.634L180.782 352.031Z" fill="#263238"/>
<path opacity="0.2" d="M180.782 352.031H105.815L97.9629 380.352H102.369L110.84 362.411H175.756L184.229 380.352H188.634L180.782 352.031Z" fill="white"/>
<path d="M177.223 352.031H102.255L94.4043 380.352H98.8093L107.281 362.411H172.198L180.669 380.352H185.074L177.223 352.031Z" fill="#263238"/>
<path opacity="0.4" d="M177.223 352.031H102.255L94.4043 380.352H98.8093L107.281 362.411H172.198L180.669 380.352H185.074L177.223 352.031Z" fill="white"/>
<path d="M175.541 345.979H106.934V352.031H175.541V345.979Z" fill="#263238"/>
<path opacity="0.2" d="M175.541 345.979H106.934V352.031H175.541V345.979Z" fill="white"/>
<path d="M229.329 345.979H175.541V352.031H229.329V345.979Z" fill="#263238"/>
<path opacity="0.1" d="M229.329 345.979H175.541V352.031H229.329V345.979Z" fill="white"/>
<path d="M186.595 322.746L199.725 328.078L198.242 333.617L184.227 330.736L186.595 322.746Z" fill="#CE7A63"/>
<path d="M141.76 303.842C141.76 303.842 204.602 282.124 209.785 302.078C214.966 322.033 167.343 335.798 142.391 334.959C117.438 334.122 141.76 303.842 141.76 303.842Z" fill="#263238"/>
<path opacity="0.3" d="M141.76 303.842C141.76 303.842 204.602 282.124 209.785 302.078C214.966 322.033 167.343 335.798 142.391 334.959C117.438 334.122 141.76 303.842 141.76 303.842Z" fill="black"/>
<path opacity="0.7" d="M188.478 305.864L157.985 325.257L162.853 333.225C162.853 333.225 159.905 334.203 155.826 324.468L174.7 312.021C174.7 312.021 168.789 311.429 168.942 310.505C169.19 309.001 182.157 306.114 188.076 304.872C188.67 304.748 188.99 305.539 188.478 305.864Z" fill="black"/>
<path opacity="0.7" d="M156.875 324.402L162.161 333.345C154.987 334.579 148.096 335.153 142.39 334.962C139.732 334.872 137.636 334.447 136.007 333.761L134.152 330.214L138.151 321.803L156.875 324.402Z" fill="black"/>
<path d="M157.414 325.775L151.477 330.74L154.203 334.963L163.24 333.554L157.414 325.775Z" fill="#CE7A63"/>
<path d="M164.829 333.701L158.625 323.947L155.826 325.942L161.191 334.362L164.829 333.701Z" fill="#7970FF"/>
<path d="M119.671 324.615C116.291 318.897 109.768 301.691 125.452 298.696C141.135 295.701 192.654 324.615 192.654 324.615L190.256 332.139L141.474 324.11C141.474 324.11 155.037 336.355 140.202 334.833C128.433 333.626 122.957 330.173 119.671 324.615Z" fill="#263238"/>
<path d="M191.383 322.746L188.334 332.57L191.383 332.993L194.132 324.507L191.383 322.746Z" fill="#7970FF"/>
<path d="M151.111 329.43L155.808 335.001C155.985 335.211 155.993 335.515 155.826 335.733L152.133 340.552C151.808 340.982 151.196 341.069 150.765 340.744C150.709 340.702 150.659 340.656 150.613 340.603C148.954 338.565 147.559 336.687 145.448 334.19C142.959 331.239 143.236 332.286 140.262 328.858C138.472 326.79 140.531 324.409 141.395 325.198C145.327 328.825 146.909 328.215 149.684 328.558C150.251 328.667 150.758 328.976 151.111 329.43Z" fill="#7970FF"/>
<path opacity="0.3" d="M151.111 329.43L155.808 335.001C155.985 335.211 155.993 335.515 155.826 335.733L152.133 340.552C151.808 340.982 151.196 341.069 150.765 340.744C150.709 340.702 150.659 340.656 150.613 340.603C148.954 338.565 147.559 336.687 145.448 334.19C142.959 331.239 143.236 332.286 140.262 328.858C138.472 326.79 140.531 324.409 141.395 325.198C145.327 328.825 146.909 328.215 149.684 328.558C150.251 328.667 150.758 328.976 151.111 329.43Z" fill="black"/>
<path d="M198.663 327.375L196.372 334.305C196.285 334.567 196.392 334.852 196.628 334.993L201.864 338.106C202.327 338.386 202.929 338.238 203.209 337.778C203.246 337.719 203.274 337.656 203.297 337.59C204.08 335.078 204.678 332.811 205.71 329.702C206.926 326.033 207.058 327.109 208.547 322.814C209.441 320.226 206.636 318.775 206.127 319.829C203.822 324.665 202.121 324.685 199.667 326.035C199.178 326.344 198.821 326.82 198.663 327.375Z" fill="#7970FF"/>
<path opacity="0.3" d="M198.663 327.375L196.372 334.305C196.285 334.567 196.392 334.852 196.628 334.993L201.864 338.106C202.327 338.386 202.929 338.238 203.209 337.778C203.246 337.719 203.274 337.656 203.297 337.59C204.08 335.078 204.678 332.811 205.71 329.702C206.926 326.033 207.058 327.109 208.547 322.814C209.441 320.226 206.636 318.775 206.127 319.829C203.822 324.665 202.121 324.685 199.667 326.035C199.178 326.344 198.821 326.82 198.663 327.375Z" fill="black"/>
<path d="M161.308 262.096C161.308 262.096 165.454 282.453 168.248 285.828C171.043 289.205 183.224 298.286 183.224 298.286L190.462 296.77L195.65 301.091L192.259 303.761L188.243 302.254C188.243 302.254 185.354 302.828 181.611 302.828C177.869 302.828 162.677 293.909 159.665 288.902C156.653 283.894 152.438 265.063 152.438 265.063L161.308 262.096Z" fill="#CE7A63"/>
<path d="M152.319 268.05C152.319 268.05 147.061 252.167 153.989 246.795C160.918 241.423 164.167 265.108 164.167 265.108L152.319 268.05Z" fill="#7970FF"/>
<path d="M150.902 266.689L151.964 269.412L165.234 266.008L164.703 263.285L150.902 266.689Z" fill="#7970FF"/>
<path d="M116.298 306.359C116.298 306.359 107.738 280.465 119.108 246.794C119.108 246.794 133.863 239.944 154.904 244.969C157.318 245.545 158.78 247.98 158.161 250.378C156.056 258.543 152.801 278.014 160.66 302.624C160.662 302.624 141.071 305.875 116.298 306.359Z" fill="#7970FF"/>
<path opacity="0.8" d="M116.298 306.359C116.298 306.359 107.738 280.465 119.108 246.794C119.108 246.794 133.863 239.944 154.904 244.969C157.318 245.545 158.78 247.98 158.161 250.378C156.056 258.543 152.801 278.014 160.66 302.624C160.662 302.624 141.071 305.875 116.298 306.359Z" fill="white"/>
<path d="M140.282 248.202C140.282 248.202 142.942 251.14 145.27 248.202L146.552 248.012C146.552 248.012 146.458 251.14 144.748 252.183C144.748 252.183 148.21 267.476 150.612 290.088L148.278 291.725L145.447 290.088C145.447 290.088 146.145 280.229 143.011 252.419C143.011 252.419 139.571 251.329 138.525 248.012L140.282 248.202Z" fill="#263238"/>
<path d="M135.885 243.283L143.009 249.439L147.146 245.783C145.582 244.621 146.01 241.999 146.883 239.168L136.781 231.211C137.293 234.948 137.68 240.077 135.885 243.283Z" fill="#CE7A63"/>
<path d="M126.731 256.947C126.731 256.947 131.276 279.264 134.34 282.966C137.405 286.667 150.759 296.623 150.759 296.623L158.694 294.961L164.383 299.697L160.664 302.625L156.261 300.973C156.261 300.973 153.095 301.601 148.992 301.601C144.889 301.601 128.235 291.824 124.932 286.334C121.631 280.844 117.008 260.2 117.008 260.2L126.731 256.947Z" fill="#CE7A63"/>
<path d="M133.258 243.437L136.086 241.801L143.009 249.439C143.009 249.439 139.203 247.888 138.134 248.516C137.168 249.082 137.842 251.529 136.722 251.548C134.231 251.59 133.258 243.437 133.258 243.437Z" fill="#7970FF"/>
<path d="M143.01 249.438L146.621 242.326L149.573 243.916C149.573 243.916 152.319 250.819 150.22 251.547C148.943 251.989 148.454 248.761 147.187 248.294C146.171 247.92 143.01 249.438 143.01 249.438Z" fill="#7970FF"/>
<path d="M117.439 268.05C117.439 268.05 112.18 252.167 119.109 246.795C126.038 241.423 129.287 265.108 129.287 265.108L117.439 268.05Z" fill="#7970FF"/>
<path d="M116.021 266.689L117.083 269.412L130.352 266.008L129.822 263.285L116.021 266.689Z" fill="#7970FF"/>
<path opacity="0.1" d="M136.948 232.535C136.895 232.08 136.839 231.635 136.781 231.211L146.884 239.168C146.509 240.382 146.228 241.55 146.137 242.59C140.035 242.643 137.724 235.914 136.948 232.535Z" fill="black"/>
<path d="M138.685 219.6C136.581 226.708 135.534 229.703 137.76 234.492C141.101 241.78 150.313 242.803 154.5 236.464C158.245 230.752 161.121 220.096 155.267 214.849C151.131 211.089 144.722 211.387 140.953 215.513C139.887 216.68 139.111 218.079 138.685 219.6Z" fill="#CE7A63"/>
<path d="M147.24 227.961C147.04 228.529 147.17 229.093 147.544 229.23C147.916 229.368 148.384 229.015 148.584 228.448C148.785 227.881 148.662 227.318 148.289 227.18C147.915 227.043 147.448 227.395 147.24 227.961Z" fill="#263238"/>
<path d="M153.658 230.284C153.45 230.851 153.587 231.423 153.954 231.554C154.321 231.683 154.794 231.339 155.003 230.772C155.211 230.206 155.073 229.641 154.707 229.504C154.341 229.367 153.867 229.718 153.658 230.284Z" fill="#263238"/>
<path d="M150.785 229.365C150.821 230.839 151.058 232.301 151.489 233.711C150.753 233.918 149.963 233.79 149.33 233.36L150.785 229.365Z" fill="#BA4D3C"/>
<path d="M146.488 222.954C146.561 223.089 146.713 223.164 146.866 223.138C148.497 222.892 149.985 224.407 149.995 224.421C150.13 224.563 150.356 224.567 150.499 224.432C150.641 224.297 150.647 224.071 150.511 223.929C150.423 223.886 148.753 222.132 146.763 222.428C146.57 222.46 146.438 222.64 146.464 222.833C146.463 222.875 146.471 222.916 146.488 222.954Z" fill="#263238"/>
<path d="M157.256 227.539C157.376 227.579 157.509 227.554 157.607 227.473C157.751 227.345 157.769 227.124 157.645 226.975C156.927 226.078 155.816 225.587 154.667 225.657C154.471 225.681 154.33 225.858 154.354 226.054C154.378 226.249 154.556 226.389 154.752 226.366C155.661 226.327 156.533 226.725 157.096 227.437C157.142 227.483 157.195 227.517 157.256 227.539Z" fill="#263238"/>
<path d="M137.299 223.746C137.299 223.746 139.971 223.683 139.597 220.64C139.597 220.64 144.018 220.516 144.205 217.284C144.205 217.284 148.066 220.701 149.436 218.029C149.436 218.029 154.169 222.255 154.792 219.459C154.792 219.459 159.712 225.547 159.463 221.82C159.463 221.82 165.005 221.261 160.023 216.477C160.023 216.477 164.57 212.501 157.221 210.885C157.221 210.885 157.864 206.171 152.69 208.246C152.69 208.246 151.492 203.121 147.008 206.103C147.008 206.103 144.586 202.5 141.936 207.345C141.936 207.345 138.027 205.111 136.782 210.144C136.782 210.144 129.707 211.003 132.626 215.639C132.626 215.639 134.809 231.212 136.782 231.212C138.124 231.212 137.299 223.746 137.299 223.746Z" fill="#263238"/>
<path d="M147.329 235.591C147.58 235.664 147.836 235.716 148.096 235.745C148.179 235.759 148.259 235.703 148.273 235.62C148.273 235.618 148.273 235.617 148.274 235.615C148.28 235.528 148.216 235.454 148.13 235.444C146.8 235.302 145.617 234.539 144.941 233.388C144.903 233.311 144.81 233.279 144.732 233.317C144.655 233.354 144.623 233.447 144.66 233.525C145.234 234.543 146.196 235.289 147.329 235.591Z" fill="#263238"/>
<path d="M194.378 305.182H166.102C164.769 305.182 163.689 304.104 163.689 302.775H196.792C196.791 304.104 195.711 305.182 194.378 305.182Z" fill="#263238"/>
<path opacity="0.2" d="M194.378 305.182H166.102C164.769 305.182 163.689 304.104 163.689 302.775H196.792C196.791 304.104 195.711 305.182 194.378 305.182Z" fill="white"/>
<path d="M173.563 305.182H153.022C151.689 305.182 150.609 304.104 150.609 302.775H175.976C175.976 304.104 174.896 305.182 173.563 305.182Z" fill="#263238"/>
<path opacity="0.5" d="M173.563 305.182H153.022C151.689 305.182 150.609 304.104 150.609 302.775H175.976C175.976 304.104 174.896 305.182 173.563 305.182Z" fill="white"/>
<path d="M194.578 304.447H175.966C175.573 304.447 175.297 304.059 175.427 303.688L183.706 280.093C183.934 279.442 184.548 279.008 185.239 279.008H203.852C204.245 279.008 204.521 279.396 204.391 279.766L196.112 303.361C195.883 304.011 195.269 304.447 194.578 304.447Z" fill="#263238"/>
<path opacity="0.5" d="M194.578 304.447H175.966C175.573 304.447 175.297 304.059 175.427 303.688L183.706 280.093C183.934 279.442 184.548 279.008 185.239 279.008H203.852C204.245 279.008 204.521 279.396 204.391 279.766L196.112 303.361C195.883 304.011 195.269 304.447 194.578 304.447Z" fill="white"/>
<path d="M195.306 304.447H176.693C176.3 304.447 176.024 304.059 176.154 303.688L184.432 280.093C184.66 279.442 185.276 279.008 185.966 279.008H204.577C204.971 279.008 205.246 279.396 205.116 279.766L196.838 303.361C196.611 304.011 195.996 304.447 195.306 304.447Z" fill="#263238"/>
<path opacity="0.7" d="M195.306 304.447H176.693C176.3 304.447 176.024 304.059 176.154 303.688L184.432 280.093C184.66 279.442 185.276 279.008 185.966 279.008H204.577C204.971 279.008 205.246 279.396 205.116 279.766L196.838 303.361C196.611 304.011 195.996 304.447 195.306 304.447Z" fill="white"/>
<path d="M192.213 291.726C192.021 292.63 191.394 293.362 190.814 293.362C190.233 293.362 189.919 292.63 190.111 291.726C190.304 290.822 190.931 290.09 191.511 290.09C192.092 290.089 192.406 290.822 192.213 291.726Z" fill="white"/>
<path opacity="0.3" d="M138.667 218.013C138.667 218.013 137.242 218.725 136.245 218.013C135.247 217.301 136.519 215.312 136.519 215.312C133.992 216.782 132.625 215.638 132.625 215.638C132.625 215.638 134.808 231.211 136.781 231.211C138.124 231.211 137.299 223.745 137.299 223.745C137.299 223.745 139.971 223.683 139.597 220.639C137.203 220.183 138.667 218.013 138.667 218.013Z" fill="white"/>
<path d="M157.689 228.323C157.417 227.502 156.871 226.904 156.15 226.642C154.753 226.132 153.114 227.065 152.375 228.731L151.008 228.178C151.151 227.464 151.095 226.733 150.821 226.071C150.472 225.227 149.825 224.597 149.001 224.295C147.547 223.764 145.924 224.423 145.067 225.78L143.317 225.076L138.663 222.504L138.387 223.002L143.073 225.588L144.807 226.288C144.775 226.361 144.733 226.426 144.706 226.502C144.38 227.389 144.392 228.34 144.74 229.18C145.089 230.024 145.735 230.654 146.559 230.956C146.9 231.081 147.255 231.142 147.61 231.142C148.114 231.142 148.621 231.018 149.097 230.773C149.906 230.355 150.531 229.636 150.856 228.75C150.858 228.745 150.858 228.739 150.861 228.733L152.178 229.266C151.94 230.067 151.927 230.892 152.168 231.62C152.441 232.441 152.987 233.038 153.707 233.301C153.968 233.397 154.241 233.443 154.517 233.443C155.002 233.443 155.5 233.298 155.971 233.009C156.701 232.564 157.28 231.833 157.605 230.949C157.926 230.065 157.958 229.133 157.689 228.323ZM148.964 230.519C148.223 230.901 147.403 230.96 146.655 230.687C145.907 230.414 145.32 229.84 145.001 229.07C144.681 228.297 144.67 227.419 144.971 226.598C145.467 225.25 146.693 224.394 147.956 224.394C148.273 224.394 148.593 224.448 148.904 224.561C149.652 224.834 150.239 225.409 150.559 226.179C150.879 226.952 150.889 227.83 150.588 228.65C150.286 229.473 149.709 230.135 148.964 230.519ZM157.335 230.85C157.031 231.673 156.494 232.355 155.82 232.766C155.156 233.173 154.441 233.266 153.803 233.034C153.166 232.801 152.681 232.267 152.436 231.53C152.188 230.782 152.217 229.916 152.519 229.093C153.032 227.697 154.204 226.786 155.344 226.786C155.584 226.786 155.821 226.826 156.051 226.91C156.688 227.142 157.173 227.677 157.418 228.414C157.666 229.161 157.638 230.027 157.335 230.85Z" fill="#7970FF"/>
<path opacity="0.5" d="M157.689 228.323C157.417 227.502 156.871 226.904 156.15 226.642C154.753 226.132 153.114 227.065 152.375 228.731L151.008 228.178C151.151 227.464 151.095 226.733 150.821 226.071C150.472 225.227 149.825 224.597 149.001 224.295C147.547 223.764 145.924 224.423 145.067 225.78L143.317 225.076L138.663 222.504L138.387 223.002L143.073 225.588L144.807 226.288C144.775 226.361 144.733 226.426 144.706 226.502C144.38 227.389 144.392 228.34 144.74 229.18C145.089 230.024 145.735 230.654 146.559 230.956C146.9 231.081 147.255 231.142 147.61 231.142C148.114 231.142 148.621 231.018 149.097 230.773C149.906 230.355 150.531 229.636 150.856 228.75C150.858 228.745 150.858 228.739 150.861 228.733L152.178 229.266C151.94 230.067 151.927 230.892 152.168 231.62C152.441 232.441 152.987 233.038 153.707 233.301C153.968 233.397 154.241 233.443 154.517 233.443C155.002 233.443 155.5 233.298 155.971 233.009C156.701 232.564 157.28 231.833 157.605 230.949C157.926 230.065 157.958 229.133 157.689 228.323ZM148.964 230.519C148.223 230.901 147.403 230.96 146.655 230.687C145.907 230.414 145.32 229.84 145.001 229.07C144.681 228.297 144.67 227.419 144.971 226.598C145.467 225.25 146.693 224.394 147.956 224.394C148.273 224.394 148.593 224.448 148.904 224.561C149.652 224.834 150.239 225.409 150.559 226.179C150.879 226.952 150.889 227.83 150.588 228.65C150.286 229.473 149.709 230.135 148.964 230.519ZM157.335 230.85C157.031 231.673 156.494 232.355 155.82 232.766C155.156 233.173 154.441 233.266 153.803 233.034C153.166 232.801 152.681 232.267 152.436 231.53C152.188 230.782 152.217 229.916 152.519 229.093C153.032 227.697 154.204 226.786 155.344 226.786C155.584 226.786 155.821 226.826 156.051 226.91C156.688 227.142 157.173 227.677 157.418 228.414C157.666 229.161 157.638 230.027 157.335 230.85Z" fill="white"/>
<path d="M134.862 224.475C134.905 225.909 135.518 227.267 136.565 228.251C137.954 229.548 139.54 228.513 139.865 226.745C140.167 225.155 139.816 222.566 138.068 221.944C136.792 221.515 135.408 222.201 134.978 223.475C134.871 223.797 134.831 224.137 134.862 224.475Z" fill="#CE7A63"/>
</svg>
